<svg width="361" height="519" viewBox="0 0 361 519" fill="none" xmlns="http://www.w3.org/2000/svg">
<g filter="url(#filter0_d_391_17)">
<path fill-rule="evenodd" clip-rule="evenodd" d="M12 17C12 8.71571 18.7157 2 27 2H334C342.284 2 349 8.71573 349 17V229C337.954 229 329 237.954 329 249C329 260.046 337.954 269 349 269V482C349 490.284 342.284 497 334 497H27C18.7157 497 12 490.284 12 482V269C23.0457 269 32 260.046 32 249C32 237.954 23.0457 229 12 229V17ZM70.28 46H84.08C87.2 46 89.9467 46.5733 92.32 47.72C94.72 48.84 96.5733 50.4533 97.88 52.56C99.2133 54.6667 99.88 57.1467 99.88 60C99.88 62.8533 99.2133 65.3333 97.88 67.44C96.5733 69.5467 94.72 71.1733 92.32 72.32C89.9467 73.44 87.2 74 84.08 74H70.28V46ZM83.68 66.64C85.7067 66.64 87.32 66.0667 88.52 64.92C89.7467 63.7467 90.36 62.1067 90.36 60C90.36 57.8933 89.7467 56.2667 88.52 55.12C87.32 53.9467 85.7067 53.36 83.68 53.36H79.72V66.64H83.68ZM112.847 51.72C116.687 51.72 119.62 52.5867 121.647 54.32C123.674 56.0267 124.687 58.6667 124.687 62.24V74H116.287V71.12C115.247 73.3067 113.18 74.4 110.087 74.4C108.354 74.4 106.874 74.1067 105.647 73.52C104.447 72.9067 103.527 72.0933 102.887 71.08C102.274 70.04 101.967 68.88 101.967 67.6C101.967 65.44 102.794 63.8 104.447 62.68C106.1 61.56 108.607 61 111.967 61H115.607C115.314 59.2933 113.94 58.44 111.487 58.44C110.5 58.44 109.5 58.6 108.487 58.92C107.474 59.2133 106.607 59.6267 105.887 60.16L103.007 54.2C104.26 53.4267 105.767 52.8267 107.527 52.4C109.314 51.9467 111.087 51.72 112.847 51.72ZM112.807 68.96C113.447 68.96 114.02 68.7867 114.527 68.44C115.034 68.0933 115.407 67.5733 115.647 66.88V65.36H113.407C111.567 65.36 110.647 65.9733 110.647 67.2C110.647 67.7067 110.834 68.1333 111.207 68.48C111.607 68.8 112.14 68.96 112.807 68.96ZM152.563 52.12L143.563 74.44C142.416 77.2933 140.99 79.2933 139.283 80.44C137.576 81.5867 135.483 82.16 133.003 82.16C131.776 82.16 130.536 81.9733 129.283 81.6C128.056 81.2533 127.083 80.7867 126.363 80.2L129.363 74C129.816 74.3467 130.323 74.6267 130.883 74.84C131.47 75.0533 132.03 75.16 132.563 75.16C133.55 75.16 134.296 74.8667 134.803 74.28L125.603 52.12H134.883L139.403 63.84L144.003 52.12H152.563ZM178.378 74H168.938V53.12H164.137V46H178.378V74ZM53 336C56.3137 336 59 333.314 59 330C59 327.027 56.8377 324.559 54 324.083V246.917C56.8377 246.441 59 243.973 59 241C59 238.027 56.8377 235.559 54 235.083V142.917C56.8377 142.441 59 139.973 59 137C59 133.686 56.3137 131 53 131C49.6863 131 47 133.686 47 137C47 139.973 49.1623 142.441 52 142.917V235.083C49.1623 235.559 47 238.027 47 241C47 243.973 49.1623 246.441 52 246.917V324.083C49.1623 324.559 47 327.027 47 330C47 333.314 49.6863 336 53 336Z" fill="#0B32A4"/>
<path d="M73.852 128.456V148H69.932V128.456H73.852ZM86.321 132.264C88.169 132.264 89.6623 132.852 90.801 134.028C91.9396 135.185 92.509 136.809 92.509 138.9V148H88.589V139.432C88.589 138.2 88.281 137.257 87.665 136.604C87.049 135.932 86.209 135.596 85.145 135.596C84.0623 135.596 83.2036 135.932 82.569 136.604C81.953 137.257 81.645 138.2 81.645 139.432V148H77.725V132.488H81.645V134.42C82.1676 133.748 82.8303 133.225 83.633 132.852C84.4543 132.46 85.3503 132.264 86.321 132.264ZM95.2287 140.188C95.2287 138.62 95.5367 137.229 96.1527 136.016C96.7874 134.803 97.6367 133.869 98.7007 133.216C99.7834 132.563 100.987 132.236 102.313 132.236C103.47 132.236 104.478 132.469 105.337 132.936C106.214 133.403 106.914 133.991 107.437 134.7V132.488H111.385V148H107.437V145.732C106.933 146.46 106.233 147.067 105.337 147.552C104.459 148.019 103.442 148.252 102.285 148.252C100.978 148.252 99.7834 147.916 98.7007 147.244C97.6367 146.572 96.7874 145.629 96.1527 144.416C95.5367 143.184 95.2287 141.775 95.2287 140.188ZM107.437 140.244C107.437 139.292 107.25 138.48 106.877 137.808C106.503 137.117 105.999 136.595 105.365 136.24C104.73 135.867 104.049 135.68 103.321 135.68C102.593 135.68 101.921 135.857 101.305 136.212C100.689 136.567 100.185 137.089 99.7927 137.78C99.4194 138.452 99.2327 139.255 99.2327 140.188C99.2327 141.121 99.4194 141.943 99.7927 142.652C100.185 143.343 100.689 143.875 101.305 144.248C101.939 144.621 102.611 144.808 103.321 144.808C104.049 144.808 104.73 144.631 105.365 144.276C105.999 143.903 106.503 143.38 106.877 142.708C107.25 142.017 107.437 141.196 107.437 140.244ZM129.857 132.488V148H125.909V146.04C125.405 146.712 124.743 147.244 123.921 147.636C123.119 148.009 122.241 148.196 121.289 148.196C120.076 148.196 119.003 147.944 118.069 147.44C117.136 146.917 116.399 146.161 115.857 145.172C115.335 144.164 115.073 142.969 115.073 141.588V132.488H118.993V141.028C118.993 142.26 119.301 143.212 119.917 143.884C120.533 144.537 121.373 144.864 122.437 144.864C123.52 144.864 124.369 144.537 124.985 143.884C125.601 143.212 125.909 142.26 125.909 141.028V132.488H129.857ZM139.801 132.236C140.958 132.236 141.976 132.469 142.853 132.936C143.73 133.384 144.421 133.972 144.925 134.7V132.488H148.873V148.112C148.873 149.549 148.584 150.828 148.005 151.948C147.426 153.087 146.558 153.983 145.401 154.636C144.244 155.308 142.844 155.644 141.201 155.644C138.998 155.644 137.188 155.131 135.769 154.104C134.369 153.077 133.576 151.677 133.389 149.904H137.281C137.486 150.613 137.925 151.173 138.597 151.584C139.288 152.013 140.118 152.228 141.089 152.228C142.228 152.228 143.152 151.883 143.861 151.192C144.57 150.52 144.925 149.493 144.925 148.112V145.704C144.421 146.432 143.721 147.039 142.825 147.524C141.948 148.009 140.94 148.252 139.801 148.252C138.494 148.252 137.3 147.916 136.217 147.244C135.134 146.572 134.276 145.629 133.641 144.416C133.025 143.184 132.717 141.775 132.717 140.188C132.717 138.62 133.025 137.229 133.641 136.016C134.276 134.803 135.125 133.869 136.189 133.216C137.272 132.563 138.476 132.236 139.801 132.236ZM144.925 140.244C144.925 139.292 144.738 138.48 144.365 137.808C143.992 137.117 143.488 136.595 142.853 136.24C142.218 135.867 141.537 135.68 140.809 135.68C140.081 135.68 139.409 135.857 138.793 136.212C138.177 136.567 137.673 137.089 137.281 137.78C136.908 138.452 136.721 139.255 136.721 140.188C136.721 141.121 136.908 141.943 137.281 142.652C137.673 143.343 138.177 143.875 138.793 144.248C139.428 144.621 140.1 144.808 140.809 144.808C141.537 144.808 142.218 144.631 142.853 144.276C143.488 143.903 143.992 143.38 144.365 142.708C144.738 142.017 144.925 141.196 144.925 140.244ZM167.346 132.488V148H163.398V146.04C162.894 146.712 162.231 147.244 161.41 147.636C160.607 148.009 159.73 148.196 158.778 148.196C157.564 148.196 156.491 147.944 155.558 147.44C154.624 146.917 153.887 146.161 153.346 145.172C152.823 144.164 152.562 142.969 152.562 141.588V132.488H156.482V141.028C156.482 142.26 156.79 143.212 157.406 143.884C158.022 144.537 158.862 144.864 159.926 144.864C161.008 144.864 161.858 144.537 162.474 143.884C163.09 143.212 163.398 142.26 163.398 141.028V132.488H167.346ZM175.133 134.896C175.637 134.075 176.291 133.431 177.093 132.964C177.915 132.497 178.848 132.264 179.893 132.264V136.38H178.857C177.625 136.38 176.692 136.669 176.057 137.248C175.441 137.827 175.133 138.835 175.133 140.272V148H171.213V132.488H175.133V134.896ZM181.526 140.188C181.526 138.62 181.834 137.229 182.45 136.016C183.084 134.803 183.934 133.869 184.998 133.216C186.08 132.563 187.284 132.236 188.61 132.236C189.767 132.236 190.775 132.469 191.634 132.936C192.511 133.403 193.211 133.991 193.734 134.7V132.488H197.682V148H193.734V145.732C193.23 146.46 192.53 147.067 191.634 147.552C190.756 148.019 189.739 148.252 188.582 148.252C187.275 148.252 186.08 147.916 184.998 147.244C183.934 146.572 183.084 145.629 182.45 144.416C181.834 143.184 181.526 141.775 181.526 140.188ZM193.734 140.244C193.734 139.292 193.547 138.48 193.174 137.808C192.8 137.117 192.296 136.595 191.662 136.24C191.027 135.867 190.346 135.68 189.618 135.68C188.89 135.68 188.218 135.857 187.602 136.212C186.986 136.567 186.482 137.089 186.09 137.78C185.716 138.452 185.53 139.255 185.53 140.188C185.53 141.121 185.716 141.943 186.09 142.652C186.482 143.343 186.986 143.875 187.602 144.248C188.236 144.621 188.908 144.808 189.618 144.808C190.346 144.808 191.027 144.631 191.662 144.276C192.296 143.903 192.8 143.38 193.174 142.708C193.547 142.017 193.734 141.196 193.734 140.244ZM206.074 135.708V143.212C206.074 143.735 206.195 144.117 206.438 144.36C206.699 144.584 207.129 144.696 207.726 144.696H209.546V148H207.082C203.778 148 202.126 146.395 202.126 143.184V135.708H200.278V132.488H202.126V128.652H206.074V132.488H209.546V135.708H206.074ZM214.354 130.64C213.663 130.64 213.084 130.425 212.618 129.996C212.17 129.548 211.946 128.997 211.946 128.344C211.946 127.691 212.17 127.149 212.618 126.72C213.084 126.272 213.663 126.048 214.354 126.048C215.044 126.048 215.614 126.272 216.062 126.72C216.528 127.149 216.762 127.691 216.762 128.344C216.762 128.997 216.528 129.548 216.062 129.996C215.614 130.425 215.044 130.64 214.354 130.64ZM216.286 132.488V148H212.366V132.488H216.286ZM227.047 148.252C225.553 148.252 224.209 147.925 223.015 147.272C221.82 146.6 220.877 145.657 220.187 144.444C219.515 143.231 219.179 141.831 219.179 140.244C219.179 138.657 219.524 137.257 220.215 136.044C220.924 134.831 221.885 133.897 223.099 133.244C224.312 132.572 225.665 132.236 227.159 132.236C228.652 132.236 230.005 132.572 231.219 133.244C232.432 133.897 233.384 134.831 234.075 136.044C234.784 137.257 235.139 138.657 235.139 140.244C235.139 141.831 234.775 143.231 234.047 144.444C233.337 145.657 232.367 146.6 231.135 147.272C229.921 147.925 228.559 148.252 227.047 148.252ZM227.047 144.836C227.756 144.836 228.419 144.668 229.035 144.332C229.669 143.977 230.173 143.455 230.547 142.764C230.92 142.073 231.107 141.233 231.107 140.244C231.107 138.769 230.715 137.64 229.931 136.856C229.165 136.053 228.223 135.652 227.103 135.652C225.983 135.652 225.04 136.053 224.275 136.856C223.528 137.64 223.155 138.769 223.155 140.244C223.155 141.719 223.519 142.857 224.247 143.66C224.993 144.444 225.927 144.836 227.047 144.836ZM246.61 132.264C248.458 132.264 249.951 132.852 251.09 134.028C252.229 135.185 252.798 136.809 252.798 138.9V148H248.878V139.432C248.878 138.2 248.57 137.257 247.954 136.604C247.338 135.932 246.498 135.596 245.434 135.596C244.351 135.596 243.493 135.932 242.858 136.604C242.242 137.257 241.934 138.2 241.934 139.432V148H238.014V132.488H241.934V134.42C242.457 133.748 243.119 133.225 243.922 132.852C244.743 132.46 245.639 132.264 246.61 132.264Z" fill="white"/>
<path d="M76.145 160.88H71.285V163.445C71.495 163.185 71.795 162.975 72.185 162.815C72.575 162.645 72.99 162.56 73.43 162.56C74.23 162.56 74.885 162.735 75.395 163.085C75.905 163.435 76.275 163.885 76.505 164.435C76.735 164.975 76.85 165.555 76.85 166.175C76.85 167.325 76.52 168.25 75.86 168.95C75.21 169.65 74.28 170 73.07 170C71.93 170 71.02 169.715 70.34 169.145C69.66 168.575 69.275 167.83 69.185 166.91H71.225C71.315 167.31 71.515 167.63 71.825 167.87C72.145 168.11 72.55 168.23 73.04 168.23C73.63 168.23 74.075 168.045 74.375 167.675C74.675 167.305 74.825 166.815 74.825 166.205C74.825 165.585 74.67 165.115 74.36 164.795C74.06 164.465 73.615 164.3 73.025 164.3C72.605 164.3 72.255 164.405 71.975 164.615C71.695 164.825 71.495 165.105 71.375 165.455H69.365V159.035H76.145V160.88ZM79.6183 170.105C79.2383 170.105 78.9233 169.99 78.6733 169.76C78.4333 169.52 78.3133 169.225 78.3133 168.875C78.3133 168.525 78.4333 168.235 78.6733 168.005C78.9233 167.765 79.2383 167.645 79.6183 167.645C79.9883 167.645 80.2933 167.765 80.5333 168.005C80.7733 168.235 80.8933 168.525 80.8933 168.875C80.8933 169.225 80.7733 169.52 80.5333 169.76C80.2933 169.99 79.9883 170.105 79.6183 170.105ZM79.6183 163.895C79.2383 163.895 78.9233 163.78 78.6733 163.55C78.4333 163.31 78.3133 163.015 78.3133 162.665C78.3133 162.315 78.4333 162.025 78.6733 161.795C78.9233 161.555 79.2383 161.435 79.6183 161.435C79.9883 161.435 80.2933 161.555 80.5333 161.795C80.7733 162.025 80.8933 162.315 80.8933 162.665C80.8933 163.015 80.7733 163.31 80.5333 163.55C80.2933 163.78 79.9883 163.895 79.6183 163.895ZM82.3888 164.39C82.3888 162.66 82.6988 161.305 83.3188 160.325C83.9488 159.345 84.9888 158.855 86.4388 158.855C87.8888 158.855 88.9238 159.345 89.5438 160.325C90.1738 161.305 90.4888 162.66 90.4888 164.39C90.4888 166.13 90.1738 167.495 89.5438 168.485C88.9238 169.475 87.8888 169.97 86.4388 169.97C84.9888 169.97 83.9488 169.475 83.3188 168.485C82.6988 167.495 82.3888 166.13 82.3888 164.39ZM88.4188 164.39C88.4188 163.65 88.3688 163.03 88.2688 162.53C88.1788 162.02 87.9888 161.605 87.6988 161.285C87.4188 160.965 86.9988 160.805 86.4388 160.805C85.8788 160.805 85.4538 160.965 85.1638 161.285C84.8838 161.605 84.6938 162.02 84.5938 162.53C84.5038 163.03 84.4588 163.65 84.4588 164.39C84.4588 165.15 84.5038 165.79 84.5938 166.31C84.6838 166.82 84.8738 167.235 85.1638 167.555C85.4538 167.865 85.8788 168.02 86.4388 168.02C86.9988 168.02 87.4238 167.865 87.7138 167.555C88.0038 167.235 88.1938 166.82 88.2838 166.31C88.3738 165.79 88.4188 165.15 88.4188 164.39ZM92.086 164.39C92.086 162.66 92.396 161.305 93.016 160.325C93.646 159.345 94.686 158.855 96.136 158.855C97.586 158.855 98.621 159.345 99.241 160.325C99.871 161.305 100.186 162.66 100.186 164.39C100.186 166.13 99.871 167.495 99.241 168.485C98.621 169.475 97.586 169.97 96.136 169.97C94.686 169.97 93.646 169.475 93.016 168.485C92.396 167.495 92.086 166.13 92.086 164.39ZM98.116 164.39C98.116 163.65 98.066 163.03 97.966 162.53C97.876 162.02 97.686 161.605 97.396 161.285C97.116 160.965 96.696 160.805 96.136 160.805C95.576 160.805 95.151 160.965 94.861 161.285C94.581 161.605 94.391 162.02 94.291 162.53C94.201 163.03 94.156 163.65 94.156 164.39C94.156 165.15 94.201 165.79 94.291 166.31C94.381 166.82 94.571 167.235 94.861 167.555C95.151 167.865 95.576 168.02 96.136 168.02C96.696 168.02 97.121 167.865 97.411 167.555C97.701 167.235 97.891 166.82 97.981 166.31C98.071 165.79 98.116 165.15 98.116 164.39ZM107.698 162.89C107.968 162.51 108.338 162.195 108.808 161.945C109.288 161.685 109.833 161.555 110.443 161.555C111.153 161.555 111.793 161.73 112.363 162.08C112.943 162.43 113.398 162.93 113.728 163.58C114.068 164.22 114.238 164.965 114.238 165.815C114.238 166.665 114.068 167.42 113.728 168.08C113.398 168.73 112.943 169.235 112.363 169.595C111.793 169.955 111.153 170.135 110.443 170.135C109.833 170.135 109.293 170.01 108.823 169.76C108.363 169.51 107.988 169.195 107.698 168.815V173.96H105.598V161.69H107.698V162.89ZM112.093 165.815C112.093 165.315 111.988 164.885 111.778 164.525C111.578 164.155 111.308 163.875 110.968 163.685C110.638 163.495 110.278 163.4 109.888 163.4C109.508 163.4 109.148 163.5 108.808 163.7C108.478 163.89 108.208 164.17 107.998 164.54C107.798 164.91 107.698 165.345 107.698 165.845C107.698 166.345 107.798 166.78 107.998 167.15C108.208 167.52 108.478 167.805 108.808 168.005C109.148 168.195 109.508 168.29 109.888 168.29C110.278 168.29 110.638 168.19 110.968 167.99C111.308 167.79 111.578 167.505 111.778 167.135C111.988 166.765 112.093 166.325 112.093 165.815ZM126.084 161.57C127.104 161.57 127.924 161.885 128.544 162.515C129.174 163.135 129.489 164.005 129.489 165.125V170H127.389V165.41C127.389 164.76 127.224 164.265 126.894 163.925C126.564 163.575 126.114 163.4 125.544 163.4C124.974 163.4 124.519 163.575 124.179 163.925C123.849 164.265 123.684 164.76 123.684 165.41V170H121.584V165.41C121.584 164.76 121.419 164.265 121.089 163.925C120.759 163.575 120.309 163.4 119.739 163.4C119.159 163.4 118.699 163.575 118.359 163.925C118.029 164.265 117.864 164.76 117.864 165.41V170H115.764V161.69H117.864V162.695C118.134 162.345 118.479 162.07 118.899 161.87C119.329 161.67 119.799 161.57 120.309 161.57C120.959 161.57 121.539 161.71 122.049 161.99C122.559 162.26 122.954 162.65 123.234 163.16C123.504 162.68 123.894 162.295 124.404 162.005C124.924 161.715 125.484 161.57 126.084 161.57ZM141.446 163.76V165.53H135.086V163.76H141.446ZM152.805 161.795C152.705 161.375 152.53 161.06 152.28 160.85C152.04 160.64 151.69 160.535 151.23 160.535C150.54 160.535 150.03 160.815 149.7 161.375C149.38 161.925 149.215 162.825 149.205 164.075C149.445 163.675 149.795 163.365 150.255 163.145C150.715 162.915 151.215 162.8 151.755 162.8C152.405 162.8 152.98 162.94 153.48 163.22C153.98 163.5 154.37 163.91 154.65 164.45C154.93 164.98 155.07 165.62 155.07 166.37C155.07 167.08 154.925 167.715 154.635 168.275C154.355 168.825 153.94 169.255 153.39 169.565C152.84 169.875 152.185 170.03 151.425 170.03C150.385 170.03 149.565 169.8 148.965 169.34C148.375 168.88 147.96 168.24 147.72 167.42C147.49 166.59 147.375 165.57 147.375 164.36C147.375 162.53 147.69 161.15 148.32 160.22C148.95 159.28 149.945 158.81 151.305 158.81C152.355 158.81 153.17 159.095 153.75 159.665C154.33 160.235 154.665 160.945 154.755 161.795H152.805ZM151.275 164.525C150.745 164.525 150.3 164.68 149.94 164.99C149.58 165.3 149.4 165.75 149.4 166.34C149.4 166.93 149.565 167.395 149.895 167.735C150.235 168.075 150.71 168.245 151.32 168.245C151.86 168.245 152.285 168.08 152.595 167.75C152.915 167.42 153.075 166.975 153.075 166.415C153.075 165.835 152.92 165.375 152.61 165.035C152.31 164.695 151.865 164.525 151.275 164.525ZM157.9 170.105C157.52 170.105 157.205 169.99 156.955 169.76C156.715 169.52 156.595 169.225 156.595 168.875C156.595 168.525 156.715 168.235 156.955 168.005C157.205 167.765 157.52 167.645 157.9 167.645C158.27 167.645 158.575 167.765 158.815 168.005C159.055 168.235 159.175 168.525 159.175 168.875C159.175 169.225 159.055 169.52 158.815 169.76C158.575 169.99 158.27 170.105 157.9 170.105ZM157.9 163.895C157.52 163.895 157.205 163.78 156.955 163.55C156.715 163.31 156.595 163.015 156.595 162.665C156.595 162.315 156.715 162.025 156.955 161.795C157.205 161.555 157.52 161.435 157.9 161.435C158.27 161.435 158.575 161.555 158.815 161.795C159.055 162.025 159.175 162.315 159.175 162.665C159.175 163.015 159.055 163.31 158.815 163.55C158.575 163.78 158.27 163.895 157.9 163.895ZM160.67 164.39C160.67 162.66 160.98 161.305 161.6 160.325C162.23 159.345 163.27 158.855 164.72 158.855C166.17 158.855 167.205 159.345 167.825 160.325C168.455 161.305 168.77 162.66 168.77 164.39C168.77 166.13 168.455 167.495 167.825 168.485C167.205 169.475 166.17 169.97 164.72 169.97C163.27 169.97 162.23 169.475 161.6 168.485C160.98 167.495 160.67 166.13 160.67 164.39ZM166.7 164.39C166.7 163.65 166.65 163.03 166.55 162.53C166.46 162.02 166.27 161.605 165.98 161.285C165.7 160.965 165.28 160.805 164.72 160.805C164.16 160.805 163.735 160.965 163.445 161.285C163.165 161.605 162.975 162.02 162.875 162.53C162.785 163.03 162.74 163.65 162.74 164.39C162.74 165.15 162.785 165.79 162.875 166.31C162.965 166.82 163.155 167.235 163.445 167.555C163.735 167.865 164.16 168.02 164.72 168.02C165.28 168.02 165.705 167.865 165.995 167.555C166.285 167.235 166.475 166.82 166.565 166.31C166.655 165.79 166.7 165.15 166.7 164.39ZM170.367 164.39C170.367 162.66 170.677 161.305 171.297 160.325C171.927 159.345 172.967 158.855 174.417 158.855C175.867 158.855 176.902 159.345 177.522 160.325C178.152 161.305 178.467 162.66 178.467 164.39C178.467 166.13 178.152 167.495 177.522 168.485C176.902 169.475 175.867 169.97 174.417 169.97C172.967 169.97 171.927 169.475 171.297 168.485C170.677 167.495 170.367 166.13 170.367 164.39ZM176.397 164.39C176.397 163.65 176.347 163.03 176.247 162.53C176.157 162.02 175.967 161.605 175.677 161.285C175.397 160.965 174.977 160.805 174.417 160.805C173.857 160.805 173.432 160.965 173.142 161.285C172.862 161.605 172.672 162.02 172.572 162.53C172.482 163.03 172.437 163.65 172.437 164.39C172.437 165.15 172.482 165.79 172.572 166.31C172.662 166.82 172.852 167.235 173.142 167.555C173.432 167.865 173.857 168.02 174.417 168.02C174.977 168.02 175.402 167.865 175.692 167.555C175.982 167.235 176.172 166.82 176.262 166.31C176.352 165.79 176.397 165.15 176.397 164.39ZM185.979 162.89C186.249 162.51 186.619 162.195 187.089 161.945C187.569 161.685 188.114 161.555 188.724 161.555C189.434 161.555 190.074 161.73 190.644 162.08C191.224 162.43 191.679 162.93 192.009 163.58C192.349 164.22 192.519 164.965 192.519 165.815C192.519 166.665 192.349 167.42 192.009 168.08C191.679 168.73 191.224 169.235 190.644 169.595C190.074 169.955 189.434 170.135 188.724 170.135C188.114 170.135 187.574 170.01 187.104 169.76C186.644 169.51 186.269 169.195 185.979 168.815V173.96H183.879V161.69H185.979V162.89ZM190.374 165.815C190.374 165.315 190.269 164.885 190.059 164.525C189.859 164.155 189.589 163.875 189.249 163.685C188.919 163.495 188.559 163.4 188.169 163.4C187.789 163.4 187.429 163.5 187.089 163.7C186.759 163.89 186.489 164.17 186.279 164.54C186.079 164.91 185.979 165.345 185.979 165.845C185.979 166.345 186.079 166.78 186.279 167.15C186.489 167.52 186.759 167.805 187.089 168.005C187.429 168.195 187.789 168.29 188.169 168.29C188.559 168.29 188.919 168.19 189.249 167.99C189.589 167.79 189.859 167.505 190.059 167.135C190.269 166.765 190.374 166.325 190.374 165.815ZM204.365 161.57C205.385 161.57 206.205 161.885 206.825 162.515C207.455 163.135 207.77 164.005 207.77 165.125V170H205.67V165.41C205.67 164.76 205.505 164.265 205.175 163.925C204.845 163.575 204.395 163.4 203.825 163.4C203.255 163.4 202.8 163.575 202.46 163.925C202.13 164.265 201.965 164.76 201.965 165.41V170H199.865V165.41C199.865 164.76 199.7 164.265 199.37 163.925C199.04 163.575 198.59 163.4 198.02 163.4C197.44 163.4 196.98 163.575 196.64 163.925C196.31 164.265 196.145 164.76 196.145 165.41V170H194.045V161.69H196.145V162.695C196.415 162.345 196.76 162.07 197.18 161.87C197.61 161.67 198.08 161.57 198.59 161.57C199.24 161.57 199.82 161.71 200.33 161.99C200.84 162.26 201.235 162.65 201.515 163.16C201.785 162.68 202.175 162.295 202.685 162.005C203.205 161.715 203.765 161.57 204.365 161.57Z" fill="white"/>
<path d="M83.54 237.336C83.092 236.515 82.476 235.889 81.692 235.46C80.908 235.031 79.9933 234.816 78.948 234.816C77.7907 234.816 76.764 235.077 75.868 235.6C74.972 236.123 74.272 236.869 73.768 237.84C73.264 238.811 73.012 239.931 73.012 241.2C73.012 242.507 73.264 243.645 73.768 244.616C74.2907 245.587 75.0093 246.333 75.924 246.856C76.8387 247.379 77.9027 247.64 79.116 247.64C80.6093 247.64 81.832 247.248 82.784 246.464C83.736 245.661 84.3613 244.551 84.66 243.132H77.94V240.136H88.524V243.552C88.2627 244.915 87.7027 246.175 86.844 247.332C85.9853 248.489 84.8747 249.423 83.512 250.132C82.168 250.823 80.656 251.168 78.976 251.168C77.0907 251.168 75.3827 250.748 73.852 249.908C72.34 249.049 71.1453 247.864 70.268 246.352C69.4093 244.84 68.98 243.123 68.98 241.2C68.98 239.277 69.4093 237.56 70.268 236.048C71.1453 234.517 72.34 233.332 73.852 232.492C75.3827 231.633 77.0813 231.204 78.948 231.204C81.1507 231.204 83.064 231.745 84.688 232.828C86.312 233.892 87.432 235.395 88.048 237.336H83.54ZM90.4162 243.188C90.4162 241.62 90.7242 240.229 91.3402 239.016C91.9749 237.803 92.8242 236.869 93.8882 236.216C94.9709 235.563 96.1749 235.236 97.5002 235.236C98.6575 235.236 99.6655 235.469 100.524 235.936C101.402 236.403 102.102 236.991 102.624 237.7V235.488H106.572V251H102.624V248.732C102.12 249.46 101.42 250.067 100.524 250.552C99.6469 251.019 98.6295 251.252 97.4722 251.252C96.1655 251.252 94.9709 250.916 93.8882 250.244C92.8242 249.572 91.9749 248.629 91.3402 247.416C90.7242 246.184 90.4162 244.775 90.4162 243.188ZM102.624 243.244C102.624 242.292 102.438 241.48 102.064 240.808C101.691 240.117 101.187 239.595 100.552 239.24C99.9175 238.867 99.2362 238.68 98.5082 238.68C97.7802 238.68 97.1082 238.857 96.4922 239.212C95.8762 239.567 95.3722 240.089 94.9802 240.78C94.6069 241.452 94.4202 242.255 94.4202 243.188C94.4202 244.121 94.6069 244.943 94.9802 245.652C95.3722 246.343 95.8762 246.875 96.4922 247.248C97.1269 247.621 97.7989 247.808 98.5082 247.808C99.2362 247.808 99.9175 247.631 100.552 247.276C101.187 246.903 101.691 246.38 102.064 245.708C102.438 245.017 102.624 244.196 102.624 243.244ZM129.665 235.264C131.569 235.264 133.099 235.852 134.257 237.028C135.433 238.185 136.021 239.809 136.021 241.9V251H132.101V242.432C132.101 241.219 131.793 240.295 131.177 239.66C130.561 239.007 129.721 238.68 128.657 238.68C127.593 238.68 126.743 239.007 126.109 239.66C125.493 240.295 125.185 241.219 125.185 242.432V251H121.265V242.432C121.265 241.219 120.957 240.295 120.341 239.66C119.725 239.007 118.885 238.68 117.821 238.68C116.738 238.68 115.879 239.007 115.245 239.66C114.629 240.295 114.321 241.219 114.321 242.432V251H110.401V235.488H114.321V237.364C114.825 236.711 115.469 236.197 116.253 235.824C117.055 235.451 117.933 235.264 118.885 235.264C120.098 235.264 121.181 235.525 122.133 236.048C123.085 236.552 123.822 237.28 124.345 238.232C124.849 237.336 125.577 236.617 126.529 236.076C127.499 235.535 128.545 235.264 129.665 235.264ZM154.161 242.908C154.161 243.468 154.123 243.972 154.049 244.42H142.709C142.802 245.54 143.194 246.417 143.885 247.052C144.575 247.687 145.425 248.004 146.433 248.004C147.889 248.004 148.925 247.379 149.541 246.128H153.769C153.321 247.621 152.462 248.853 151.193 249.824C149.923 250.776 148.365 251.252 146.517 251.252C145.023 251.252 143.679 250.925 142.485 250.272C141.309 249.6 140.385 248.657 139.713 247.444C139.059 246.231 138.733 244.831 138.733 243.244C138.733 241.639 139.059 240.229 139.713 239.016C140.366 237.803 141.281 236.869 142.457 236.216C143.633 235.563 144.986 235.236 146.517 235.236C147.991 235.236 149.307 235.553 150.465 236.188C151.641 236.823 152.546 237.728 153.181 238.904C153.834 240.061 154.161 241.396 154.161 242.908ZM150.101 241.788C150.082 240.78 149.718 239.977 149.009 239.38C148.299 238.764 147.431 238.456 146.405 238.456C145.434 238.456 144.613 238.755 143.941 239.352C143.287 239.931 142.886 240.743 142.737 241.788H150.101Z" fill="white"/>
<path d="M71.717 213.926V223H69.897V213.926H71.717ZM73.0472 219.399C73.0472 218.654 73.1988 218.004 73.5022 217.449C73.8055 216.886 74.2258 216.452 74.7632 216.149C75.3005 215.837 75.9158 215.681 76.6092 215.681C77.5018 215.681 78.2385 215.906 78.8192 216.357C79.4085 216.799 79.8028 217.423 80.0022 218.229H78.0392C77.9352 217.917 77.7575 217.674 77.5062 217.501C77.2635 217.319 76.9602 217.228 76.5962 217.228C76.0762 217.228 75.6645 217.419 75.3612 217.8C75.0578 218.173 74.9062 218.706 74.9062 219.399C74.9062 220.084 75.0578 220.617 75.3612 220.998C75.6645 221.371 76.0762 221.557 76.5962 221.557C77.3328 221.557 77.8138 221.228 78.0392 220.569H80.0022C79.8028 221.349 79.4085 221.969 78.8192 222.428C78.2298 222.887 77.4932 223.117 76.6092 223.117C75.9158 223.117 75.3005 222.965 74.7632 222.662C74.2258 222.35 73.8055 221.917 73.5022 221.362C73.1988 220.799 73.0472 220.144 73.0472 219.399ZM88.0305 219.243C88.0305 219.503 88.0131 219.737 87.9785 219.945H82.7135C82.7568 220.465 82.9388 220.872 83.2595 221.167C83.5801 221.462 83.9745 221.609 84.4425 221.609C85.1185 221.609 85.5995 221.319 85.8855 220.738H87.8485C87.6405 221.431 87.2418 222.003 86.6525 222.454C86.0631 222.896 85.3395 223.117 84.4815 223.117C83.7881 223.117 83.1641 222.965 82.6095 222.662C82.0635 222.35 81.6345 221.912 81.3225 221.349C81.0191 220.786 80.8675 220.136 80.8675 219.399C80.8675 218.654 81.0191 217.999 81.3225 217.436C81.6258 216.873 82.0505 216.439 82.5965 216.136C83.1425 215.833 83.7708 215.681 84.4815 215.681C85.1661 215.681 85.7771 215.828 86.3145 216.123C86.8605 216.418 87.2808 216.838 87.5755 217.384C87.8788 217.921 88.0305 218.541 88.0305 219.243ZM86.1455 218.723C86.1368 218.255 85.9678 217.882 85.6385 217.605C85.3091 217.319 84.9061 217.176 84.4295 217.176C83.9788 217.176 83.5975 217.315 83.2855 217.592C82.9821 217.861 82.7958 218.238 82.7265 218.723H86.1455ZM94.2766 216.851C94.5106 216.504 94.8312 216.223 95.2386 216.006C95.6546 215.789 96.1269 215.681 96.6556 215.681C97.2709 215.681 97.8256 215.833 98.3196 216.136C98.8222 216.439 99.2166 216.873 99.5026 217.436C99.7972 217.991 99.9446 218.636 99.9446 219.373C99.9446 220.11 99.7972 220.764 99.5026 221.336C99.2166 221.899 98.8222 222.337 98.3196 222.649C97.8256 222.961 97.2709 223.117 96.6556 223.117C96.1182 223.117 95.6459 223.013 95.2386 222.805C94.8399 222.588 94.5192 222.311 94.2766 221.973V223H92.4566V213.38H94.2766V216.851ZM98.0856 219.373C98.0856 218.94 97.9946 218.567 97.8126 218.255C97.6392 217.934 97.4052 217.692 97.1106 217.527C96.8246 217.362 96.5126 217.28 96.1746 217.28C95.8452 217.28 95.5332 217.367 95.2386 217.54C94.9526 217.705 94.7186 217.947 94.5366 218.268C94.3632 218.589 94.2766 218.966 94.2766 219.399C94.2766 219.832 94.3632 220.209 94.5366 220.53C94.7186 220.851 94.9526 221.098 95.2386 221.271C95.5332 221.436 95.8452 221.518 96.1746 221.518C96.5126 221.518 96.8246 221.431 97.1106 221.258C97.4052 221.085 97.6392 220.838 97.8126 220.517C97.9946 220.196 98.0856 219.815 98.0856 219.373ZM103.087 216.916C103.321 216.535 103.624 216.236 103.997 216.019C104.378 215.802 104.812 215.694 105.297 215.694V217.605H104.816C104.244 217.605 103.811 217.739 103.516 218.008C103.23 218.277 103.087 218.745 103.087 219.412V223H101.267V215.798H103.087V216.916ZM113.218 219.243C113.218 219.503 113.201 219.737 113.166 219.945H107.901C107.944 220.465 108.126 220.872 108.447 221.167C108.768 221.462 109.162 221.609 109.63 221.609C110.306 221.609 110.787 221.319 111.073 220.738H113.036C112.828 221.431 112.429 222.003 111.84 222.454C111.251 222.896 110.527 223.117 109.669 223.117C108.976 223.117 108.352 222.965 107.797 222.662C107.251 222.35 106.822 221.912 106.51 221.349C106.207 220.786 106.055 220.136 106.055 219.399C106.055 218.654 106.207 217.999 106.51 217.436C106.813 216.873 107.238 216.439 107.784 216.136C108.33 215.833 108.958 215.681 109.669 215.681C110.354 215.681 110.965 215.828 111.502 216.123C112.048 216.418 112.468 216.838 112.763 217.384C113.066 217.921 113.218 218.541 113.218 219.243ZM111.333 218.723C111.324 218.255 111.155 217.882 110.826 217.605C110.497 217.319 110.094 217.176 109.617 217.176C109.166 217.176 108.785 217.315 108.473 217.592C108.17 217.861 107.983 218.238 107.914 218.723H111.333ZM114.078 219.373C114.078 218.645 114.221 217.999 114.507 217.436C114.802 216.873 115.196 216.439 115.69 216.136C116.193 215.833 116.752 215.681 117.367 215.681C117.905 215.681 118.373 215.789 118.771 216.006C119.179 216.223 119.504 216.496 119.746 216.825V215.798H121.579V223H119.746V221.947C119.512 222.285 119.187 222.567 118.771 222.792C118.364 223.009 117.892 223.117 117.354 223.117C116.748 223.117 116.193 222.961 115.69 222.649C115.196 222.337 114.802 221.899 114.507 221.336C114.221 220.764 114.078 220.11 114.078 219.373ZM119.746 219.399C119.746 218.957 119.66 218.58 119.486 218.268C119.313 217.947 119.079 217.705 118.784 217.54C118.49 217.367 118.173 217.28 117.835 217.28C117.497 217.28 117.185 217.362 116.899 217.527C116.613 217.692 116.379 217.934 116.197 218.255C116.024 218.567 115.937 218.94 115.937 219.373C115.937 219.806 116.024 220.188 116.197 220.517C116.379 220.838 116.613 221.085 116.899 221.258C117.194 221.431 117.506 221.518 117.835 221.518C118.173 221.518 118.49 221.436 118.784 221.271C119.079 221.098 119.313 220.855 119.486 220.543C119.66 220.222 119.746 219.841 119.746 219.399ZM127.621 223L125.177 219.932V223H123.357V213.38H125.177V218.853L127.595 215.798H129.961L126.789 219.412L129.987 223H127.621ZM131.872 214.94C131.551 214.94 131.282 214.84 131.066 214.641C130.858 214.433 130.754 214.177 130.754 213.874C130.754 213.571 130.858 213.319 131.066 213.12C131.282 212.912 131.551 212.808 131.872 212.808C132.192 212.808 132.457 212.912 132.665 213.12C132.881 213.319 132.99 213.571 132.99 213.874C132.99 214.177 132.881 214.433 132.665 214.641C132.457 214.84 132.192 214.94 131.872 214.94ZM132.769 215.798V223H130.949V215.798H132.769ZM138.558 215.694C139.416 215.694 140.109 215.967 140.638 216.513C141.167 217.05 141.431 217.804 141.431 218.775V223H139.611V219.022C139.611 218.45 139.468 218.012 139.182 217.709C138.896 217.397 138.506 217.241 138.012 217.241C137.509 217.241 137.111 217.397 136.816 217.709C136.53 218.012 136.387 218.45 136.387 219.022V223H134.567V215.798H136.387V216.695C136.63 216.383 136.937 216.14 137.31 215.967C137.691 215.785 138.107 215.694 138.558 215.694ZM145.983 215.681C146.52 215.681 146.992 215.789 147.4 216.006C147.807 216.214 148.128 216.487 148.362 216.825V215.798H150.195V223.052C150.195 223.719 150.06 224.313 149.792 224.833C149.523 225.362 149.12 225.778 148.583 226.081C148.045 226.393 147.395 226.549 146.633 226.549C145.61 226.549 144.769 226.311 144.111 225.834C143.461 225.357 143.092 224.707 143.006 223.884H144.813C144.908 224.213 145.112 224.473 145.424 224.664C145.744 224.863 146.13 224.963 146.581 224.963C147.109 224.963 147.538 224.803 147.868 224.482C148.197 224.17 148.362 223.693 148.362 223.052V221.934C148.128 222.272 147.803 222.554 147.387 222.779C146.979 223.004 146.511 223.117 145.983 223.117C145.376 223.117 144.821 222.961 144.319 222.649C143.816 222.337 143.417 221.899 143.123 221.336C142.837 220.764 142.694 220.11 142.694 219.373C142.694 218.645 142.837 217.999 143.123 217.436C143.417 216.873 143.812 216.439 144.306 216.136C144.808 215.833 145.367 215.681 145.983 215.681ZM148.362 219.399C148.362 218.957 148.275 218.58 148.102 218.268C147.928 217.947 147.694 217.705 147.4 217.54C147.105 217.367 146.789 217.28 146.451 217.28C146.113 217.28 145.801 217.362 145.515 217.527C145.229 217.692 144.995 217.934 144.813 218.255C144.639 218.567 144.553 218.94 144.553 219.373C144.553 219.806 144.639 220.188 144.813 220.517C144.995 220.838 145.229 221.085 145.515 221.258C145.809 221.431 146.121 221.518 146.451 221.518C146.789 221.518 147.105 221.436 147.4 221.271C147.694 221.098 147.928 220.855 148.102 220.543C148.275 220.222 148.362 219.841 148.362 219.399Z" fill="white"/>
<path d="M74.465 264.795C74.365 264.375 74.19 264.06 73.94 263.85C73.7 263.64 73.35 263.535 72.89 263.535C72.2 263.535 71.69 263.815 71.36 264.375C71.04 264.925 70.875 265.825 70.865 267.075C71.105 266.675 71.455 266.365 71.915 266.145C72.375 265.915 72.875 265.8 73.415 265.8C74.065 265.8 74.64 265.94 75.14 266.22C75.64 266.5 76.03 266.91 76.31 267.45C76.59 267.98 76.73 268.62 76.73 269.37C76.73 270.08 76.585 270.715 76.295 271.275C76.015 271.825 75.6 272.255 75.05 272.565C74.5 272.875 73.845 273.03 73.085 273.03C72.045 273.03 71.225 272.8 70.625 272.34C70.035 271.88 69.62 271.24 69.38 270.42C69.15 269.59 69.035 268.57 69.035 267.36C69.035 265.53 69.35 264.15 69.98 263.22C70.61 262.28 71.605 261.81 72.965 261.81C74.015 261.81 74.83 262.095 75.41 262.665C75.99 263.235 76.325 263.945 76.415 264.795H74.465ZM72.935 267.525C72.405 267.525 71.96 267.68 71.6 267.99C71.24 268.3 71.06 268.75 71.06 269.34C71.06 269.93 71.225 270.395 71.555 270.735C71.895 271.075 72.37 271.245 72.98 271.245C73.52 271.245 73.945 271.08 74.255 270.75C74.575 270.42 74.735 269.975 74.735 269.415C74.735 268.835 74.58 268.375 74.27 268.035C73.97 267.695 73.525 267.525 72.935 267.525ZM79.5597 273.105C79.1797 273.105 78.8647 272.99 78.6147 272.76C78.3747 272.52 78.2547 272.225 78.2547 271.875C78.2547 271.525 78.3747 271.235 78.6147 271.005C78.8647 270.765 79.1797 270.645 79.5597 270.645C79.9297 270.645 80.2347 270.765 80.4747 271.005C80.7147 271.235 80.8347 271.525 80.8347 271.875C80.8347 272.225 80.7147 272.52 80.4747 272.76C80.2347 272.99 79.9297 273.105 79.5597 273.105ZM79.5597 266.895C79.1797 266.895 78.8647 266.78 78.6147 266.55C78.3747 266.31 78.2547 266.015 78.2547 265.665C78.2547 265.315 78.3747 265.025 78.6147 264.795C78.8647 264.555 79.1797 264.435 79.5597 264.435C79.9297 264.435 80.2347 264.555 80.4747 264.795C80.7147 265.025 80.8347 265.315 80.8347 265.665C80.8347 266.015 80.7147 266.31 80.4747 266.55C80.2347 266.78 79.9297 266.895 79.5597 266.895ZM82.0752 264V262.065H85.6902V273H83.5302V264H82.0752ZM95.1147 263.88H90.2547V266.445C90.4647 266.185 90.7647 265.975 91.1547 265.815C91.5447 265.645 91.9597 265.56 92.3997 265.56C93.1997 265.56 93.8547 265.735 94.3647 266.085C94.8747 266.435 95.2447 266.885 95.4747 267.435C95.7047 267.975 95.8197 268.555 95.8197 269.175C95.8197 270.325 95.4897 271.25 94.8297 271.95C94.1797 272.65 93.2497 273 92.0397 273C90.8997 273 89.9897 272.715 89.3097 272.145C88.6297 271.575 88.2447 270.83 88.1547 269.91H90.1947C90.2847 270.31 90.4847 270.63 90.7947 270.87C91.1147 271.11 91.5197 271.23 92.0097 271.23C92.5997 271.23 93.0447 271.045 93.3447 270.675C93.6447 270.305 93.7947 269.815 93.7947 269.205C93.7947 268.585 93.6397 268.115 93.3297 267.795C93.0297 267.465 92.5847 267.3 91.9947 267.3C91.5747 267.3 91.2247 267.405 90.9447 267.615C90.6647 267.825 90.4647 268.105 90.3447 268.455H88.3347V262.035H95.1147V263.88ZM103.332 265.89C103.602 265.51 103.972 265.195 104.442 264.945C104.922 264.685 105.467 264.555 106.077 264.555C106.787 264.555 107.427 264.73 107.997 265.08C108.577 265.43 109.032 265.93 109.362 266.58C109.702 267.22 109.872 267.965 109.872 268.815C109.872 269.665 109.702 270.42 109.362 271.08C109.032 271.73 108.577 272.235 107.997 272.595C107.427 272.955 106.787 273.135 106.077 273.135C105.467 273.135 104.927 273.01 104.457 272.76C103.997 272.51 103.622 272.195 103.332 271.815V276.96H101.232V264.69H103.332V265.89ZM107.727 268.815C107.727 268.315 107.622 267.885 107.412 267.525C107.212 267.155 106.942 266.875 106.602 266.685C106.272 266.495 105.912 266.4 105.522 266.4C105.142 266.4 104.782 266.5 104.442 266.7C104.112 266.89 103.842 267.17 103.632 267.54C103.432 267.91 103.332 268.345 103.332 268.845C103.332 269.345 103.432 269.78 103.632 270.15C103.842 270.52 104.112 270.805 104.442 271.005C104.782 271.195 105.142 271.29 105.522 271.29C105.912 271.29 106.272 271.19 106.602 270.99C106.942 270.79 107.212 270.505 107.412 270.135C107.622 269.765 107.727 269.325 107.727 268.815ZM121.718 264.57C122.738 264.57 123.558 264.885 124.178 265.515C124.808 266.135 125.123 267.005 125.123 268.125V273H123.023V268.41C123.023 267.76 122.858 267.265 122.528 266.925C122.198 266.575 121.748 266.4 121.178 266.4C120.608 266.4 120.153 266.575 119.813 266.925C119.483 267.265 119.318 267.76 119.318 268.41V273H117.218V268.41C117.218 267.76 117.053 267.265 116.723 266.925C116.393 266.575 115.943 266.4 115.373 266.4C114.793 266.4 114.333 266.575 113.993 266.925C113.663 267.265 113.498 267.76 113.498 268.41V273H111.398V264.69H113.498V265.695C113.768 265.345 114.113 265.07 114.533 264.87C114.963 264.67 115.433 264.57 115.943 264.57C116.593 264.57 117.173 264.71 117.683 264.99C118.193 265.26 118.588 265.65 118.868 266.16C119.138 265.68 119.528 265.295 120.038 265.005C120.558 264.715 121.118 264.57 121.718 264.57ZM137.08 266.76V268.53H130.72V266.76H137.08ZM149.73 263.655L145.74 273H143.61L147.63 263.895H142.5V262.095H149.73V263.655ZM152.157 273.105C151.777 273.105 151.462 272.99 151.212 272.76C150.972 272.52 150.852 272.225 150.852 271.875C150.852 271.525 150.972 271.235 151.212 271.005C151.462 270.765 151.777 270.645 152.157 270.645C152.527 270.645 152.832 270.765 153.072 271.005C153.312 271.235 153.432 271.525 153.432 271.875C153.432 272.225 153.312 272.52 153.072 272.76C152.832 272.99 152.527 273.105 152.157 273.105ZM152.157 266.895C151.777 266.895 151.462 266.78 151.212 266.55C150.972 266.31 150.852 266.015 150.852 265.665C150.852 265.315 150.972 265.025 151.212 264.795C151.462 264.555 151.777 264.435 152.157 264.435C152.527 264.435 152.832 264.555 153.072 264.795C153.312 265.025 153.432 265.315 153.432 265.665C153.432 266.015 153.312 266.31 153.072 266.55C152.832 266.78 152.527 266.895 152.157 266.895ZM154.958 264.945C155.008 263.945 155.358 263.175 156.008 262.635C156.668 262.085 157.533 261.81 158.603 261.81C159.333 261.81 159.958 261.94 160.478 262.2C160.998 262.45 161.388 262.795 161.648 263.235C161.918 263.665 162.053 264.155 162.053 264.705C162.053 265.335 161.888 265.87 161.558 266.31C161.238 266.74 160.853 267.03 160.403 267.18V267.24C160.983 267.42 161.433 267.74 161.753 268.2C162.083 268.66 162.248 269.25 162.248 269.97C162.248 270.57 162.108 271.105 161.828 271.575C161.558 272.045 161.153 272.415 160.613 272.685C160.083 272.945 159.443 273.075 158.693 273.075C157.563 273.075 156.643 272.79 155.933 272.22C155.223 271.65 154.848 270.81 154.808 269.7H156.848C156.868 270.19 157.033 270.585 157.343 270.885C157.663 271.175 158.098 271.32 158.648 271.32C159.158 271.32 159.548 271.18 159.818 270.9C160.098 270.61 160.238 270.24 160.238 269.79C160.238 269.19 160.048 268.76 159.668 268.5C159.288 268.24 158.698 268.11 157.898 268.11H157.463V266.385H157.898C159.318 266.385 160.028 265.91 160.028 264.96C160.028 264.53 159.898 264.195 159.638 263.955C159.388 263.715 159.023 263.595 158.543 263.595C158.073 263.595 157.708 263.725 157.448 263.985C157.198 264.235 157.053 264.555 157.013 264.945H154.958ZM163.907 267.39C163.907 265.66 164.217 264.305 164.837 263.325C165.467 262.345 166.507 261.855 167.957 261.855C169.407 261.855 170.442 262.345 171.062 263.325C171.692 264.305 172.007 265.66 172.007 267.39C172.007 269.13 171.692 270.495 171.062 271.485C170.442 272.475 169.407 272.97 167.957 272.97C166.507 272.97 165.467 272.475 164.837 271.485C164.217 270.495 163.907 269.13 163.907 267.39ZM169.937 267.39C169.937 266.65 169.887 266.03 169.787 265.53C169.697 265.02 169.507 264.605 169.217 264.285C168.937 263.965 168.517 263.805 167.957 263.805C167.397 263.805 166.972 263.965 166.682 264.285C166.402 264.605 166.212 265.02 166.112 265.53C166.022 266.03 165.977 266.65 165.977 267.39C165.977 268.15 166.022 268.79 166.112 269.31C166.202 269.82 166.392 270.235 166.682 270.555C166.972 270.865 167.397 271.02 167.957 271.02C168.517 271.02 168.942 270.865 169.232 270.555C169.522 270.235 169.712 269.82 169.802 269.31C169.892 268.79 169.937 268.15 169.937 267.39ZM179.519 265.89C179.789 265.51 180.159 265.195 180.629 264.945C181.109 264.685 181.654 264.555 182.264 264.555C182.974 264.555 183.614 264.73 184.184 265.08C184.764 265.43 185.219 265.93 185.549 266.58C185.889 267.22 186.059 267.965 186.059 268.815C186.059 269.665 185.889 270.42 185.549 271.08C185.219 271.73 184.764 272.235 184.184 272.595C183.614 272.955 182.974 273.135 182.264 273.135C181.654 273.135 181.114 273.01 180.644 272.76C180.184 272.51 179.809 272.195 179.519 271.815V276.96H177.419V264.69H179.519V265.89ZM183.914 268.815C183.914 268.315 183.809 267.885 183.599 267.525C183.399 267.155 183.129 266.875 182.789 266.685C182.459 266.495 182.099 266.4 181.709 266.4C181.329 266.4 180.969 266.5 180.629 266.7C180.299 266.89 180.029 267.17 179.819 267.54C179.619 267.91 179.519 268.345 179.519 268.845C179.519 269.345 179.619 269.78 179.819 270.15C180.029 270.52 180.299 270.805 180.629 271.005C180.969 271.195 181.329 271.29 181.709 271.29C182.099 271.29 182.459 271.19 182.789 270.99C183.129 270.79 183.399 270.505 183.599 270.135C183.809 269.765 183.914 269.325 183.914 268.815ZM197.905 264.57C198.925 264.57 199.745 264.885 200.365 265.515C200.995 266.135 201.31 267.005 201.31 268.125V273H199.21V268.41C199.21 267.76 199.045 267.265 198.715 266.925C198.385 266.575 197.935 266.4 197.365 266.4C196.795 266.4 196.34 266.575 196 266.925C195.67 267.265 195.505 267.76 195.505 268.41V273H193.405V268.41C193.405 267.76 193.24 267.265 192.91 266.925C192.58 266.575 192.13 266.4 191.56 266.4C190.98 266.4 190.52 266.575 190.18 266.925C189.85 267.265 189.685 267.76 189.685 268.41V273H187.585V264.69H189.685V265.695C189.955 265.345 190.3 265.07 190.72 264.87C191.15 264.67 191.62 264.57 192.13 264.57C192.78 264.57 193.36 264.71 193.87 264.99C194.38 265.26 194.775 265.65 195.055 266.16C195.325 265.68 195.715 265.295 196.225 265.005C196.745 264.715 197.305 264.57 197.905 264.57Z" fill="white"/>
<path d="M87.92 319.248V336H84.56V325.104L80.072 336H77.528L73.016 325.104V336H69.656V319.248H73.472L78.8 331.704L84.128 319.248H87.92ZM103.602 329.064C103.602 329.544 103.57 329.976 103.506 330.36H93.7859C93.8659 331.32 94.2019 332.072 94.7939 332.616C95.3859 333.16 96.1139 333.432 96.9779 333.432C98.2259 333.432 99.1139 332.896 99.6419 331.824H103.266C102.882 333.104 102.146 334.16 101.058 334.992C99.9699 335.808 98.6339 336.216 97.0499 336.216C95.7699 336.216 94.6179 335.936 93.5939 335.376C92.5859 334.8 91.7939 333.992 91.2179 332.952C90.6579 331.912 90.3779 330.712 90.3779 329.352C90.3779 327.976 90.6579 326.768 91.2179 325.728C91.7779 324.688 92.5619 323.888 93.5699 323.328C94.5779 322.768 95.7379 322.488 97.0499 322.488C98.3139 322.488 99.4419 322.76 100.434 323.304C101.442 323.848 102.218 324.624 102.762 325.632C103.322 326.624 103.602 327.768 103.602 329.064ZM100.122 328.104C100.106 327.24 99.7939 326.552 99.1859 326.04C98.5779 325.512 97.8339 325.248 96.9539 325.248C96.1219 325.248 95.4179 325.504 94.8419 326.016C94.2819 326.512 93.9379 327.208 93.8099 328.104H100.122ZM113.422 322.512C115.006 322.512 116.286 323.016 117.262 324.024C118.238 325.016 118.726 326.408 118.726 328.2V336H115.366V328.656C115.366 327.6 115.102 326.792 114.574 326.232C114.046 325.656 113.326 325.368 112.414 325.368C111.486 325.368 110.75 325.656 110.206 326.232C109.678 326.792 109.414 327.6 109.414 328.656V336H106.054V322.704H109.414V324.36C109.862 323.784 110.43 323.336 111.118 323.016C111.822 322.68 112.59 322.512 113.422 322.512ZM125.834 325.464V331.896C125.834 332.344 125.938 332.672 126.146 332.88C126.37 333.072 126.738 333.168 127.25 333.168H128.81V336H126.698C123.866 336 122.45 334.624 122.45 331.872V325.464H120.866V322.704H122.45V319.416H125.834V322.704H128.81V325.464H125.834ZM130.362 329.304C130.362 327.96 130.626 326.768 131.154 325.728C131.698 324.688 132.426 323.888 133.338 323.328C134.266 322.768 135.298 322.488 136.434 322.488C137.426 322.488 138.29 322.688 139.026 323.088C139.778 323.488 140.378 323.992 140.826 324.6V322.704H144.21V336H140.826V334.056C140.394 334.68 139.794 335.2 139.026 335.616C138.274 336.016 137.402 336.216 136.41 336.216C135.29 336.216 134.266 335.928 133.338 335.352C132.426 334.776 131.698 333.968 131.154 332.928C130.626 331.872 130.362 330.664 130.362 329.304ZM140.826 329.352C140.826 328.536 140.666 327.84 140.346 327.264C140.026 326.672 139.594 326.224 139.05 325.92C138.506 325.6 137.922 325.44 137.298 325.44C136.674 325.44 136.098 325.592 135.57 325.896C135.042 326.2 134.61 326.648 134.274 327.24C133.954 327.816 133.794 328.504 133.794 329.304C133.794 330.104 133.954 330.808 134.274 331.416C134.61 332.008 135.042 332.464 135.57 332.784C136.114 333.104 136.69 333.264 137.298 333.264C137.922 333.264 138.506 333.112 139.05 332.808C139.594 332.488 140.026 332.04 140.346 331.464C140.666 330.872 140.826 330.168 140.826 329.352ZM150.852 318.24V336H147.492V318.24H150.852ZM155.876 321.12C155.284 321.12 154.788 320.936 154.388 320.568C154.004 320.184 153.812 319.712 153.812 319.152C153.812 318.592 154.004 318.128 154.388 317.76C154.788 317.376 155.284 317.184 155.876 317.184C156.468 317.184 156.956 317.376 157.34 317.76C157.74 318.128 157.94 318.592 157.94 319.152C157.94 319.712 157.74 320.184 157.34 320.568C156.956 320.936 156.468 321.12 155.876 321.12ZM157.532 322.704V336H154.172V322.704H157.532ZM165.939 336.216C164.851 336.216 163.875 336.024 163.011 335.64C162.147 335.24 161.459 334.704 160.947 334.032C160.451 333.36 160.179 332.616 160.131 331.8H163.515C163.579 332.312 163.827 332.736 164.259 333.072C164.707 333.408 165.259 333.576 165.915 333.576C166.555 333.576 167.051 333.448 167.403 333.192C167.771 332.936 167.955 332.608 167.955 332.208C167.955 331.776 167.731 331.456 167.283 331.248C166.851 331.024 166.155 330.784 165.195 330.528C164.203 330.288 163.387 330.04 162.747 329.784C162.123 329.528 161.579 329.136 161.115 328.608C160.667 328.08 160.443 327.368 160.443 326.472C160.443 325.736 160.651 325.064 161.067 324.456C161.499 323.848 162.107 323.368 162.891 323.016C163.691 322.664 164.627 322.488 165.699 322.488C167.283 322.488 168.547 322.888 169.491 323.688C170.435 324.472 170.955 325.536 171.051 326.88H167.835C167.787 326.352 167.563 325.936 167.163 325.632C166.779 325.312 166.259 325.152 165.603 325.152C164.995 325.152 164.523 325.264 164.187 325.488C163.867 325.712 163.707 326.024 163.707 326.424C163.707 326.872 163.931 327.216 164.379 327.456C164.827 327.68 165.523 327.912 166.467 328.152C167.427 328.392 168.219 328.64 168.843 328.896C169.467 329.152 170.003 329.552 170.451 330.096C170.915 330.624 171.155 331.328 171.171 332.208C171.171 332.976 170.955 333.664 170.523 334.272C170.107 334.88 169.499 335.36 168.699 335.712C167.915 336.048 166.995 336.216 165.939 336.216ZM190.441 322.512C192.073 322.512 193.385 323.016 194.377 324.024C195.385 325.016 195.889 326.408 195.889 328.2V336H192.529V328.656C192.529 327.616 192.265 326.824 191.737 326.28C191.209 325.72 190.489 325.44 189.577 325.44C188.665 325.44 187.937 325.72 187.393 326.28C186.865 326.824 186.601 327.616 186.601 328.656V336H183.241V328.656C183.241 327.616 182.977 326.824 182.449 326.28C181.921 325.72 181.201 325.44 180.289 325.44C179.361 325.44 178.625 325.72 178.081 326.28C177.553 326.824 177.289 327.616 177.289 328.656V336H173.929V322.704H177.289V324.312C177.721 323.752 178.273 323.312 178.945 322.992C179.633 322.672 180.385 322.512 181.201 322.512C182.241 322.512 183.169 322.736 183.985 323.184C184.801 323.616 185.433 324.24 185.881 325.056C186.313 324.288 186.937 323.672 187.753 323.208C188.585 322.744 189.481 322.512 190.441 322.512Z" fill="white"/>
<path d="M75.755 350.655L71.765 360H69.635L73.655 350.895H68.525V349.095H75.755V350.655ZM78.1828 360.105C77.8028 360.105 77.4878 359.99 77.2378 359.76C76.9978 359.52 76.8778 359.225 76.8778 358.875C76.8778 358.525 76.9978 358.235 77.2378 358.005C77.4878 357.765 77.8028 357.645 78.1828 357.645C78.5528 357.645 78.8578 357.765 79.0978 358.005C79.3378 358.235 79.4578 358.525 79.4578 358.875C79.4578 359.225 79.3378 359.52 79.0978 359.76C78.8578 359.99 78.5528 360.105 78.1828 360.105ZM78.1828 353.895C77.8028 353.895 77.4878 353.78 77.2378 353.55C76.9978 353.31 76.8778 353.015 76.8778 352.665C76.8778 352.315 76.9978 352.025 77.2378 351.795C77.4878 351.555 77.8028 351.435 78.1828 351.435C78.5528 351.435 78.8578 351.555 79.0978 351.795C79.3378 352.025 79.4578 352.315 79.4578 352.665C79.4578 353.015 79.3378 353.31 79.0978 353.55C78.8578 353.78 78.5528 353.895 78.1828 353.895ZM80.9832 351.945C81.0332 350.945 81.3832 350.175 82.0332 349.635C82.6932 349.085 83.5582 348.81 84.6282 348.81C85.3582 348.81 85.9832 348.94 86.5032 349.2C87.0232 349.45 87.4132 349.795 87.6732 350.235C87.9432 350.665 88.0782 351.155 88.0782 351.705C88.0782 352.335 87.9132 352.87 87.5832 353.31C87.2632 353.74 86.8782 354.03 86.4282 354.18V354.24C87.0082 354.42 87.4582 354.74 87.7782 355.2C88.1082 355.66 88.2732 356.25 88.2732 356.97C88.2732 357.57 88.1332 358.105 87.8532 358.575C87.5832 359.045 87.1782 359.415 86.6382 359.685C86.1082 359.945 85.4682 360.075 84.7182 360.075C83.5882 360.075 82.6682 359.79 81.9582 359.22C81.2482 358.65 80.8732 357.81 80.8332 356.7H82.8732C82.8932 357.19 83.0582 357.585 83.3682 357.885C83.6882 358.175 84.1232 358.32 84.6732 358.32C85.1832 358.32 85.5732 358.18 85.8432 357.9C86.1232 357.61 86.2632 357.24 86.2632 356.79C86.2632 356.19 86.0732 355.76 85.6932 355.5C85.3132 355.24 84.7232 355.11 83.9232 355.11H83.4882V353.385H83.9232C85.3432 353.385 86.0532 352.91 86.0532 351.96C86.0532 351.53 85.9232 351.195 85.6632 350.955C85.4132 350.715 85.0482 350.595 84.5682 350.595C84.0982 350.595 83.7332 350.725 83.4732 350.985C83.2232 351.235 83.0782 351.555 83.0382 351.945H80.9832ZM89.9327 354.39C89.9327 352.66 90.2427 351.305 90.8627 350.325C91.4927 349.345 92.5327 348.855 93.9827 348.855C95.4327 348.855 96.4677 349.345 97.0877 350.325C97.7177 351.305 98.0327 352.66 98.0327 354.39C98.0327 356.13 97.7177 357.495 97.0877 358.485C96.4677 359.475 95.4327 359.97 93.9827 359.97C92.5327 359.97 91.4927 359.475 90.8627 358.485C90.2427 357.495 89.9327 356.13 89.9327 354.39ZM95.9627 354.39C95.9627 353.65 95.9127 353.03 95.8127 352.53C95.7227 352.02 95.5327 351.605 95.2427 351.285C94.9627 350.965 94.5427 350.805 93.9827 350.805C93.4227 350.805 92.9977 350.965 92.7077 351.285C92.4277 351.605 92.2377 352.02 92.1377 352.53C92.0477 353.03 92.0027 353.65 92.0027 354.39C92.0027 355.15 92.0477 355.79 92.1377 356.31C92.2277 356.82 92.4177 357.235 92.7077 357.555C92.9977 357.865 93.4227 358.02 93.9827 358.02C94.5427 358.02 94.9677 357.865 95.2577 357.555C95.5477 357.235 95.7377 356.82 95.8277 356.31C95.9177 355.79 95.9627 355.15 95.9627 354.39ZM105.544 352.89C105.814 352.51 106.184 352.195 106.654 351.945C107.134 351.685 107.679 351.555 108.289 351.555C108.999 351.555 109.639 351.73 110.209 352.08C110.789 352.43 111.244 352.93 111.574 353.58C111.914 354.22 112.084 354.965 112.084 355.815C112.084 356.665 111.914 357.42 111.574 358.08C111.244 358.73 110.789 359.235 110.209 359.595C109.639 359.955 108.999 360.135 108.289 360.135C107.679 360.135 107.139 360.01 106.669 359.76C106.209 359.51 105.834 359.195 105.544 358.815V363.96H103.444V351.69H105.544V352.89ZM109.939 355.815C109.939 355.315 109.834 354.885 109.624 354.525C109.424 354.155 109.154 353.875 108.814 353.685C108.484 353.495 108.124 353.4 107.734 353.4C107.354 353.4 106.994 353.5 106.654 353.7C106.324 353.89 106.054 354.17 105.844 354.54C105.644 354.91 105.544 355.345 105.544 355.845C105.544 356.345 105.644 356.78 105.844 357.15C106.054 357.52 106.324 357.805 106.654 358.005C106.994 358.195 107.354 358.29 107.734 358.29C108.124 358.29 108.484 358.19 108.814 357.99C109.154 357.79 109.424 357.505 109.624 357.135C109.834 356.765 109.939 356.325 109.939 355.815ZM123.93 351.57C124.95 351.57 125.77 351.885 126.39 352.515C127.02 353.135 127.335 354.005 127.335 355.125V360H125.235V355.41C125.235 354.76 125.07 354.265 124.74 353.925C124.41 353.575 123.96 353.4 123.39 353.4C122.82 353.4 122.365 353.575 122.025 353.925C121.695 354.265 121.53 354.76 121.53 355.41V360H119.43V355.41C119.43 354.76 119.265 354.265 118.935 353.925C118.605 353.575 118.155 353.4 117.585 353.4C117.005 353.4 116.545 353.575 116.205 353.925C115.875 354.265 115.71 354.76 115.71 355.41V360H113.61V351.69H115.71V352.695C115.98 352.345 116.325 352.07 116.745 351.87C117.175 351.67 117.645 351.57 118.155 351.57C118.805 351.57 119.385 351.71 119.895 351.99C120.405 352.26 120.8 352.65 121.08 353.16C121.35 352.68 121.74 352.295 122.25 352.005C122.77 351.715 123.33 351.57 123.93 351.57ZM139.292 353.76V355.53H132.932V353.76H139.292ZM147.412 356.925C147.492 357.365 147.672 357.705 147.952 357.945C148.242 358.175 148.627 358.29 149.107 358.29C149.727 358.29 150.177 358.035 150.457 357.525C150.737 357.005 150.877 356.135 150.877 354.915C150.647 355.235 150.322 355.485 149.902 355.665C149.492 355.845 149.047 355.935 148.567 355.935C147.927 355.935 147.347 355.805 146.827 355.545C146.317 355.275 145.912 354.88 145.612 354.36C145.312 353.83 145.162 353.19 145.162 352.44C145.162 351.33 145.492 350.45 146.152 349.8C146.812 349.14 147.712 348.81 148.852 348.81C150.272 348.81 151.272 349.265 151.852 350.175C152.442 351.085 152.737 352.455 152.737 354.285C152.737 355.585 152.622 356.65 152.392 357.48C152.172 358.31 151.787 358.94 151.237 359.37C150.697 359.8 149.957 360.015 149.017 360.015C148.277 360.015 147.647 359.875 147.127 359.595C146.607 359.305 146.207 358.93 145.927 358.47C145.657 358 145.502 357.485 145.462 356.925H147.412ZM149.002 354.225C149.522 354.225 149.932 354.065 150.232 353.745C150.532 353.425 150.682 352.995 150.682 352.455C150.682 351.865 150.522 351.41 150.202 351.09C149.892 350.76 149.467 350.595 148.927 350.595C148.387 350.595 147.957 350.765 147.637 351.105C147.327 351.435 147.172 351.875 147.172 352.425C147.172 352.955 147.322 353.39 147.622 353.73C147.932 354.06 148.392 354.225 149.002 354.225ZM155.541 360.105C155.161 360.105 154.846 359.99 154.596 359.76C154.356 359.52 154.236 359.225 154.236 358.875C154.236 358.525 154.356 358.235 154.596 358.005C154.846 357.765 155.161 357.645 155.541 357.645C155.911 357.645 156.216 357.765 156.456 358.005C156.696 358.235 156.816 358.525 156.816 358.875C156.816 359.225 156.696 359.52 156.456 359.76C156.216 359.99 155.911 360.105 155.541 360.105ZM155.541 353.895C155.161 353.895 154.846 353.78 154.596 353.55C154.356 353.31 154.236 353.015 154.236 352.665C154.236 352.315 154.356 352.025 154.596 351.795C154.846 351.555 155.161 351.435 155.541 351.435C155.911 351.435 156.216 351.555 156.456 351.795C156.696 352.025 156.816 352.315 156.816 352.665C156.816 353.015 156.696 353.31 156.456 353.55C156.216 353.78 155.911 353.895 155.541 353.895ZM158.312 354.39C158.312 352.66 158.622 351.305 159.242 350.325C159.872 349.345 160.912 348.855 162.362 348.855C163.812 348.855 164.847 349.345 165.467 350.325C166.097 351.305 166.412 352.66 166.412 354.39C166.412 356.13 166.097 357.495 165.467 358.485C164.847 359.475 163.812 359.97 162.362 359.97C160.912 359.97 159.872 359.475 159.242 358.485C158.622 357.495 158.312 356.13 158.312 354.39ZM164.342 354.39C164.342 353.65 164.292 353.03 164.192 352.53C164.102 352.02 163.912 351.605 163.622 351.285C163.342 350.965 162.922 350.805 162.362 350.805C161.802 350.805 161.377 350.965 161.087 351.285C160.807 351.605 160.617 352.02 160.517 352.53C160.427 353.03 160.382 353.65 160.382 354.39C160.382 355.15 160.427 355.79 160.517 356.31C160.607 356.82 160.797 357.235 161.087 357.555C161.377 357.865 161.802 358.02 162.362 358.02C162.922 358.02 163.347 357.865 163.637 357.555C163.927 357.235 164.117 356.82 164.207 356.31C164.297 355.79 164.342 355.15 164.342 354.39ZM168.009 354.39C168.009 352.66 168.319 351.305 168.939 350.325C169.569 349.345 170.609 348.855 172.059 348.855C173.509 348.855 174.544 349.345 175.164 350.325C175.794 351.305 176.109 352.66 176.109 354.39C176.109 356.13 175.794 357.495 175.164 358.485C174.544 359.475 173.509 359.97 172.059 359.97C170.609 359.97 169.569 359.475 168.939 358.485C168.319 357.495 168.009 356.13 168.009 354.39ZM174.039 354.39C174.039 353.65 173.989 353.03 173.889 352.53C173.799 352.02 173.609 351.605 173.319 351.285C173.039 350.965 172.619 350.805 172.059 350.805C171.499 350.805 171.074 350.965 170.784 351.285C170.504 351.605 170.314 352.02 170.214 352.53C170.124 353.03 170.079 353.65 170.079 354.39C170.079 355.15 170.124 355.79 170.214 356.31C170.304 356.82 170.494 357.235 170.784 357.555C171.074 357.865 171.499 358.02 172.059 358.02C172.619 358.02 173.044 357.865 173.334 357.555C173.624 357.235 173.814 356.82 173.904 356.31C173.994 355.79 174.039 355.15 174.039 354.39ZM183.62 352.89C183.89 352.51 184.26 352.195 184.73 351.945C185.21 351.685 185.755 351.555 186.365 351.555C187.075 351.555 187.715 351.73 188.285 352.08C188.865 352.43 189.32 352.93 189.65 353.58C189.99 354.22 190.16 354.965 190.16 355.815C190.16 356.665 189.99 357.42 189.65 358.08C189.32 358.73 188.865 359.235 188.285 359.595C187.715 359.955 187.075 360.135 186.365 360.135C185.755 360.135 185.215 360.01 184.745 359.76C184.285 359.51 183.91 359.195 183.62 358.815V363.96H181.52V351.69H183.62V352.89ZM188.015 355.815C188.015 355.315 187.91 354.885 187.7 354.525C187.5 354.155 187.23 353.875 186.89 353.685C186.56 353.495 186.2 353.4 185.81 353.4C185.43 353.4 185.07 353.5 184.73 353.7C184.4 353.89 184.13 354.17 183.92 354.54C183.72 354.91 183.62 355.345 183.62 355.845C183.62 356.345 183.72 356.78 183.92 357.15C184.13 357.52 184.4 357.805 184.73 358.005C185.07 358.195 185.43 358.29 185.81 358.29C186.2 358.29 186.56 358.19 186.89 357.99C187.23 357.79 187.5 357.505 187.7 357.135C187.91 356.765 188.015 356.325 188.015 355.815ZM202.006 351.57C203.026 351.57 203.846 351.885 204.466 352.515C205.096 353.135 205.411 354.005 205.411 355.125V360H203.311V355.41C203.311 354.76 203.146 354.265 202.816 353.925C202.486 353.575 202.036 353.4 201.466 353.4C200.896 353.4 200.441 353.575 200.101 353.925C199.771 354.265 199.606 354.76 199.606 355.41V360H197.506V355.41C197.506 354.76 197.341 354.265 197.011 353.925C196.681 353.575 196.231 353.4 195.661 353.4C195.081 353.4 194.621 353.575 194.281 353.925C193.951 354.265 193.786 354.76 193.786 355.41V360H191.686V351.69H193.786V352.695C194.056 352.345 194.401 352.07 194.821 351.87C195.251 351.67 195.721 351.57 196.231 351.57C196.881 351.57 197.461 351.71 197.971 351.99C198.481 352.26 198.876 352.65 199.156 353.16C199.426 352.68 199.816 352.295 200.326 352.005C200.846 351.715 201.406 351.57 202.006 351.57Z" fill="white"/>
</g>
<defs>
<filter id="filter0_d_391_17" x="0" y="0" width="361" height="519" filterUnits="userSpaceOnUse" color-interpolation-filters="sRGB">
<feFlood flood-opacity="0" result="BackgroundImageFix"/>
<feColorMatrix in="SourceAlpha" type="matrix" values="0 0 0 0 0 0 0 0 0 0 0 0 0 0 0 0 0 0 127 0" result="hardAlpha"/>
<feOffset dy="10"/>
<feGaussianBlur stdDeviation="6"/>
<feComposite in2="hardAlpha" operator="out"/>
<feColorMatrix type="matrix" values="0 0 0 0 0 0 0 0 0 0 0 0 0 0 0 0 0 0 0.25 0"/>
<feBlend mode="normal" in2="BackgroundImageFix" result="effect1_dropShadow_391_17"/>
<feBlend mode="normal" in="SourceGraphic" in2="effect1_dropShadow_391_17" result="shape"/>
</filter>
</defs>
</svg>
