<svg width="337" height="495" viewBox="0 0 337 495" fill="none" xmlns="http://www.w3.org/2000/svg">
<path fill-rule="evenodd" clip-rule="evenodd" d="M0 15C0 6.71571 6.71573 0 15 0H322C330.284 0 337 6.71573 337 15V227C325.954 227 317 235.954 317 247C317 258.046 325.954 267 337 267V480C337 488.284 330.284 495 322 495H15C6.71572 495 0 488.284 0 480V267C11.0457 267 20 258.046 20 247C20 235.954 11.0457 227 0 227V15ZM63.28 44H77.08C80.2 44 82.9467 44.5733 85.32 45.72C87.72 46.84 89.5733 48.4533 90.88 50.56C92.2133 52.6667 92.88 55.1467 92.88 58C92.88 60.8533 92.2133 63.3333 90.88 65.44C89.5733 67.5467 87.72 69.1733 85.32 70.32C82.9467 71.44 80.2 72 77.08 72H63.28V44ZM76.68 64.64C78.7067 64.64 80.32 64.0667 81.52 62.92C82.7467 61.7467 83.36 60.1067 83.36 58C83.36 55.8933 82.7467 54.2667 81.52 53.12C80.32 51.9467 78.7067 51.36 76.68 51.36H72.72V64.64H76.68ZM105.847 49.72C109.687 49.72 112.62 50.5867 114.647 52.32C116.674 54.0267 117.687 56.6667 117.687 60.24V72H109.287V69.12C108.247 71.3067 106.18 72.4 103.087 72.4C101.354 72.4 99.8735 72.1067 98.6469 71.52C97.4469 70.9067 96.5269 70.0933 95.8869 69.08C95.2735 68.04 94.9669 66.88 94.9669 65.6C94.9669 63.44 95.7935 61.8 97.4469 60.68C99.1002 59.56 101.607 59 104.967 59H108.607C108.314 57.2933 106.94 56.44 104.487 56.44C103.5 56.44 102.5 56.6 101.487 56.92C100.474 57.2133 99.6069 57.6267 98.8869 58.16L96.0069 52.2C97.2602 51.4267 98.7669 50.8267 100.527 50.4C102.314 49.9467 104.087 49.72 105.847 49.72ZM105.807 66.96C106.447 66.96 107.02 66.7867 107.527 66.44C108.034 66.0933 108.407 65.5733 108.647 64.88V63.36H106.407C104.567 63.36 103.647 63.9733 103.647 65.2C103.647 65.7067 103.834 66.1333 104.207 66.48C104.607 66.8 105.14 66.96 105.807 66.96ZM145.563 50.12L136.563 72.44C135.416 75.2933 133.99 77.2933 132.283 78.44C130.576 79.5867 128.483 80.16 126.003 80.16C124.776 80.16 123.536 79.9733 122.283 79.6C121.056 79.2533 120.083 78.7867 119.363 78.2L122.363 72C122.816 72.3467 123.323 72.6267 123.883 72.84C124.47 73.0533 125.03 73.16 125.563 73.16C126.55 73.16 127.296 72.8667 127.803 72.28L118.603 50.12H127.883L132.403 61.84L137.003 50.12H145.563ZM180.497 64.68V72H158.057V66.2L168.178 56.84C169.057 56.0133 169.644 55.3067 169.938 54.72C170.231 54.1333 170.378 53.56 170.378 53C170.378 52.3067 170.137 51.7733 169.658 51.4C169.204 51 168.538 50.8 167.658 50.8C166.804 50.8 166.004 51.0267 165.258 51.48C164.511 51.9333 163.938 52.5733 163.538 53.4L156.417 49.84C157.484 47.84 159.044 46.2667 161.098 45.12C163.151 43.9467 165.631 43.36 168.538 43.36C170.751 43.36 172.711 43.72 174.417 44.44C176.124 45.16 177.458 46.1867 178.417 47.52C179.378 48.8533 179.857 50.3867 179.857 52.12C179.857 53.6667 179.524 55.12 178.857 56.48C178.217 57.8133 176.951 59.3333 175.057 61.04L171.057 64.68H180.497ZM45 141.917C47.8377 141.441 50 138.973 50 136C50 132.686 47.3137 130 44 130C40.6863 130 38 132.686 38 136C38 138.973 40.1623 141.441 43 141.917V224.083C40.1623 224.559 38 227.027 38 230C38 232.973 40.1623 235.441 43 235.917V236V309V314.083C40.1623 314.559 38 317.027 38 320C38 322.973 40.1623 325.441 43 325.917V332V401.083C40.1623 401.559 38 404.027 38 407C38 410.314 40.6863 413 44 413C47.3137 413 50 410.314 50 407C50 404.027 47.8377 401.559 45 401.083V332V325.917C47.8377 325.441 50 322.973 50 320C50 317.027 47.8377 314.559 45 314.083V309V236V235.917C47.8377 235.441 50 232.973 50 230C50 227.027 47.8377 224.559 45 224.083V141.917Z" fill="#10CA9B"/>
<path d="M90.048 126.248L85.368 143H81.408L78.264 131.072L74.976 143L71.04 143.024L66.528 126.248H70.128L73.08 139.256L76.488 126.248H80.232L83.448 139.184L86.424 126.248H90.048ZM98.1459 143.216C96.8659 143.216 95.7139 142.936 94.6899 142.376C93.6659 141.8 92.8579 140.992 92.2659 139.952C91.6899 138.912 91.4019 137.712 91.4019 136.352C91.4019 134.992 91.6979 133.792 92.2899 132.752C92.8979 131.712 93.7219 130.912 94.7619 130.352C95.8019 129.776 96.9619 129.488 98.2419 129.488C99.5219 129.488 100.682 129.776 101.722 130.352C102.762 130.912 103.578 131.712 104.17 132.752C104.778 133.792 105.082 134.992 105.082 136.352C105.082 137.712 104.77 138.912 104.146 139.952C103.538 140.992 102.706 141.8 101.65 142.376C100.61 142.936 99.4419 143.216 98.1459 143.216ZM98.1459 140.288C98.7539 140.288 99.3219 140.144 99.8499 139.856C100.394 139.552 100.826 139.104 101.146 138.512C101.466 137.92 101.626 137.2 101.626 136.352C101.626 135.088 101.29 134.12 100.618 133.448C99.9619 132.76 99.1539 132.416 98.1939 132.416C97.2339 132.416 96.4259 132.76 95.7699 133.448C95.1299 134.12 94.8099 135.088 94.8099 136.352C94.8099 137.616 95.1219 138.592 95.7459 139.28C96.3859 139.952 97.1859 140.288 98.1459 140.288ZM110.907 131.768C111.339 131.064 111.899 130.512 112.587 130.112C113.291 129.712 114.091 129.512 114.987 129.512V133.04H114.099C113.043 133.04 112.243 133.288 111.699 133.784C111.171 134.28 110.907 135.144 110.907 136.376V143H107.547V129.704H110.907V131.768ZM125.122 143L120.61 137.336V143H117.25V125.24H120.61V135.344L125.074 129.704H129.442L123.586 136.376L129.49 143H125.122ZM136.353 143.216C135.265 143.216 134.289 143.024 133.425 142.64C132.561 142.24 131.873 141.704 131.361 141.032C130.865 140.36 130.593 139.616 130.545 138.8H133.929C133.993 139.312 134.241 139.736 134.673 140.072C135.121 140.408 135.673 140.576 136.329 140.576C136.969 140.576 137.465 140.448 137.817 140.192C138.185 139.936 138.369 139.608 138.369 139.208C138.369 138.776 138.145 138.456 137.697 138.248C137.265 138.024 136.569 137.784 135.609 137.528C134.617 137.288 133.801 137.04 133.161 136.784C132.537 136.528 131.993 136.136 131.529 135.608C131.081 135.08 130.857 134.368 130.857 133.472C130.857 132.736 131.065 132.064 131.481 131.456C131.913 130.848 132.521 130.368 133.305 130.016C134.105 129.664 135.041 129.488 136.113 129.488C137.697 129.488 138.961 129.888 139.905 130.688C140.849 131.472 141.369 132.536 141.465 133.88H138.249C138.201 133.352 137.977 132.936 137.577 132.632C137.193 132.312 136.673 132.152 136.017 132.152C135.409 132.152 134.937 132.264 134.601 132.488C134.281 132.712 134.121 133.024 134.121 133.424C134.121 133.872 134.345 134.216 134.793 134.456C135.241 134.68 135.937 134.912 136.881 135.152C137.841 135.392 138.633 135.64 139.257 135.896C139.881 136.152 140.417 136.552 140.865 137.096C141.329 137.624 141.569 138.328 141.585 139.208C141.585 139.976 141.369 140.664 140.937 141.272C140.521 141.88 139.913 142.36 139.113 142.712C138.329 143.048 137.409 143.216 136.353 143.216ZM151.832 129.512C152.84 129.512 153.736 129.736 154.52 130.184C155.304 130.616 155.912 131.264 156.344 132.128C156.792 132.976 157.016 134 157.016 135.2V143H153.656V135.656C153.656 134.6 153.392 133.792 152.864 133.232C152.336 132.656 151.616 132.368 150.704 132.368C149.776 132.368 149.04 132.656 148.496 133.232C147.968 133.792 147.704 134.6 147.704 135.656V143H144.344V125.24H147.704V131.36C148.136 130.784 148.712 130.336 149.432 130.016C150.152 129.68 150.952 129.512 151.832 129.512ZM166.115 143.216C164.835 143.216 163.683 142.936 162.659 142.376C161.635 141.8 160.827 140.992 160.235 139.952C159.659 138.912 159.371 137.712 159.371 136.352C159.371 134.992 159.667 133.792 160.259 132.752C160.867 131.712 161.691 130.912 162.731 130.352C163.771 129.776 164.931 129.488 166.211 129.488C167.491 129.488 168.651 129.776 169.691 130.352C170.731 130.912 171.547 131.712 172.139 132.752C172.747 133.792 173.051 134.992 173.051 136.352C173.051 137.712 172.739 138.912 172.115 139.952C171.507 140.992 170.675 141.8 169.619 142.376C168.579 142.936 167.411 143.216 166.115 143.216ZM166.115 140.288C166.723 140.288 167.291 140.144 167.819 139.856C168.363 139.552 168.795 139.104 169.115 138.512C169.435 137.92 169.595 137.2 169.595 136.352C169.595 135.088 169.259 134.12 168.587 133.448C167.931 132.76 167.123 132.416 166.163 132.416C165.203 132.416 164.395 132.76 163.739 133.448C163.099 134.12 162.779 135.088 162.779 136.352C162.779 137.616 163.091 138.592 163.715 139.28C164.355 139.952 165.155 140.288 166.115 140.288ZM178.875 131.624C179.307 131.016 179.899 130.512 180.651 130.112C181.419 129.696 182.291 129.488 183.267 129.488C184.403 129.488 185.427 129.768 186.339 130.328C187.267 130.888 187.995 131.688 188.523 132.728C189.067 133.752 189.339 134.944 189.339 136.304C189.339 137.664 189.067 138.872 188.523 139.928C187.995 140.968 187.267 141.776 186.339 142.352C185.427 142.928 184.403 143.216 183.267 143.216C182.291 143.216 181.427 143.016 180.675 142.616C179.939 142.216 179.339 141.712 178.875 141.104V149.336H175.515V129.704H178.875V131.624ZM185.907 136.304C185.907 135.504 185.739 134.816 185.403 134.24C185.083 133.648 184.651 133.2 184.107 132.896C183.579 132.592 183.003 132.44 182.379 132.44C181.771 132.44 181.195 132.6 180.651 132.92C180.123 133.224 179.691 133.672 179.355 134.264C179.035 134.856 178.875 135.552 178.875 136.352C178.875 137.152 179.035 137.848 179.355 138.44C179.691 139.032 180.123 139.488 180.651 139.808C181.195 140.112 181.771 140.264 182.379 140.264C183.003 140.264 183.579 140.104 184.107 139.784C184.651 139.464 185.083 139.008 185.403 138.416C185.739 137.824 185.907 137.12 185.907 136.304ZM196.869 143.216C195.781 143.216 194.805 143.024 193.941 142.64C193.077 142.24 192.389 141.704 191.877 141.032C191.381 140.36 191.109 139.616 191.061 138.8H194.445C194.509 139.312 194.757 139.736 195.189 140.072C195.637 140.408 196.189 140.576 196.845 140.576C197.485 140.576 197.981 140.448 198.333 140.192C198.701 139.936 198.885 139.608 198.885 139.208C198.885 138.776 198.661 138.456 198.213 138.248C197.781 138.024 197.085 137.784 196.125 137.528C195.133 137.288 194.317 137.04 193.677 136.784C193.053 136.528 192.509 136.136 192.045 135.608C191.597 135.08 191.373 134.368 191.373 133.472C191.373 132.736 191.581 132.064 191.997 131.456C192.429 130.848 193.037 130.368 193.821 130.016C194.621 129.664 195.557 129.488 196.629 129.488C198.213 129.488 199.477 129.888 200.421 130.688C201.365 131.472 201.885 132.536 201.981 133.88H198.765C198.717 133.352 198.493 132.936 198.093 132.632C197.709 132.312 197.189 132.152 196.533 132.152C195.925 132.152 195.453 132.264 195.117 132.488C194.797 132.712 194.637 133.024 194.637 133.424C194.637 133.872 194.861 134.216 195.309 134.456C195.757 134.68 196.453 134.912 197.397 135.152C198.357 135.392 199.149 135.64 199.773 135.896C200.397 136.152 200.933 136.552 201.381 137.096C201.845 137.624 202.085 138.328 202.101 139.208C202.101 139.976 201.885 140.664 201.453 141.272C201.037 141.88 200.429 142.36 199.629 142.712C198.845 143.048 197.925 143.216 196.869 143.216Z" fill="white"/>
<path d="M69.225 158.925C69.305 159.365 69.485 159.705 69.765 159.945C70.055 160.175 70.44 160.29 70.92 160.29C71.54 160.29 71.99 160.035 72.27 159.525C72.55 159.005 72.69 158.135 72.69 156.915C72.46 157.235 72.135 157.485 71.715 157.665C71.305 157.845 70.86 157.935 70.38 157.935C69.74 157.935 69.16 157.805 68.64 157.545C68.13 157.275 67.725 156.88 67.425 156.36C67.125 155.83 66.975 155.19 66.975 154.44C66.975 153.33 67.305 152.45 67.965 151.8C68.625 151.14 69.525 150.81 70.665 150.81C72.085 150.81 73.085 151.265 73.665 152.175C74.255 153.085 74.55 154.455 74.55 156.285C74.55 157.585 74.435 158.65 74.205 159.48C73.985 160.31 73.6 160.94 73.05 161.37C72.51 161.8 71.77 162.015 70.83 162.015C70.09 162.015 69.46 161.875 68.94 161.595C68.42 161.305 68.02 160.93 67.74 160.47C67.47 160 67.315 159.485 67.275 158.925H69.225ZM70.815 156.225C71.335 156.225 71.745 156.065 72.045 155.745C72.345 155.425 72.495 154.995 72.495 154.455C72.495 153.865 72.335 153.41 72.015 153.09C71.705 152.76 71.28 152.595 70.74 152.595C70.2 152.595 69.77 152.765 69.45 153.105C69.14 153.435 68.985 153.875 68.985 154.425C68.985 154.955 69.135 155.39 69.435 155.73C69.745 156.06 70.205 156.225 70.815 156.225ZM77.3546 162.105C76.9746 162.105 76.6596 161.99 76.4096 161.76C76.1696 161.52 76.0496 161.225 76.0496 160.875C76.0496 160.525 76.1696 160.235 76.4096 160.005C76.6596 159.765 76.9746 159.645 77.3546 159.645C77.7246 159.645 78.0296 159.765 78.2696 160.005C78.5096 160.235 78.6296 160.525 78.6296 160.875C78.6296 161.225 78.5096 161.52 78.2696 161.76C78.0296 161.99 77.7246 162.105 77.3546 162.105ZM77.3546 155.895C76.9746 155.895 76.6596 155.78 76.4096 155.55C76.1696 155.31 76.0496 155.015 76.0496 154.665C76.0496 154.315 76.1696 154.025 76.4096 153.795C76.6596 153.555 76.9746 153.435 77.3546 153.435C77.7246 153.435 78.0296 153.555 78.2696 153.795C78.5096 154.025 78.6296 154.315 78.6296 154.665C78.6296 155.015 78.5096 155.31 78.2696 155.55C78.0296 155.78 77.7246 155.895 77.3546 155.895ZM80.1251 156.39C80.1251 154.66 80.4351 153.305 81.0551 152.325C81.6851 151.345 82.7251 150.855 84.1751 150.855C85.6251 150.855 86.6601 151.345 87.2801 152.325C87.9101 153.305 88.2251 154.66 88.2251 156.39C88.2251 158.13 87.9101 159.495 87.2801 160.485C86.6601 161.475 85.6251 161.97 84.1751 161.97C82.7251 161.97 81.6851 161.475 81.0551 160.485C80.4351 159.495 80.1251 158.13 80.1251 156.39ZM86.1551 156.39C86.1551 155.65 86.1051 155.03 86.0051 154.53C85.9151 154.02 85.7251 153.605 85.4351 153.285C85.1551 152.965 84.7351 152.805 84.1751 152.805C83.6151 152.805 83.1901 152.965 82.9001 153.285C82.6201 153.605 82.4301 154.02 82.3301 154.53C82.2401 155.03 82.1951 155.65 82.1951 156.39C82.1951 157.15 82.2401 157.79 82.3301 158.31C82.4201 158.82 82.6101 159.235 82.9001 159.555C83.1901 159.865 83.6151 160.02 84.1751 160.02C84.7351 160.02 85.1601 159.865 85.4501 159.555C85.7401 159.235 85.9301 158.82 86.0201 158.31C86.1101 157.79 86.1551 157.15 86.1551 156.39ZM89.8223 156.39C89.8223 154.66 90.1323 153.305 90.7523 152.325C91.3823 151.345 92.4223 150.855 93.8723 150.855C95.3223 150.855 96.3573 151.345 96.9773 152.325C97.6073 153.305 97.9223 154.66 97.9223 156.39C97.9223 158.13 97.6073 159.495 96.9773 160.485C96.3573 161.475 95.3223 161.97 93.8723 161.97C92.4223 161.97 91.3823 161.475 90.7523 160.485C90.1323 159.495 89.8223 158.13 89.8223 156.39ZM95.8523 156.39C95.8523 155.65 95.8023 155.03 95.7023 154.53C95.6123 154.02 95.4223 153.605 95.1323 153.285C94.8523 152.965 94.4323 152.805 93.8723 152.805C93.3123 152.805 92.8873 152.965 92.5973 153.285C92.3173 153.605 92.1273 154.02 92.0273 154.53C91.9373 155.03 91.8923 155.65 91.8923 156.39C91.8923 157.15 91.9373 157.79 92.0273 158.31C92.1173 158.82 92.3073 159.235 92.5973 159.555C92.8873 159.865 93.3123 160.02 93.8723 160.02C94.4323 160.02 94.8573 159.865 95.1473 159.555C95.4373 159.235 95.6273 158.82 95.7173 158.31C95.8073 157.79 95.8523 157.15 95.8523 156.39ZM102.794 157.815C102.794 156.975 102.959 156.23 103.289 155.58C103.629 154.93 104.084 154.43 104.654 154.08C105.234 153.73 105.879 153.555 106.589 153.555C107.209 153.555 107.749 153.68 108.209 153.93C108.679 154.18 109.054 154.495 109.334 154.875V153.69H111.449V162H109.334V160.785C109.064 161.175 108.689 161.5 108.209 161.76C107.739 162.01 107.194 162.135 106.574 162.135C105.874 162.135 105.234 161.955 104.654 161.595C104.084 161.235 103.629 160.73 103.289 160.08C102.959 159.42 102.794 158.665 102.794 157.815ZM109.334 157.845C109.334 157.335 109.234 156.9 109.034 156.54C108.834 156.17 108.564 155.89 108.224 155.7C107.884 155.5 107.519 155.4 107.129 155.4C106.739 155.4 106.379 155.495 106.049 155.685C105.719 155.875 105.449 156.155 105.239 156.525C105.039 156.885 104.939 157.315 104.939 157.815C104.939 158.315 105.039 158.755 105.239 159.135C105.449 159.505 105.719 159.79 106.049 159.99C106.389 160.19 106.749 160.29 107.129 160.29C107.519 160.29 107.884 160.195 108.224 160.005C108.564 159.805 108.834 159.525 109.034 159.165C109.234 158.795 109.334 158.355 109.334 157.845ZM123.82 153.57C124.84 153.57 125.66 153.885 126.28 154.515C126.91 155.135 127.225 156.005 127.225 157.125V162H125.125V157.41C125.125 156.76 124.96 156.265 124.63 155.925C124.3 155.575 123.85 155.4 123.28 155.4C122.71 155.4 122.255 155.575 121.915 155.925C121.585 156.265 121.42 156.76 121.42 157.41V162H119.32V157.41C119.32 156.76 119.155 156.265 118.825 155.925C118.495 155.575 118.045 155.4 117.475 155.4C116.895 155.4 116.435 155.575 116.095 155.925C115.765 156.265 115.6 156.76 115.6 157.41V162H113.5V153.69H115.6V154.695C115.87 154.345 116.215 154.07 116.635 153.87C117.065 153.67 117.535 153.57 118.045 153.57C118.695 153.57 119.275 153.71 119.785 153.99C120.295 154.26 120.69 154.65 120.97 155.16C121.24 154.68 121.63 154.295 122.14 154.005C122.66 153.715 123.22 153.57 123.82 153.57ZM139.182 155.76V157.53H132.822V155.76H139.182ZM144.616 153V151.065H148.231V162H146.071V153H144.616ZM151.476 162.105C151.096 162.105 150.781 161.99 150.531 161.76C150.291 161.52 150.171 161.225 150.171 160.875C150.171 160.525 150.291 160.235 150.531 160.005C150.781 159.765 151.096 159.645 151.476 159.645C151.846 159.645 152.151 159.765 152.391 160.005C152.631 160.235 152.751 160.525 152.751 160.875C152.751 161.225 152.631 161.52 152.391 161.76C152.151 161.99 151.846 162.105 151.476 162.105ZM151.476 155.895C151.096 155.895 150.781 155.78 150.531 155.55C150.291 155.31 150.171 155.015 150.171 154.665C150.171 154.315 150.291 154.025 150.531 153.795C150.781 153.555 151.096 153.435 151.476 153.435C151.846 153.435 152.151 153.555 152.391 153.795C152.631 154.025 152.751 154.315 152.751 154.665C152.751 155.015 152.631 155.31 152.391 155.55C152.151 155.78 151.846 155.895 151.476 155.895ZM154.246 156.39C154.246 154.66 154.556 153.305 155.176 152.325C155.806 151.345 156.846 150.855 158.296 150.855C159.746 150.855 160.781 151.345 161.401 152.325C162.031 153.305 162.346 154.66 162.346 156.39C162.346 158.13 162.031 159.495 161.401 160.485C160.781 161.475 159.746 161.97 158.296 161.97C156.846 161.97 155.806 161.475 155.176 160.485C154.556 159.495 154.246 158.13 154.246 156.39ZM160.276 156.39C160.276 155.65 160.226 155.03 160.126 154.53C160.036 154.02 159.846 153.605 159.556 153.285C159.276 152.965 158.856 152.805 158.296 152.805C157.736 152.805 157.311 152.965 157.021 153.285C156.741 153.605 156.551 154.02 156.451 154.53C156.361 155.03 156.316 155.65 156.316 156.39C156.316 157.15 156.361 157.79 156.451 158.31C156.541 158.82 156.731 159.235 157.021 159.555C157.311 159.865 157.736 160.02 158.296 160.02C158.856 160.02 159.281 159.865 159.571 159.555C159.861 159.235 160.051 158.82 160.141 158.31C160.231 157.79 160.276 157.15 160.276 156.39ZM163.943 156.39C163.943 154.66 164.253 153.305 164.873 152.325C165.503 151.345 166.543 150.855 167.993 150.855C169.443 150.855 170.478 151.345 171.098 152.325C171.728 153.305 172.043 154.66 172.043 156.39C172.043 158.13 171.728 159.495 171.098 160.485C170.478 161.475 169.443 161.97 167.993 161.97C166.543 161.97 165.503 161.475 164.873 160.485C164.253 159.495 163.943 158.13 163.943 156.39ZM169.973 156.39C169.973 155.65 169.923 155.03 169.823 154.53C169.733 154.02 169.543 153.605 169.253 153.285C168.973 152.965 168.553 152.805 167.993 152.805C167.433 152.805 167.008 152.965 166.718 153.285C166.438 153.605 166.248 154.02 166.148 154.53C166.058 155.03 166.013 155.65 166.013 156.39C166.013 157.15 166.058 157.79 166.148 158.31C166.238 158.82 166.428 159.235 166.718 159.555C167.008 159.865 167.433 160.02 167.993 160.02C168.553 160.02 168.978 159.865 169.268 159.555C169.558 159.235 169.748 158.82 169.838 158.31C169.928 157.79 169.973 157.15 169.973 156.39ZM179.555 154.89C179.825 154.51 180.195 154.195 180.665 153.945C181.145 153.685 181.69 153.555 182.3 153.555C183.01 153.555 183.65 153.73 184.22 154.08C184.8 154.43 185.255 154.93 185.585 155.58C185.925 156.22 186.095 156.965 186.095 157.815C186.095 158.665 185.925 159.42 185.585 160.08C185.255 160.73 184.8 161.235 184.22 161.595C183.65 161.955 183.01 162.135 182.3 162.135C181.69 162.135 181.15 162.01 180.68 161.76C180.22 161.51 179.845 161.195 179.555 160.815V165.96H177.455V153.69H179.555V154.89ZM183.95 157.815C183.95 157.315 183.845 156.885 183.635 156.525C183.435 156.155 183.165 155.875 182.825 155.685C182.495 155.495 182.135 155.4 181.745 155.4C181.365 155.4 181.005 155.5 180.665 155.7C180.335 155.89 180.065 156.17 179.855 156.54C179.655 156.91 179.555 157.345 179.555 157.845C179.555 158.345 179.655 158.78 179.855 159.15C180.065 159.52 180.335 159.805 180.665 160.005C181.005 160.195 181.365 160.29 181.745 160.29C182.135 160.29 182.495 160.19 182.825 159.99C183.165 159.79 183.435 159.505 183.635 159.135C183.845 158.765 183.95 158.325 183.95 157.815ZM197.941 153.57C198.961 153.57 199.781 153.885 200.401 154.515C201.031 155.135 201.346 156.005 201.346 157.125V162H199.246V157.41C199.246 156.76 199.081 156.265 198.751 155.925C198.421 155.575 197.971 155.4 197.401 155.4C196.831 155.4 196.376 155.575 196.036 155.925C195.706 156.265 195.541 156.76 195.541 157.41V162H193.441V157.41C193.441 156.76 193.276 156.265 192.946 155.925C192.616 155.575 192.166 155.4 191.596 155.4C191.016 155.4 190.556 155.575 190.216 155.925C189.886 156.265 189.721 156.76 189.721 157.41V162H187.621V153.69H189.721V154.695C189.991 154.345 190.336 154.07 190.756 153.87C191.186 153.67 191.656 153.57 192.166 153.57C192.816 153.57 193.396 153.71 193.906 153.99C194.416 154.26 194.811 154.65 195.091 155.16C195.361 154.68 195.751 154.295 196.261 154.005C196.781 153.715 197.341 153.57 197.941 153.57Z" fill="white"/>
<path d="M73.44 229.168C72.272 229.168 71.216 228.968 70.272 228.568C69.344 228.168 68.608 227.592 68.064 226.84C67.52 226.088 67.24 225.2 67.224 224.176H70.824C70.872 224.864 71.112 225.408 71.544 225.808C71.992 226.208 72.6 226.408 73.368 226.408C74.152 226.408 74.768 226.224 75.216 225.856C75.664 225.472 75.888 224.976 75.888 224.368C75.888 223.872 75.736 223.464 75.432 223.144C75.128 222.824 74.744 222.576 74.28 222.4C73.832 222.208 73.208 222 72.408 221.776C71.32 221.456 70.432 221.144 69.744 220.84C69.072 220.52 68.488 220.048 67.992 219.424C67.512 218.784 67.272 217.936 67.272 216.88C67.272 215.888 67.52 215.024 68.016 214.288C68.512 213.552 69.208 212.992 70.104 212.608C71 212.208 72.024 212.008 73.176 212.008C74.904 212.008 76.304 212.432 77.376 213.28C78.464 214.112 79.064 215.28 79.176 216.784H75.48C75.448 216.208 75.2 215.736 74.736 215.368C74.288 214.984 73.688 214.792 72.936 214.792C72.28 214.792 71.752 214.96 71.352 215.296C70.968 215.632 70.776 216.12 70.776 216.76C70.776 217.208 70.92 217.584 71.208 217.888C71.512 218.176 71.88 218.416 72.312 218.608C72.76 218.784 73.384 218.992 74.184 219.232C75.272 219.552 76.16 219.872 76.848 220.192C77.536 220.512 78.128 220.992 78.624 221.632C79.12 222.272 79.368 223.112 79.368 224.152C79.368 225.048 79.136 225.88 78.672 226.648C78.208 227.416 77.528 228.032 76.632 228.496C75.736 228.944 74.672 229.168 73.44 229.168ZM94.641 222.064C94.641 222.544 94.609 222.976 94.545 223.36H84.825C84.905 224.32 85.241 225.072 85.833 225.616C86.425 226.16 87.153 226.432 88.017 226.432C89.265 226.432 90.153 225.896 90.681 224.824H94.305C93.921 226.104 93.185 227.16 92.097 227.992C91.009 228.808 89.673 229.216 88.089 229.216C86.809 229.216 85.657 228.936 84.633 228.376C83.625 227.8 82.833 226.992 82.257 225.952C81.697 224.912 81.417 223.712 81.417 222.352C81.417 220.976 81.697 219.768 82.257 218.728C82.817 217.688 83.601 216.888 84.609 216.328C85.617 215.768 86.777 215.488 88.089 215.488C89.353 215.488 90.481 215.76 91.473 216.304C92.481 216.848 93.257 217.624 93.801 218.632C94.361 219.624 94.641 220.768 94.641 222.064ZM91.161 221.104C91.145 220.24 90.833 219.552 90.225 219.04C89.617 218.512 88.873 218.248 87.993 218.248C87.161 218.248 86.457 218.504 85.881 219.016C85.321 219.512 84.977 220.208 84.849 221.104H91.161ZM113.606 215.512C115.238 215.512 116.55 216.016 117.542 217.024C118.55 218.016 119.054 219.408 119.054 221.2V229H115.694V221.656C115.694 220.616 115.43 219.824 114.902 219.28C114.374 218.72 113.654 218.44 112.742 218.44C111.83 218.44 111.102 218.72 110.558 219.28C110.03 219.824 109.766 220.616 109.766 221.656V229H106.406V221.656C106.406 220.616 106.142 219.824 105.614 219.28C105.086 218.72 104.366 218.44 103.454 218.44C102.526 218.44 101.79 218.72 101.246 219.28C100.718 219.824 100.454 220.616 100.454 221.656V229H97.0935V215.704H100.454V217.312C100.886 216.752 101.438 216.312 102.11 215.992C102.798 215.672 103.55 215.512 104.366 215.512C105.406 215.512 106.334 215.736 107.15 216.184C107.966 216.616 108.598 217.24 109.046 218.056C109.478 217.288 110.102 216.672 110.918 216.208C111.75 215.744 112.646 215.512 113.606 215.512ZM123.946 214.12C123.354 214.12 122.858 213.936 122.458 213.568C122.074 213.184 121.882 212.712 121.882 212.152C121.882 211.592 122.074 211.128 122.458 210.76C122.858 210.376 123.354 210.184 123.946 210.184C124.538 210.184 125.026 210.376 125.41 210.76C125.81 211.128 126.01 211.592 126.01 212.152C126.01 212.712 125.81 213.184 125.41 213.568C125.026 213.936 124.538 214.12 123.946 214.12ZM125.602 215.704V229H122.242V215.704H125.602ZM136.29 215.512C137.874 215.512 139.154 216.016 140.13 217.024C141.106 218.016 141.594 219.408 141.594 221.2V229H138.234V221.656C138.234 220.6 137.97 219.792 137.442 219.232C136.914 218.656 136.194 218.368 135.282 218.368C134.354 218.368 133.618 218.656 133.074 219.232C132.546 219.792 132.282 220.6 132.282 221.656V229H128.922V215.704H132.282V217.36C132.73 216.784 133.298 216.336 133.986 216.016C134.69 215.68 135.458 215.512 136.29 215.512ZM143.925 222.304C143.925 220.96 144.189 219.768 144.717 218.728C145.261 217.688 145.989 216.888 146.901 216.328C147.829 215.768 148.861 215.488 149.997 215.488C150.989 215.488 151.853 215.688 152.589 216.088C153.341 216.488 153.941 216.992 154.389 217.6V215.704H157.773V229H154.389V227.056C153.957 227.68 153.357 228.2 152.589 228.616C151.837 229.016 150.965 229.216 149.973 229.216C148.853 229.216 147.829 228.928 146.901 228.352C145.989 227.776 145.261 226.968 144.717 225.928C144.189 224.872 143.925 223.664 143.925 222.304ZM154.389 222.352C154.389 221.536 154.229 220.84 153.909 220.264C153.589 219.672 153.157 219.224 152.613 218.92C152.069 218.6 151.485 218.44 150.861 218.44C150.237 218.44 149.661 218.592 149.133 218.896C148.605 219.2 148.173 219.648 147.837 220.24C147.517 220.816 147.357 221.504 147.357 222.304C147.357 223.104 147.517 223.808 147.837 224.416C148.173 225.008 148.605 225.464 149.133 225.784C149.677 226.104 150.253 226.264 150.861 226.264C151.485 226.264 152.069 226.112 152.613 225.808C153.157 225.488 153.589 225.04 153.909 224.464C154.229 223.872 154.389 223.168 154.389 222.352ZM164.414 217.768C164.846 217.064 165.406 216.512 166.094 216.112C166.798 215.712 167.598 215.512 168.494 215.512V219.04H167.606C166.55 219.04 165.75 219.288 165.206 219.784C164.678 220.28 164.414 221.144 164.414 222.376V229H161.054V215.704H164.414V217.768Z" fill="white"/>
<path d="M67.455 250.63C68.415 249.83 69.18 249.165 69.75 248.635C70.32 248.095 70.795 247.535 71.175 246.955C71.555 246.375 71.745 245.805 71.745 245.245C71.745 244.735 71.625 244.335 71.385 244.045C71.145 243.755 70.775 243.61 70.275 243.61C69.775 243.61 69.39 243.78 69.12 244.12C68.85 244.45 68.71 244.905 68.7 245.485H66.66C66.7 244.285 67.055 243.375 67.725 242.755C68.405 242.135 69.265 241.825 70.305 241.825C71.445 241.825 72.32 242.13 72.93 242.74C73.54 243.34 73.845 244.135 73.845 245.125C73.845 245.905 73.635 246.65 73.215 247.36C72.795 248.07 72.315 248.69 71.775 249.22C71.235 249.74 70.53 250.37 69.66 251.11H74.085V252.85H66.675V251.29L67.455 250.63ZM76.5783 253.105C76.1983 253.105 75.8833 252.99 75.6333 252.76C75.3933 252.52 75.2733 252.225 75.2733 251.875C75.2733 251.525 75.3933 251.235 75.6333 251.005C75.8833 250.765 76.1983 250.645 76.5783 250.645C76.9483 250.645 77.2533 250.765 77.4933 251.005C77.7333 251.235 77.8533 251.525 77.8533 251.875C77.8533 252.225 77.7333 252.52 77.4933 252.76C77.2533 252.99 76.9483 253.105 76.5783 253.105ZM76.5783 246.895C76.1983 246.895 75.8833 246.78 75.6333 246.55C75.3933 246.31 75.2733 246.015 75.2733 245.665C75.2733 245.315 75.3933 245.025 75.6333 244.795C75.8833 244.555 76.1983 244.435 76.5783 244.435C76.9483 244.435 77.2533 244.555 77.4933 244.795C77.7333 245.025 77.8533 245.315 77.8533 245.665C77.8533 246.015 77.7333 246.31 77.4933 246.55C77.2533 246.78 76.9483 246.895 76.5783 246.895ZM79.3487 247.39C79.3487 245.66 79.6587 244.305 80.2787 243.325C80.9087 242.345 81.9487 241.855 83.3987 241.855C84.8487 241.855 85.8837 242.345 86.5037 243.325C87.1337 244.305 87.4487 245.66 87.4487 247.39C87.4487 249.13 87.1337 250.495 86.5037 251.485C85.8837 252.475 84.8487 252.97 83.3987 252.97C81.9487 252.97 80.9087 252.475 80.2787 251.485C79.6587 250.495 79.3487 249.13 79.3487 247.39ZM85.3787 247.39C85.3787 246.65 85.3287 246.03 85.2287 245.53C85.1387 245.02 84.9487 244.605 84.6587 244.285C84.3787 243.965 83.9587 243.805 83.3987 243.805C82.8387 243.805 82.4137 243.965 82.1237 244.285C81.8437 244.605 81.6537 245.02 81.5537 245.53C81.4637 246.03 81.4187 246.65 81.4187 247.39C81.4187 248.15 81.4637 248.79 81.5537 249.31C81.6437 249.82 81.8337 250.235 82.1237 250.555C82.4137 250.865 82.8387 251.02 83.3987 251.02C83.9587 251.02 84.3837 250.865 84.6737 250.555C84.9637 250.235 85.1537 249.82 85.2437 249.31C85.3337 248.79 85.3787 248.15 85.3787 247.39ZM89.046 247.39C89.046 245.66 89.356 244.305 89.976 243.325C90.606 242.345 91.646 241.855 93.096 241.855C94.546 241.855 95.581 242.345 96.201 243.325C96.831 244.305 97.146 245.66 97.146 247.39C97.146 249.13 96.831 250.495 96.201 251.485C95.581 252.475 94.546 252.97 93.096 252.97C91.646 252.97 90.606 252.475 89.976 251.485C89.356 250.495 89.046 249.13 89.046 247.39ZM95.076 247.39C95.076 246.65 95.026 246.03 94.926 245.53C94.836 245.02 94.646 244.605 94.356 244.285C94.076 243.965 93.656 243.805 93.096 243.805C92.536 243.805 92.111 243.965 91.821 244.285C91.541 244.605 91.351 245.02 91.251 245.53C91.161 246.03 91.116 246.65 91.116 247.39C91.116 248.15 91.161 248.79 91.251 249.31C91.341 249.82 91.531 250.235 91.821 250.555C92.111 250.865 92.536 251.02 93.096 251.02C93.656 251.02 94.081 250.865 94.371 250.555C94.661 250.235 94.851 249.82 94.941 249.31C95.031 248.79 95.076 248.15 95.076 247.39ZM104.657 245.89C104.927 245.51 105.297 245.195 105.767 244.945C106.247 244.685 106.792 244.555 107.402 244.555C108.112 244.555 108.752 244.73 109.322 245.08C109.902 245.43 110.357 245.93 110.687 246.58C111.027 247.22 111.197 247.965 111.197 248.815C111.197 249.665 111.027 250.42 110.687 251.08C110.357 251.73 109.902 252.235 109.322 252.595C108.752 252.955 108.112 253.135 107.402 253.135C106.792 253.135 106.252 253.01 105.782 252.76C105.322 252.51 104.947 252.195 104.657 251.815V256.96H102.557V244.69H104.657V245.89ZM109.052 248.815C109.052 248.315 108.947 247.885 108.737 247.525C108.537 247.155 108.267 246.875 107.927 246.685C107.597 246.495 107.237 246.4 106.847 246.4C106.467 246.4 106.107 246.5 105.767 246.7C105.437 246.89 105.167 247.17 104.957 247.54C104.757 247.91 104.657 248.345 104.657 248.845C104.657 249.345 104.757 249.78 104.957 250.15C105.167 250.52 105.437 250.805 105.767 251.005C106.107 251.195 106.467 251.29 106.847 251.29C107.237 251.29 107.597 251.19 107.927 250.99C108.267 250.79 108.537 250.505 108.737 250.135C108.947 249.765 109.052 249.325 109.052 248.815ZM123.043 244.57C124.063 244.57 124.883 244.885 125.503 245.515C126.133 246.135 126.448 247.005 126.448 248.125V253H124.348V248.41C124.348 247.76 124.183 247.265 123.853 246.925C123.523 246.575 123.073 246.4 122.503 246.4C121.933 246.4 121.478 246.575 121.138 246.925C120.808 247.265 120.643 247.76 120.643 248.41V253H118.543V248.41C118.543 247.76 118.378 247.265 118.048 246.925C117.718 246.575 117.268 246.4 116.698 246.4C116.118 246.4 115.658 246.575 115.318 246.925C114.988 247.265 114.823 247.76 114.823 248.41V253H112.723V244.69H114.823V245.695C115.093 245.345 115.438 245.07 115.858 244.87C116.288 244.67 116.758 244.57 117.268 244.57C117.918 244.57 118.498 244.71 119.008 244.99C119.518 245.26 119.913 245.65 120.193 246.16C120.463 245.68 120.853 245.295 121.363 245.005C121.883 244.715 122.443 244.57 123.043 244.57ZM138.405 246.76V248.53H132.045V246.76H138.405ZM144.125 244.945C144.175 243.945 144.525 243.175 145.175 242.635C145.835 242.085 146.7 241.81 147.77 241.81C148.5 241.81 149.125 241.94 149.645 242.2C150.165 242.45 150.555 242.795 150.815 243.235C151.085 243.665 151.22 244.155 151.22 244.705C151.22 245.335 151.055 245.87 150.725 246.31C150.405 246.74 150.02 247.03 149.57 247.18V247.24C150.15 247.42 150.6 247.74 150.92 248.2C151.25 248.66 151.415 249.25 151.415 249.97C151.415 250.57 151.275 251.105 150.995 251.575C150.725 252.045 150.32 252.415 149.78 252.685C149.25 252.945 148.61 253.075 147.86 253.075C146.73 253.075 145.81 252.79 145.1 252.22C144.39 251.65 144.015 250.81 143.975 249.7H146.015C146.035 250.19 146.2 250.585 146.51 250.885C146.83 251.175 147.265 251.32 147.815 251.32C148.325 251.32 148.715 251.18 148.985 250.9C149.265 250.61 149.405 250.24 149.405 249.79C149.405 249.19 149.215 248.76 148.835 248.5C148.455 248.24 147.865 248.11 147.065 248.11H146.63V246.385H147.065C148.485 246.385 149.195 245.91 149.195 244.96C149.195 244.53 149.065 244.195 148.805 243.955C148.555 243.715 148.19 243.595 147.71 243.595C147.24 243.595 146.875 243.725 146.615 243.985C146.365 244.235 146.22 244.555 146.18 244.945H144.125ZM154.244 253.105C153.864 253.105 153.549 252.99 153.299 252.76C153.059 252.52 152.939 252.225 152.939 251.875C152.939 251.525 153.059 251.235 153.299 251.005C153.549 250.765 153.864 250.645 154.244 250.645C154.614 250.645 154.919 250.765 155.159 251.005C155.399 251.235 155.519 251.525 155.519 251.875C155.519 252.225 155.399 252.52 155.159 252.76C154.919 252.99 154.614 253.105 154.244 253.105ZM154.244 246.895C153.864 246.895 153.549 246.78 153.299 246.55C153.059 246.31 152.939 246.015 152.939 245.665C152.939 245.315 153.059 245.025 153.299 244.795C153.549 244.555 153.864 244.435 154.244 244.435C154.614 244.435 154.919 244.555 155.159 244.795C155.399 245.025 155.519 245.315 155.519 245.665C155.519 246.015 155.399 246.31 155.159 246.55C154.919 246.78 154.614 246.895 154.244 246.895ZM157.015 247.39C157.015 245.66 157.325 244.305 157.945 243.325C158.575 242.345 159.615 241.855 161.065 241.855C162.515 241.855 163.55 242.345 164.17 243.325C164.8 244.305 165.115 245.66 165.115 247.39C165.115 249.13 164.8 250.495 164.17 251.485C163.55 252.475 162.515 252.97 161.065 252.97C159.615 252.97 158.575 252.475 157.945 251.485C157.325 250.495 157.015 249.13 157.015 247.39ZM163.045 247.39C163.045 246.65 162.995 246.03 162.895 245.53C162.805 245.02 162.615 244.605 162.325 244.285C162.045 243.965 161.625 243.805 161.065 243.805C160.505 243.805 160.08 243.965 159.79 244.285C159.51 244.605 159.32 245.02 159.22 245.53C159.13 246.03 159.085 246.65 159.085 247.39C159.085 248.15 159.13 248.79 159.22 249.31C159.31 249.82 159.5 250.235 159.79 250.555C160.08 250.865 160.505 251.02 161.065 251.02C161.625 251.02 162.05 250.865 162.34 250.555C162.63 250.235 162.82 249.82 162.91 249.31C163 248.79 163.045 248.15 163.045 247.39ZM166.712 247.39C166.712 245.66 167.022 244.305 167.642 243.325C168.272 242.345 169.312 241.855 170.762 241.855C172.212 241.855 173.247 242.345 173.867 243.325C174.497 244.305 174.812 245.66 174.812 247.39C174.812 249.13 174.497 250.495 173.867 251.485C173.247 252.475 172.212 252.97 170.762 252.97C169.312 252.97 168.272 252.475 167.642 251.485C167.022 250.495 166.712 249.13 166.712 247.39ZM172.742 247.39C172.742 246.65 172.692 246.03 172.592 245.53C172.502 245.02 172.312 244.605 172.022 244.285C171.742 243.965 171.322 243.805 170.762 243.805C170.202 243.805 169.777 243.965 169.487 244.285C169.207 244.605 169.017 245.02 168.917 245.53C168.827 246.03 168.782 246.65 168.782 247.39C168.782 248.15 168.827 248.79 168.917 249.31C169.007 249.82 169.197 250.235 169.487 250.555C169.777 250.865 170.202 251.02 170.762 251.02C171.322 251.02 171.747 250.865 172.037 250.555C172.327 250.235 172.517 249.82 172.607 249.31C172.697 248.79 172.742 248.15 172.742 247.39ZM182.323 245.89C182.593 245.51 182.963 245.195 183.433 244.945C183.913 244.685 184.458 244.555 185.068 244.555C185.778 244.555 186.418 244.73 186.988 245.08C187.568 245.43 188.023 245.93 188.353 246.58C188.693 247.22 188.863 247.965 188.863 248.815C188.863 249.665 188.693 250.42 188.353 251.08C188.023 251.73 187.568 252.235 186.988 252.595C186.418 252.955 185.778 253.135 185.068 253.135C184.458 253.135 183.918 253.01 183.448 252.76C182.988 252.51 182.613 252.195 182.323 251.815V256.96H180.223V244.69H182.323V245.89ZM186.718 248.815C186.718 248.315 186.613 247.885 186.403 247.525C186.203 247.155 185.933 246.875 185.593 246.685C185.263 246.495 184.903 246.4 184.513 246.4C184.133 246.4 183.773 246.5 183.433 246.7C183.103 246.89 182.833 247.17 182.623 247.54C182.423 247.91 182.323 248.345 182.323 248.845C182.323 249.345 182.423 249.78 182.623 250.15C182.833 250.52 183.103 250.805 183.433 251.005C183.773 251.195 184.133 251.29 184.513 251.29C184.903 251.29 185.263 251.19 185.593 250.99C185.933 250.79 186.203 250.505 186.403 250.135C186.613 249.765 186.718 249.325 186.718 248.815ZM200.709 244.57C201.729 244.57 202.549 244.885 203.169 245.515C203.799 246.135 204.114 247.005 204.114 248.125V253H202.014V248.41C202.014 247.76 201.849 247.265 201.519 246.925C201.189 246.575 200.739 246.4 200.169 246.4C199.599 246.4 199.144 246.575 198.804 246.925C198.474 247.265 198.309 247.76 198.309 248.41V253H196.209V248.41C196.209 247.76 196.044 247.265 195.714 246.925C195.384 246.575 194.934 246.4 194.364 246.4C193.784 246.4 193.324 246.575 192.984 246.925C192.654 247.265 192.489 247.76 192.489 248.41V253H190.389V244.69H192.489V245.695C192.759 245.345 193.104 245.07 193.524 244.87C193.954 244.67 194.424 244.57 194.934 244.57C195.584 244.57 196.164 244.71 196.674 244.99C197.184 245.26 197.579 245.65 197.859 246.16C198.129 245.68 198.519 245.295 199.029 245.005C199.549 244.715 200.109 244.57 200.709 244.57Z" fill="white"/>
<path d="M90.048 298.248L85.368 315H81.408L78.264 303.072L74.976 315L71.04 315.024L66.528 298.248H70.128L73.08 311.256L76.488 298.248H80.232L83.448 311.184L86.424 298.248H90.048ZM98.1459 315.216C96.8659 315.216 95.7139 314.936 94.6899 314.376C93.6659 313.8 92.8579 312.992 92.2659 311.952C91.6899 310.912 91.4019 309.712 91.4019 308.352C91.4019 306.992 91.6979 305.792 92.2899 304.752C92.8979 303.712 93.7219 302.912 94.7619 302.352C95.8019 301.776 96.9619 301.488 98.2419 301.488C99.5219 301.488 100.682 301.776 101.722 302.352C102.762 302.912 103.578 303.712 104.17 304.752C104.778 305.792 105.082 306.992 105.082 308.352C105.082 309.712 104.77 310.912 104.146 311.952C103.538 312.992 102.706 313.8 101.65 314.376C100.61 314.936 99.4419 315.216 98.1459 315.216ZM98.1459 312.288C98.7539 312.288 99.3219 312.144 99.8499 311.856C100.394 311.552 100.826 311.104 101.146 310.512C101.466 309.92 101.626 309.2 101.626 308.352C101.626 307.088 101.29 306.12 100.618 305.448C99.9619 304.76 99.1539 304.416 98.1939 304.416C97.2339 304.416 96.4259 304.76 95.7699 305.448C95.1299 306.12 94.8099 307.088 94.8099 308.352C94.8099 309.616 95.1219 310.592 95.7459 311.28C96.3859 311.952 97.1859 312.288 98.1459 312.288ZM110.907 303.768C111.339 303.064 111.899 302.512 112.587 302.112C113.291 301.712 114.091 301.512 114.987 301.512V305.04H114.099C113.043 305.04 112.243 305.288 111.699 305.784C111.171 306.28 110.907 307.144 110.907 308.376V315H107.547V301.704H110.907V303.768ZM125.122 315L120.61 309.336V315H117.25V297.24H120.61V307.344L125.074 301.704H129.442L123.586 308.376L129.49 315H125.122ZM136.353 315.216C135.265 315.216 134.289 315.024 133.425 314.64C132.561 314.24 131.873 313.704 131.361 313.032C130.865 312.36 130.593 311.616 130.545 310.8H133.929C133.993 311.312 134.241 311.736 134.673 312.072C135.121 312.408 135.673 312.576 136.329 312.576C136.969 312.576 137.465 312.448 137.817 312.192C138.185 311.936 138.369 311.608 138.369 311.208C138.369 310.776 138.145 310.456 137.697 310.248C137.265 310.024 136.569 309.784 135.609 309.528C134.617 309.288 133.801 309.04 133.161 308.784C132.537 308.528 131.993 308.136 131.529 307.608C131.081 307.08 130.857 306.368 130.857 305.472C130.857 304.736 131.065 304.064 131.481 303.456C131.913 302.848 132.521 302.368 133.305 302.016C134.105 301.664 135.041 301.488 136.113 301.488C137.697 301.488 138.961 301.888 139.905 302.688C140.849 303.472 141.369 304.536 141.465 305.88H138.249C138.201 305.352 137.977 304.936 137.577 304.632C137.193 304.312 136.673 304.152 136.017 304.152C135.409 304.152 134.937 304.264 134.601 304.488C134.281 304.712 134.121 305.024 134.121 305.424C134.121 305.872 134.345 306.216 134.793 306.456C135.241 306.68 135.937 306.912 136.881 307.152C137.841 307.392 138.633 307.64 139.257 307.896C139.881 308.152 140.417 308.552 140.865 309.096C141.329 309.624 141.569 310.328 141.585 311.208C141.585 311.976 141.369 312.664 140.937 313.272C140.521 313.88 139.913 314.36 139.113 314.712C138.329 315.048 137.409 315.216 136.353 315.216ZM151.832 301.512C152.84 301.512 153.736 301.736 154.52 302.184C155.304 302.616 155.912 303.264 156.344 304.128C156.792 304.976 157.016 306 157.016 307.2V315H153.656V307.656C153.656 306.6 153.392 305.792 152.864 305.232C152.336 304.656 151.616 304.368 150.704 304.368C149.776 304.368 149.04 304.656 148.496 305.232C147.968 305.792 147.704 306.6 147.704 307.656V315H144.344V297.24H147.704V303.36C148.136 302.784 148.712 302.336 149.432 302.016C150.152 301.68 150.952 301.512 151.832 301.512ZM166.115 315.216C164.835 315.216 163.683 314.936 162.659 314.376C161.635 313.8 160.827 312.992 160.235 311.952C159.659 310.912 159.371 309.712 159.371 308.352C159.371 306.992 159.667 305.792 160.259 304.752C160.867 303.712 161.691 302.912 162.731 302.352C163.771 301.776 164.931 301.488 166.211 301.488C167.491 301.488 168.651 301.776 169.691 302.352C170.731 302.912 171.547 303.712 172.139 304.752C172.747 305.792 173.051 306.992 173.051 308.352C173.051 309.712 172.739 310.912 172.115 311.952C171.507 312.992 170.675 313.8 169.619 314.376C168.579 314.936 167.411 315.216 166.115 315.216ZM166.115 312.288C166.723 312.288 167.291 312.144 167.819 311.856C168.363 311.552 168.795 311.104 169.115 310.512C169.435 309.92 169.595 309.2 169.595 308.352C169.595 307.088 169.259 306.12 168.587 305.448C167.931 304.76 167.123 304.416 166.163 304.416C165.203 304.416 164.395 304.76 163.739 305.448C163.099 306.12 162.779 307.088 162.779 308.352C162.779 309.616 163.091 310.592 163.715 311.28C164.355 311.952 165.155 312.288 166.115 312.288ZM178.875 303.624C179.307 303.016 179.899 302.512 180.651 302.112C181.419 301.696 182.291 301.488 183.267 301.488C184.403 301.488 185.427 301.768 186.339 302.328C187.267 302.888 187.995 303.688 188.523 304.728C189.067 305.752 189.339 306.944 189.339 308.304C189.339 309.664 189.067 310.872 188.523 311.928C187.995 312.968 187.267 313.776 186.339 314.352C185.427 314.928 184.403 315.216 183.267 315.216C182.291 315.216 181.427 315.016 180.675 314.616C179.939 314.216 179.339 313.712 178.875 313.104V321.336H175.515V301.704H178.875V303.624ZM185.907 308.304C185.907 307.504 185.739 306.816 185.403 306.24C185.083 305.648 184.651 305.2 184.107 304.896C183.579 304.592 183.003 304.44 182.379 304.44C181.771 304.44 181.195 304.6 180.651 304.92C180.123 305.224 179.691 305.672 179.355 306.264C179.035 306.856 178.875 307.552 178.875 308.352C178.875 309.152 179.035 309.848 179.355 310.44C179.691 311.032 180.123 311.488 180.651 311.808C181.195 312.112 181.771 312.264 182.379 312.264C183.003 312.264 183.579 312.104 184.107 311.784C184.651 311.464 185.083 311.008 185.403 310.416C185.739 309.824 185.907 309.12 185.907 308.304ZM196.869 315.216C195.781 315.216 194.805 315.024 193.941 314.64C193.077 314.24 192.389 313.704 191.877 313.032C191.381 312.36 191.109 311.616 191.061 310.8H194.445C194.509 311.312 194.757 311.736 195.189 312.072C195.637 312.408 196.189 312.576 196.845 312.576C197.485 312.576 197.981 312.448 198.333 312.192C198.701 311.936 198.885 311.608 198.885 311.208C198.885 310.776 198.661 310.456 198.213 310.248C197.781 310.024 197.085 309.784 196.125 309.528C195.133 309.288 194.317 309.04 193.677 308.784C193.053 308.528 192.509 308.136 192.045 307.608C191.597 307.08 191.373 306.368 191.373 305.472C191.373 304.736 191.581 304.064 191.997 303.456C192.429 302.848 193.037 302.368 193.821 302.016C194.621 301.664 195.557 301.488 196.629 301.488C198.213 301.488 199.477 301.888 200.421 302.688C201.365 303.472 201.885 304.536 201.981 305.88H198.765C198.717 305.352 198.493 304.936 198.093 304.632C197.709 304.312 197.189 304.152 196.533 304.152C195.925 304.152 195.453 304.264 195.117 304.488C194.797 304.712 194.637 305.024 194.637 305.424C194.637 305.872 194.861 306.216 195.309 306.456C195.757 306.68 196.453 306.912 197.397 307.152C198.357 307.392 199.149 307.64 199.773 307.896C200.397 308.152 200.933 308.552 201.381 309.096C201.845 309.624 202.085 310.328 202.101 311.208C202.101 311.976 201.885 312.664 201.453 313.272C201.037 313.88 200.429 314.36 199.629 314.712C198.845 315.048 197.925 315.216 196.869 315.216Z" fill="white"/>
<path d="M66.825 325.945C66.875 324.945 67.225 324.175 67.875 323.635C68.535 323.085 69.4 322.81 70.47 322.81C71.2 322.81 71.825 322.94 72.345 323.2C72.865 323.45 73.255 323.795 73.515 324.235C73.785 324.665 73.92 325.155 73.92 325.705C73.92 326.335 73.755 326.87 73.425 327.31C73.105 327.74 72.72 328.03 72.27 328.18V328.24C72.85 328.42 73.3 328.74 73.62 329.2C73.95 329.66 74.115 330.25 74.115 330.97C74.115 331.57 73.975 332.105 73.695 332.575C73.425 333.045 73.02 333.415 72.48 333.685C71.95 333.945 71.31 334.075 70.56 334.075C69.43 334.075 68.51 333.79 67.8 333.22C67.09 332.65 66.715 331.81 66.675 330.7H68.715C68.735 331.19 68.9 331.585 69.21 331.885C69.53 332.175 69.965 332.32 70.515 332.32C71.025 332.32 71.415 332.18 71.685 331.9C71.965 331.61 72.105 331.24 72.105 330.79C72.105 330.19 71.915 329.76 71.535 329.5C71.155 329.24 70.565 329.11 69.765 329.11H69.33V327.385H69.765C71.185 327.385 71.895 326.91 71.895 325.96C71.895 325.53 71.765 325.195 71.505 324.955C71.255 324.715 70.89 324.595 70.41 324.595C69.94 324.595 69.575 324.725 69.315 324.985C69.065 325.235 68.92 325.555 68.88 325.945H66.825ZM76.9445 334.105C76.5645 334.105 76.2495 333.99 75.9995 333.76C75.7595 333.52 75.6395 333.225 75.6395 332.875C75.6395 332.525 75.7595 332.235 75.9995 332.005C76.2495 331.765 76.5645 331.645 76.9445 331.645C77.3145 331.645 77.6195 331.765 77.8595 332.005C78.0995 332.235 78.2195 332.525 78.2195 332.875C78.2195 333.225 78.0995 333.52 77.8595 333.76C77.6195 333.99 77.3145 334.105 76.9445 334.105ZM76.9445 327.895C76.5645 327.895 76.2495 327.78 75.9995 327.55C75.7595 327.31 75.6395 327.015 75.6395 326.665C75.6395 326.315 75.7595 326.025 75.9995 325.795C76.2495 325.555 76.5645 325.435 76.9445 325.435C77.3145 325.435 77.6195 325.555 77.8595 325.795C78.0995 326.025 78.2195 326.315 78.2195 326.665C78.2195 327.015 78.0995 327.31 77.8595 327.55C77.6195 327.78 77.3145 327.895 76.9445 327.895ZM79.7449 325.945C79.7949 324.945 80.1449 324.175 80.7949 323.635C81.4549 323.085 82.3199 322.81 83.3899 322.81C84.1199 322.81 84.7449 322.94 85.2649 323.2C85.7849 323.45 86.1749 323.795 86.4349 324.235C86.7049 324.665 86.8399 325.155 86.8399 325.705C86.8399 326.335 86.6749 326.87 86.3449 327.31C86.0249 327.74 85.6399 328.03 85.1899 328.18V328.24C85.7699 328.42 86.2199 328.74 86.5399 329.2C86.8699 329.66 87.0349 330.25 87.0349 330.97C87.0349 331.57 86.8949 332.105 86.6149 332.575C86.3449 333.045 85.9399 333.415 85.3999 333.685C84.8699 333.945 84.2299 334.075 83.4799 334.075C82.3499 334.075 81.4299 333.79 80.7199 333.22C80.0099 332.65 79.6349 331.81 79.5949 330.7H81.6349C81.6549 331.19 81.8199 331.585 82.1299 331.885C82.4499 332.175 82.8849 332.32 83.4349 332.32C83.9449 332.32 84.3349 332.18 84.6049 331.9C84.8849 331.61 85.0249 331.24 85.0249 330.79C85.0249 330.19 84.8349 329.76 84.4549 329.5C84.0749 329.24 83.4849 329.11 82.6849 329.11H82.2499V327.385H82.6849C84.1049 327.385 84.8149 326.91 84.8149 325.96C84.8149 325.53 84.6849 325.195 84.4249 324.955C84.1749 324.715 83.8099 324.595 83.3299 324.595C82.8599 324.595 82.4949 324.725 82.2349 324.985C81.9849 325.235 81.8399 325.555 81.7999 325.945H79.7449ZM88.6944 328.39C88.6944 326.66 89.0044 325.305 89.6244 324.325C90.2544 323.345 91.2944 322.855 92.7444 322.855C94.1944 322.855 95.2294 323.345 95.8494 324.325C96.4794 325.305 96.7944 326.66 96.7944 328.39C96.7944 330.13 96.4794 331.495 95.8494 332.485C95.2294 333.475 94.1944 333.97 92.7444 333.97C91.2944 333.97 90.2544 333.475 89.6244 332.485C89.0044 331.495 88.6944 330.13 88.6944 328.39ZM94.7244 328.39C94.7244 327.65 94.6744 327.03 94.5744 326.53C94.4844 326.02 94.2944 325.605 94.0044 325.285C93.7244 324.965 93.3044 324.805 92.7444 324.805C92.1844 324.805 91.7594 324.965 91.4694 325.285C91.1894 325.605 90.9994 326.02 90.8994 326.53C90.8094 327.03 90.7644 327.65 90.7644 328.39C90.7644 329.15 90.8094 329.79 90.8994 330.31C90.9894 330.82 91.1794 331.235 91.4694 331.555C91.7594 331.865 92.1844 332.02 92.7444 332.02C93.3044 332.02 93.7294 331.865 94.0194 331.555C94.3094 331.235 94.4994 330.82 94.5894 330.31C94.6794 329.79 94.7244 329.15 94.7244 328.39ZM104.306 326.89C104.576 326.51 104.946 326.195 105.416 325.945C105.896 325.685 106.441 325.555 107.051 325.555C107.761 325.555 108.401 325.73 108.971 326.08C109.551 326.43 110.006 326.93 110.336 327.58C110.676 328.22 110.846 328.965 110.846 329.815C110.846 330.665 110.676 331.42 110.336 332.08C110.006 332.73 109.551 333.235 108.971 333.595C108.401 333.955 107.761 334.135 107.051 334.135C106.441 334.135 105.901 334.01 105.431 333.76C104.971 333.51 104.596 333.195 104.306 332.815V337.96H102.206V325.69H104.306V326.89ZM108.701 329.815C108.701 329.315 108.596 328.885 108.386 328.525C108.186 328.155 107.916 327.875 107.576 327.685C107.246 327.495 106.886 327.4 106.496 327.4C106.116 327.4 105.756 327.5 105.416 327.7C105.086 327.89 104.816 328.17 104.606 328.54C104.406 328.91 104.306 329.345 104.306 329.845C104.306 330.345 104.406 330.78 104.606 331.15C104.816 331.52 105.086 331.805 105.416 332.005C105.756 332.195 106.116 332.29 106.496 332.29C106.886 332.29 107.246 332.19 107.576 331.99C107.916 331.79 108.186 331.505 108.386 331.135C108.596 330.765 108.701 330.325 108.701 329.815ZM122.692 325.57C123.712 325.57 124.532 325.885 125.152 326.515C125.782 327.135 126.097 328.005 126.097 329.125V334H123.997V329.41C123.997 328.76 123.832 328.265 123.502 327.925C123.172 327.575 122.722 327.4 122.152 327.4C121.582 327.4 121.127 327.575 120.787 327.925C120.457 328.265 120.292 328.76 120.292 329.41V334H118.192V329.41C118.192 328.76 118.027 328.265 117.697 327.925C117.367 327.575 116.917 327.4 116.347 327.4C115.767 327.4 115.307 327.575 114.967 327.925C114.637 328.265 114.472 328.76 114.472 329.41V334H112.372V325.69H114.472V326.695C114.742 326.345 115.087 326.07 115.507 325.87C115.937 325.67 116.407 325.57 116.917 325.57C117.567 325.57 118.147 325.71 118.657 325.99C119.167 326.26 119.562 326.65 119.842 327.16C120.112 326.68 120.502 326.295 121.012 326.005C121.532 325.715 122.092 325.57 122.692 325.57ZM138.054 327.76V329.53H131.694V327.76H138.054ZM151.093 324.88H146.233V327.445C146.443 327.185 146.743 326.975 147.133 326.815C147.523 326.645 147.938 326.56 148.378 326.56C149.178 326.56 149.833 326.735 150.343 327.085C150.853 327.435 151.223 327.885 151.453 328.435C151.683 328.975 151.798 329.555 151.798 330.175C151.798 331.325 151.468 332.25 150.808 332.95C150.158 333.65 149.228 334 148.018 334C146.878 334 145.968 333.715 145.288 333.145C144.608 332.575 144.223 331.83 144.133 330.91H146.173C146.263 331.31 146.463 331.63 146.773 331.87C147.093 332.11 147.498 332.23 147.988 332.23C148.578 332.23 149.023 332.045 149.323 331.675C149.623 331.305 149.773 330.815 149.773 330.205C149.773 329.585 149.618 329.115 149.308 328.795C149.008 328.465 148.563 328.3 147.973 328.3C147.553 328.3 147.203 328.405 146.923 328.615C146.643 328.825 146.443 329.105 146.323 329.455H144.313V323.035H151.093V324.88ZM154.567 334.105C154.187 334.105 153.872 333.99 153.622 333.76C153.382 333.52 153.262 333.225 153.262 332.875C153.262 332.525 153.382 332.235 153.622 332.005C153.872 331.765 154.187 331.645 154.567 331.645C154.937 331.645 155.242 331.765 155.482 332.005C155.722 332.235 155.842 332.525 155.842 332.875C155.842 333.225 155.722 333.52 155.482 333.76C155.242 333.99 154.937 334.105 154.567 334.105ZM154.567 327.895C154.187 327.895 153.872 327.78 153.622 327.55C153.382 327.31 153.262 327.015 153.262 326.665C153.262 326.315 153.382 326.025 153.622 325.795C153.872 325.555 154.187 325.435 154.567 325.435C154.937 325.435 155.242 325.555 155.482 325.795C155.722 326.025 155.842 326.315 155.842 326.665C155.842 327.015 155.722 327.31 155.482 327.55C155.242 327.78 154.937 327.895 154.567 327.895ZM157.337 328.39C157.337 326.66 157.647 325.305 158.267 324.325C158.897 323.345 159.937 322.855 161.387 322.855C162.837 322.855 163.872 323.345 164.492 324.325C165.122 325.305 165.437 326.66 165.437 328.39C165.437 330.13 165.122 331.495 164.492 332.485C163.872 333.475 162.837 333.97 161.387 333.97C159.937 333.97 158.897 333.475 158.267 332.485C157.647 331.495 157.337 330.13 157.337 328.39ZM163.367 328.39C163.367 327.65 163.317 327.03 163.217 326.53C163.127 326.02 162.937 325.605 162.647 325.285C162.367 324.965 161.947 324.805 161.387 324.805C160.827 324.805 160.402 324.965 160.112 325.285C159.832 325.605 159.642 326.02 159.542 326.53C159.452 327.03 159.407 327.65 159.407 328.39C159.407 329.15 159.452 329.79 159.542 330.31C159.632 330.82 159.822 331.235 160.112 331.555C160.402 331.865 160.827 332.02 161.387 332.02C161.947 332.02 162.372 331.865 162.662 331.555C162.952 331.235 163.142 330.82 163.232 330.31C163.322 329.79 163.367 329.15 163.367 328.39ZM167.034 328.39C167.034 326.66 167.344 325.305 167.964 324.325C168.594 323.345 169.634 322.855 171.084 322.855C172.534 322.855 173.569 323.345 174.189 324.325C174.819 325.305 175.134 326.66 175.134 328.39C175.134 330.13 174.819 331.495 174.189 332.485C173.569 333.475 172.534 333.97 171.084 333.97C169.634 333.97 168.594 333.475 167.964 332.485C167.344 331.495 167.034 330.13 167.034 328.39ZM173.064 328.39C173.064 327.65 173.014 327.03 172.914 326.53C172.824 326.02 172.634 325.605 172.344 325.285C172.064 324.965 171.644 324.805 171.084 324.805C170.524 324.805 170.099 324.965 169.809 325.285C169.529 325.605 169.339 326.02 169.239 326.53C169.149 327.03 169.104 327.65 169.104 328.39C169.104 329.15 169.149 329.79 169.239 330.31C169.329 330.82 169.519 331.235 169.809 331.555C170.099 331.865 170.524 332.02 171.084 332.02C171.644 332.02 172.069 331.865 172.359 331.555C172.649 331.235 172.839 330.82 172.929 330.31C173.019 329.79 173.064 329.15 173.064 328.39ZM182.646 326.89C182.916 326.51 183.286 326.195 183.756 325.945C184.236 325.685 184.781 325.555 185.391 325.555C186.101 325.555 186.741 325.73 187.311 326.08C187.891 326.43 188.346 326.93 188.676 327.58C189.016 328.22 189.186 328.965 189.186 329.815C189.186 330.665 189.016 331.42 188.676 332.08C188.346 332.73 187.891 333.235 187.311 333.595C186.741 333.955 186.101 334.135 185.391 334.135C184.781 334.135 184.241 334.01 183.771 333.76C183.311 333.51 182.936 333.195 182.646 332.815V337.96H180.546V325.69H182.646V326.89ZM187.041 329.815C187.041 329.315 186.936 328.885 186.726 328.525C186.526 328.155 186.256 327.875 185.916 327.685C185.586 327.495 185.226 327.4 184.836 327.4C184.456 327.4 184.096 327.5 183.756 327.7C183.426 327.89 183.156 328.17 182.946 328.54C182.746 328.91 182.646 329.345 182.646 329.845C182.646 330.345 182.746 330.78 182.946 331.15C183.156 331.52 183.426 331.805 183.756 332.005C184.096 332.195 184.456 332.29 184.836 332.29C185.226 332.29 185.586 332.19 185.916 331.99C186.256 331.79 186.526 331.505 186.726 331.135C186.936 330.765 187.041 330.325 187.041 329.815ZM201.032 325.57C202.052 325.57 202.872 325.885 203.492 326.515C204.122 327.135 204.437 328.005 204.437 329.125V334H202.337V329.41C202.337 328.76 202.172 328.265 201.842 327.925C201.512 327.575 201.062 327.4 200.492 327.4C199.922 327.4 199.467 327.575 199.127 327.925C198.797 328.265 198.632 328.76 198.632 329.41V334H196.532V329.41C196.532 328.76 196.367 328.265 196.037 327.925C195.707 327.575 195.257 327.4 194.687 327.4C194.107 327.4 193.647 327.575 193.307 327.925C192.977 328.265 192.812 328.76 192.812 329.41V334H190.712V325.69H192.812V326.695C193.082 326.345 193.427 326.07 193.847 325.87C194.277 325.67 194.747 325.57 195.257 325.57C195.907 325.57 196.487 325.71 196.997 325.99C197.507 326.26 197.902 326.65 198.182 327.16C198.452 326.68 198.842 326.295 199.352 326.005C199.872 325.715 200.432 325.57 201.032 325.57Z" fill="white"/>
<path d="M84.648 418H80.728L71.852 404.588V418H67.932V398.428H71.852L80.728 411.868V398.428H84.648V418ZM95.4098 418.252C93.9165 418.252 92.5725 417.925 91.3778 417.272C90.1832 416.6 89.2405 415.657 88.5498 414.444C87.8778 413.231 87.5418 411.831 87.5418 410.244C87.5418 408.657 87.8872 407.257 88.5778 406.044C89.2872 404.831 90.2485 403.897 91.4618 403.244C92.6752 402.572 94.0285 402.236 95.5218 402.236C97.0152 402.236 98.3685 402.572 99.5818 403.244C100.795 403.897 101.747 404.831 102.438 406.044C103.147 407.257 103.502 408.657 103.502 410.244C103.502 411.831 103.138 413.231 102.41 414.444C101.701 415.657 100.73 416.6 99.4978 417.272C98.2845 417.925 96.9218 418.252 95.4098 418.252ZM95.4098 414.836C96.1192 414.836 96.7818 414.668 97.3978 414.332C98.0325 413.977 98.5365 413.455 98.9098 412.764C99.2832 412.073 99.4698 411.233 99.4698 410.244C99.4698 408.769 99.0778 407.64 98.2938 406.856C97.5285 406.053 96.5858 405.652 95.4658 405.652C94.3458 405.652 93.4032 406.053 92.6378 406.856C91.8912 407.64 91.5178 408.769 91.5178 410.244C91.5178 411.719 91.8818 412.857 92.6098 413.66C93.3565 414.444 94.2898 414.836 95.4098 414.836ZM114.973 402.264C116.821 402.264 118.315 402.852 119.453 404.028C120.592 405.185 121.161 406.809 121.161 408.9V418H117.241V409.432C117.241 408.2 116.933 407.257 116.317 406.604C115.701 405.932 114.861 405.596 113.797 405.596C112.715 405.596 111.856 405.932 111.221 406.604C110.605 407.257 110.297 408.2 110.297 409.432V418H106.377V402.488H110.297V404.42C110.82 403.748 111.483 403.225 112.285 402.852C113.107 402.46 114.003 402.264 114.973 402.264ZM136.817 406.352V409.656H124.945V406.352H136.817ZM154.513 398.456V401.62H149.305V418H145.385V401.62H140.177V398.456H154.513ZM171.793 409.908C171.793 410.468 171.756 410.972 171.681 411.42H160.341C160.435 412.54 160.827 413.417 161.517 414.052C162.208 414.687 163.057 415.004 164.065 415.004C165.521 415.004 166.557 414.379 167.173 413.128H171.401C170.953 414.621 170.095 415.853 168.825 416.824C167.556 417.776 165.997 418.252 164.149 418.252C162.656 418.252 161.312 417.925 160.117 417.272C158.941 416.6 158.017 415.657 157.345 414.444C156.692 413.231 156.365 411.831 156.365 410.244C156.365 408.639 156.692 407.229 157.345 406.016C157.999 404.803 158.913 403.869 160.089 403.216C161.265 402.563 162.619 402.236 164.149 402.236C165.624 402.236 166.94 402.553 168.097 403.188C169.273 403.823 170.179 404.728 170.813 405.904C171.467 407.061 171.793 408.396 171.793 409.908ZM167.733 408.788C167.715 407.78 167.351 406.977 166.641 406.38C165.932 405.764 165.064 405.456 164.037 405.456C163.067 405.456 162.245 405.755 161.573 406.352C160.92 406.931 160.519 407.743 160.369 408.788H167.733ZM173.647 410.244C173.647 408.639 173.973 407.239 174.627 406.044C175.28 404.831 176.185 403.897 177.343 403.244C178.5 402.572 179.825 402.236 181.319 402.236C183.241 402.236 184.828 402.721 186.079 403.692C187.348 404.644 188.197 405.988 188.627 407.724H184.399C184.175 407.052 183.792 406.529 183.251 406.156C182.728 405.764 182.075 405.568 181.291 405.568C180.171 405.568 179.284 405.979 178.631 406.8C177.977 407.603 177.651 408.751 177.651 410.244C177.651 411.719 177.977 412.867 178.631 413.688C179.284 414.491 180.171 414.892 181.291 414.892C182.877 414.892 183.913 414.183 184.399 412.764H188.627C188.197 414.444 187.348 415.779 186.079 416.768C184.809 417.757 183.223 418.252 181.319 418.252C179.825 418.252 178.5 417.925 177.343 417.272C176.185 416.6 175.28 415.667 174.627 414.472C173.973 413.259 173.647 411.849 173.647 410.244ZM200.234 402.264C201.41 402.264 202.456 402.525 203.37 403.048C204.285 403.552 204.994 404.308 205.498 405.316C206.021 406.305 206.282 407.5 206.282 408.9V418H202.362V409.432C202.362 408.2 202.054 407.257 201.438 406.604C200.822 405.932 199.982 405.596 198.918 405.596C197.836 405.596 196.977 405.932 196.342 406.604C195.726 407.257 195.418 408.2 195.418 409.432V418H191.498V397.28H195.418V404.42C195.922 403.748 196.594 403.225 197.434 402.852C198.274 402.46 199.208 402.264 200.234 402.264ZM229.982 398.456V401.62H224.774V418H220.854V401.62H215.646V398.456H229.982ZM231.834 410.188C231.834 408.62 232.142 407.229 232.758 406.016C233.393 404.803 234.242 403.869 235.306 403.216C236.389 402.563 237.593 402.236 238.918 402.236C240.075 402.236 241.083 402.469 241.942 402.936C242.819 403.403 243.519 403.991 244.042 404.7V402.488H247.99V418H244.042V415.732C243.538 416.46 242.838 417.067 241.942 417.552C241.065 418.019 240.047 418.252 238.89 418.252C237.583 418.252 236.389 417.916 235.306 417.244C234.242 416.572 233.393 415.629 232.758 414.416C232.142 413.184 231.834 411.775 231.834 410.188ZM244.042 410.244C244.042 409.292 243.855 408.48 243.482 407.808C243.109 407.117 242.605 406.595 241.97 406.24C241.335 405.867 240.654 405.68 239.926 405.68C239.198 405.68 238.526 405.857 237.91 406.212C237.294 406.567 236.79 407.089 236.398 407.78C236.025 408.452 235.838 409.255 235.838 410.188C235.838 411.121 236.025 411.943 236.398 412.652C236.79 413.343 237.294 413.875 237.91 414.248C238.545 414.621 239.217 414.808 239.926 414.808C240.654 414.808 241.335 414.631 241.97 414.276C242.605 413.903 243.109 413.38 243.482 412.708C243.855 412.017 244.042 411.196 244.042 410.244ZM255.739 397.28V418H251.819V397.28H255.739ZM268.796 418L263.532 411.392V418H259.612V397.28H263.532V409.068L268.74 402.488H273.836L267.004 410.272L273.892 418H268.796Z" fill="white"/>
<path d="M69.717 380.926V390H67.897V380.926H69.717ZM75.5062 382.694C76.3642 382.694 77.0575 382.967 77.5862 383.513C78.1148 384.05 78.3792 384.804 78.3792 385.775V390H76.5592V386.022C76.5592 385.45 76.4162 385.012 76.1302 384.709C75.8442 384.397 75.4542 384.241 74.9602 384.241C74.4575 384.241 74.0588 384.397 73.7642 384.709C73.4782 385.012 73.3352 385.45 73.3352 386.022V390H71.5152V382.798H73.3352V383.695C73.5778 383.383 73.8855 383.14 74.2582 382.967C74.6395 382.785 75.0555 382.694 75.5062 382.694ZM82.2289 384.293V387.777C82.2289 388.02 82.2852 388.197 82.3979 388.31C82.5192 388.414 82.7186 388.466 82.9959 388.466H83.8409V390H82.6969C81.1629 390 80.3959 389.255 80.3959 387.764V384.293H79.5379V382.798H80.3959V381.017H82.2289V382.798H83.8409V384.293H82.2289ZM91.8449 386.243C91.8449 386.503 91.8276 386.737 91.7929 386.945H86.5279C86.5713 387.465 86.7533 387.872 87.0739 388.167C87.3946 388.462 87.7889 388.609 88.2569 388.609C88.9329 388.609 89.4139 388.319 89.6999 387.738H91.6629C91.4549 388.431 91.0563 389.003 90.4669 389.454C89.8776 389.896 89.1539 390.117 88.2959 390.117C87.6026 390.117 86.9786 389.965 86.4239 389.662C85.8779 389.35 85.4489 388.912 85.1369 388.349C84.8336 387.786 84.6819 387.136 84.6819 386.399C84.6819 385.654 84.8336 384.999 85.1369 384.436C85.4403 383.873 85.8649 383.439 86.4109 383.136C86.9569 382.833 87.5853 382.681 88.2959 382.681C88.9806 382.681 89.5916 382.828 90.1289 383.123C90.6749 383.418 91.0953 383.838 91.3899 384.384C91.6933 384.921 91.8449 385.541 91.8449 386.243ZM89.9599 385.723C89.9513 385.255 89.7823 384.882 89.4529 384.605C89.1236 384.319 88.7206 384.176 88.2439 384.176C87.7933 384.176 87.4119 384.315 87.0999 384.592C86.7966 384.861 86.6103 385.238 86.5409 385.723H89.9599ZM94.9934 383.916C95.2274 383.535 95.5307 383.236 95.9034 383.019C96.2847 382.802 96.718 382.694 97.2034 382.694V384.605H96.7224C96.1504 384.605 95.717 384.739 95.4224 385.008C95.1364 385.277 94.9934 385.745 94.9934 386.412V390H93.1734V382.798H94.9934V383.916ZM97.9612 386.373C97.9612 385.645 98.1042 384.999 98.3902 384.436C98.6849 383.873 99.0792 383.439 99.5732 383.136C100.076 382.833 100.635 382.681 101.25 382.681C101.788 382.681 102.256 382.789 102.654 383.006C103.062 383.223 103.387 383.496 103.629 383.825V382.798H105.462V390H103.629V388.947C103.395 389.285 103.07 389.567 102.654 389.792C102.247 390.009 101.775 390.117 101.237 390.117C100.631 390.117 100.076 389.961 99.5732 389.649C99.0792 389.337 98.6849 388.899 98.3902 388.336C98.1042 387.764 97.9612 387.11 97.9612 386.373ZM103.629 386.399C103.629 385.957 103.543 385.58 103.369 385.268C103.196 384.947 102.962 384.705 102.667 384.54C102.373 384.367 102.056 384.28 101.718 384.28C101.38 384.28 101.068 384.362 100.782 384.527C100.496 384.692 100.262 384.934 100.08 385.255C99.9069 385.567 99.8202 385.94 99.8202 386.373C99.8202 386.806 99.9069 387.188 100.08 387.517C100.262 387.838 100.496 388.085 100.782 388.258C101.077 388.431 101.389 388.518 101.718 388.518C102.056 388.518 102.373 388.436 102.667 388.271C102.962 388.098 103.196 387.855 103.369 387.543C103.543 387.222 103.629 386.841 103.629 386.399ZM106.772 386.399C106.772 385.654 106.923 385.004 107.227 384.449C107.53 383.886 107.95 383.452 108.488 383.149C109.025 382.837 109.64 382.681 110.334 382.681C111.226 382.681 111.963 382.906 112.544 383.357C113.133 383.799 113.527 384.423 113.727 385.229H111.764C111.66 384.917 111.482 384.674 111.231 384.501C110.988 384.319 110.685 384.228 110.321 384.228C109.801 384.228 109.389 384.419 109.086 384.8C108.782 385.173 108.631 385.706 108.631 386.399C108.631 387.084 108.782 387.617 109.086 387.998C109.389 388.371 109.801 388.557 110.321 388.557C111.057 388.557 111.538 388.228 111.764 387.569H113.727C113.527 388.349 113.133 388.969 112.544 389.428C111.954 389.887 111.218 390.117 110.334 390.117C109.64 390.117 109.025 389.965 108.488 389.662C107.95 389.35 107.53 388.917 107.227 388.362C106.923 387.799 106.772 387.144 106.772 386.399ZM117.179 384.293V387.777C117.179 388.02 117.235 388.197 117.348 388.31C117.469 388.414 117.669 388.466 117.946 388.466H118.791V390H117.647C116.113 390 115.346 389.255 115.346 387.764V384.293H114.488V382.798H115.346V381.017H117.179V382.798H118.791V384.293H117.179ZM121.023 381.94C120.702 381.94 120.434 381.84 120.217 381.641C120.009 381.433 119.905 381.177 119.905 380.874C119.905 380.571 120.009 380.319 120.217 380.12C120.434 379.912 120.702 379.808 121.023 379.808C121.344 379.808 121.608 379.912 121.816 380.12C122.033 380.319 122.141 380.571 122.141 380.874C122.141 381.177 122.033 381.433 121.816 381.641C121.608 381.84 121.344 381.94 121.023 381.94ZM121.92 382.798V390H120.1V382.798H121.92ZM126.916 390.117C126.223 390.117 125.599 389.965 125.044 389.662C124.49 389.35 124.052 388.912 123.731 388.349C123.419 387.786 123.263 387.136 123.263 386.399C123.263 385.662 123.424 385.012 123.744 384.449C124.074 383.886 124.52 383.452 125.083 383.149C125.647 382.837 126.275 382.681 126.968 382.681C127.662 382.681 128.29 382.837 128.853 383.149C129.417 383.452 129.859 383.886 130.179 384.449C130.509 385.012 130.673 385.662 130.673 386.399C130.673 387.136 130.504 387.786 130.166 388.349C129.837 388.912 129.386 389.35 128.814 389.662C128.251 389.965 127.618 390.117 126.916 390.117ZM126.916 388.531C127.246 388.531 127.553 388.453 127.839 388.297C128.134 388.132 128.368 387.89 128.541 387.569C128.715 387.248 128.801 386.858 128.801 386.399C128.801 385.714 128.619 385.19 128.255 384.826C127.9 384.453 127.462 384.267 126.942 384.267C126.422 384.267 125.985 384.453 125.629 384.826C125.283 385.19 125.109 385.714 125.109 386.399C125.109 387.084 125.278 387.612 125.616 387.985C125.963 388.349 126.396 388.531 126.916 388.531ZM135.999 382.694C136.857 382.694 137.551 382.967 138.079 383.513C138.608 384.05 138.872 384.804 138.872 385.775V390H137.052V386.022C137.052 385.45 136.909 385.012 136.623 384.709C136.337 384.397 135.947 384.241 135.453 384.241C134.951 384.241 134.552 384.397 134.257 384.709C133.971 385.012 133.828 385.45 133.828 386.022V390H132.008V382.798H133.828V383.695C134.071 383.383 134.379 383.14 134.751 382.967C135.133 382.785 135.549 382.694 135.999 382.694Z" fill="white"/>
<path d="M72.465 431.795C72.365 431.375 72.19 431.06 71.94 430.85C71.7 430.64 71.35 430.535 70.89 430.535C70.2 430.535 69.69 430.815 69.36 431.375C69.04 431.925 68.875 432.825 68.865 434.075C69.105 433.675 69.455 433.365 69.915 433.145C70.375 432.915 70.875 432.8 71.415 432.8C72.065 432.8 72.64 432.94 73.14 433.22C73.64 433.5 74.03 433.91 74.31 434.45C74.59 434.98 74.73 435.62 74.73 436.37C74.73 437.08 74.585 437.715 74.295 438.275C74.015 438.825 73.6 439.255 73.05 439.565C72.5 439.875 71.845 440.03 71.085 440.03C70.045 440.03 69.225 439.8 68.625 439.34C68.035 438.88 67.62 438.24 67.38 437.42C67.15 436.59 67.035 435.57 67.035 434.36C67.035 432.53 67.35 431.15 67.98 430.22C68.61 429.28 69.605 428.81 70.965 428.81C72.015 428.81 72.83 429.095 73.41 429.665C73.99 430.235 74.325 430.945 74.415 431.795H72.465ZM70.935 434.525C70.405 434.525 69.96 434.68 69.6 434.99C69.24 435.3 69.06 435.75 69.06 436.34C69.06 436.93 69.225 437.395 69.555 437.735C69.895 438.075 70.37 438.245 70.98 438.245C71.52 438.245 71.945 438.08 72.255 437.75C72.575 437.42 72.735 436.975 72.735 436.415C72.735 435.835 72.58 435.375 72.27 435.035C71.97 434.695 71.525 434.525 70.935 434.525ZM77.5597 440.105C77.1797 440.105 76.8647 439.99 76.6147 439.76C76.3747 439.52 76.2547 439.225 76.2547 438.875C76.2547 438.525 76.3747 438.235 76.6147 438.005C76.8647 437.765 77.1797 437.645 77.5597 437.645C77.9297 437.645 78.2347 437.765 78.4747 438.005C78.7147 438.235 78.8347 438.525 78.8347 438.875C78.8347 439.225 78.7147 439.52 78.4747 439.76C78.2347 439.99 77.9297 440.105 77.5597 440.105ZM77.5597 433.895C77.1797 433.895 76.8647 433.78 76.6147 433.55C76.3747 433.31 76.2547 433.015 76.2547 432.665C76.2547 432.315 76.3747 432.025 76.6147 431.795C76.8647 431.555 77.1797 431.435 77.5597 431.435C77.9297 431.435 78.2347 431.555 78.4747 431.795C78.7147 432.025 78.8347 432.315 78.8347 432.665C78.8347 433.015 78.7147 433.31 78.4747 433.55C78.2347 433.78 77.9297 433.895 77.5597 433.895ZM80.3602 431.945C80.4102 430.945 80.7602 430.175 81.4102 429.635C82.0702 429.085 82.9352 428.81 84.0052 428.81C84.7352 428.81 85.3602 428.94 85.8802 429.2C86.4002 429.45 86.7902 429.795 87.0502 430.235C87.3202 430.665 87.4552 431.155 87.4552 431.705C87.4552 432.335 87.2902 432.87 86.9602 433.31C86.6402 433.74 86.2552 434.03 85.8052 434.18V434.24C86.3852 434.42 86.8352 434.74 87.1552 435.2C87.4852 435.66 87.6502 436.25 87.6502 436.97C87.6502 437.57 87.5102 438.105 87.2302 438.575C86.9602 439.045 86.5552 439.415 86.0152 439.685C85.4852 439.945 84.8452 440.075 84.0952 440.075C82.9652 440.075 82.0452 439.79 81.3352 439.22C80.6252 438.65 80.2502 437.81 80.2102 436.7H82.2502C82.2702 437.19 82.4352 437.585 82.7452 437.885C83.0652 438.175 83.5002 438.32 84.0502 438.32C84.5602 438.32 84.9502 438.18 85.2202 437.9C85.5002 437.61 85.6402 437.24 85.6402 436.79C85.6402 436.19 85.4502 435.76 85.0702 435.5C84.6902 435.24 84.1002 435.11 83.3002 435.11H82.8652V433.385H83.3002C84.7202 433.385 85.4302 432.91 85.4302 431.96C85.4302 431.53 85.3002 431.195 85.0402 430.955C84.7902 430.715 84.4252 430.595 83.9452 430.595C83.4752 430.595 83.1102 430.725 82.8502 430.985C82.6002 431.235 82.4552 431.555 82.4152 431.945H80.3602ZM89.3096 434.39C89.3096 432.66 89.6196 431.305 90.2396 430.325C90.8696 429.345 91.9096 428.855 93.3596 428.855C94.8096 428.855 95.8446 429.345 96.4646 430.325C97.0946 431.305 97.4096 432.66 97.4096 434.39C97.4096 436.13 97.0946 437.495 96.4646 438.485C95.8446 439.475 94.8096 439.97 93.3596 439.97C91.9096 439.97 90.8696 439.475 90.2396 438.485C89.6196 437.495 89.3096 436.13 89.3096 434.39ZM95.3396 434.39C95.3396 433.65 95.2896 433.03 95.1896 432.53C95.0996 432.02 94.9096 431.605 94.6196 431.285C94.3396 430.965 93.9196 430.805 93.3596 430.805C92.7996 430.805 92.3746 430.965 92.0846 431.285C91.8046 431.605 91.6146 432.02 91.5146 432.53C91.4246 433.03 91.3796 433.65 91.3796 434.39C91.3796 435.15 91.4246 435.79 91.5146 436.31C91.6046 436.82 91.7946 437.235 92.0846 437.555C92.3746 437.865 92.7996 438.02 93.3596 438.02C93.9196 438.02 94.3446 437.865 94.6346 437.555C94.9246 437.235 95.1146 436.82 95.2046 436.31C95.2946 435.79 95.3396 435.15 95.3396 434.39ZM104.921 432.89C105.191 432.51 105.561 432.195 106.031 431.945C106.511 431.685 107.056 431.555 107.666 431.555C108.376 431.555 109.016 431.73 109.586 432.08C110.166 432.43 110.621 432.93 110.951 433.58C111.291 434.22 111.461 434.965 111.461 435.815C111.461 436.665 111.291 437.42 110.951 438.08C110.621 438.73 110.166 439.235 109.586 439.595C109.016 439.955 108.376 440.135 107.666 440.135C107.056 440.135 106.516 440.01 106.046 439.76C105.586 439.51 105.211 439.195 104.921 438.815V443.96H102.821V431.69H104.921V432.89ZM109.316 435.815C109.316 435.315 109.211 434.885 109.001 434.525C108.801 434.155 108.531 433.875 108.191 433.685C107.861 433.495 107.501 433.4 107.111 433.4C106.731 433.4 106.371 433.5 106.031 433.7C105.701 433.89 105.431 434.17 105.221 434.54C105.021 434.91 104.921 435.345 104.921 435.845C104.921 436.345 105.021 436.78 105.221 437.15C105.431 437.52 105.701 437.805 106.031 438.005C106.371 438.195 106.731 438.29 107.111 438.29C107.501 438.29 107.861 438.19 108.191 437.99C108.531 437.79 108.801 437.505 109.001 437.135C109.211 436.765 109.316 436.325 109.316 435.815ZM123.307 431.57C124.327 431.57 125.147 431.885 125.767 432.515C126.397 433.135 126.712 434.005 126.712 435.125V440H124.612V435.41C124.612 434.76 124.447 434.265 124.117 433.925C123.787 433.575 123.337 433.4 122.767 433.4C122.197 433.4 121.742 433.575 121.402 433.925C121.072 434.265 120.907 434.76 120.907 435.41V440H118.807V435.41C118.807 434.76 118.642 434.265 118.312 433.925C117.982 433.575 117.532 433.4 116.962 433.4C116.382 433.4 115.922 433.575 115.582 433.925C115.252 434.265 115.087 434.76 115.087 435.41V440H112.987V431.69H115.087V432.695C115.357 432.345 115.702 432.07 116.122 431.87C116.552 431.67 117.022 431.57 117.532 431.57C118.182 431.57 118.762 431.71 119.272 431.99C119.782 432.26 120.177 432.65 120.457 433.16C120.727 432.68 121.117 432.295 121.627 432.005C122.147 431.715 122.707 431.57 123.307 431.57Z" fill="white"/>
</svg>
