<svg width="337" height="495" viewBox="0 0 337 495" fill="none" xmlns="http://www.w3.org/2000/svg">
<path fill-rule="evenodd" clip-rule="evenodd" d="M0 15C0 6.71571 6.71573 0 15 0H322C330.284 0 337 6.71573 337 15V227C325.954 227 317 235.954 317 247C317 258.046 325.954 267 337 267V480C337 488.284 330.284 495 322 495H15C6.71572 495 0 488.284 0 480V267C11.0457 267 20 258.046 20 247C20 235.954 11.0457 227 0 227V15ZM63.28 44H77.08C80.2 44 82.9467 44.5733 85.32 45.72C87.72 46.84 89.5733 48.4533 90.88 50.56C92.2133 52.6667 92.88 55.1467 92.88 58C92.88 60.8533 92.2133 63.3333 90.88 65.44C89.5733 67.5467 87.72 69.1733 85.32 70.32C82.9467 71.44 80.2 72 77.08 72H63.28V44ZM76.68 64.64C78.7067 64.64 80.32 64.0667 81.52 62.92C82.7467 61.7467 83.36 60.1067 83.36 58C83.36 55.8933 82.7467 54.2667 81.52 53.12C80.32 51.9467 78.7067 51.36 76.68 51.36H72.72V64.64H76.68ZM105.847 49.72C109.687 49.72 112.62 50.5867 114.647 52.32C116.674 54.0267 117.687 56.6667 117.687 60.24V72H109.287V69.12C108.247 71.3067 106.18 72.4 103.087 72.4C101.354 72.4 99.8735 72.1067 98.6469 71.52C97.4469 70.9067 96.5269 70.0933 95.8869 69.08C95.2735 68.04 94.9669 66.88 94.9669 65.6C94.9669 63.44 95.7935 61.8 97.4469 60.68C99.1002 59.56 101.607 59 104.967 59H108.607C108.314 57.2933 106.94 56.44 104.487 56.44C103.5 56.44 102.5 56.6 101.487 56.92C100.474 57.2133 99.6069 57.6267 98.8869 58.16L96.0069 52.2C97.2602 51.4267 98.7669 50.8267 100.527 50.4C102.314 49.9467 104.087 49.72 105.847 49.72ZM105.807 66.96C106.447 66.96 107.02 66.7867 107.527 66.44C108.034 66.0933 108.407 65.5733 108.647 64.88V63.36H106.407C104.567 63.36 103.647 63.9733 103.647 65.2C103.647 65.7067 103.834 66.1333 104.207 66.48C104.607 66.8 105.14 66.96 105.807 66.96ZM145.563 50.12L136.563 72.44C135.416 75.2933 133.99 77.2933 132.283 78.44C130.576 79.5867 128.483 80.16 126.003 80.16C124.776 80.16 123.536 79.9733 122.283 79.6C121.056 79.2533 120.083 78.7867 119.363 78.2L122.363 72C122.816 72.3467 123.323 72.6267 123.883 72.84C124.47 73.0533 125.03 73.16 125.563 73.16C126.55 73.16 127.296 72.8667 127.803 72.28L118.603 50.12H127.883L132.403 61.84L137.003 50.12H145.563ZM180.497 64.68V72H158.057V66.2L168.178 56.84C169.057 56.0133 169.644 55.3067 169.938 54.72C170.231 54.1333 170.378 53.56 170.378 53C170.378 52.3067 170.137 51.7733 169.658 51.4C169.204 51 168.538 50.8 167.658 50.8C166.804 50.8 166.004 51.0267 165.258 51.48C164.511 51.9333 163.938 52.5733 163.538 53.4L156.417 49.84C157.484 47.84 159.044 46.2667 161.098 45.12C163.151 43.9467 165.631 43.36 168.538 43.36C170.751 43.36 172.711 43.72 174.417 44.44C176.124 45.16 177.458 46.1867 178.417 47.52C179.378 48.8533 179.857 50.3867 179.857 52.12C179.857 53.6667 179.524 55.12 178.857 56.48C178.217 57.8133 176.951 59.3333 175.057 61.04L171.057 64.68H180.497ZM45 141.917C47.8377 141.441 50 138.973 50 136C50 132.686 47.3137 130 44 130C40.6863 130 38 132.686 38 136C38 138.973 40.1623 141.441 43 141.917V224.083C40.1623 224.559 38 227.027 38 230C38 232.973 40.1623 235.441 43 235.917V236V309V314.083C40.1623 314.559 38 317.027 38 320C38 322.973 40.1623 325.441 43 325.917V332V401.083C40.1623 401.559 38 404.027 38 407C38 410.314 40.6863 413 44 413C47.3137 413 50 410.314 50 407C50 404.027 47.8377 401.559 45 401.083V332V325.917C47.8377 325.441 50 322.973 50 320C50 317.027 47.8377 314.559 45 314.083V309V236V235.917C47.8377 235.441 50 232.973 50 230C50 227.027 47.8377 224.559 45 224.083V141.917Z" fill="#10CA9B"/>
<path d="M90.048 126.248L85.368 143H81.408L78.264 131.072L74.976 143L71.04 143.024L66.528 126.248H70.128L73.08 139.256L76.488 126.248H80.232L83.448 139.184L86.424 126.248H90.048ZM98.1459 143.216C96.8659 143.216 95.7139 142.936 94.6899 142.376C93.6659 141.8 92.8579 140.992 92.2659 139.952C91.6899 138.912 91.4019 137.712 91.4019 136.352C91.4019 134.992 91.6979 133.792 92.2899 132.752C92.8979 131.712 93.7219 130.912 94.7619 130.352C95.8019 129.776 96.9619 129.488 98.2419 129.488C99.5219 129.488 100.682 129.776 101.722 130.352C102.762 130.912 103.578 131.712 104.17 132.752C104.778 133.792 105.082 134.992 105.082 136.352C105.082 137.712 104.77 138.912 104.146 139.952C103.538 140.992 102.706 141.8 101.65 142.376C100.61 142.936 99.4419 143.216 98.1459 143.216ZM98.1459 140.288C98.7539 140.288 99.3219 140.144 99.8499 139.856C100.394 139.552 100.826 139.104 101.146 138.512C101.466 137.92 101.626 137.2 101.626 136.352C101.626 135.088 101.29 134.12 100.618 133.448C99.9619 132.76 99.1539 132.416 98.1939 132.416C97.2339 132.416 96.4259 132.76 95.7699 133.448C95.1299 134.12 94.8099 135.088 94.8099 136.352C94.8099 137.616 95.1219 138.592 95.7459 139.28C96.3859 139.952 97.1859 140.288 98.1459 140.288ZM110.907 131.768C111.339 131.064 111.899 130.512 112.587 130.112C113.291 129.712 114.091 129.512 114.987 129.512V133.04H114.099C113.043 133.04 112.243 133.288 111.699 133.784C111.171 134.28 110.907 135.144 110.907 136.376V143H107.547V129.704H110.907V131.768ZM125.122 143L120.61 137.336V143H117.25V125.24H120.61V135.344L125.074 129.704H129.442L123.586 136.376L129.49 143H125.122ZM136.353 143.216C135.265 143.216 134.289 143.024 133.425 142.64C132.561 142.24 131.873 141.704 131.361 141.032C130.865 140.36 130.593 139.616 130.545 138.8H133.929C133.993 139.312 134.241 139.736 134.673 140.072C135.121 140.408 135.673 140.576 136.329 140.576C136.969 140.576 137.465 140.448 137.817 140.192C138.185 139.936 138.369 139.608 138.369 139.208C138.369 138.776 138.145 138.456 137.697 138.248C137.265 138.024 136.569 137.784 135.609 137.528C134.617 137.288 133.801 137.04 133.161 136.784C132.537 136.528 131.993 136.136 131.529 135.608C131.081 135.08 130.857 134.368 130.857 133.472C130.857 132.736 131.065 132.064 131.481 131.456C131.913 130.848 132.521 130.368 133.305 130.016C134.105 129.664 135.041 129.488 136.113 129.488C137.697 129.488 138.961 129.888 139.905 130.688C140.849 131.472 141.369 132.536 141.465 133.88H138.249C138.201 133.352 137.977 132.936 137.577 132.632C137.193 132.312 136.673 132.152 136.017 132.152C135.409 132.152 134.937 132.264 134.601 132.488C134.281 132.712 134.121 133.024 134.121 133.424C134.121 133.872 134.345 134.216 134.793 134.456C135.241 134.68 135.937 134.912 136.881 135.152C137.841 135.392 138.633 135.64 139.257 135.896C139.881 136.152 140.417 136.552 140.865 137.096C141.329 137.624 141.569 138.328 141.585 139.208C141.585 139.976 141.369 140.664 140.937 141.272C140.521 141.88 139.913 142.36 139.113 142.712C138.329 143.048 137.409 143.216 136.353 143.216ZM151.832 129.512C152.84 129.512 153.736 129.736 154.52 130.184C155.304 130.616 155.912 131.264 156.344 132.128C156.792 132.976 157.016 134 157.016 135.2V143H153.656V135.656C153.656 134.6 153.392 133.792 152.864 133.232C152.336 132.656 151.616 132.368 150.704 132.368C149.776 132.368 149.04 132.656 148.496 133.232C147.968 133.792 147.704 134.6 147.704 135.656V143H144.344V125.24H147.704V131.36C148.136 130.784 148.712 130.336 149.432 130.016C150.152 129.68 150.952 129.512 151.832 129.512ZM166.115 143.216C164.835 143.216 163.683 142.936 162.659 142.376C161.635 141.8 160.827 140.992 160.235 139.952C159.659 138.912 159.371 137.712 159.371 136.352C159.371 134.992 159.667 133.792 160.259 132.752C160.867 131.712 161.691 130.912 162.731 130.352C163.771 129.776 164.931 129.488 166.211 129.488C167.491 129.488 168.651 129.776 169.691 130.352C170.731 130.912 171.547 131.712 172.139 132.752C172.747 133.792 173.051 134.992 173.051 136.352C173.051 137.712 172.739 138.912 172.115 139.952C171.507 140.992 170.675 141.8 169.619 142.376C168.579 142.936 167.411 143.216 166.115 143.216ZM166.115 140.288C166.723 140.288 167.291 140.144 167.819 139.856C168.363 139.552 168.795 139.104 169.115 138.512C169.435 137.92 169.595 137.2 169.595 136.352C169.595 135.088 169.259 134.12 168.587 133.448C167.931 132.76 167.123 132.416 166.163 132.416C165.203 132.416 164.395 132.76 163.739 133.448C163.099 134.12 162.779 135.088 162.779 136.352C162.779 137.616 163.091 138.592 163.715 139.28C164.355 139.952 165.155 140.288 166.115 140.288ZM178.875 131.624C179.307 131.016 179.899 130.512 180.651 130.112C181.419 129.696 182.291 129.488 183.267 129.488C184.403 129.488 185.427 129.768 186.339 130.328C187.267 130.888 187.995 131.688 188.523 132.728C189.067 133.752 189.339 134.944 189.339 136.304C189.339 137.664 189.067 138.872 188.523 139.928C187.995 140.968 187.267 141.776 186.339 142.352C185.427 142.928 184.403 143.216 183.267 143.216C182.291 143.216 181.427 143.016 180.675 142.616C179.939 142.216 179.339 141.712 178.875 141.104V149.336H175.515V129.704H178.875V131.624ZM185.907 136.304C185.907 135.504 185.739 134.816 185.403 134.24C185.083 133.648 184.651 133.2 184.107 132.896C183.579 132.592 183.003 132.44 182.379 132.44C181.771 132.44 181.195 132.6 180.651 132.92C180.123 133.224 179.691 133.672 179.355 134.264C179.035 134.856 178.875 135.552 178.875 136.352C178.875 137.152 179.035 137.848 179.355 138.44C179.691 139.032 180.123 139.488 180.651 139.808C181.195 140.112 181.771 140.264 182.379 140.264C183.003 140.264 183.579 140.104 184.107 139.784C184.651 139.464 185.083 139.008 185.403 138.416C185.739 137.824 185.907 137.12 185.907 136.304ZM196.869 143.216C195.781 143.216 194.805 143.024 193.941 142.64C193.077 142.24 192.389 141.704 191.877 141.032C191.381 140.36 191.109 139.616 191.061 138.8H194.445C194.509 139.312 194.757 139.736 195.189 140.072C195.637 140.408 196.189 140.576 196.845 140.576C197.485 140.576 197.981 140.448 198.333 140.192C198.701 139.936 198.885 139.608 198.885 139.208C198.885 138.776 198.661 138.456 198.213 138.248C197.781 138.024 197.085 137.784 196.125 137.528C195.133 137.288 194.317 137.04 193.677 136.784C193.053 136.528 192.509 136.136 192.045 135.608C191.597 135.08 191.373 134.368 191.373 133.472C191.373 132.736 191.581 132.064 191.997 131.456C192.429 130.848 193.037 130.368 193.821 130.016C194.621 129.664 195.557 129.488 196.629 129.488C198.213 129.488 199.477 129.888 200.421 130.688C201.365 131.472 201.885 132.536 201.981 133.88H198.765C198.717 133.352 198.493 132.936 198.093 132.632C197.709 132.312 197.189 132.152 196.533 132.152C195.925 132.152 195.453 132.264 195.117 132.488C194.797 132.712 194.637 133.024 194.637 133.424C194.637 133.872 194.861 134.216 195.309 134.456C195.757 134.68 196.453 134.912 197.397 135.152C198.357 135.392 199.149 135.64 199.773 135.896C200.397 136.152 200.933 136.552 201.381 137.096C201.845 137.624 202.085 138.328 202.101 139.208C202.101 139.976 201.885 140.664 201.453 141.272C201.037 141.88 200.429 142.36 199.629 142.712C198.845 143.048 197.925 143.216 196.869 143.216ZM216.434 126.248C218.194 126.248 219.738 126.592 221.066 127.28C222.41 127.968 223.442 128.952 224.162 130.232C224.898 131.496 225.266 132.968 225.266 134.648C225.266 136.328 224.898 137.8 224.162 139.064C223.442 140.312 222.41 141.28 221.066 141.968C219.738 142.656 218.194 143 216.434 143H210.578V126.248H216.434ZM216.314 140.144C218.074 140.144 219.434 139.664 220.394 138.704C221.354 137.744 221.834 136.392 221.834 134.648C221.834 132.904 221.354 131.544 220.394 130.568C219.434 129.576 218.074 129.08 216.314 129.08H213.938V140.144H216.314ZM226.917 136.304C226.917 134.96 227.181 133.768 227.709 132.728C228.253 131.688 228.981 130.888 229.893 130.328C230.821 129.768 231.853 129.488 232.989 129.488C233.981 129.488 234.845 129.688 235.581 130.088C236.333 130.488 236.933 130.992 237.381 131.6V129.704H240.765V143H237.381V141.056C236.949 141.68 236.349 142.2 235.581 142.616C234.829 143.016 233.957 143.216 232.965 143.216C231.845 143.216 230.821 142.928 229.893 142.352C228.981 141.776 228.253 140.968 227.709 139.928C227.181 138.872 226.917 137.664 226.917 136.304ZM237.381 136.352C237.381 135.536 237.221 134.84 236.901 134.264C236.581 133.672 236.149 133.224 235.605 132.92C235.061 132.6 234.477 132.44 233.853 132.44C233.229 132.44 232.653 132.592 232.125 132.896C231.597 133.2 231.165 133.648 230.829 134.24C230.509 134.816 230.349 135.504 230.349 136.304C230.349 137.104 230.509 137.808 230.829 138.416C231.165 139.008 231.597 139.464 232.125 139.784C232.669 140.104 233.245 140.264 233.853 140.264C234.477 140.264 235.061 140.112 235.605 139.808C236.149 139.488 236.581 139.04 236.901 138.464C237.221 137.872 237.381 137.168 237.381 136.352ZM256.767 129.704L248.535 149.288H244.959L247.839 142.664L242.511 129.704H246.279L249.711 138.992L253.191 129.704H256.767ZM263.505 128.6V125.504H269.289V143H265.833V128.6H263.505Z" fill="white"/>
<path d="M69.225 158.925C69.305 159.365 69.485 159.705 69.765 159.945C70.055 160.175 70.44 160.29 70.92 160.29C71.54 160.29 71.99 160.035 72.27 159.525C72.55 159.005 72.69 158.135 72.69 156.915C72.46 157.235 72.135 157.485 71.715 157.665C71.305 157.845 70.86 157.935 70.38 157.935C69.74 157.935 69.16 157.805 68.64 157.545C68.13 157.275 67.725 156.88 67.425 156.36C67.125 155.83 66.975 155.19 66.975 154.44C66.975 153.33 67.305 152.45 67.965 151.8C68.625 151.14 69.525 150.81 70.665 150.81C72.085 150.81 73.085 151.265 73.665 152.175C74.255 153.085 74.55 154.455 74.55 156.285C74.55 157.585 74.435 158.65 74.205 159.48C73.985 160.31 73.6 160.94 73.05 161.37C72.51 161.8 71.77 162.015 70.83 162.015C70.09 162.015 69.46 161.875 68.94 161.595C68.42 161.305 68.02 160.93 67.74 160.47C67.47 160 67.315 159.485 67.275 158.925H69.225ZM70.815 156.225C71.335 156.225 71.745 156.065 72.045 155.745C72.345 155.425 72.495 154.995 72.495 154.455C72.495 153.865 72.335 153.41 72.015 153.09C71.705 152.76 71.28 152.595 70.74 152.595C70.2 152.595 69.77 152.765 69.45 153.105C69.14 153.435 68.985 153.875 68.985 154.425C68.985 154.955 69.135 155.39 69.435 155.73C69.745 156.06 70.205 156.225 70.815 156.225ZM77.3546 162.105C76.9746 162.105 76.6596 161.99 76.4096 161.76C76.1696 161.52 76.0496 161.225 76.0496 160.875C76.0496 160.525 76.1696 160.235 76.4096 160.005C76.6596 159.765 76.9746 159.645 77.3546 159.645C77.7246 159.645 78.0296 159.765 78.2696 160.005C78.5096 160.235 78.6296 160.525 78.6296 160.875C78.6296 161.225 78.5096 161.52 78.2696 161.76C78.0296 161.99 77.7246 162.105 77.3546 162.105ZM77.3546 155.895C76.9746 155.895 76.6596 155.78 76.4096 155.55C76.1696 155.31 76.0496 155.015 76.0496 154.665C76.0496 154.315 76.1696 154.025 76.4096 153.795C76.6596 153.555 76.9746 153.435 77.3546 153.435C77.7246 153.435 78.0296 153.555 78.2696 153.795C78.5096 154.025 78.6296 154.315 78.6296 154.665C78.6296 155.015 78.5096 155.31 78.2696 155.55C78.0296 155.78 77.7246 155.895 77.3546 155.895ZM80.1251 156.39C80.1251 154.66 80.4351 153.305 81.0551 152.325C81.6851 151.345 82.7251 150.855 84.1751 150.855C85.6251 150.855 86.6601 151.345 87.2801 152.325C87.9101 153.305 88.2251 154.66 88.2251 156.39C88.2251 158.13 87.9101 159.495 87.2801 160.485C86.6601 161.475 85.6251 161.97 84.1751 161.97C82.7251 161.97 81.6851 161.475 81.0551 160.485C80.4351 159.495 80.1251 158.13 80.1251 156.39ZM86.1551 156.39C86.1551 155.65 86.1051 155.03 86.0051 154.53C85.9151 154.02 85.7251 153.605 85.4351 153.285C85.1551 152.965 84.7351 152.805 84.1751 152.805C83.6151 152.805 83.1901 152.965 82.9001 153.285C82.6201 153.605 82.4301 154.02 82.3301 154.53C82.2401 155.03 82.1951 155.65 82.1951 156.39C82.1951 157.15 82.2401 157.79 82.3301 158.31C82.4201 158.82 82.6101 159.235 82.9001 159.555C83.1901 159.865 83.6151 160.02 84.1751 160.02C84.7351 160.02 85.1601 159.865 85.4501 159.555C85.7401 159.235 85.9301 158.82 86.0201 158.31C86.1101 157.79 86.1551 157.15 86.1551 156.39ZM89.8223 156.39C89.8223 154.66 90.1323 153.305 90.7523 152.325C91.3823 151.345 92.4223 150.855 93.8723 150.855C95.3223 150.855 96.3573 151.345 96.9773 152.325C97.6073 153.305 97.9223 154.66 97.9223 156.39C97.9223 158.13 97.6073 159.495 96.9773 160.485C96.3573 161.475 95.3223 161.97 93.8723 161.97C92.4223 161.97 91.3823 161.475 90.7523 160.485C90.1323 159.495 89.8223 158.13 89.8223 156.39ZM95.8523 156.39C95.8523 155.65 95.8023 155.03 95.7023 154.53C95.6123 154.02 95.4223 153.605 95.1323 153.285C94.8523 152.965 94.4323 152.805 93.8723 152.805C93.3123 152.805 92.8873 152.965 92.5973 153.285C92.3173 153.605 92.1273 154.02 92.0273 154.53C91.9373 155.03 91.8923 155.65 91.8923 156.39C91.8923 157.15 91.9373 157.79 92.0273 158.31C92.1173 158.82 92.3073 159.235 92.5973 159.555C92.8873 159.865 93.3123 160.02 93.8723 160.02C94.4323 160.02 94.8573 159.865 95.1473 159.555C95.4373 159.235 95.6273 158.82 95.7173 158.31C95.8073 157.79 95.8523 157.15 95.8523 156.39ZM102.794 157.815C102.794 156.975 102.959 156.23 103.289 155.58C103.629 154.93 104.084 154.43 104.654 154.08C105.234 153.73 105.879 153.555 106.589 153.555C107.209 153.555 107.749 153.68 108.209 153.93C108.679 154.18 109.054 154.495 109.334 154.875V153.69H111.449V162H109.334V160.785C109.064 161.175 108.689 161.5 108.209 161.76C107.739 162.01 107.194 162.135 106.574 162.135C105.874 162.135 105.234 161.955 104.654 161.595C104.084 161.235 103.629 160.73 103.289 160.08C102.959 159.42 102.794 158.665 102.794 157.815ZM109.334 157.845C109.334 157.335 109.234 156.9 109.034 156.54C108.834 156.17 108.564 155.89 108.224 155.7C107.884 155.5 107.519 155.4 107.129 155.4C106.739 155.4 106.379 155.495 106.049 155.685C105.719 155.875 105.449 156.155 105.239 156.525C105.039 156.885 104.939 157.315 104.939 157.815C104.939 158.315 105.039 158.755 105.239 159.135C105.449 159.505 105.719 159.79 106.049 159.99C106.389 160.19 106.749 160.29 107.129 160.29C107.519 160.29 107.884 160.195 108.224 160.005C108.564 159.805 108.834 159.525 109.034 159.165C109.234 158.795 109.334 158.355 109.334 157.845ZM123.82 153.57C124.84 153.57 125.66 153.885 126.28 154.515C126.91 155.135 127.225 156.005 127.225 157.125V162H125.125V157.41C125.125 156.76 124.96 156.265 124.63 155.925C124.3 155.575 123.85 155.4 123.28 155.4C122.71 155.4 122.255 155.575 121.915 155.925C121.585 156.265 121.42 156.76 121.42 157.41V162H119.32V157.41C119.32 156.76 119.155 156.265 118.825 155.925C118.495 155.575 118.045 155.4 117.475 155.4C116.895 155.4 116.435 155.575 116.095 155.925C115.765 156.265 115.6 156.76 115.6 157.41V162H113.5V153.69H115.6V154.695C115.87 154.345 116.215 154.07 116.635 153.87C117.065 153.67 117.535 153.57 118.045 153.57C118.695 153.57 119.275 153.71 119.785 153.99C120.295 154.26 120.69 154.65 120.97 155.16C121.24 154.68 121.63 154.295 122.14 154.005C122.66 153.715 123.22 153.57 123.82 153.57ZM139.182 155.76V157.53H132.822V155.76H139.182ZM144.781 159.87V158.22L149.686 151.2H152.131V158.04H153.451V159.87H152.131V162H150.031V159.87H144.781ZM150.166 153.45L147.091 158.04H150.166V153.45ZM155.958 162.105C155.578 162.105 155.263 161.99 155.013 161.76C154.773 161.52 154.653 161.225 154.653 160.875C154.653 160.525 154.773 160.235 155.013 160.005C155.263 159.765 155.578 159.645 155.958 159.645C156.328 159.645 156.633 159.765 156.873 160.005C157.113 160.235 157.233 160.525 157.233 160.875C157.233 161.225 157.113 161.52 156.873 161.76C156.633 161.99 156.328 162.105 155.958 162.105ZM155.958 155.895C155.578 155.895 155.263 155.78 155.013 155.55C154.773 155.31 154.653 155.015 154.653 154.665C154.653 154.315 154.773 154.025 155.013 153.795C155.263 153.555 155.578 153.435 155.958 153.435C156.328 153.435 156.633 153.555 156.873 153.795C157.113 154.025 157.233 154.315 157.233 154.665C157.233 155.015 157.113 155.31 156.873 155.55C156.633 155.78 156.328 155.895 155.958 155.895ZM158.729 156.39C158.729 154.66 159.039 153.305 159.659 152.325C160.289 151.345 161.329 150.855 162.779 150.855C164.229 150.855 165.264 151.345 165.884 152.325C166.514 153.305 166.829 154.66 166.829 156.39C166.829 158.13 166.514 159.495 165.884 160.485C165.264 161.475 164.229 161.97 162.779 161.97C161.329 161.97 160.289 161.475 159.659 160.485C159.039 159.495 158.729 158.13 158.729 156.39ZM164.759 156.39C164.759 155.65 164.709 155.03 164.609 154.53C164.519 154.02 164.329 153.605 164.039 153.285C163.759 152.965 163.339 152.805 162.779 152.805C162.219 152.805 161.794 152.965 161.504 153.285C161.224 153.605 161.034 154.02 160.934 154.53C160.844 155.03 160.799 155.65 160.799 156.39C160.799 157.15 160.844 157.79 160.934 158.31C161.024 158.82 161.214 159.235 161.504 159.555C161.794 159.865 162.219 160.02 162.779 160.02C163.339 160.02 163.764 159.865 164.054 159.555C164.344 159.235 164.534 158.82 164.624 158.31C164.714 157.79 164.759 157.15 164.759 156.39ZM168.426 156.39C168.426 154.66 168.736 153.305 169.356 152.325C169.986 151.345 171.026 150.855 172.476 150.855C173.926 150.855 174.961 151.345 175.581 152.325C176.211 153.305 176.526 154.66 176.526 156.39C176.526 158.13 176.211 159.495 175.581 160.485C174.961 161.475 173.926 161.97 172.476 161.97C171.026 161.97 169.986 161.475 169.356 160.485C168.736 159.495 168.426 158.13 168.426 156.39ZM174.456 156.39C174.456 155.65 174.406 155.03 174.306 154.53C174.216 154.02 174.026 153.605 173.736 153.285C173.456 152.965 173.036 152.805 172.476 152.805C171.916 152.805 171.491 152.965 171.201 153.285C170.921 153.605 170.731 154.02 170.631 154.53C170.541 155.03 170.496 155.65 170.496 156.39C170.496 157.15 170.541 157.79 170.631 158.31C170.721 158.82 170.911 159.235 171.201 159.555C171.491 159.865 171.916 160.02 172.476 160.02C173.036 160.02 173.461 159.865 173.751 159.555C174.041 159.235 174.231 158.82 174.321 158.31C174.411 157.79 174.456 157.15 174.456 156.39ZM184.037 154.89C184.307 154.51 184.677 154.195 185.147 153.945C185.627 153.685 186.172 153.555 186.782 153.555C187.492 153.555 188.132 153.73 188.702 154.08C189.282 154.43 189.737 154.93 190.067 155.58C190.407 156.22 190.577 156.965 190.577 157.815C190.577 158.665 190.407 159.42 190.067 160.08C189.737 160.73 189.282 161.235 188.702 161.595C188.132 161.955 187.492 162.135 186.782 162.135C186.172 162.135 185.632 162.01 185.162 161.76C184.702 161.51 184.327 161.195 184.037 160.815V165.96H181.937V153.69H184.037V154.89ZM188.432 157.815C188.432 157.315 188.327 156.885 188.117 156.525C187.917 156.155 187.647 155.875 187.307 155.685C186.977 155.495 186.617 155.4 186.227 155.4C185.847 155.4 185.487 155.5 185.147 155.7C184.817 155.89 184.547 156.17 184.337 156.54C184.137 156.91 184.037 157.345 184.037 157.845C184.037 158.345 184.137 158.78 184.337 159.15C184.547 159.52 184.817 159.805 185.147 160.005C185.487 160.195 185.847 160.29 186.227 160.29C186.617 160.29 186.977 160.19 187.307 159.99C187.647 159.79 187.917 159.505 188.117 159.135C188.327 158.765 188.432 158.325 188.432 157.815ZM202.423 153.57C203.443 153.57 204.263 153.885 204.883 154.515C205.513 155.135 205.828 156.005 205.828 157.125V162H203.728V157.41C203.728 156.76 203.563 156.265 203.233 155.925C202.903 155.575 202.453 155.4 201.883 155.4C201.313 155.4 200.858 155.575 200.518 155.925C200.188 156.265 200.023 156.76 200.023 157.41V162H197.923V157.41C197.923 156.76 197.758 156.265 197.428 155.925C197.098 155.575 196.648 155.4 196.078 155.4C195.498 155.4 195.038 155.575 194.698 155.925C194.368 156.265 194.203 156.76 194.203 157.41V162H192.103V153.69H194.203V154.695C194.473 154.345 194.818 154.07 195.238 153.87C195.668 153.67 196.138 153.57 196.648 153.57C197.298 153.57 197.878 153.71 198.388 153.99C198.898 154.26 199.293 154.65 199.573 155.16C199.843 154.68 200.233 154.295 200.743 154.005C201.263 153.715 201.823 153.57 202.423 153.57Z" fill="white"/>
<path d="M89.24 397.456V417H85.32V404.288L80.084 417H77.116L71.852 404.288V417H67.932V397.456H72.384L78.6 411.988L84.816 397.456H89.24ZM107.76 401.488V417H103.812V415.04C103.308 415.712 102.645 416.244 101.824 416.636C101.021 417.009 100.144 417.196 99.1916 417.196C97.9783 417.196 96.9049 416.944 95.9716 416.44C95.0383 415.917 94.3009 415.161 93.7596 414.172C93.2369 413.164 92.9756 411.969 92.9756 410.588V401.488H96.8956V410.028C96.8956 411.26 97.2036 412.212 97.8196 412.884C98.4356 413.537 99.2756 413.864 100.34 413.864C101.422 413.864 102.272 413.537 102.888 412.884C103.504 412.212 103.812 411.26 103.812 410.028V401.488H107.76ZM117.563 417.252C116.294 417.252 115.155 417.028 114.147 416.58C113.139 416.113 112.337 415.488 111.739 414.704C111.161 413.92 110.843 413.052 110.787 412.1H114.735C114.81 412.697 115.099 413.192 115.603 413.584C116.126 413.976 116.77 414.172 117.535 414.172C118.282 414.172 118.861 414.023 119.271 413.724C119.701 413.425 119.915 413.043 119.915 412.576C119.915 412.072 119.654 411.699 119.131 411.456C118.627 411.195 117.815 410.915 116.695 410.616C115.538 410.336 114.586 410.047 113.839 409.748C113.111 409.449 112.477 408.992 111.935 408.376C111.413 407.76 111.151 406.929 111.151 405.884C111.151 405.025 111.394 404.241 111.879 403.532C112.383 402.823 113.093 402.263 114.007 401.852C114.941 401.441 116.033 401.236 117.283 401.236C119.131 401.236 120.606 401.703 121.707 402.636C122.809 403.551 123.415 404.792 123.527 406.36H119.775C119.719 405.744 119.458 405.259 118.991 404.904C118.543 404.531 117.937 404.344 117.171 404.344C116.462 404.344 115.911 404.475 115.519 404.736C115.146 404.997 114.959 405.361 114.959 405.828C114.959 406.351 115.221 406.752 115.743 407.032C116.266 407.293 117.078 407.564 118.179 407.844C119.299 408.124 120.223 408.413 120.951 408.712C121.679 409.011 122.305 409.477 122.827 410.112C123.369 410.728 123.649 411.549 123.667 412.576C123.667 413.472 123.415 414.275 122.911 414.984C122.426 415.693 121.717 416.253 120.783 416.664C119.869 417.056 118.795 417.252 117.563 417.252ZM128.873 399.64C128.182 399.64 127.604 399.425 127.137 398.996C126.689 398.548 126.465 397.997 126.465 397.344C126.465 396.691 126.689 396.149 127.137 395.72C127.604 395.272 128.182 395.048 128.873 395.048C129.564 395.048 130.133 395.272 130.581 395.72C131.048 396.149 131.281 396.691 131.281 397.344C131.281 397.997 131.048 398.548 130.581 398.996C130.133 399.425 129.564 399.64 128.873 399.64ZM130.805 401.488V417H126.885V401.488H130.805ZM133.67 409.244C133.67 407.639 133.997 406.239 134.65 405.044C135.303 403.831 136.209 402.897 137.366 402.244C138.523 401.572 139.849 401.236 141.342 401.236C143.265 401.236 144.851 401.721 146.102 402.692C147.371 403.644 148.221 404.988 148.65 406.724H144.422C144.198 406.052 143.815 405.529 143.274 405.156C142.751 404.764 142.098 404.568 141.314 404.568C140.194 404.568 139.307 404.979 138.654 405.8C138.001 406.603 137.674 407.751 137.674 409.244C137.674 410.719 138.001 411.867 138.654 412.688C139.307 413.491 140.194 413.892 141.314 413.892C142.901 413.892 143.937 413.183 144.422 411.764H148.65C148.221 413.444 147.371 414.779 146.102 415.768C144.833 416.757 143.246 417.252 141.342 417.252C139.849 417.252 138.523 416.925 137.366 416.272C136.209 415.6 135.303 414.667 134.65 413.472C133.997 412.259 133.67 410.849 133.67 409.244ZM166.79 401.264C168.638 401.264 170.131 401.852 171.27 403.028C172.408 404.185 172.978 405.809 172.978 407.9V417H169.058V408.432C169.058 407.2 168.75 406.257 168.134 405.604C167.518 404.932 166.678 404.596 165.614 404.596C164.531 404.596 163.672 404.932 163.038 405.604C162.422 406.257 162.114 407.2 162.114 408.432V417H158.194V401.488H162.114V403.42C162.636 402.748 163.299 402.225 164.102 401.852C164.923 401.46 165.819 401.264 166.79 401.264ZM178.693 399.64C178.003 399.64 177.424 399.425 176.957 398.996C176.509 398.548 176.285 397.997 176.285 397.344C176.285 396.691 176.509 396.149 176.957 395.72C177.424 395.272 178.003 395.048 178.693 395.048C179.384 395.048 179.953 395.272 180.401 395.72C180.868 396.149 181.101 396.691 181.101 397.344C181.101 397.997 180.868 398.548 180.401 398.996C179.953 399.425 179.384 399.64 178.693 399.64ZM180.625 401.488V417H176.705V401.488H180.625ZM190.574 401.236C191.732 401.236 192.749 401.469 193.626 401.936C194.504 402.384 195.194 402.972 195.698 403.7V401.488H199.646V417.112C199.646 418.549 199.357 419.828 198.778 420.948C198.2 422.087 197.332 422.983 196.174 423.636C195.017 424.308 193.617 424.644 191.974 424.644C189.772 424.644 187.961 424.131 186.542 423.104C185.142 422.077 184.349 420.677 184.162 418.904H188.054C188.26 419.613 188.698 420.173 189.37 420.584C190.061 421.013 190.892 421.228 191.862 421.228C193.001 421.228 193.925 420.883 194.634 420.192C195.344 419.52 195.698 418.493 195.698 417.112V414.704C195.194 415.432 194.494 416.039 193.598 416.524C192.721 417.009 191.713 417.252 190.574 417.252C189.268 417.252 188.073 416.916 186.99 416.244C185.908 415.572 185.049 414.629 184.414 413.416C183.798 412.184 183.49 410.775 183.49 409.188C183.49 407.62 183.798 406.229 184.414 405.016C185.049 403.803 185.898 402.869 186.962 402.216C188.045 401.563 189.249 401.236 190.574 401.236ZM195.698 409.244C195.698 408.292 195.512 407.48 195.138 406.808C194.765 406.117 194.261 405.595 193.626 405.24C192.992 404.867 192.31 404.68 191.582 404.68C190.854 404.68 190.182 404.857 189.566 405.212C188.95 405.567 188.446 406.089 188.054 406.78C187.681 407.452 187.494 408.255 187.494 409.188C187.494 410.121 187.681 410.943 188.054 411.652C188.446 412.343 188.95 412.875 189.566 413.248C190.201 413.621 190.873 413.808 191.582 413.808C192.31 413.808 192.992 413.631 193.626 413.276C194.261 412.903 194.765 412.38 195.138 411.708C195.512 411.017 195.698 410.196 195.698 409.244ZM212.211 401.264C213.387 401.264 214.432 401.525 215.347 402.048C216.262 402.552 216.971 403.308 217.475 404.316C217.998 405.305 218.259 406.5 218.259 407.9V417H214.339V408.432C214.339 407.2 214.031 406.257 213.415 405.604C212.799 404.932 211.959 404.596 210.895 404.596C209.812 404.596 208.954 404.932 208.319 405.604C207.703 406.257 207.395 407.2 207.395 408.432V417H203.475V396.28H207.395V403.42C207.899 402.748 208.571 402.225 209.411 401.852C210.251 401.46 211.184 401.264 212.211 401.264ZM226.551 404.708V412.212C226.551 412.735 226.672 413.117 226.915 413.36C227.176 413.584 227.605 413.696 228.203 413.696H230.023V417H227.559C224.255 417 222.603 415.395 222.603 412.184V404.708H220.755V401.488H222.603V397.652H226.551V401.488H230.023V404.708H226.551Z" fill="white"/>
<path d="M68.625 433.21C67.625 432.69 67.125 431.885 67.125 430.795C67.125 430.255 67.26 429.765 67.53 429.325C67.81 428.875 68.225 428.52 68.775 428.26C69.335 427.99 70.015 427.855 70.815 427.855C71.615 427.855 72.29 427.99 72.84 428.26C73.4 428.52 73.815 428.875 74.085 429.325C74.365 429.765 74.505 430.255 74.505 430.795C74.505 431.345 74.37 431.83 74.1 432.25C73.83 432.66 73.47 432.98 73.02 433.21C73.57 433.45 74 433.8 74.31 434.26C74.62 434.72 74.775 435.265 74.775 435.895C74.775 436.575 74.6 437.17 74.25 437.68C73.91 438.18 73.44 438.565 72.84 438.835C72.24 439.105 71.565 439.24 70.815 439.24C70.065 439.24 69.39 439.105 68.79 438.835C68.2 438.565 67.73 438.18 67.38 437.68C67.04 437.17 66.87 436.575 66.87 435.895C66.87 435.265 67.025 434.72 67.335 434.26C67.645 433.79 68.075 433.44 68.625 433.21ZM72.465 431.095C72.465 430.605 72.315 430.225 72.015 429.955C71.725 429.685 71.325 429.55 70.815 429.55C70.315 429.55 69.915 429.685 69.615 429.955C69.325 430.225 69.18 430.61 69.18 431.11C69.18 431.56 69.33 431.92 69.63 432.19C69.94 432.46 70.335 432.595 70.815 432.595C71.295 432.595 71.69 432.46 72 432.19C72.31 431.91 72.465 431.545 72.465 431.095ZM70.815 434.125C70.245 434.125 69.78 434.27 69.42 434.56C69.07 434.85 68.895 435.265 68.895 435.805C68.895 436.305 69.065 436.715 69.405 437.035C69.755 437.345 70.225 437.5 70.815 437.5C71.405 437.5 71.87 437.34 72.21 437.02C72.55 436.7 72.72 436.295 72.72 435.805C72.72 435.275 72.545 434.865 72.195 434.575C71.845 434.275 71.385 434.125 70.815 434.125ZM77.6037 439.105C77.2237 439.105 76.9087 438.99 76.6587 438.76C76.4187 438.52 76.2987 438.225 76.2987 437.875C76.2987 437.525 76.4187 437.235 76.6587 437.005C76.9087 436.765 77.2237 436.645 77.6037 436.645C77.9737 436.645 78.2787 436.765 78.5187 437.005C78.7587 437.235 78.8787 437.525 78.8787 437.875C78.8787 438.225 78.7587 438.52 78.5187 438.76C78.2787 438.99 77.9737 439.105 77.6037 439.105ZM77.6037 432.895C77.2237 432.895 76.9087 432.78 76.6587 432.55C76.4187 432.31 76.2987 432.015 76.2987 431.665C76.2987 431.315 76.4187 431.025 76.6587 430.795C76.9087 430.555 77.2237 430.435 77.6037 430.435C77.9737 430.435 78.2787 430.555 78.5187 430.795C78.7587 431.025 78.8787 431.315 78.8787 431.665C78.8787 432.015 78.7587 432.31 78.5187 432.55C78.2787 432.78 77.9737 432.895 77.6037 432.895ZM80.4041 430.945C80.4541 429.945 80.8041 429.175 81.4541 428.635C82.1141 428.085 82.9791 427.81 84.0491 427.81C84.7791 427.81 85.4041 427.94 85.9241 428.2C86.4441 428.45 86.8341 428.795 87.0941 429.235C87.3641 429.665 87.4991 430.155 87.4991 430.705C87.4991 431.335 87.3341 431.87 87.0041 432.31C86.6841 432.74 86.2991 433.03 85.8491 433.18V433.24C86.4291 433.42 86.8791 433.74 87.1991 434.2C87.5291 434.66 87.6941 435.25 87.6941 435.97C87.6941 436.57 87.5541 437.105 87.2741 437.575C87.0041 438.045 86.5991 438.415 86.0591 438.685C85.5291 438.945 84.8891 439.075 84.1391 439.075C83.0091 439.075 82.0891 438.79 81.3791 438.22C80.6691 437.65 80.2941 436.81 80.2541 435.7H82.2941C82.3141 436.19 82.4791 436.585 82.7891 436.885C83.1091 437.175 83.5441 437.32 84.0941 437.32C84.6041 437.32 84.9941 437.18 85.2641 436.9C85.5441 436.61 85.6841 436.24 85.6841 435.79C85.6841 435.19 85.4941 434.76 85.1141 434.5C84.7341 434.24 84.1441 434.11 83.3441 434.11H82.9091V432.385H83.3441C84.7641 432.385 85.4741 431.91 85.4741 430.96C85.4741 430.53 85.3441 430.195 85.0841 429.955C84.8341 429.715 84.4691 429.595 83.9891 429.595C83.5191 429.595 83.1541 429.725 82.8941 429.985C82.6441 430.235 82.4991 430.555 82.4591 430.945H80.4041ZM89.3536 433.39C89.3536 431.66 89.6636 430.305 90.2836 429.325C90.9136 428.345 91.9536 427.855 93.4036 427.855C94.8536 427.855 95.8886 428.345 96.5086 429.325C97.1386 430.305 97.4536 431.66 97.4536 433.39C97.4536 435.13 97.1386 436.495 96.5086 437.485C95.8886 438.475 94.8536 438.97 93.4036 438.97C91.9536 438.97 90.9136 438.475 90.2836 437.485C89.6636 436.495 89.3536 435.13 89.3536 433.39ZM95.3836 433.39C95.3836 432.65 95.3336 432.03 95.2336 431.53C95.1436 431.02 94.9536 430.605 94.6636 430.285C94.3836 429.965 93.9636 429.805 93.4036 429.805C92.8436 429.805 92.4186 429.965 92.1286 430.285C91.8486 430.605 91.6586 431.02 91.5586 431.53C91.4686 432.03 91.4236 432.65 91.4236 433.39C91.4236 434.15 91.4686 434.79 91.5586 435.31C91.6486 435.82 91.8386 436.235 92.1286 436.555C92.4186 436.865 92.8436 437.02 93.4036 437.02C93.9636 437.02 94.3886 436.865 94.6786 436.555C94.9686 436.235 95.1586 435.82 95.2486 435.31C95.3386 434.79 95.3836 434.15 95.3836 433.39ZM104.965 431.89C105.235 431.51 105.605 431.195 106.075 430.945C106.555 430.685 107.1 430.555 107.71 430.555C108.42 430.555 109.06 430.73 109.63 431.08C110.21 431.43 110.665 431.93 110.995 432.58C111.335 433.22 111.505 433.965 111.505 434.815C111.505 435.665 111.335 436.42 110.995 437.08C110.665 437.73 110.21 438.235 109.63 438.595C109.06 438.955 108.42 439.135 107.71 439.135C107.1 439.135 106.56 439.01 106.09 438.76C105.63 438.51 105.255 438.195 104.965 437.815V442.96H102.865V430.69H104.965V431.89ZM109.36 434.815C109.36 434.315 109.255 433.885 109.045 433.525C108.845 433.155 108.575 432.875 108.235 432.685C107.905 432.495 107.545 432.4 107.155 432.4C106.775 432.4 106.415 432.5 106.075 432.7C105.745 432.89 105.475 433.17 105.265 433.54C105.065 433.91 104.965 434.345 104.965 434.845C104.965 435.345 105.065 435.78 105.265 436.15C105.475 436.52 105.745 436.805 106.075 437.005C106.415 437.195 106.775 437.29 107.155 437.29C107.545 437.29 107.905 437.19 108.235 436.99C108.575 436.79 108.845 436.505 109.045 436.135C109.255 435.765 109.36 435.325 109.36 434.815ZM123.351 430.57C124.371 430.57 125.191 430.885 125.811 431.515C126.441 432.135 126.756 433.005 126.756 434.125V439H124.656V434.41C124.656 433.76 124.491 433.265 124.161 432.925C123.831 432.575 123.381 432.4 122.811 432.4C122.241 432.4 121.786 432.575 121.446 432.925C121.116 433.265 120.951 433.76 120.951 434.41V439H118.851V434.41C118.851 433.76 118.686 433.265 118.356 432.925C118.026 432.575 117.576 432.4 117.006 432.4C116.426 432.4 115.966 432.575 115.626 432.925C115.296 433.265 115.131 433.76 115.131 434.41V439H113.031V430.69H115.131V431.695C115.401 431.345 115.746 431.07 116.166 430.87C116.596 430.67 117.066 430.57 117.576 430.57C118.226 430.57 118.806 430.71 119.316 430.99C119.826 431.26 120.221 431.65 120.501 432.16C120.771 431.68 121.161 431.295 121.671 431.005C122.191 430.715 122.751 430.57 123.351 430.57ZM138.713 432.76V434.53H132.353V432.76H138.713ZM144.147 430V428.065H147.762V439H145.602V430H144.147ZM149.837 433.39C149.837 431.66 150.147 430.305 150.767 429.325C151.397 428.345 152.437 427.855 153.887 427.855C155.337 427.855 156.372 428.345 156.992 429.325C157.622 430.305 157.937 431.66 157.937 433.39C157.937 435.13 157.622 436.495 156.992 437.485C156.372 438.475 155.337 438.97 153.887 438.97C152.437 438.97 151.397 438.475 150.767 437.485C150.147 436.495 149.837 435.13 149.837 433.39ZM155.867 433.39C155.867 432.65 155.817 432.03 155.717 431.53C155.627 431.02 155.437 430.605 155.147 430.285C154.867 429.965 154.447 429.805 153.887 429.805C153.327 429.805 152.902 429.965 152.612 430.285C152.332 430.605 152.142 431.02 152.042 431.53C151.952 432.03 151.907 432.65 151.907 433.39C151.907 434.15 151.952 434.79 152.042 435.31C152.132 435.82 152.322 436.235 152.612 436.555C152.902 436.865 153.327 437.02 153.887 437.02C154.447 437.02 154.872 436.865 155.162 436.555C155.452 436.235 155.642 435.82 155.732 435.31C155.822 434.79 155.867 434.15 155.867 433.39ZM160.704 439.105C160.324 439.105 160.009 438.99 159.759 438.76C159.519 438.52 159.399 438.225 159.399 437.875C159.399 437.525 159.519 437.235 159.759 437.005C160.009 436.765 160.324 436.645 160.704 436.645C161.074 436.645 161.379 436.765 161.619 437.005C161.859 437.235 161.979 437.525 161.979 437.875C161.979 438.225 161.859 438.52 161.619 438.76C161.379 438.99 161.074 439.105 160.704 439.105ZM160.704 432.895C160.324 432.895 160.009 432.78 159.759 432.55C159.519 432.31 159.399 432.015 159.399 431.665C159.399 431.315 159.519 431.025 159.759 430.795C160.009 430.555 160.324 430.435 160.704 430.435C161.074 430.435 161.379 430.555 161.619 430.795C161.859 431.025 161.979 431.315 161.979 431.665C161.979 432.015 161.859 432.31 161.619 432.55C161.379 432.78 161.074 432.895 160.704 432.895ZM163.475 433.39C163.475 431.66 163.785 430.305 164.405 429.325C165.035 428.345 166.075 427.855 167.525 427.855C168.975 427.855 170.01 428.345 170.63 429.325C171.26 430.305 171.575 431.66 171.575 433.39C171.575 435.13 171.26 436.495 170.63 437.485C170.01 438.475 168.975 438.97 167.525 438.97C166.075 438.97 165.035 438.475 164.405 437.485C163.785 436.495 163.475 435.13 163.475 433.39ZM169.505 433.39C169.505 432.65 169.455 432.03 169.355 431.53C169.265 431.02 169.075 430.605 168.785 430.285C168.505 429.965 168.085 429.805 167.525 429.805C166.965 429.805 166.54 429.965 166.25 430.285C165.97 430.605 165.78 431.02 165.68 431.53C165.59 432.03 165.545 432.65 165.545 433.39C165.545 434.15 165.59 434.79 165.68 435.31C165.77 435.82 165.96 436.235 166.25 436.555C166.54 436.865 166.965 437.02 167.525 437.02C168.085 437.02 168.51 436.865 168.8 436.555C169.09 436.235 169.28 435.82 169.37 435.31C169.46 434.79 169.505 434.15 169.505 433.39ZM173.172 433.39C173.172 431.66 173.482 430.305 174.102 429.325C174.732 428.345 175.772 427.855 177.222 427.855C178.672 427.855 179.707 428.345 180.327 429.325C180.957 430.305 181.272 431.66 181.272 433.39C181.272 435.13 180.957 436.495 180.327 437.485C179.707 438.475 178.672 438.97 177.222 438.97C175.772 438.97 174.732 438.475 174.102 437.485C173.482 436.495 173.172 435.13 173.172 433.39ZM179.202 433.39C179.202 432.65 179.152 432.03 179.052 431.53C178.962 431.02 178.772 430.605 178.482 430.285C178.202 429.965 177.782 429.805 177.222 429.805C176.662 429.805 176.237 429.965 175.947 430.285C175.667 430.605 175.477 431.02 175.377 431.53C175.287 432.03 175.242 432.65 175.242 433.39C175.242 434.15 175.287 434.79 175.377 435.31C175.467 435.82 175.657 436.235 175.947 436.555C176.237 436.865 176.662 437.02 177.222 437.02C177.782 437.02 178.207 436.865 178.497 436.555C178.787 436.235 178.977 435.82 179.067 435.31C179.157 434.79 179.202 434.15 179.202 433.39ZM188.783 431.89C189.053 431.51 189.423 431.195 189.893 430.945C190.373 430.685 190.918 430.555 191.528 430.555C192.238 430.555 192.878 430.73 193.448 431.08C194.028 431.43 194.483 431.93 194.813 432.58C195.153 433.22 195.323 433.965 195.323 434.815C195.323 435.665 195.153 436.42 194.813 437.08C194.483 437.73 194.028 438.235 193.448 438.595C192.878 438.955 192.238 439.135 191.528 439.135C190.918 439.135 190.378 439.01 189.908 438.76C189.448 438.51 189.073 438.195 188.783 437.815V442.96H186.683V430.69H188.783V431.89ZM193.178 434.815C193.178 434.315 193.073 433.885 192.863 433.525C192.663 433.155 192.393 432.875 192.053 432.685C191.723 432.495 191.363 432.4 190.973 432.4C190.593 432.4 190.233 432.5 189.893 432.7C189.563 432.89 189.293 433.17 189.083 433.54C188.883 433.91 188.783 434.345 188.783 434.845C188.783 435.345 188.883 435.78 189.083 436.15C189.293 436.52 189.563 436.805 189.893 437.005C190.233 437.195 190.593 437.29 190.973 437.29C191.363 437.29 191.723 437.19 192.053 436.99C192.393 436.79 192.663 436.505 192.863 436.135C193.073 435.765 193.178 435.325 193.178 434.815ZM207.169 430.57C208.189 430.57 209.009 430.885 209.629 431.515C210.259 432.135 210.574 433.005 210.574 434.125V439H208.474V434.41C208.474 433.76 208.309 433.265 207.979 432.925C207.649 432.575 207.199 432.4 206.629 432.4C206.059 432.4 205.604 432.575 205.264 432.925C204.934 433.265 204.769 433.76 204.769 434.41V439H202.669V434.41C202.669 433.76 202.504 433.265 202.174 432.925C201.844 432.575 201.394 432.4 200.824 432.4C200.244 432.4 199.784 432.575 199.444 432.925C199.114 433.265 198.949 433.76 198.949 434.41V439H196.849V430.69H198.949V431.695C199.219 431.345 199.564 431.07 199.984 430.87C200.414 430.67 200.884 430.57 201.394 430.57C202.044 430.57 202.624 430.71 203.134 430.99C203.644 431.26 204.039 431.65 204.319 432.16C204.589 431.68 204.979 431.295 205.489 431.005C206.009 430.715 206.569 430.57 207.169 430.57Z" fill="white"/>
<path d="M83.472 311.456L76.864 324.196V331H72.944V324.196L66.308 311.456H70.732L74.932 320.388L79.104 311.456H83.472ZM99.9848 317.504C99.9848 318.549 99.7328 319.529 99.2288 320.444C98.7434 321.359 97.9688 322.096 96.9048 322.656C95.8594 323.216 94.5341 323.496 92.9288 323.496H89.6528V331H85.7328V311.456H92.9288C94.4408 311.456 95.7288 311.717 96.7928 312.24C97.8568 312.763 98.6501 313.481 99.1728 314.396C99.7141 315.311 99.9848 316.347 99.9848 317.504ZM92.7608 320.332C93.8434 320.332 94.6461 320.089 95.1688 319.604C95.6914 319.1 95.9528 318.4 95.9528 317.504C95.9528 315.6 94.8888 314.648 92.7608 314.648H89.6528V320.332H92.7608ZM122.74 311.456V314.62H117.532V331H113.612V314.62H108.404V311.456H122.74ZM124.592 323.188C124.592 321.62 124.9 320.229 125.516 319.016C126.151 317.803 127 316.869 128.064 316.216C129.147 315.563 130.351 315.236 131.676 315.236C132.833 315.236 133.841 315.469 134.7 315.936C135.577 316.403 136.277 316.991 136.8 317.7V315.488H140.748V331H136.8V328.732C136.296 329.46 135.596 330.067 134.7 330.552C133.823 331.019 132.805 331.252 131.648 331.252C130.341 331.252 129.147 330.916 128.064 330.244C127 329.572 126.151 328.629 125.516 327.416C124.9 326.184 124.592 324.775 124.592 323.188ZM136.8 323.244C136.8 322.292 136.613 321.48 136.24 320.808C135.867 320.117 135.363 319.595 134.728 319.24C134.093 318.867 133.412 318.68 132.684 318.68C131.956 318.68 131.284 318.857 130.668 319.212C130.052 319.567 129.548 320.089 129.156 320.78C128.783 321.452 128.596 322.255 128.596 323.188C128.596 324.121 128.783 324.943 129.156 325.652C129.548 326.343 130.052 326.875 130.668 327.248C131.303 327.621 131.975 327.808 132.684 327.808C133.412 327.808 134.093 327.631 134.728 327.276C135.363 326.903 135.867 326.38 136.24 325.708C136.613 325.017 136.8 324.196 136.8 323.244ZM148.497 310.28V331H144.577V310.28H148.497ZM161.554 331L156.29 324.392V331H152.37V310.28H156.29V322.068L161.498 315.488H166.594L159.762 323.272L166.65 331H161.554ZM174.657 331.252C173.388 331.252 172.249 331.028 171.241 330.58C170.233 330.113 169.43 329.488 168.833 328.704C168.254 327.92 167.937 327.052 167.881 326.1H171.829C171.904 326.697 172.193 327.192 172.697 327.584C173.22 327.976 173.864 328.172 174.629 328.172C175.376 328.172 175.954 328.023 176.365 327.724C176.794 327.425 177.009 327.043 177.009 326.576C177.009 326.072 176.748 325.699 176.225 325.456C175.721 325.195 174.909 324.915 173.789 324.616C172.632 324.336 171.68 324.047 170.933 323.748C170.205 323.449 169.57 322.992 169.029 322.376C168.506 321.76 168.245 320.929 168.245 319.884C168.245 319.025 168.488 318.241 168.973 317.532C169.477 316.823 170.186 316.263 171.101 315.852C172.034 315.441 173.126 315.236 174.377 315.236C176.225 315.236 177.7 315.703 178.801 316.636C179.902 317.551 180.509 318.792 180.621 320.36H176.869C176.813 319.744 176.552 319.259 176.085 318.904C175.637 318.531 175.03 318.344 174.265 318.344C173.556 318.344 173.005 318.475 172.613 318.736C172.24 318.997 172.053 319.361 172.053 319.828C172.053 320.351 172.314 320.752 172.837 321.032C173.36 321.293 174.172 321.564 175.273 321.844C176.393 322.124 177.317 322.413 178.045 322.712C178.773 323.011 179.398 323.477 179.921 324.112C180.462 324.728 180.742 325.549 180.761 326.576C180.761 327.472 180.509 328.275 180.005 328.984C179.52 329.693 178.81 330.253 177.877 330.664C176.962 331.056 175.889 331.252 174.657 331.252Z" fill="white"/>
<path d="M73.755 341.655L69.765 351H67.635L71.655 341.895H66.525V340.095H73.755V341.655ZM76.1828 351.105C75.8028 351.105 75.4878 350.99 75.2378 350.76C74.9978 350.52 74.8778 350.225 74.8778 349.875C74.8778 349.525 74.9978 349.235 75.2378 349.005C75.4878 348.765 75.8028 348.645 76.1828 348.645C76.5528 348.645 76.8578 348.765 77.0978 349.005C77.3378 349.235 77.4578 349.525 77.4578 349.875C77.4578 350.225 77.3378 350.52 77.0978 350.76C76.8578 350.99 76.5528 351.105 76.1828 351.105ZM76.1828 344.895C75.8028 344.895 75.4878 344.78 75.2378 344.55C74.9978 344.31 74.8778 344.015 74.8778 343.665C74.8778 343.315 74.9978 343.025 75.2378 342.795C75.4878 342.555 75.8028 342.435 76.1828 342.435C76.5528 342.435 76.8578 342.555 77.0978 342.795C77.3378 343.025 77.4578 343.315 77.4578 343.665C77.4578 344.015 77.3378 344.31 77.0978 344.55C76.8578 344.78 76.5528 344.895 76.1828 344.895ZM78.9832 342.945C79.0332 341.945 79.3832 341.175 80.0332 340.635C80.6932 340.085 81.5582 339.81 82.6282 339.81C83.3582 339.81 83.9832 339.94 84.5032 340.2C85.0232 340.45 85.4132 340.795 85.6732 341.235C85.9432 341.665 86.0782 342.155 86.0782 342.705C86.0782 343.335 85.9132 343.87 85.5832 344.31C85.2632 344.74 84.8782 345.03 84.4282 345.18V345.24C85.0082 345.42 85.4582 345.74 85.7782 346.2C86.1082 346.66 86.2732 347.25 86.2732 347.97C86.2732 348.57 86.1332 349.105 85.8532 349.575C85.5832 350.045 85.1782 350.415 84.6382 350.685C84.1082 350.945 83.4682 351.075 82.7182 351.075C81.5882 351.075 80.6682 350.79 79.9582 350.22C79.2482 349.65 78.8732 348.81 78.8332 347.7H80.8732C80.8932 348.19 81.0582 348.585 81.3682 348.885C81.6882 349.175 82.1232 349.32 82.6732 349.32C83.1832 349.32 83.5732 349.18 83.8432 348.9C84.1232 348.61 84.2632 348.24 84.2632 347.79C84.2632 347.19 84.0732 346.76 83.6932 346.5C83.3132 346.24 82.7232 346.11 81.9232 346.11H81.4882V344.385H81.9232C83.3432 344.385 84.0532 343.91 84.0532 342.96C84.0532 342.53 83.9232 342.195 83.6632 341.955C83.4132 341.715 83.0482 341.595 82.5682 341.595C82.0982 341.595 81.7332 341.725 81.4732 341.985C81.2232 342.235 81.0782 342.555 81.0382 342.945H78.9832ZM87.9327 345.39C87.9327 343.66 88.2427 342.305 88.8627 341.325C89.4927 340.345 90.5327 339.855 91.9827 339.855C93.4327 339.855 94.4677 340.345 95.0877 341.325C95.7177 342.305 96.0327 343.66 96.0327 345.39C96.0327 347.13 95.7177 348.495 95.0877 349.485C94.4677 350.475 93.4327 350.97 91.9827 350.97C90.5327 350.97 89.4927 350.475 88.8627 349.485C88.2427 348.495 87.9327 347.13 87.9327 345.39ZM93.9627 345.39C93.9627 344.65 93.9127 344.03 93.8127 343.53C93.7227 343.02 93.5327 342.605 93.2427 342.285C92.9627 341.965 92.5427 341.805 91.9827 341.805C91.4227 341.805 90.9977 341.965 90.7077 342.285C90.4277 342.605 90.2377 343.02 90.1377 343.53C90.0477 344.03 90.0027 344.65 90.0027 345.39C90.0027 346.15 90.0477 346.79 90.1377 347.31C90.2277 347.82 90.4177 348.235 90.7077 348.555C90.9977 348.865 91.4227 349.02 91.9827 349.02C92.5427 349.02 92.9677 348.865 93.2577 348.555C93.5477 348.235 93.7377 347.82 93.8277 347.31C93.9177 346.79 93.9627 346.15 93.9627 345.39ZM103.544 343.89C103.814 343.51 104.184 343.195 104.654 342.945C105.134 342.685 105.679 342.555 106.289 342.555C106.999 342.555 107.639 342.73 108.209 343.08C108.789 343.43 109.244 343.93 109.574 344.58C109.914 345.22 110.084 345.965 110.084 346.815C110.084 347.665 109.914 348.42 109.574 349.08C109.244 349.73 108.789 350.235 108.209 350.595C107.639 350.955 106.999 351.135 106.289 351.135C105.679 351.135 105.139 351.01 104.669 350.76C104.209 350.51 103.834 350.195 103.544 349.815V354.96H101.444V342.69H103.544V343.89ZM107.939 346.815C107.939 346.315 107.834 345.885 107.624 345.525C107.424 345.155 107.154 344.875 106.814 344.685C106.484 344.495 106.124 344.4 105.734 344.4C105.354 344.4 104.994 344.5 104.654 344.7C104.324 344.89 104.054 345.17 103.844 345.54C103.644 345.91 103.544 346.345 103.544 346.845C103.544 347.345 103.644 347.78 103.844 348.15C104.054 348.52 104.324 348.805 104.654 349.005C104.994 349.195 105.354 349.29 105.734 349.29C106.124 349.29 106.484 349.19 106.814 348.99C107.154 348.79 107.424 348.505 107.624 348.135C107.834 347.765 107.939 347.325 107.939 346.815ZM121.93 342.57C122.95 342.57 123.77 342.885 124.39 343.515C125.02 344.135 125.335 345.005 125.335 346.125V351H123.235V346.41C123.235 345.76 123.07 345.265 122.74 344.925C122.41 344.575 121.96 344.4 121.39 344.4C120.82 344.4 120.365 344.575 120.025 344.925C119.695 345.265 119.53 345.76 119.53 346.41V351H117.43V346.41C117.43 345.76 117.265 345.265 116.935 344.925C116.605 344.575 116.155 344.4 115.585 344.4C115.005 344.4 114.545 344.575 114.205 344.925C113.875 345.265 113.71 345.76 113.71 346.41V351H111.61V342.69H113.71V343.695C113.98 343.345 114.325 343.07 114.745 342.87C115.175 342.67 115.645 342.57 116.155 342.57C116.805 342.57 117.385 342.71 117.895 342.99C118.405 343.26 118.8 343.65 119.08 344.16C119.35 343.68 119.74 343.295 120.25 343.005C120.77 342.715 121.33 342.57 121.93 342.57ZM137.292 344.76V346.53H130.932V344.76H137.292ZM144.812 345.21C143.812 344.69 143.312 343.885 143.312 342.795C143.312 342.255 143.447 341.765 143.717 341.325C143.997 340.875 144.412 340.52 144.962 340.26C145.522 339.99 146.202 339.855 147.002 339.855C147.802 339.855 148.477 339.99 149.027 340.26C149.587 340.52 150.002 340.875 150.272 341.325C150.552 341.765 150.692 342.255 150.692 342.795C150.692 343.345 150.557 343.83 150.287 344.25C150.017 344.66 149.657 344.98 149.207 345.21C149.757 345.45 150.187 345.8 150.497 346.26C150.807 346.72 150.962 347.265 150.962 347.895C150.962 348.575 150.787 349.17 150.437 349.68C150.097 350.18 149.627 350.565 149.027 350.835C148.427 351.105 147.752 351.24 147.002 351.24C146.252 351.24 145.577 351.105 144.977 350.835C144.387 350.565 143.917 350.18 143.567 349.68C143.227 349.17 143.057 348.575 143.057 347.895C143.057 347.265 143.212 346.72 143.522 346.26C143.832 345.79 144.262 345.44 144.812 345.21ZM148.652 343.095C148.652 342.605 148.502 342.225 148.202 341.955C147.912 341.685 147.512 341.55 147.002 341.55C146.502 341.55 146.102 341.685 145.802 341.955C145.512 342.225 145.367 342.61 145.367 343.11C145.367 343.56 145.517 343.92 145.817 344.19C146.127 344.46 146.522 344.595 147.002 344.595C147.482 344.595 147.877 344.46 148.187 344.19C148.497 343.91 148.652 343.545 148.652 343.095ZM147.002 346.125C146.432 346.125 145.967 346.27 145.607 346.56C145.257 346.85 145.082 347.265 145.082 347.805C145.082 348.305 145.252 348.715 145.592 349.035C145.942 349.345 146.412 349.5 147.002 349.5C147.592 349.5 148.057 349.34 148.397 349.02C148.737 348.7 148.907 348.295 148.907 347.805C148.907 347.275 148.732 346.865 148.382 346.575C148.032 346.275 147.572 346.125 147.002 346.125ZM153.79 351.105C153.41 351.105 153.095 350.99 152.845 350.76C152.605 350.52 152.485 350.225 152.485 349.875C152.485 349.525 152.605 349.235 152.845 349.005C153.095 348.765 153.41 348.645 153.79 348.645C154.16 348.645 154.465 348.765 154.705 349.005C154.945 349.235 155.065 349.525 155.065 349.875C155.065 350.225 154.945 350.52 154.705 350.76C154.465 350.99 154.16 351.105 153.79 351.105ZM153.79 344.895C153.41 344.895 153.095 344.78 152.845 344.55C152.605 344.31 152.485 344.015 152.485 343.665C152.485 343.315 152.605 343.025 152.845 342.795C153.095 342.555 153.41 342.435 153.79 342.435C154.16 342.435 154.465 342.555 154.705 342.795C154.945 343.025 155.065 343.315 155.065 343.665C155.065 344.015 154.945 344.31 154.705 344.55C154.465 344.78 154.16 344.895 153.79 344.895ZM156.591 342.945C156.641 341.945 156.991 341.175 157.641 340.635C158.301 340.085 159.166 339.81 160.236 339.81C160.966 339.81 161.591 339.94 162.111 340.2C162.631 340.45 163.021 340.795 163.281 341.235C163.551 341.665 163.686 342.155 163.686 342.705C163.686 343.335 163.521 343.87 163.191 344.31C162.871 344.74 162.486 345.03 162.036 345.18V345.24C162.616 345.42 163.066 345.74 163.386 346.2C163.716 346.66 163.881 347.25 163.881 347.97C163.881 348.57 163.741 349.105 163.461 349.575C163.191 350.045 162.786 350.415 162.246 350.685C161.716 350.945 161.076 351.075 160.326 351.075C159.196 351.075 158.276 350.79 157.566 350.22C156.856 349.65 156.481 348.81 156.441 347.7H158.481C158.501 348.19 158.666 348.585 158.976 348.885C159.296 349.175 159.731 349.32 160.281 349.32C160.791 349.32 161.181 349.18 161.451 348.9C161.731 348.61 161.871 348.24 161.871 347.79C161.871 347.19 161.681 346.76 161.301 346.5C160.921 346.24 160.331 346.11 159.531 346.11H159.096V344.385H159.531C160.951 344.385 161.661 343.91 161.661 342.96C161.661 342.53 161.531 342.195 161.271 341.955C161.021 341.715 160.656 341.595 160.176 341.595C159.706 341.595 159.341 341.725 159.081 341.985C158.831 342.235 158.686 342.555 158.646 342.945H156.591ZM165.54 345.39C165.54 343.66 165.85 342.305 166.47 341.325C167.1 340.345 168.14 339.855 169.59 339.855C171.04 339.855 172.075 340.345 172.695 341.325C173.325 342.305 173.64 343.66 173.64 345.39C173.64 347.13 173.325 348.495 172.695 349.485C172.075 350.475 171.04 350.97 169.59 350.97C168.14 350.97 167.1 350.475 166.47 349.485C165.85 348.495 165.54 347.13 165.54 345.39ZM171.57 345.39C171.57 344.65 171.52 344.03 171.42 343.53C171.33 343.02 171.14 342.605 170.85 342.285C170.57 341.965 170.15 341.805 169.59 341.805C169.03 341.805 168.605 341.965 168.315 342.285C168.035 342.605 167.845 343.02 167.745 343.53C167.655 344.03 167.61 344.65 167.61 345.39C167.61 346.15 167.655 346.79 167.745 347.31C167.835 347.82 168.025 348.235 168.315 348.555C168.605 348.865 169.03 349.02 169.59 349.02C170.15 349.02 170.575 348.865 170.865 348.555C171.155 348.235 171.345 347.82 171.435 347.31C171.525 346.79 171.57 346.15 171.57 345.39ZM181.152 343.89C181.422 343.51 181.792 343.195 182.262 342.945C182.742 342.685 183.287 342.555 183.897 342.555C184.607 342.555 185.247 342.73 185.817 343.08C186.397 343.43 186.852 343.93 187.182 344.58C187.522 345.22 187.692 345.965 187.692 346.815C187.692 347.665 187.522 348.42 187.182 349.08C186.852 349.73 186.397 350.235 185.817 350.595C185.247 350.955 184.607 351.135 183.897 351.135C183.287 351.135 182.747 351.01 182.277 350.76C181.817 350.51 181.442 350.195 181.152 349.815V354.96H179.052V342.69H181.152V343.89ZM185.547 346.815C185.547 346.315 185.442 345.885 185.232 345.525C185.032 345.155 184.762 344.875 184.422 344.685C184.092 344.495 183.732 344.4 183.342 344.4C182.962 344.4 182.602 344.5 182.262 344.7C181.932 344.89 181.662 345.17 181.452 345.54C181.252 345.91 181.152 346.345 181.152 346.845C181.152 347.345 181.252 347.78 181.452 348.15C181.662 348.52 181.932 348.805 182.262 349.005C182.602 349.195 182.962 349.29 183.342 349.29C183.732 349.29 184.092 349.19 184.422 348.99C184.762 348.79 185.032 348.505 185.232 348.135C185.442 347.765 185.547 347.325 185.547 346.815ZM199.538 342.57C200.558 342.57 201.378 342.885 201.998 343.515C202.628 344.135 202.943 345.005 202.943 346.125V351H200.843V346.41C200.843 345.76 200.678 345.265 200.348 344.925C200.018 344.575 199.568 344.4 198.998 344.4C198.428 344.4 197.973 344.575 197.633 344.925C197.303 345.265 197.138 345.76 197.138 346.41V351H195.038V346.41C195.038 345.76 194.873 345.265 194.543 344.925C194.213 344.575 193.763 344.4 193.193 344.4C192.613 344.4 192.153 344.575 191.813 344.925C191.483 345.265 191.318 345.76 191.318 346.41V351H189.218V342.69H191.318V343.695C191.588 343.345 191.933 343.07 192.353 342.87C192.783 342.67 193.253 342.57 193.763 342.57C194.413 342.57 194.993 342.71 195.503 342.99C196.013 343.26 196.408 343.65 196.688 344.16C196.958 343.68 197.348 343.295 197.858 343.005C198.378 342.715 198.938 342.57 199.538 342.57Z" fill="white"/>
<path d="M68.717 291.926V301H66.897V291.926H68.717ZM74.5062 293.694C75.3642 293.694 76.0575 293.967 76.5862 294.513C77.1148 295.05 77.3792 295.804 77.3792 296.775V301H75.5592V297.022C75.5592 296.45 75.4162 296.012 75.1302 295.709C74.8442 295.397 74.4542 295.241 73.9602 295.241C73.4575 295.241 73.0588 295.397 72.7642 295.709C72.4782 296.012 72.3352 296.45 72.3352 297.022V301H70.5152V293.798H72.3352V294.695C72.5778 294.383 72.8855 294.14 73.2582 293.967C73.6395 293.785 74.0555 293.694 74.5062 293.694ZM81.2289 295.293V298.777C81.2289 299.02 81.2852 299.197 81.3979 299.31C81.5192 299.414 81.7186 299.466 81.9959 299.466H82.8409V301H81.6969C80.1629 301 79.3959 300.255 79.3959 298.764V295.293H78.5379V293.798H79.3959V292.017H81.2289V293.798H82.8409V295.293H81.2289ZM90.8449 297.243C90.8449 297.503 90.8276 297.737 90.7929 297.945H85.5279C85.5713 298.465 85.7533 298.872 86.0739 299.167C86.3946 299.462 86.7889 299.609 87.2569 299.609C87.9329 299.609 88.4139 299.319 88.6999 298.738H90.6629C90.4549 299.431 90.0563 300.003 89.4669 300.454C88.8776 300.896 88.1539 301.117 87.2959 301.117C86.6026 301.117 85.9786 300.965 85.4239 300.662C84.8779 300.35 84.4489 299.912 84.1369 299.349C83.8336 298.786 83.6819 298.136 83.6819 297.399C83.6819 296.654 83.8336 295.999 84.1369 295.436C84.4403 294.873 84.8649 294.439 85.4109 294.136C85.9569 293.833 86.5853 293.681 87.2959 293.681C87.9806 293.681 88.5916 293.828 89.1289 294.123C89.6749 294.418 90.0953 294.838 90.3899 295.384C90.6933 295.921 90.8449 296.541 90.8449 297.243ZM88.9599 296.723C88.9513 296.255 88.7823 295.882 88.4529 295.605C88.1236 295.319 87.7206 295.176 87.2439 295.176C86.7933 295.176 86.4119 295.315 86.0999 295.592C85.7966 295.861 85.6103 296.238 85.5409 296.723H88.9599ZM93.9934 294.916C94.2274 294.535 94.5307 294.236 94.9034 294.019C95.2847 293.802 95.718 293.694 96.2034 293.694V295.605H95.7224C95.1504 295.605 94.717 295.739 94.4224 296.008C94.1364 296.277 93.9934 296.745 93.9934 297.412V301H92.1734V293.798H93.9934V294.916ZM96.9612 297.373C96.9612 296.645 97.1042 295.999 97.3902 295.436C97.6849 294.873 98.0792 294.439 98.5732 294.136C99.0759 293.833 99.6349 293.681 100.25 293.681C100.788 293.681 101.256 293.789 101.654 294.006C102.062 294.223 102.387 294.496 102.629 294.825V293.798H104.462V301H102.629V299.947C102.395 300.285 102.07 300.567 101.654 300.792C101.247 301.009 100.775 301.117 100.237 301.117C99.6306 301.117 99.0759 300.961 98.5732 300.649C98.0792 300.337 97.6849 299.899 97.3902 299.336C97.1042 298.764 96.9612 298.11 96.9612 297.373ZM102.629 297.399C102.629 296.957 102.543 296.58 102.369 296.268C102.196 295.947 101.962 295.705 101.667 295.54C101.373 295.367 101.056 295.28 100.718 295.28C100.38 295.28 100.068 295.362 99.7822 295.527C99.4962 295.692 99.2622 295.934 99.0802 296.255C98.9069 296.567 98.8202 296.94 98.8202 297.373C98.8202 297.806 98.9069 298.188 99.0802 298.517C99.2622 298.838 99.4962 299.085 99.7822 299.258C100.077 299.431 100.389 299.518 100.718 299.518C101.056 299.518 101.373 299.436 101.667 299.271C101.962 299.098 102.196 298.855 102.369 298.543C102.543 298.222 102.629 297.841 102.629 297.399ZM105.772 297.399C105.772 296.654 105.923 296.004 106.227 295.449C106.53 294.886 106.95 294.452 107.488 294.149C108.025 293.837 108.64 293.681 109.334 293.681C110.226 293.681 110.963 293.906 111.544 294.357C112.133 294.799 112.527 295.423 112.727 296.229H110.764C110.66 295.917 110.482 295.674 110.231 295.501C109.988 295.319 109.685 295.228 109.321 295.228C108.801 295.228 108.389 295.419 108.086 295.8C107.782 296.173 107.631 296.706 107.631 297.399C107.631 298.084 107.782 298.617 108.086 298.998C108.389 299.371 108.801 299.557 109.321 299.557C110.057 299.557 110.538 299.228 110.764 298.569H112.727C112.527 299.349 112.133 299.969 111.544 300.428C110.954 300.887 110.218 301.117 109.334 301.117C108.64 301.117 108.025 300.965 107.488 300.662C106.95 300.35 106.53 299.917 106.227 299.362C105.923 298.799 105.772 298.144 105.772 297.399ZM116.179 295.293V298.777C116.179 299.02 116.235 299.197 116.348 299.31C116.469 299.414 116.669 299.466 116.946 299.466H117.791V301H116.647C115.113 301 114.346 300.255 114.346 298.764V295.293H113.488V293.798H114.346V292.017H116.179V293.798H117.791V295.293H116.179ZM120.023 292.94C119.702 292.94 119.434 292.84 119.217 292.641C119.009 292.433 118.905 292.177 118.905 291.874C118.905 291.571 119.009 291.319 119.217 291.12C119.434 290.912 119.702 290.808 120.023 290.808C120.344 290.808 120.608 290.912 120.816 291.12C121.033 291.319 121.141 291.571 121.141 291.874C121.141 292.177 121.033 292.433 120.816 292.641C120.608 292.84 120.344 292.94 120.023 292.94ZM120.92 293.798V301H119.1V293.798H120.92ZM125.916 301.117C125.223 301.117 124.599 300.965 124.044 300.662C123.49 300.35 123.052 299.912 122.731 299.349C122.419 298.786 122.263 298.136 122.263 297.399C122.263 296.662 122.424 296.012 122.744 295.449C123.074 294.886 123.52 294.452 124.083 294.149C124.647 293.837 125.275 293.681 125.968 293.681C126.662 293.681 127.29 293.837 127.853 294.149C128.417 294.452 128.859 294.886 129.179 295.449C129.509 296.012 129.673 296.662 129.673 297.399C129.673 298.136 129.504 298.786 129.166 299.349C128.837 299.912 128.386 300.35 127.814 300.662C127.251 300.965 126.618 301.117 125.916 301.117ZM125.916 299.531C126.246 299.531 126.553 299.453 126.839 299.297C127.134 299.132 127.368 298.89 127.541 298.569C127.715 298.248 127.801 297.858 127.801 297.399C127.801 296.714 127.619 296.19 127.255 295.826C126.9 295.453 126.462 295.267 125.942 295.267C125.422 295.267 124.985 295.453 124.629 295.826C124.283 296.19 124.109 296.714 124.109 297.399C124.109 298.084 124.278 298.612 124.616 298.985C124.963 299.349 125.396 299.531 125.916 299.531ZM134.999 293.694C135.857 293.694 136.551 293.967 137.079 294.513C137.608 295.05 137.872 295.804 137.872 296.775V301H136.052V297.022C136.052 296.45 135.909 296.012 135.623 295.709C135.337 295.397 134.947 295.241 134.453 295.241C133.951 295.241 133.552 295.397 133.257 295.709C132.971 296.012 132.828 296.45 132.828 297.022V301H131.008V293.798H132.828V294.695C133.071 294.383 133.379 294.14 133.751 293.967C134.133 293.785 134.549 293.694 134.999 293.694Z" fill="white"/>
<path d="M85.92 221.248V238H82.56V227.104L78.072 238H75.528L71.016 227.104V238H67.656V221.248H71.472L76.8 233.704L82.128 221.248H85.92ZM101.602 231.064C101.602 231.544 101.57 231.976 101.506 232.36H91.7859C91.8659 233.32 92.2019 234.072 92.7939 234.616C93.3859 235.16 94.1139 235.432 94.9779 235.432C96.2259 235.432 97.1139 234.896 97.6419 233.824H101.266C100.882 235.104 100.146 236.16 99.0579 236.992C97.9699 237.808 96.6339 238.216 95.0499 238.216C93.7699 238.216 92.6179 237.936 91.5939 237.376C90.5859 236.8 89.7939 235.992 89.2179 234.952C88.6579 233.912 88.3779 232.712 88.3779 231.352C88.3779 229.976 88.6579 228.768 89.2179 227.728C89.7779 226.688 90.5619 225.888 91.5699 225.328C92.5779 224.768 93.7379 224.488 95.0499 224.488C96.3139 224.488 97.4419 224.76 98.4339 225.304C99.4419 225.848 100.218 226.624 100.762 227.632C101.322 228.624 101.602 229.768 101.602 231.064ZM98.1219 230.104C98.1059 229.24 97.7939 228.552 97.1859 228.04C96.5779 227.512 95.8339 227.248 94.9539 227.248C94.1219 227.248 93.4179 227.504 92.8419 228.016C92.2819 228.512 91.9379 229.208 91.8099 230.104H98.1219ZM111.422 224.512C113.006 224.512 114.286 225.016 115.262 226.024C116.238 227.016 116.726 228.408 116.726 230.2V238H113.366V230.656C113.366 229.6 113.102 228.792 112.574 228.232C112.046 227.656 111.326 227.368 110.414 227.368C109.486 227.368 108.75 227.656 108.206 228.232C107.678 228.792 107.414 229.6 107.414 230.656V238H104.054V224.704H107.414V226.36C107.862 225.784 108.43 225.336 109.118 225.016C109.822 224.68 110.59 224.512 111.422 224.512ZM123.834 227.464V233.896C123.834 234.344 123.938 234.672 124.146 234.88C124.37 235.072 124.738 235.168 125.25 235.168H126.81V238H124.698C121.866 238 120.45 236.624 120.45 233.872V227.464H118.866V224.704H120.45V221.416H123.834V224.704H126.81V227.464H123.834ZM128.362 231.304C128.362 229.96 128.626 228.768 129.154 227.728C129.698 226.688 130.426 225.888 131.338 225.328C132.266 224.768 133.298 224.488 134.434 224.488C135.426 224.488 136.29 224.688 137.026 225.088C137.778 225.488 138.378 225.992 138.826 226.6V224.704H142.21V238H138.826V236.056C138.394 236.68 137.794 237.2 137.026 237.616C136.274 238.016 135.402 238.216 134.41 238.216C133.29 238.216 132.266 237.928 131.338 237.352C130.426 236.776 129.698 235.968 129.154 234.928C128.626 233.872 128.362 232.664 128.362 231.304ZM138.826 231.352C138.826 230.536 138.666 229.84 138.346 229.264C138.026 228.672 137.594 228.224 137.05 227.92C136.506 227.6 135.922 227.44 135.298 227.44C134.674 227.44 134.098 227.592 133.57 227.896C133.042 228.2 132.61 228.648 132.274 229.24C131.954 229.816 131.794 230.504 131.794 231.304C131.794 232.104 131.954 232.808 132.274 233.416C132.61 234.008 133.042 234.464 133.57 234.784C134.114 235.104 134.69 235.264 135.298 235.264C135.922 235.264 136.506 235.112 137.05 234.808C137.594 234.488 138.026 234.04 138.346 233.464C138.666 232.872 138.826 232.168 138.826 231.352ZM148.852 220.24V238H145.492V220.24H148.852ZM153.876 223.12C153.284 223.12 152.788 222.936 152.388 222.568C152.004 222.184 151.812 221.712 151.812 221.152C151.812 220.592 152.004 220.128 152.388 219.76C152.788 219.376 153.284 219.184 153.876 219.184C154.468 219.184 154.956 219.376 155.34 219.76C155.74 220.128 155.94 220.592 155.94 221.152C155.94 221.712 155.74 222.184 155.34 222.568C154.956 222.936 154.468 223.12 153.876 223.12ZM155.532 224.704V238H152.172V224.704H155.532ZM163.939 238.216C162.851 238.216 161.875 238.024 161.011 237.64C160.147 237.24 159.459 236.704 158.947 236.032C158.451 235.36 158.179 234.616 158.131 233.8H161.515C161.579 234.312 161.827 234.736 162.259 235.072C162.707 235.408 163.259 235.576 163.915 235.576C164.555 235.576 165.051 235.448 165.403 235.192C165.771 234.936 165.955 234.608 165.955 234.208C165.955 233.776 165.731 233.456 165.283 233.248C164.851 233.024 164.155 232.784 163.195 232.528C162.203 232.288 161.387 232.04 160.747 231.784C160.123 231.528 159.579 231.136 159.115 230.608C158.667 230.08 158.443 229.368 158.443 228.472C158.443 227.736 158.651 227.064 159.067 226.456C159.499 225.848 160.107 225.368 160.891 225.016C161.691 224.664 162.627 224.488 163.699 224.488C165.283 224.488 166.547 224.888 167.491 225.688C168.435 226.472 168.955 227.536 169.051 228.88H165.835C165.787 228.352 165.563 227.936 165.163 227.632C164.779 227.312 164.259 227.152 163.603 227.152C162.995 227.152 162.523 227.264 162.187 227.488C161.867 227.712 161.707 228.024 161.707 228.424C161.707 228.872 161.931 229.216 162.379 229.456C162.827 229.68 163.523 229.912 164.467 230.152C165.427 230.392 166.219 230.64 166.843 230.896C167.467 231.152 168.003 231.552 168.451 232.096C168.915 232.624 169.155 233.328 169.171 234.208C169.171 234.976 168.955 235.664 168.523 236.272C168.107 236.88 167.499 237.36 166.699 237.712C165.915 238.048 164.995 238.216 163.939 238.216ZM188.441 224.512C190.073 224.512 191.385 225.016 192.377 226.024C193.385 227.016 193.889 228.408 193.889 230.2V238H190.529V230.656C190.529 229.616 190.265 228.824 189.737 228.28C189.209 227.72 188.489 227.44 187.577 227.44C186.665 227.44 185.937 227.72 185.393 228.28C184.865 228.824 184.601 229.616 184.601 230.656V238H181.241V230.656C181.241 229.616 180.977 228.824 180.449 228.28C179.921 227.72 179.201 227.44 178.289 227.44C177.361 227.44 176.625 227.72 176.081 228.28C175.553 228.824 175.289 229.616 175.289 230.656V238H171.929V224.704H175.289V226.312C175.721 225.752 176.273 225.312 176.945 224.992C177.633 224.672 178.385 224.512 179.201 224.512C180.241 224.512 181.169 224.736 181.985 225.184C182.801 225.616 183.433 226.24 183.881 227.056C184.313 226.288 184.937 225.672 185.753 225.208C186.585 224.744 187.481 224.512 188.441 224.512Z" fill="white"/>
<path d="M74.145 252.88H69.285V255.445C69.495 255.185 69.795 254.975 70.185 254.815C70.575 254.645 70.99 254.56 71.43 254.56C72.23 254.56 72.885 254.735 73.395 255.085C73.905 255.435 74.275 255.885 74.505 256.435C74.735 256.975 74.85 257.555 74.85 258.175C74.85 259.325 74.52 260.25 73.86 260.95C73.21 261.65 72.28 262 71.07 262C69.93 262 69.02 261.715 68.34 261.145C67.66 260.575 67.275 259.83 67.185 258.91H69.225C69.315 259.31 69.515 259.63 69.825 259.87C70.145 260.11 70.55 260.23 71.04 260.23C71.63 260.23 72.075 260.045 72.375 259.675C72.675 259.305 72.825 258.815 72.825 258.205C72.825 257.585 72.67 257.115 72.36 256.795C72.06 256.465 71.615 256.3 71.025 256.3C70.605 256.3 70.255 256.405 69.975 256.615C69.695 256.825 69.495 257.105 69.375 257.455H67.365V251.035H74.145V252.88ZM77.6183 262.105C77.2383 262.105 76.9233 261.99 76.6733 261.76C76.4333 261.52 76.3133 261.225 76.3133 260.875C76.3133 260.525 76.4333 260.235 76.6733 260.005C76.9233 259.765 77.2383 259.645 77.6183 259.645C77.9883 259.645 78.2933 259.765 78.5333 260.005C78.7733 260.235 78.8933 260.525 78.8933 260.875C78.8933 261.225 78.7733 261.52 78.5333 261.76C78.2933 261.99 77.9883 262.105 77.6183 262.105ZM77.6183 255.895C77.2383 255.895 76.9233 255.78 76.6733 255.55C76.4333 255.31 76.3133 255.015 76.3133 254.665C76.3133 254.315 76.4333 254.025 76.6733 253.795C76.9233 253.555 77.2383 253.435 77.6183 253.435C77.9883 253.435 78.2933 253.555 78.5333 253.795C78.7733 254.025 78.8933 254.315 78.8933 254.665C78.8933 255.015 78.7733 255.31 78.5333 255.55C78.2933 255.78 77.9883 255.895 77.6183 255.895ZM80.4188 253.945C80.4688 252.945 80.8188 252.175 81.4688 251.635C82.1288 251.085 82.9938 250.81 84.0638 250.81C84.7938 250.81 85.4188 250.94 85.9388 251.2C86.4588 251.45 86.8488 251.795 87.1088 252.235C87.3788 252.665 87.5137 253.155 87.5137 253.705C87.5137 254.335 87.3488 254.87 87.0188 255.31C86.6988 255.74 86.3138 256.03 85.8638 256.18V256.24C86.4438 256.42 86.8938 256.74 87.2138 257.2C87.5438 257.66 87.7088 258.25 87.7088 258.97C87.7088 259.57 87.5688 260.105 87.2888 260.575C87.0188 261.045 86.6138 261.415 86.0738 261.685C85.5438 261.945 84.9038 262.075 84.1538 262.075C83.0238 262.075 82.1038 261.79 81.3938 261.22C80.6838 260.65 80.3088 259.81 80.2688 258.7H82.3088C82.3288 259.19 82.4938 259.585 82.8038 259.885C83.1238 260.175 83.5588 260.32 84.1088 260.32C84.6188 260.32 85.0088 260.18 85.2788 259.9C85.5588 259.61 85.6988 259.24 85.6988 258.79C85.6988 258.19 85.5088 257.76 85.1288 257.5C84.7488 257.24 84.1588 257.11 83.3588 257.11H82.9238V255.385H83.3588C84.7788 255.385 85.4888 254.91 85.4888 253.96C85.4888 253.53 85.3588 253.195 85.0988 252.955C84.8488 252.715 84.4838 252.595 84.0037 252.595C83.5338 252.595 83.1688 252.725 82.9088 252.985C82.6588 253.235 82.5138 253.555 82.4738 253.945H80.4188ZM89.3682 256.39C89.3682 254.66 89.6782 253.305 90.2982 252.325C90.9282 251.345 91.9682 250.855 93.4182 250.855C94.8682 250.855 95.9032 251.345 96.5232 252.325C97.1532 253.305 97.4682 254.66 97.4682 256.39C97.4682 258.13 97.1532 259.495 96.5232 260.485C95.9032 261.475 94.8682 261.97 93.4182 261.97C91.9682 261.97 90.9282 261.475 90.2982 260.485C89.6782 259.495 89.3682 258.13 89.3682 256.39ZM95.3982 256.39C95.3982 255.65 95.3482 255.03 95.2482 254.53C95.1582 254.02 94.9682 253.605 94.6782 253.285C94.3982 252.965 93.9782 252.805 93.4182 252.805C92.8582 252.805 92.4332 252.965 92.1432 253.285C91.8632 253.605 91.6732 254.02 91.5732 254.53C91.4832 255.03 91.4382 255.65 91.4382 256.39C91.4382 257.15 91.4832 257.79 91.5732 258.31C91.6632 258.82 91.8532 259.235 92.1432 259.555C92.4332 259.865 92.8582 260.02 93.4182 260.02C93.9782 260.02 94.4032 259.865 94.6932 259.555C94.9832 259.235 95.1732 258.82 95.2632 258.31C95.3532 257.79 95.3982 257.15 95.3982 256.39ZM104.98 254.89C105.25 254.51 105.62 254.195 106.09 253.945C106.57 253.685 107.115 253.555 107.725 253.555C108.435 253.555 109.075 253.73 109.645 254.08C110.225 254.43 110.68 254.93 111.01 255.58C111.35 256.22 111.52 256.965 111.52 257.815C111.52 258.665 111.35 259.42 111.01 260.08C110.68 260.73 110.225 261.235 109.645 261.595C109.075 261.955 108.435 262.135 107.725 262.135C107.115 262.135 106.575 262.01 106.105 261.76C105.645 261.51 105.27 261.195 104.98 260.815V265.96H102.88V253.69H104.98V254.89ZM109.375 257.815C109.375 257.315 109.27 256.885 109.06 256.525C108.86 256.155 108.59 255.875 108.25 255.685C107.92 255.495 107.56 255.4 107.17 255.4C106.79 255.4 106.43 255.5 106.09 255.7C105.76 255.89 105.49 256.17 105.28 256.54C105.08 256.91 104.98 257.345 104.98 257.845C104.98 258.345 105.08 258.78 105.28 259.15C105.49 259.52 105.76 259.805 106.09 260.005C106.43 260.195 106.79 260.29 107.17 260.29C107.56 260.29 107.92 260.19 108.25 259.99C108.59 259.79 108.86 259.505 109.06 259.135C109.27 258.765 109.375 258.325 109.375 257.815ZM123.366 253.57C124.386 253.57 125.206 253.885 125.826 254.515C126.456 255.135 126.771 256.005 126.771 257.125V262H124.671V257.41C124.671 256.76 124.506 256.265 124.176 255.925C123.846 255.575 123.396 255.4 122.826 255.4C122.256 255.4 121.801 255.575 121.461 255.925C121.131 256.265 120.966 256.76 120.966 257.41V262H118.866V257.41C118.866 256.76 118.701 256.265 118.371 255.925C118.041 255.575 117.591 255.4 117.021 255.4C116.441 255.4 115.981 255.575 115.641 255.925C115.311 256.265 115.146 256.76 115.146 257.41V262H113.046V253.69H115.146V254.695C115.416 254.345 115.761 254.07 116.181 253.87C116.611 253.67 117.081 253.57 117.591 253.57C118.241 253.57 118.821 253.71 119.331 253.99C119.841 254.26 120.236 254.65 120.516 255.16C120.786 254.68 121.176 254.295 121.686 254.005C122.206 253.715 122.766 253.57 123.366 253.57ZM138.728 255.76V257.53H132.368V255.76H138.728ZM151.377 252.655L147.387 262H145.257L149.277 252.895H144.147V251.095H151.377V252.655ZM153.805 262.105C153.425 262.105 153.11 261.99 152.86 261.76C152.62 261.52 152.5 261.225 152.5 260.875C152.5 260.525 152.62 260.235 152.86 260.005C153.11 259.765 153.425 259.645 153.805 259.645C154.175 259.645 154.48 259.765 154.72 260.005C154.96 260.235 155.08 260.525 155.08 260.875C155.08 261.225 154.96 261.52 154.72 261.76C154.48 261.99 154.175 262.105 153.805 262.105ZM153.805 255.895C153.425 255.895 153.11 255.78 152.86 255.55C152.62 255.31 152.5 255.015 152.5 254.665C152.5 254.315 152.62 254.025 152.86 253.795C153.11 253.555 153.425 253.435 153.805 253.435C154.175 253.435 154.48 253.555 154.72 253.795C154.96 254.025 155.08 254.315 155.08 254.665C155.08 255.015 154.96 255.31 154.72 255.55C154.48 255.78 154.175 255.895 153.805 255.895ZM156.575 256.39C156.575 254.66 156.885 253.305 157.505 252.325C158.135 251.345 159.175 250.855 160.625 250.855C162.075 250.855 163.11 251.345 163.73 252.325C164.36 253.305 164.675 254.66 164.675 256.39C164.675 258.13 164.36 259.495 163.73 260.485C163.11 261.475 162.075 261.97 160.625 261.97C159.175 261.97 158.135 261.475 157.505 260.485C156.885 259.495 156.575 258.13 156.575 256.39ZM162.605 256.39C162.605 255.65 162.555 255.03 162.455 254.53C162.365 254.02 162.175 253.605 161.885 253.285C161.605 252.965 161.185 252.805 160.625 252.805C160.065 252.805 159.64 252.965 159.35 253.285C159.07 253.605 158.88 254.02 158.78 254.53C158.69 255.03 158.645 255.65 158.645 256.39C158.645 257.15 158.69 257.79 158.78 258.31C158.87 258.82 159.06 259.235 159.35 259.555C159.64 259.865 160.065 260.02 160.625 260.02C161.185 260.02 161.61 259.865 161.9 259.555C162.19 259.235 162.38 258.82 162.47 258.31C162.56 257.79 162.605 257.15 162.605 256.39ZM166.273 256.39C166.273 254.66 166.583 253.305 167.203 252.325C167.833 251.345 168.873 250.855 170.323 250.855C171.773 250.855 172.808 251.345 173.428 252.325C174.058 253.305 174.373 254.66 174.373 256.39C174.373 258.13 174.058 259.495 173.428 260.485C172.808 261.475 171.773 261.97 170.323 261.97C168.873 261.97 167.833 261.475 167.203 260.485C166.583 259.495 166.273 258.13 166.273 256.39ZM172.303 256.39C172.303 255.65 172.253 255.03 172.153 254.53C172.063 254.02 171.873 253.605 171.583 253.285C171.303 252.965 170.883 252.805 170.323 252.805C169.763 252.805 169.338 252.965 169.048 253.285C168.768 253.605 168.578 254.02 168.478 254.53C168.388 255.03 168.343 255.65 168.343 256.39C168.343 257.15 168.388 257.79 168.478 258.31C168.568 258.82 168.758 259.235 169.048 259.555C169.338 259.865 169.763 260.02 170.323 260.02C170.883 260.02 171.308 259.865 171.598 259.555C171.888 259.235 172.078 258.82 172.168 258.31C172.258 257.79 172.303 257.15 172.303 256.39ZM181.884 254.89C182.154 254.51 182.524 254.195 182.994 253.945C183.474 253.685 184.019 253.555 184.629 253.555C185.339 253.555 185.979 253.73 186.549 254.08C187.129 254.43 187.584 254.93 187.914 255.58C188.254 256.22 188.424 256.965 188.424 257.815C188.424 258.665 188.254 259.42 187.914 260.08C187.584 260.73 187.129 261.235 186.549 261.595C185.979 261.955 185.339 262.135 184.629 262.135C184.019 262.135 183.479 262.01 183.009 261.76C182.549 261.51 182.174 261.195 181.884 260.815V265.96H179.784V253.69H181.884V254.89ZM186.279 257.815C186.279 257.315 186.174 256.885 185.964 256.525C185.764 256.155 185.494 255.875 185.154 255.685C184.824 255.495 184.464 255.4 184.074 255.4C183.694 255.4 183.334 255.5 182.994 255.7C182.664 255.89 182.394 256.17 182.184 256.54C181.984 256.91 181.884 257.345 181.884 257.845C181.884 258.345 181.984 258.78 182.184 259.15C182.394 259.52 182.664 259.805 182.994 260.005C183.334 260.195 183.694 260.29 184.074 260.29C184.464 260.29 184.824 260.19 185.154 259.99C185.494 259.79 185.764 259.505 185.964 259.135C186.174 258.765 186.279 258.325 186.279 257.815ZM200.27 253.57C201.29 253.57 202.11 253.885 202.73 254.515C203.36 255.135 203.675 256.005 203.675 257.125V262H201.575V257.41C201.575 256.76 201.41 256.265 201.08 255.925C200.75 255.575 200.3 255.4 199.73 255.4C199.16 255.4 198.705 255.575 198.365 255.925C198.035 256.265 197.87 256.76 197.87 257.41V262H195.77V257.41C195.77 256.76 195.605 256.265 195.275 255.925C194.945 255.575 194.495 255.4 193.925 255.4C193.345 255.4 192.885 255.575 192.545 255.925C192.215 256.265 192.05 256.76 192.05 257.41V262H189.95V253.69H192.05V254.695C192.32 254.345 192.665 254.07 193.085 253.87C193.515 253.67 193.985 253.57 194.495 253.57C195.145 253.57 195.725 253.71 196.235 253.99C196.745 254.26 197.14 254.65 197.42 255.16C197.69 254.68 198.08 254.295 198.59 254.005C199.11 253.715 199.67 253.57 200.27 253.57Z" fill="white"/>
</svg>
