<svg width="361" height="519" viewBox="0 0 361 519" fill="none" xmlns="http://www.w3.org/2000/svg">
<g filter="url(#filter0_d_391_65)">
<path fill-rule="evenodd" clip-rule="evenodd" d="M27 2C18.7157 2 12 8.71571 12 17V229C23.0457 229 32 237.954 32 249C32 260.046 23.0457 269 12 269V482C12 490.284 18.7157 497 27 497H334C342.284 497 349 490.284 349 482V269C337.954 269 329 260.046 329 249C329 237.954 337.954 229 349 229V17C349 8.71573 342.284 2 334 2H27ZM89.08 46H75.28V74H89.08C92.2 74 94.9467 73.44 97.32 72.32C99.72 71.1733 101.573 69.5467 102.88 67.44C104.213 65.3333 104.88 62.8533 104.88 60C104.88 57.1467 104.213 54.6667 102.88 52.56C101.573 50.4533 99.72 48.84 97.32 47.72C94.9467 46.5733 92.2 46 89.08 46ZM93.52 64.92C92.32 66.0667 90.7067 66.64 88.68 66.64H84.72V53.36H88.68C90.7067 53.36 92.32 53.9467 93.52 55.12C94.7467 56.2667 95.36 57.8933 95.36 60C95.36 62.1067 94.7467 63.7467 93.52 64.92ZM126.647 54.32C124.62 52.5867 121.687 51.72 117.847 51.72C116.087 51.72 114.314 51.9467 112.527 52.4C110.767 52.8267 109.26 53.4267 108.007 54.2L110.887 60.16C111.607 59.6267 112.474 59.2133 113.487 58.92C114.5 58.6 115.5 58.44 116.487 58.44C118.94 58.44 120.314 59.2933 120.607 61H116.967C113.607 61 111.1 61.56 109.447 62.68C107.794 63.8 106.967 65.44 106.967 67.6C106.967 68.88 107.274 70.04 107.887 71.08C108.527 72.0933 109.447 72.9067 110.647 73.52C111.874 74.1067 113.354 74.4 115.087 74.4C118.18 74.4 120.247 73.3067 121.287 71.12V74H129.687V62.24C129.687 58.6667 128.674 56.0267 126.647 54.32ZM119.527 68.44C119.02 68.7867 118.447 68.96 117.807 68.96C117.14 68.96 116.607 68.8 116.207 68.48C115.834 68.1333 115.647 67.7067 115.647 67.2C115.647 65.9733 116.567 65.36 118.407 65.36H120.647V66.88C120.407 67.5733 120.034 68.0933 119.527 68.44ZM148.563 74.44L157.563 52.12H149.003L144.403 63.84L139.883 52.12H130.603L139.803 74.28C139.296 74.8667 138.55 75.16 137.563 75.16C137.03 75.16 136.47 75.0533 135.883 74.84C135.323 74.6267 134.816 74.3467 134.363 74L131.363 80.2C132.083 80.7867 133.056 81.2533 134.283 81.6C135.536 81.9733 136.776 82.16 138.003 82.16C140.483 82.16 142.576 81.5867 144.283 80.44C145.99 79.2933 147.416 77.2933 148.563 74.44ZM190.777 60C189.631 58.5867 187.977 57.6133 185.818 57.08L191.018 51.8V46H170.137V53.12H180.137L176.018 57.32V63.12H179.738C181.951 63.12 183.057 63.76 183.057 65.04C183.057 65.7333 182.724 66.2667 182.057 66.64C181.391 67.0133 180.511 67.2 179.417 67.2C178.191 67.2 176.911 67.0267 175.577 66.68C174.271 66.3333 173.044 65.8267 171.898 65.16L168.697 72.12C170.164 72.9467 171.871 73.5733 173.818 74C175.791 74.4267 177.764 74.64 179.738 74.64C182.591 74.64 184.977 74.1867 186.898 73.28C188.818 72.3733 190.231 71.2 191.137 69.76C192.071 68.2933 192.538 66.72 192.538 65.04C192.538 63.0667 191.951 61.3867 190.777 60ZM63 139C63 141.973 60.8377 144.441 58 144.917V226.083C60.8377 226.559 63 229.027 63 232C63 234.973 60.8377 237.441 58 237.917V309.083C60.8377 309.559 63 312.027 63 315C63 318.314 60.3137 321 57 321C53.6863 321 51 318.314 51 315C51 312.027 53.1623 309.559 56 309.083V237.917C53.1623 237.441 51 234.973 51 232C51 229.027 53.1623 226.559 56 226.083V144.917C53.1623 144.441 51 141.973 51 139C51 135.686 53.6863 133 57 133C60.3137 133 63 135.686 63 139Z" fill="#0B32A4"/>
<path d="M99.048 128.248L94.368 145H90.408L87.264 133.072L83.976 145L80.04 145.024L75.528 128.248H79.128L82.08 141.256L85.488 128.248H89.232L92.448 141.184L95.424 128.248H99.048ZM107.146 145.216C105.866 145.216 104.714 144.936 103.69 144.376C102.666 143.8 101.858 142.992 101.266 141.952C100.69 140.912 100.402 139.712 100.402 138.352C100.402 136.992 100.698 135.792 101.29 134.752C101.898 133.712 102.722 132.912 103.762 132.352C104.802 131.776 105.962 131.488 107.242 131.488C108.522 131.488 109.682 131.776 110.722 132.352C111.762 132.912 112.578 133.712 113.17 134.752C113.778 135.792 114.082 136.992 114.082 138.352C114.082 139.712 113.77 140.912 113.146 141.952C112.538 142.992 111.706 143.8 110.65 144.376C109.61 144.936 108.442 145.216 107.146 145.216ZM107.146 142.288C107.754 142.288 108.322 142.144 108.85 141.856C109.394 141.552 109.826 141.104 110.146 140.512C110.466 139.92 110.626 139.2 110.626 138.352C110.626 137.088 110.29 136.12 109.618 135.448C108.962 134.76 108.154 134.416 107.194 134.416C106.234 134.416 105.426 134.76 104.77 135.448C104.13 136.12 103.81 137.088 103.81 138.352C103.81 139.616 104.122 140.592 104.746 141.28C105.386 141.952 106.186 142.288 107.146 142.288ZM119.907 133.768C120.339 133.064 120.899 132.512 121.587 132.112C122.291 131.712 123.091 131.512 123.987 131.512V135.04H123.099C122.043 135.04 121.243 135.288 120.699 135.784C120.171 136.28 119.907 137.144 119.907 138.376V145H116.547V131.704H119.907V133.768ZM134.122 145L129.61 139.336V145H126.25V127.24H129.61V137.344L134.074 131.704H138.442L132.586 138.376L138.49 145H134.122ZM145.353 145.216C144.265 145.216 143.289 145.024 142.425 144.64C141.561 144.24 140.873 143.704 140.361 143.032C139.865 142.36 139.593 141.616 139.545 140.8H142.929C142.993 141.312 143.241 141.736 143.673 142.072C144.121 142.408 144.673 142.576 145.329 142.576C145.969 142.576 146.465 142.448 146.817 142.192C147.185 141.936 147.369 141.608 147.369 141.208C147.369 140.776 147.145 140.456 146.697 140.248C146.265 140.024 145.569 139.784 144.609 139.528C143.617 139.288 142.801 139.04 142.161 138.784C141.537 138.528 140.993 138.136 140.529 137.608C140.081 137.08 139.857 136.368 139.857 135.472C139.857 134.736 140.065 134.064 140.481 133.456C140.913 132.848 141.521 132.368 142.305 132.016C143.105 131.664 144.041 131.488 145.113 131.488C146.697 131.488 147.961 131.888 148.905 132.688C149.849 133.472 150.369 134.536 150.465 135.88H147.249C147.201 135.352 146.977 134.936 146.577 134.632C146.193 134.312 145.673 134.152 145.017 134.152C144.409 134.152 143.937 134.264 143.601 134.488C143.281 134.712 143.121 135.024 143.121 135.424C143.121 135.872 143.345 136.216 143.793 136.456C144.241 136.68 144.937 136.912 145.881 137.152C146.841 137.392 147.633 137.64 148.257 137.896C148.881 138.152 149.417 138.552 149.865 139.096C150.329 139.624 150.569 140.328 150.585 141.208C150.585 141.976 150.369 142.664 149.937 143.272C149.521 143.88 148.913 144.36 148.113 144.712C147.329 145.048 146.409 145.216 145.353 145.216ZM160.832 131.512C161.84 131.512 162.736 131.736 163.52 132.184C164.304 132.616 164.912 133.264 165.344 134.128C165.792 134.976 166.016 136 166.016 137.2V145H162.656V137.656C162.656 136.6 162.392 135.792 161.864 135.232C161.336 134.656 160.616 134.368 159.704 134.368C158.776 134.368 158.04 134.656 157.496 135.232C156.968 135.792 156.704 136.6 156.704 137.656V145H153.344V127.24H156.704V133.36C157.136 132.784 157.712 132.336 158.432 132.016C159.152 131.68 159.952 131.512 160.832 131.512ZM175.115 145.216C173.835 145.216 172.683 144.936 171.659 144.376C170.635 143.8 169.827 142.992 169.235 141.952C168.659 140.912 168.371 139.712 168.371 138.352C168.371 136.992 168.667 135.792 169.259 134.752C169.867 133.712 170.691 132.912 171.731 132.352C172.771 131.776 173.931 131.488 175.211 131.488C176.491 131.488 177.651 131.776 178.691 132.352C179.731 132.912 180.547 133.712 181.139 134.752C181.747 135.792 182.051 136.992 182.051 138.352C182.051 139.712 181.739 140.912 181.115 141.952C180.507 142.992 179.675 143.8 178.619 144.376C177.579 144.936 176.411 145.216 175.115 145.216ZM175.115 142.288C175.723 142.288 176.291 142.144 176.819 141.856C177.363 141.552 177.795 141.104 178.115 140.512C178.435 139.92 178.595 139.2 178.595 138.352C178.595 137.088 178.259 136.12 177.587 135.448C176.931 134.76 176.123 134.416 175.163 134.416C174.203 134.416 173.395 134.76 172.739 135.448C172.099 136.12 171.779 137.088 171.779 138.352C171.779 139.616 172.091 140.592 172.715 141.28C173.355 141.952 174.155 142.288 175.115 142.288ZM187.875 133.624C188.307 133.016 188.899 132.512 189.651 132.112C190.419 131.696 191.291 131.488 192.267 131.488C193.403 131.488 194.427 131.768 195.339 132.328C196.267 132.888 196.995 133.688 197.523 134.728C198.067 135.752 198.339 136.944 198.339 138.304C198.339 139.664 198.067 140.872 197.523 141.928C196.995 142.968 196.267 143.776 195.339 144.352C194.427 144.928 193.403 145.216 192.267 145.216C191.291 145.216 190.427 145.016 189.675 144.616C188.939 144.216 188.339 143.712 187.875 143.104V151.336H184.515V131.704H187.875V133.624ZM194.907 138.304C194.907 137.504 194.739 136.816 194.403 136.24C194.083 135.648 193.651 135.2 193.107 134.896C192.579 134.592 192.003 134.44 191.379 134.44C190.771 134.44 190.195 134.6 189.651 134.92C189.123 135.224 188.691 135.672 188.355 136.264C188.035 136.856 187.875 137.552 187.875 138.352C187.875 139.152 188.035 139.848 188.355 140.44C188.691 141.032 189.123 141.488 189.651 141.808C190.195 142.112 190.771 142.264 191.379 142.264C192.003 142.264 192.579 142.104 193.107 141.784C193.651 141.464 194.083 141.008 194.403 140.416C194.739 139.824 194.907 139.12 194.907 138.304ZM205.869 145.216C204.781 145.216 203.805 145.024 202.941 144.64C202.077 144.24 201.389 143.704 200.877 143.032C200.381 142.36 200.109 141.616 200.061 140.8H203.445C203.509 141.312 203.757 141.736 204.189 142.072C204.637 142.408 205.189 142.576 205.845 142.576C206.485 142.576 206.981 142.448 207.333 142.192C207.701 141.936 207.885 141.608 207.885 141.208C207.885 140.776 207.661 140.456 207.213 140.248C206.781 140.024 206.085 139.784 205.125 139.528C204.133 139.288 203.317 139.04 202.677 138.784C202.053 138.528 201.509 138.136 201.045 137.608C200.597 137.08 200.373 136.368 200.373 135.472C200.373 134.736 200.581 134.064 200.997 133.456C201.429 132.848 202.037 132.368 202.821 132.016C203.621 131.664 204.557 131.488 205.629 131.488C207.213 131.488 208.477 131.888 209.421 132.688C210.365 133.472 210.885 134.536 210.981 135.88H207.765C207.717 135.352 207.493 134.936 207.093 134.632C206.709 134.312 206.189 134.152 205.533 134.152C204.925 134.152 204.453 134.264 204.117 134.488C203.797 134.712 203.637 135.024 203.637 135.424C203.637 135.872 203.861 136.216 204.309 136.456C204.757 136.68 205.453 136.912 206.397 137.152C207.357 137.392 208.149 137.64 208.773 137.896C209.397 138.152 209.933 138.552 210.381 139.096C210.845 139.624 211.085 140.328 211.101 141.208C211.101 141.976 210.885 142.664 210.453 143.272C210.037 143.88 209.429 144.36 208.629 144.712C207.845 145.048 206.925 145.216 205.869 145.216ZM225.434 128.248C227.194 128.248 228.738 128.592 230.066 129.28C231.41 129.968 232.442 130.952 233.162 132.232C233.898 133.496 234.266 134.968 234.266 136.648C234.266 138.328 233.898 139.8 233.162 141.064C232.442 142.312 231.41 143.28 230.066 143.968C228.738 144.656 227.194 145 225.434 145H219.578V128.248H225.434ZM225.314 142.144C227.074 142.144 228.434 141.664 229.394 140.704C230.354 139.744 230.834 138.392 230.834 136.648C230.834 134.904 230.354 133.544 229.394 132.568C228.434 131.576 227.074 131.08 225.314 131.08H222.938V142.144H225.314ZM235.917 138.304C235.917 136.96 236.181 135.768 236.709 134.728C237.253 133.688 237.981 132.888 238.893 132.328C239.821 131.768 240.853 131.488 241.989 131.488C242.981 131.488 243.845 131.688 244.581 132.088C245.333 132.488 245.933 132.992 246.381 133.6V131.704H249.765V145H246.381V143.056C245.949 143.68 245.349 144.2 244.581 144.616C243.829 145.016 242.957 145.216 241.965 145.216C240.845 145.216 239.821 144.928 238.893 144.352C237.981 143.776 237.253 142.968 236.709 141.928C236.181 140.872 235.917 139.664 235.917 138.304ZM246.381 138.352C246.381 137.536 246.221 136.84 245.901 136.264C245.581 135.672 245.149 135.224 244.605 134.92C244.061 134.6 243.477 134.44 242.853 134.44C242.229 134.44 241.653 134.592 241.125 134.896C240.597 135.2 240.165 135.648 239.829 136.24C239.509 136.816 239.349 137.504 239.349 138.304C239.349 139.104 239.509 139.808 239.829 140.416C240.165 141.008 240.597 141.464 241.125 141.784C241.669 142.104 242.245 142.264 242.853 142.264C243.477 142.264 244.061 142.112 244.605 141.808C245.149 141.488 245.581 141.04 245.901 140.464C246.221 139.872 246.381 139.168 246.381 138.352ZM265.767 131.704L257.535 151.288H253.959L256.839 144.664L251.511 131.704H255.279L258.711 140.992L262.191 131.704H265.767ZM273.969 141.208C275.505 139.928 276.729 138.864 277.641 138.016C278.553 137.152 279.313 136.256 279.921 135.328C280.529 134.4 280.833 133.488 280.833 132.592C280.833 131.776 280.641 131.136 280.257 130.672C279.873 130.208 279.281 129.976 278.481 129.976C277.681 129.976 277.065 130.248 276.633 130.792C276.201 131.32 275.977 132.048 275.961 132.976H272.697C272.761 131.056 273.329 129.6 274.401 128.608C275.489 127.616 276.865 127.12 278.529 127.12C280.353 127.12 281.753 127.608 282.729 128.584C283.705 129.544 284.193 130.816 284.193 132.4C284.193 133.648 283.857 134.84 283.185 135.976C282.513 137.112 281.745 138.104 280.881 138.952C280.017 139.784 278.889 140.792 277.497 141.976H284.577V144.76H272.721V142.264L273.969 141.208Z" fill="white"/>
<path d="M74.84 232.6C74.84 230.952 75.208 229.48 75.944 228.184C76.696 226.872 77.712 225.856 78.992 225.136C80.288 224.4 81.736 224.032 83.336 224.032C85.208 224.032 86.848 224.512 88.256 225.472C89.664 226.432 90.648 227.76 91.208 229.456H87.344C86.96 228.656 86.416 228.056 85.712 227.656C85.024 227.256 84.224 227.056 83.312 227.056C82.336 227.056 81.464 227.288 80.696 227.752C79.944 228.2 79.352 228.84 78.92 229.672C78.504 230.504 78.296 231.48 78.296 232.6C78.296 233.704 78.504 234.68 78.92 235.528C79.352 236.36 79.944 237.008 80.696 237.472C81.464 237.92 82.336 238.144 83.312 238.144C84.224 238.144 85.024 237.944 85.712 237.544C86.416 237.128 86.96 236.52 87.344 235.72H91.208C90.648 237.432 89.664 238.768 88.256 239.728C86.864 240.672 85.224 241.144 83.336 241.144C81.736 241.144 80.288 240.784 78.992 240.064C77.712 239.328 76.696 238.312 75.944 237.016C75.208 235.72 74.84 234.248 74.84 232.6ZM97.4379 223.24V241H94.0779V223.24H97.4379ZM106.662 241.216C105.382 241.216 104.23 240.936 103.206 240.376C102.182 239.8 101.374 238.992 100.782 237.952C100.206 236.912 99.9176 235.712 99.9176 234.352C99.9176 232.992 100.214 231.792 100.806 230.752C101.414 229.712 102.238 228.912 103.278 228.352C104.318 227.776 105.478 227.488 106.758 227.488C108.038 227.488 109.198 227.776 110.238 228.352C111.278 228.912 112.094 229.712 112.686 230.752C113.294 231.792 113.598 232.992 113.598 234.352C113.598 235.712 113.286 236.912 112.662 237.952C112.054 238.992 111.222 239.8 110.166 240.376C109.126 240.936 107.958 241.216 106.662 241.216ZM106.662 238.288C107.27 238.288 107.838 238.144 108.366 237.856C108.91 237.552 109.342 237.104 109.662 236.512C109.982 235.92 110.142 235.2 110.142 234.352C110.142 233.088 109.806 232.12 109.134 231.448C108.478 230.76 107.67 230.416 106.71 230.416C105.75 230.416 104.942 230.76 104.286 231.448C103.646 232.12 103.326 233.088 103.326 234.352C103.326 235.616 103.638 236.592 104.262 237.28C104.902 237.952 105.702 238.288 106.662 238.288ZM121.15 241.216C120.062 241.216 119.086 241.024 118.222 240.64C117.358 240.24 116.67 239.704 116.158 239.032C115.662 238.36 115.39 237.616 115.342 236.8H118.726C118.79 237.312 119.038 237.736 119.47 238.072C119.918 238.408 120.47 238.576 121.126 238.576C121.766 238.576 122.262 238.448 122.614 238.192C122.982 237.936 123.166 237.608 123.166 237.208C123.166 236.776 122.942 236.456 122.494 236.248C122.062 236.024 121.366 235.784 120.406 235.528C119.414 235.288 118.598 235.04 117.958 234.784C117.334 234.528 116.79 234.136 116.326 233.608C115.878 233.08 115.654 232.368 115.654 231.472C115.654 230.736 115.862 230.064 116.278 229.456C116.71 228.848 117.318 228.368 118.102 228.016C118.902 227.664 119.838 227.488 120.91 227.488C122.494 227.488 123.758 227.888 124.702 228.688C125.646 229.472 126.166 230.536 126.262 231.88H123.046C122.998 231.352 122.774 230.936 122.374 230.632C121.99 230.312 121.47 230.152 120.814 230.152C120.206 230.152 119.734 230.264 119.398 230.488C119.078 230.712 118.918 231.024 118.918 231.424C118.918 231.872 119.142 232.216 119.59 232.456C120.038 232.68 120.734 232.912 121.678 233.152C122.638 233.392 123.43 233.64 124.054 233.896C124.678 234.152 125.214 234.552 125.662 235.096C126.126 235.624 126.366 236.328 126.382 237.208C126.382 237.976 126.166 238.664 125.734 239.272C125.318 239.88 124.71 240.36 123.91 240.712C123.126 241.048 122.206 241.216 121.15 241.216ZM130.844 226.12C130.252 226.12 129.756 225.936 129.356 225.568C128.972 225.184 128.78 224.712 128.78 224.152C128.78 223.592 128.972 223.128 129.356 222.76C129.756 222.376 130.252 222.184 130.844 222.184C131.436 222.184 131.924 222.376 132.308 222.76C132.708 223.128 132.908 223.592 132.908 224.152C132.908 224.712 132.708 225.184 132.308 225.568C131.924 225.936 131.436 226.12 130.844 226.12ZM132.5 227.704V241H129.14V227.704H132.5ZM143.188 227.512C144.772 227.512 146.052 228.016 147.028 229.024C148.004 230.016 148.492 231.408 148.492 233.2V241H145.132V233.656C145.132 232.6 144.868 231.792 144.34 231.232C143.812 230.656 143.092 230.368 142.18 230.368C141.252 230.368 140.516 230.656 139.972 231.232C139.444 231.792 139.18 232.6 139.18 233.656V241H135.82V227.704H139.18V229.36C139.628 228.784 140.196 228.336 140.884 228.016C141.588 227.68 142.356 227.512 143.188 227.512ZM156.895 227.488C157.887 227.488 158.759 227.688 159.511 228.088C160.263 228.472 160.855 228.976 161.287 229.6V227.704H164.671V241.096C164.671 242.328 164.423 243.424 163.927 244.384C163.431 245.36 162.687 246.128 161.695 246.688C160.703 247.264 159.503 247.552 158.095 247.552C156.207 247.552 154.655 247.112 153.439 246.232C152.239 245.352 151.559 244.152 151.399 242.632H154.735C154.911 243.24 155.287 243.72 155.863 244.072C156.455 244.44 157.167 244.624 157.999 244.624C158.975 244.624 159.767 244.328 160.375 243.736C160.983 243.16 161.287 242.28 161.287 241.096V239.032C160.855 239.656 160.255 240.176 159.487 240.592C158.735 241.008 157.871 241.216 156.895 241.216C155.775 241.216 154.751 240.928 153.823 240.352C152.895 239.776 152.159 238.968 151.615 237.928C151.087 236.872 150.823 235.664 150.823 234.304C150.823 232.96 151.087 231.768 151.615 230.728C152.159 229.688 152.887 228.888 153.799 228.328C154.727 227.768 155.759 227.488 156.895 227.488ZM161.287 234.352C161.287 233.536 161.127 232.84 160.807 232.264C160.487 231.672 160.055 231.224 159.511 230.92C158.967 230.6 158.383 230.44 157.759 230.44C157.135 230.44 156.559 230.592 156.031 230.896C155.503 231.2 155.071 231.648 154.735 232.24C154.415 232.816 154.255 233.504 154.255 234.304C154.255 235.104 154.415 235.808 154.735 236.416C155.071 237.008 155.503 237.464 156.031 237.784C156.575 238.104 157.151 238.264 157.759 238.264C158.383 238.264 158.967 238.112 159.511 237.808C160.055 237.488 160.487 237.04 160.807 236.464C161.127 235.872 161.287 235.168 161.287 234.352ZM172.808 234.352C172.808 232.976 173.088 231.776 173.648 230.752C174.208 229.712 174.984 228.912 175.976 228.352C176.968 227.776 178.104 227.488 179.384 227.488C181.032 227.488 182.392 227.904 183.464 228.736C184.552 229.552 185.28 230.704 185.648 232.192H182.024C181.832 231.616 181.504 231.168 181.04 230.848C180.592 230.512 180.032 230.344 179.36 230.344C178.4 230.344 177.64 230.696 177.08 231.4C176.52 232.088 176.24 233.072 176.24 234.352C176.24 235.616 176.52 236.6 177.08 237.304C177.64 237.992 178.4 238.336 179.36 238.336C180.72 238.336 181.608 237.728 182.024 236.512H185.648C185.28 237.952 184.552 239.096 183.464 239.944C182.376 240.792 181.016 241.216 179.384 241.216C178.104 241.216 176.968 240.936 175.976 240.376C174.984 239.8 174.208 239 173.648 237.976C173.088 236.936 172.808 235.728 172.808 234.352ZM200.469 234.064C200.469 234.544 200.437 234.976 200.373 235.36H190.653C190.733 236.32 191.069 237.072 191.661 237.616C192.253 238.16 192.981 238.432 193.845 238.432C195.093 238.432 195.981 237.896 196.509 236.824H200.133C199.749 238.104 199.013 239.16 197.925 239.992C196.837 240.808 195.501 241.216 193.917 241.216C192.637 241.216 191.485 240.936 190.461 240.376C189.453 239.8 188.661 238.992 188.085 237.952C187.525 236.912 187.245 235.712 187.245 234.352C187.245 232.976 187.525 231.768 188.085 230.728C188.645 229.688 189.429 228.888 190.437 228.328C191.445 227.768 192.605 227.488 193.917 227.488C195.181 227.488 196.309 227.76 197.301 228.304C198.309 228.848 199.085 229.624 199.629 230.632C200.189 231.624 200.469 232.768 200.469 234.064ZM196.989 233.104C196.973 232.24 196.661 231.552 196.053 231.04C195.445 230.512 194.701 230.248 193.821 230.248C192.989 230.248 192.285 230.504 191.709 231.016C191.149 231.512 190.805 232.208 190.677 233.104H196.989ZM206.282 229.768C206.714 229.064 207.274 228.512 207.962 228.112C208.666 227.712 209.466 227.512 210.362 227.512V231.04H209.474C208.418 231.04 207.618 231.288 207.074 231.784C206.546 232.28 206.282 233.144 206.282 234.376V241H202.922V227.704H206.282V229.768ZM224.985 234.064C224.985 234.544 224.953 234.976 224.889 235.36H215.169C215.249 236.32 215.585 237.072 216.177 237.616C216.769 238.16 217.497 238.432 218.361 238.432C219.609 238.432 220.497 237.896 221.025 236.824H224.649C224.265 238.104 223.529 239.16 222.441 239.992C221.353 240.808 220.017 241.216 218.433 241.216C217.153 241.216 216.001 240.936 214.977 240.376C213.969 239.8 213.177 238.992 212.601 237.952C212.041 236.912 211.761 235.712 211.761 234.352C211.761 232.976 212.041 231.768 212.601 230.728C213.161 229.688 213.945 228.888 214.953 228.328C215.961 227.768 217.121 227.488 218.433 227.488C219.697 227.488 220.825 227.76 221.817 228.304C222.825 228.848 223.601 229.624 224.145 230.632C224.705 231.624 224.985 232.768 224.985 234.064ZM221.505 233.104C221.489 232.24 221.177 231.552 220.569 231.04C219.961 230.512 219.217 230.248 218.337 230.248C217.505 230.248 216.801 230.504 216.225 231.016C215.665 231.512 215.321 232.208 215.193 233.104H221.505ZM243.949 227.512C245.581 227.512 246.893 228.016 247.885 229.024C248.893 230.016 249.397 231.408 249.397 233.2V241H246.037V233.656C246.037 232.616 245.773 231.824 245.245 231.28C244.717 230.72 243.997 230.44 243.085 230.44C242.173 230.44 241.445 230.72 240.901 231.28C240.373 231.824 240.109 232.616 240.109 233.656V241H236.749V233.656C236.749 232.616 236.485 231.824 235.957 231.28C235.429 230.72 234.709 230.44 233.797 230.44C232.869 230.44 232.133 230.72 231.589 231.28C231.061 231.824 230.797 232.616 230.797 233.656V241H227.437V227.704H230.797V229.312C231.229 228.752 231.781 228.312 232.453 227.992C233.141 227.672 233.893 227.512 234.709 227.512C235.749 227.512 236.677 227.736 237.493 228.184C238.309 228.616 238.941 229.24 239.389 230.056C239.821 229.288 240.445 228.672 241.261 228.208C242.093 227.744 242.989 227.512 243.949 227.512ZM258.49 241.216C257.21 241.216 256.058 240.936 255.034 240.376C254.01 239.8 253.202 238.992 252.61 237.952C252.034 236.912 251.746 235.712 251.746 234.352C251.746 232.992 252.042 231.792 252.634 230.752C253.242 229.712 254.066 228.912 255.106 228.352C256.146 227.776 257.306 227.488 258.586 227.488C259.866 227.488 261.026 227.776 262.066 228.352C263.106 228.912 263.922 229.712 264.514 230.752C265.122 231.792 265.426 232.992 265.426 234.352C265.426 235.712 265.114 236.912 264.49 237.952C263.882 238.992 263.05 239.8 261.994 240.376C260.954 240.936 259.786 241.216 258.49 241.216ZM258.49 238.288C259.098 238.288 259.666 238.144 260.194 237.856C260.738 237.552 261.17 237.104 261.49 236.512C261.81 235.92 261.97 235.2 261.97 234.352C261.97 233.088 261.634 232.12 260.962 231.448C260.306 230.76 259.498 230.416 258.538 230.416C257.578 230.416 256.77 230.76 256.114 231.448C255.474 232.12 255.154 233.088 255.154 234.352C255.154 235.616 255.466 236.592 256.09 237.28C256.73 237.952 257.53 238.288 258.49 238.288ZM275.258 227.512C276.842 227.512 278.122 228.016 279.098 229.024C280.074 230.016 280.562 231.408 280.562 233.2V241H277.202V233.656C277.202 232.6 276.938 231.792 276.41 231.232C275.882 230.656 275.162 230.368 274.25 230.368C273.322 230.368 272.586 230.656 272.042 231.232C271.514 231.792 271.25 232.6 271.25 233.656V241H267.89V227.704H271.25V229.36C271.698 228.784 272.266 228.336 272.954 228.016C273.658 227.68 274.426 227.512 275.258 227.512ZM296.478 227.704L288.246 247.288H284.67L287.55 240.664L282.222 227.704H285.99L289.422 236.992L292.902 227.704H296.478Z" fill="white"/>
<path d="M87.872 312.432C87.872 313.328 87.656 314.168 87.224 314.952C86.808 315.736 86.144 316.368 85.232 316.848C84.336 317.328 83.2 317.568 81.824 317.568H79.016V324H75.656V307.248H81.824C83.12 307.248 84.224 307.472 85.136 307.92C86.048 308.368 86.728 308.984 87.176 309.768C87.64 310.552 87.872 311.44 87.872 312.432ZM81.68 314.856C82.608 314.856 83.296 314.648 83.744 314.232C84.192 313.8 84.416 313.2 84.416 312.432C84.416 310.8 83.504 309.984 81.68 309.984H79.016V314.856H81.68ZM97.7456 310.512C98.7536 310.512 99.6496 310.736 100.434 311.184C101.218 311.616 101.826 312.264 102.258 313.128C102.706 313.976 102.93 315 102.93 316.2V324H99.5696V316.656C99.5696 315.6 99.3056 314.792 98.7776 314.232C98.2496 313.656 97.5296 313.368 96.6176 313.368C95.6896 313.368 94.9536 313.656 94.4096 314.232C93.8816 314.792 93.6176 315.6 93.6176 316.656V324H90.2576V306.24H93.6176V312.36C94.0496 311.784 94.6256 311.336 95.3456 311.016C96.0656 310.68 96.8656 310.512 97.7456 310.512ZM112.029 324.216C110.749 324.216 109.597 323.936 108.573 323.376C107.549 322.8 106.741 321.992 106.149 320.952C105.573 319.912 105.285 318.712 105.285 317.352C105.285 315.992 105.581 314.792 106.173 313.752C106.781 312.712 107.605 311.912 108.645 311.352C109.685 310.776 110.845 310.488 112.125 310.488C113.405 310.488 114.565 310.776 115.605 311.352C116.645 311.912 117.461 312.712 118.053 313.752C118.661 314.792 118.965 315.992 118.965 317.352C118.965 318.712 118.653 319.912 118.029 320.952C117.421 321.992 116.589 322.8 115.533 323.376C114.493 323.936 113.325 324.216 112.029 324.216ZM112.029 321.288C112.637 321.288 113.205 321.144 113.733 320.856C114.277 320.552 114.709 320.104 115.029 319.512C115.349 318.92 115.509 318.2 115.509 317.352C115.509 316.088 115.173 315.12 114.501 314.448C113.845 313.76 113.037 313.416 112.077 313.416C111.117 313.416 110.309 313.76 109.653 314.448C109.013 315.12 108.693 316.088 108.693 317.352C108.693 318.616 109.005 319.592 109.629 320.28C110.269 320.952 111.069 321.288 112.029 321.288ZM125.341 313.464V319.896C125.341 320.344 125.445 320.672 125.653 320.88C125.877 321.072 126.245 321.168 126.757 321.168H128.317V324H126.205C123.373 324 121.957 322.624 121.957 319.872V313.464H120.373V310.704H121.957V307.416H125.341V310.704H128.317V313.464H125.341ZM136.638 324.216C135.358 324.216 134.206 323.936 133.182 323.376C132.158 322.8 131.35 321.992 130.758 320.952C130.182 319.912 129.894 318.712 129.894 317.352C129.894 315.992 130.19 314.792 130.782 313.752C131.39 312.712 132.214 311.912 133.254 311.352C134.294 310.776 135.454 310.488 136.734 310.488C138.014 310.488 139.174 310.776 140.214 311.352C141.254 311.912 142.07 312.712 142.662 313.752C143.27 314.792 143.574 315.992 143.574 317.352C143.574 318.712 143.262 319.912 142.638 320.952C142.03 321.992 141.198 322.8 140.142 323.376C139.102 323.936 137.934 324.216 136.638 324.216ZM136.638 321.288C137.246 321.288 137.814 321.144 138.342 320.856C138.886 320.552 139.318 320.104 139.638 319.512C139.958 318.92 140.118 318.2 140.118 317.352C140.118 316.088 139.782 315.12 139.11 314.448C138.454 313.76 137.646 313.416 136.686 313.416C135.726 313.416 134.918 313.76 134.262 314.448C133.622 315.12 133.302 316.088 133.302 317.352C133.302 318.616 133.614 319.592 134.238 320.28C134.878 320.952 135.678 321.288 136.638 321.288ZM156.846 324.216C155.758 324.216 154.782 324.024 153.918 323.64C153.054 323.24 152.366 322.704 151.854 322.032C151.358 321.36 151.086 320.616 151.038 319.8H154.422C154.486 320.312 154.734 320.736 155.166 321.072C155.614 321.408 156.166 321.576 156.822 321.576C157.462 321.576 157.958 321.448 158.31 321.192C158.678 320.936 158.862 320.608 158.862 320.208C158.862 319.776 158.638 319.456 158.19 319.248C157.758 319.024 157.062 318.784 156.102 318.528C155.11 318.288 154.294 318.04 153.654 317.784C153.03 317.528 152.486 317.136 152.022 316.608C151.574 316.08 151.35 315.368 151.35 314.472C151.35 313.736 151.558 313.064 151.974 312.456C152.406 311.848 153.014 311.368 153.798 311.016C154.598 310.664 155.534 310.488 156.606 310.488C158.19 310.488 159.454 310.888 160.398 311.688C161.342 312.472 161.862 313.536 161.958 314.88H158.742C158.694 314.352 158.47 313.936 158.07 313.632C157.686 313.312 157.166 313.152 156.51 313.152C155.902 313.152 155.43 313.264 155.094 313.488C154.774 313.712 154.614 314.024 154.614 314.424C154.614 314.872 154.838 315.216 155.286 315.456C155.734 315.68 156.43 315.912 157.374 316.152C158.334 316.392 159.126 316.64 159.75 316.896C160.374 317.152 160.91 317.552 161.358 318.096C161.822 318.624 162.062 319.328 162.078 320.208C162.078 320.976 161.862 321.664 161.43 322.272C161.014 322.88 160.406 323.36 159.606 323.712C158.822 324.048 157.902 324.216 156.846 324.216ZM177.196 317.064C177.196 317.544 177.164 317.976 177.1 318.36H167.38C167.46 319.32 167.796 320.072 168.388 320.616C168.98 321.16 169.708 321.432 170.572 321.432C171.82 321.432 172.708 320.896 173.236 319.824H176.86C176.476 321.104 175.74 322.16 174.652 322.992C173.564 323.808 172.228 324.216 170.644 324.216C169.364 324.216 168.212 323.936 167.188 323.376C166.18 322.8 165.388 321.992 164.812 320.952C164.252 319.912 163.972 318.712 163.972 317.352C163.972 315.976 164.252 314.768 164.812 313.728C165.372 312.688 166.156 311.888 167.164 311.328C168.172 310.768 169.332 310.488 170.644 310.488C171.908 310.488 173.036 310.76 174.028 311.304C175.036 311.848 175.812 312.624 176.356 313.632C176.916 314.624 177.196 315.768 177.196 317.064ZM173.716 316.104C173.7 315.24 173.388 314.552 172.78 314.04C172.172 313.512 171.428 313.248 170.548 313.248C169.716 313.248 169.012 313.504 168.436 314.016C167.876 314.512 167.532 315.208 167.404 316.104H173.716ZM184.736 324.216C183.648 324.216 182.672 324.024 181.808 323.64C180.944 323.24 180.256 322.704 179.744 322.032C179.248 321.36 178.976 320.616 178.928 319.8H182.312C182.376 320.312 182.624 320.736 183.056 321.072C183.504 321.408 184.056 321.576 184.712 321.576C185.352 321.576 185.848 321.448 186.2 321.192C186.568 320.936 186.752 320.608 186.752 320.208C186.752 319.776 186.528 319.456 186.08 319.248C185.648 319.024 184.952 318.784 183.992 318.528C183 318.288 182.184 318.04 181.544 317.784C180.92 317.528 180.376 317.136 179.912 316.608C179.464 316.08 179.24 315.368 179.24 314.472C179.24 313.736 179.448 313.064 179.864 312.456C180.296 311.848 180.904 311.368 181.688 311.016C182.488 310.664 183.424 310.488 184.496 310.488C186.08 310.488 187.344 310.888 188.288 311.688C189.232 312.472 189.752 313.536 189.848 314.88H186.632C186.584 314.352 186.36 313.936 185.96 313.632C185.576 313.312 185.056 313.152 184.4 313.152C183.792 313.152 183.32 313.264 182.984 313.488C182.664 313.712 182.504 314.024 182.504 314.424C182.504 314.872 182.728 315.216 183.176 315.456C183.624 315.68 184.32 315.912 185.264 316.152C186.224 316.392 187.016 316.64 187.64 316.896C188.264 317.152 188.8 317.552 189.248 318.096C189.712 318.624 189.952 319.328 189.968 320.208C189.968 320.976 189.752 321.664 189.32 322.272C188.904 322.88 188.296 323.36 187.496 323.712C186.712 324.048 185.792 324.216 184.736 324.216ZM197.814 324.216C196.726 324.216 195.75 324.024 194.886 323.64C194.022 323.24 193.334 322.704 192.822 322.032C192.326 321.36 192.054 320.616 192.006 319.8H195.39C195.454 320.312 195.702 320.736 196.134 321.072C196.582 321.408 197.134 321.576 197.79 321.576C198.43 321.576 198.926 321.448 199.278 321.192C199.646 320.936 199.83 320.608 199.83 320.208C199.83 319.776 199.606 319.456 199.158 319.248C198.726 319.024 198.03 318.784 197.07 318.528C196.078 318.288 195.262 318.04 194.622 317.784C193.998 317.528 193.454 317.136 192.99 316.608C192.542 316.08 192.318 315.368 192.318 314.472C192.318 313.736 192.526 313.064 192.942 312.456C193.374 311.848 193.982 311.368 194.766 311.016C195.566 310.664 196.502 310.488 197.574 310.488C199.158 310.488 200.422 310.888 201.366 311.688C202.31 312.472 202.83 313.536 202.926 314.88H199.71C199.662 314.352 199.438 313.936 199.038 313.632C198.654 313.312 198.134 313.152 197.478 313.152C196.87 313.152 196.398 313.264 196.062 313.488C195.742 313.712 195.582 314.024 195.582 314.424C195.582 314.872 195.806 315.216 196.254 315.456C196.702 315.68 197.398 315.912 198.342 316.152C199.302 316.392 200.094 316.64 200.718 316.896C201.342 317.152 201.878 317.552 202.326 318.096C202.79 318.624 203.03 319.328 203.046 320.208C203.046 320.976 202.83 321.664 202.398 322.272C201.982 322.88 201.374 323.36 200.574 323.712C199.79 324.048 198.87 324.216 197.814 324.216ZM207.508 309.12C206.916 309.12 206.42 308.936 206.02 308.568C205.636 308.184 205.444 307.712 205.444 307.152C205.444 306.592 205.636 306.128 206.02 305.76C206.42 305.376 206.916 305.184 207.508 305.184C208.1 305.184 208.588 305.376 208.972 305.76C209.372 306.128 209.572 306.592 209.572 307.152C209.572 307.712 209.372 308.184 208.972 308.568C208.588 308.936 208.1 309.12 207.508 309.12ZM209.164 310.704V324H205.804V310.704H209.164ZM218.388 324.216C217.108 324.216 215.956 323.936 214.932 323.376C213.908 322.8 213.1 321.992 212.508 320.952C211.932 319.912 211.644 318.712 211.644 317.352C211.644 315.992 211.94 314.792 212.532 313.752C213.14 312.712 213.964 311.912 215.004 311.352C216.044 310.776 217.204 310.488 218.484 310.488C219.764 310.488 220.924 310.776 221.964 311.352C223.004 311.912 223.82 312.712 224.412 313.752C225.02 314.792 225.324 315.992 225.324 317.352C225.324 318.712 225.012 319.912 224.388 320.952C223.78 321.992 222.948 322.8 221.892 323.376C220.852 323.936 219.684 324.216 218.388 324.216ZM218.388 321.288C218.996 321.288 219.564 321.144 220.092 320.856C220.636 320.552 221.068 320.104 221.388 319.512C221.708 318.92 221.868 318.2 221.868 317.352C221.868 316.088 221.532 315.12 220.86 314.448C220.204 313.76 219.396 313.416 218.436 313.416C217.476 313.416 216.668 313.76 216.012 314.448C215.372 315.12 215.052 316.088 215.052 317.352C215.052 318.616 215.364 319.592 215.988 320.28C216.628 320.952 217.428 321.288 218.388 321.288ZM235.157 310.512C236.741 310.512 238.021 311.016 238.997 312.024C239.973 313.016 240.461 314.408 240.461 316.2V324H237.101V316.656C237.101 315.6 236.837 314.792 236.309 314.232C235.781 313.656 235.061 313.368 234.149 313.368C233.221 313.368 232.485 313.656 231.941 314.232C231.413 314.792 231.149 315.6 231.149 316.656V324H227.789V310.704H231.149V312.36C231.597 311.784 232.165 311.336 232.853 311.016C233.557 310.68 234.325 310.512 235.157 310.512Z" fill="white"/>
<path d="M78.225 160.925C78.305 161.365 78.485 161.705 78.765 161.945C79.055 162.175 79.44 162.29 79.92 162.29C80.54 162.29 80.99 162.035 81.27 161.525C81.55 161.005 81.69 160.135 81.69 158.915C81.46 159.235 81.135 159.485 80.715 159.665C80.305 159.845 79.86 159.935 79.38 159.935C78.74 159.935 78.16 159.805 77.64 159.545C77.13 159.275 76.725 158.88 76.425 158.36C76.125 157.83 75.975 157.19 75.975 156.44C75.975 155.33 76.305 154.45 76.965 153.8C77.625 153.14 78.525 152.81 79.665 152.81C81.085 152.81 82.085 153.265 82.665 154.175C83.255 155.085 83.55 156.455 83.55 158.285C83.55 159.585 83.435 160.65 83.205 161.48C82.985 162.31 82.6 162.94 82.05 163.37C81.51 163.8 80.77 164.015 79.83 164.015C79.09 164.015 78.46 163.875 77.94 163.595C77.42 163.305 77.02 162.93 76.74 162.47C76.47 162 76.315 161.485 76.275 160.925H78.225ZM79.815 158.225C80.335 158.225 80.745 158.065 81.045 157.745C81.345 157.425 81.495 156.995 81.495 156.455C81.495 155.865 81.335 155.41 81.015 155.09C80.705 154.76 80.28 154.595 79.74 154.595C79.2 154.595 78.77 154.765 78.45 155.105C78.14 155.435 77.985 155.875 77.985 156.425C77.985 156.955 78.135 157.39 78.435 157.73C78.745 158.06 79.205 158.225 79.815 158.225ZM86.3546 164.105C85.9746 164.105 85.6596 163.99 85.4096 163.76C85.1696 163.52 85.0496 163.225 85.0496 162.875C85.0496 162.525 85.1696 162.235 85.4096 162.005C85.6596 161.765 85.9746 161.645 86.3546 161.645C86.7246 161.645 87.0296 161.765 87.2696 162.005C87.5096 162.235 87.6296 162.525 87.6296 162.875C87.6296 163.225 87.5096 163.52 87.2696 163.76C87.0296 163.99 86.7246 164.105 86.3546 164.105ZM86.3546 157.895C85.9746 157.895 85.6596 157.78 85.4096 157.55C85.1696 157.31 85.0496 157.015 85.0496 156.665C85.0496 156.315 85.1696 156.025 85.4096 155.795C85.6596 155.555 85.9746 155.435 86.3546 155.435C86.7246 155.435 87.0296 155.555 87.2696 155.795C87.5096 156.025 87.6296 156.315 87.6296 156.665C87.6296 157.015 87.5096 157.31 87.2696 157.55C87.0296 157.78 86.7246 157.895 86.3546 157.895ZM89.1251 158.39C89.1251 156.66 89.4351 155.305 90.0551 154.325C90.6851 153.345 91.7251 152.855 93.1751 152.855C94.6251 152.855 95.6601 153.345 96.2801 154.325C96.9101 155.305 97.2251 156.66 97.2251 158.39C97.2251 160.13 96.9101 161.495 96.2801 162.485C95.6601 163.475 94.6251 163.97 93.1751 163.97C91.7251 163.97 90.6851 163.475 90.0551 162.485C89.4351 161.495 89.1251 160.13 89.1251 158.39ZM95.1551 158.39C95.1551 157.65 95.1051 157.03 95.0051 156.53C94.9151 156.02 94.7251 155.605 94.4351 155.285C94.1551 154.965 93.7351 154.805 93.1751 154.805C92.6151 154.805 92.1901 154.965 91.9001 155.285C91.6201 155.605 91.4301 156.02 91.3301 156.53C91.2401 157.03 91.1951 157.65 91.1951 158.39C91.1951 159.15 91.2401 159.79 91.3301 160.31C91.4201 160.82 91.6101 161.235 91.9001 161.555C92.1901 161.865 92.6151 162.02 93.1751 162.02C93.7351 162.02 94.1601 161.865 94.4501 161.555C94.7401 161.235 94.9301 160.82 95.0201 160.31C95.1101 159.79 95.1551 159.15 95.1551 158.39ZM98.8223 158.39C98.8223 156.66 99.1323 155.305 99.7523 154.325C100.382 153.345 101.422 152.855 102.872 152.855C104.322 152.855 105.357 153.345 105.977 154.325C106.607 155.305 106.922 156.66 106.922 158.39C106.922 160.13 106.607 161.495 105.977 162.485C105.357 163.475 104.322 163.97 102.872 163.97C101.422 163.97 100.382 163.475 99.7523 162.485C99.1323 161.495 98.8223 160.13 98.8223 158.39ZM104.852 158.39C104.852 157.65 104.802 157.03 104.702 156.53C104.612 156.02 104.422 155.605 104.132 155.285C103.852 154.965 103.432 154.805 102.872 154.805C102.312 154.805 101.887 154.965 101.597 155.285C101.317 155.605 101.127 156.02 101.027 156.53C100.937 157.03 100.892 157.65 100.892 158.39C100.892 159.15 100.937 159.79 101.027 160.31C101.117 160.82 101.307 161.235 101.597 161.555C101.887 161.865 102.312 162.02 102.872 162.02C103.432 162.02 103.857 161.865 104.147 161.555C104.437 161.235 104.627 160.82 104.717 160.31C104.807 159.79 104.852 159.15 104.852 158.39ZM111.794 159.815C111.794 158.975 111.959 158.23 112.289 157.58C112.629 156.93 113.084 156.43 113.654 156.08C114.234 155.73 114.879 155.555 115.589 155.555C116.209 155.555 116.749 155.68 117.209 155.93C117.679 156.18 118.054 156.495 118.334 156.875V155.69H120.449V164H118.334V162.785C118.064 163.175 117.689 163.5 117.209 163.76C116.739 164.01 116.194 164.135 115.574 164.135C114.874 164.135 114.234 163.955 113.654 163.595C113.084 163.235 112.629 162.73 112.289 162.08C111.959 161.42 111.794 160.665 111.794 159.815ZM118.334 159.845C118.334 159.335 118.234 158.9 118.034 158.54C117.834 158.17 117.564 157.89 117.224 157.7C116.884 157.5 116.519 157.4 116.129 157.4C115.739 157.4 115.379 157.495 115.049 157.685C114.719 157.875 114.449 158.155 114.239 158.525C114.039 158.885 113.939 159.315 113.939 159.815C113.939 160.315 114.039 160.755 114.239 161.135C114.449 161.505 114.719 161.79 115.049 161.99C115.389 162.19 115.749 162.29 116.129 162.29C116.519 162.29 116.884 162.195 117.224 162.005C117.564 161.805 117.834 161.525 118.034 161.165C118.234 160.795 118.334 160.355 118.334 159.845ZM132.82 155.57C133.84 155.57 134.66 155.885 135.28 156.515C135.91 157.135 136.225 158.005 136.225 159.125V164H134.125V159.41C134.125 158.76 133.96 158.265 133.63 157.925C133.3 157.575 132.85 157.4 132.28 157.4C131.71 157.4 131.255 157.575 130.915 157.925C130.585 158.265 130.42 158.76 130.42 159.41V164H128.32V159.41C128.32 158.76 128.155 158.265 127.825 157.925C127.495 157.575 127.045 157.4 126.475 157.4C125.895 157.4 125.435 157.575 125.095 157.925C124.765 158.265 124.6 158.76 124.6 159.41V164H122.5V155.69H124.6V156.695C124.87 156.345 125.215 156.07 125.635 155.87C126.065 155.67 126.535 155.57 127.045 155.57C127.695 155.57 128.275 155.71 128.785 155.99C129.295 156.26 129.69 156.65 129.97 157.16C130.24 156.68 130.63 156.295 131.14 156.005C131.66 155.715 132.22 155.57 132.82 155.57ZM148.182 157.76V159.53H141.822V157.76H148.182ZM153.616 155V153.065H157.231V164H155.071V155H153.616ZM159.051 155V153.065H162.666V164H160.506V155H159.051ZM165.91 164.105C165.53 164.105 165.215 163.99 164.965 163.76C164.725 163.52 164.605 163.225 164.605 162.875C164.605 162.525 164.725 162.235 164.965 162.005C165.215 161.765 165.53 161.645 165.91 161.645C166.28 161.645 166.585 161.765 166.825 162.005C167.065 162.235 167.185 162.525 167.185 162.875C167.185 163.225 167.065 163.52 166.825 163.76C166.585 163.99 166.28 164.105 165.91 164.105ZM165.91 157.895C165.53 157.895 165.215 157.78 164.965 157.55C164.725 157.31 164.605 157.015 164.605 156.665C164.605 156.315 164.725 156.025 164.965 155.795C165.215 155.555 165.53 155.435 165.91 155.435C166.28 155.435 166.585 155.555 166.825 155.795C167.065 156.025 167.185 156.315 167.185 156.665C167.185 157.015 167.065 157.31 166.825 157.55C166.585 157.78 166.28 157.895 165.91 157.895ZM168.681 158.39C168.681 156.66 168.991 155.305 169.611 154.325C170.241 153.345 171.281 152.855 172.731 152.855C174.181 152.855 175.216 153.345 175.836 154.325C176.466 155.305 176.781 156.66 176.781 158.39C176.781 160.13 176.466 161.495 175.836 162.485C175.216 163.475 174.181 163.97 172.731 163.97C171.281 163.97 170.241 163.475 169.611 162.485C168.991 161.495 168.681 160.13 168.681 158.39ZM174.711 158.39C174.711 157.65 174.661 157.03 174.561 156.53C174.471 156.02 174.281 155.605 173.991 155.285C173.711 154.965 173.291 154.805 172.731 154.805C172.171 154.805 171.746 154.965 171.456 155.285C171.176 155.605 170.986 156.02 170.886 156.53C170.796 157.03 170.751 157.65 170.751 158.39C170.751 159.15 170.796 159.79 170.886 160.31C170.976 160.82 171.166 161.235 171.456 161.555C171.746 161.865 172.171 162.02 172.731 162.02C173.291 162.02 173.716 161.865 174.006 161.555C174.296 161.235 174.486 160.82 174.576 160.31C174.666 159.79 174.711 159.15 174.711 158.39ZM178.378 158.39C178.378 156.66 178.688 155.305 179.308 154.325C179.938 153.345 180.978 152.855 182.428 152.855C183.878 152.855 184.913 153.345 185.533 154.325C186.163 155.305 186.478 156.66 186.478 158.39C186.478 160.13 186.163 161.495 185.533 162.485C184.913 163.475 183.878 163.97 182.428 163.97C180.978 163.97 179.938 163.475 179.308 162.485C178.688 161.495 178.378 160.13 178.378 158.39ZM184.408 158.39C184.408 157.65 184.358 157.03 184.258 156.53C184.168 156.02 183.978 155.605 183.688 155.285C183.408 154.965 182.988 154.805 182.428 154.805C181.868 154.805 181.443 154.965 181.153 155.285C180.873 155.605 180.683 156.02 180.583 156.53C180.493 157.03 180.448 157.65 180.448 158.39C180.448 159.15 180.493 159.79 180.583 160.31C180.673 160.82 180.863 161.235 181.153 161.555C181.443 161.865 181.868 162.02 182.428 162.02C182.988 162.02 183.413 161.865 183.703 161.555C183.993 161.235 184.183 160.82 184.273 160.31C184.363 159.79 184.408 159.15 184.408 158.39ZM191.349 159.815C191.349 158.975 191.514 158.23 191.844 157.58C192.184 156.93 192.639 156.43 193.209 156.08C193.789 155.73 194.434 155.555 195.144 155.555C195.764 155.555 196.304 155.68 196.764 155.93C197.234 156.18 197.609 156.495 197.889 156.875V155.69H200.004V164H197.889V162.785C197.619 163.175 197.244 163.5 196.764 163.76C196.294 164.01 195.749 164.135 195.129 164.135C194.429 164.135 193.789 163.955 193.209 163.595C192.639 163.235 192.184 162.73 191.844 162.08C191.514 161.42 191.349 160.665 191.349 159.815ZM197.889 159.845C197.889 159.335 197.789 158.9 197.589 158.54C197.389 158.17 197.119 157.89 196.779 157.7C196.439 157.5 196.074 157.4 195.684 157.4C195.294 157.4 194.934 157.495 194.604 157.685C194.274 157.875 194.004 158.155 193.794 158.525C193.594 158.885 193.494 159.315 193.494 159.815C193.494 160.315 193.594 160.755 193.794 161.135C194.004 161.505 194.274 161.79 194.604 161.99C194.944 162.19 195.304 162.29 195.684 162.29C196.074 162.29 196.439 162.195 196.779 162.005C197.119 161.805 197.389 161.525 197.589 161.165C197.789 160.795 197.889 160.355 197.889 159.845ZM212.376 155.57C213.396 155.57 214.216 155.885 214.836 156.515C215.466 157.135 215.781 158.005 215.781 159.125V164H213.681V159.41C213.681 158.76 213.516 158.265 213.186 157.925C212.856 157.575 212.406 157.4 211.836 157.4C211.266 157.4 210.811 157.575 210.471 157.925C210.141 158.265 209.976 158.76 209.976 159.41V164H207.876V159.41C207.876 158.76 207.711 158.265 207.381 157.925C207.051 157.575 206.601 157.4 206.031 157.4C205.451 157.4 204.991 157.575 204.651 157.925C204.321 158.265 204.156 158.76 204.156 159.41V164H202.056V155.69H204.156V156.695C204.426 156.345 204.771 156.07 205.191 155.87C205.621 155.67 206.091 155.57 206.601 155.57C207.251 155.57 207.831 155.71 208.341 155.99C208.851 156.26 209.246 156.65 209.526 157.16C209.796 156.68 210.186 156.295 210.696 156.005C211.216 155.715 211.776 155.57 212.376 155.57Z" fill="white"/>
<path d="M75.54 255V253.065H79.155V264H76.995V255H75.54ZM80.9746 255V253.065H84.5896V264H82.4296V255H80.9746ZM87.8341 264.105C87.4541 264.105 87.1391 263.99 86.8891 263.76C86.6491 263.52 86.5291 263.225 86.5291 262.875C86.5291 262.525 86.6491 262.235 86.8891 262.005C87.1391 261.765 87.4541 261.645 87.8341 261.645C88.2041 261.645 88.5091 261.765 88.7491 262.005C88.9891 262.235 89.1091 262.525 89.1091 262.875C89.1091 263.225 88.9891 263.52 88.7491 263.76C88.5091 263.99 88.2041 264.105 87.8341 264.105ZM87.8341 257.895C87.4541 257.895 87.1391 257.78 86.8891 257.55C86.6491 257.31 86.5291 257.015 86.5291 256.665C86.5291 256.315 86.6491 256.025 86.8891 255.795C87.1391 255.555 87.4541 255.435 87.8341 255.435C88.2041 255.435 88.5091 255.555 88.7491 255.795C88.9891 256.025 89.1091 256.315 89.1091 256.665C89.1091 257.015 88.9891 257.31 88.7491 257.55C88.5091 257.78 88.2041 257.895 87.8341 257.895ZM90.6346 255.945C90.6846 254.945 91.0346 254.175 91.6846 253.635C92.3446 253.085 93.2096 252.81 94.2796 252.81C95.0096 252.81 95.6346 252.94 96.1546 253.2C96.6746 253.45 97.0646 253.795 97.3246 254.235C97.5946 254.665 97.7296 255.155 97.7296 255.705C97.7296 256.335 97.5646 256.87 97.2346 257.31C96.9146 257.74 96.5296 258.03 96.0796 258.18V258.24C96.6596 258.42 97.1096 258.74 97.4296 259.2C97.7596 259.66 97.9246 260.25 97.9246 260.97C97.9246 261.57 97.7846 262.105 97.5046 262.575C97.2346 263.045 96.8296 263.415 96.2896 263.685C95.7596 263.945 95.1196 264.075 94.3696 264.075C93.2396 264.075 92.3196 263.79 91.6096 263.22C90.8996 262.65 90.5246 261.81 90.4846 260.7H92.5246C92.5446 261.19 92.7096 261.585 93.0196 261.885C93.3396 262.175 93.7746 262.32 94.3246 262.32C94.8346 262.32 95.2246 262.18 95.4946 261.9C95.7746 261.61 95.9146 261.24 95.9146 260.79C95.9146 260.19 95.7246 259.76 95.3446 259.5C94.9646 259.24 94.3746 259.11 93.5746 259.11H93.1396V257.385H93.5746C94.9946 257.385 95.7046 256.91 95.7046 255.96C95.7046 255.53 95.5746 255.195 95.3146 254.955C95.0646 254.715 94.6996 254.595 94.2196 254.595C93.7496 254.595 93.3846 254.725 93.1246 254.985C92.8746 255.235 92.7296 255.555 92.6896 255.945H90.6346ZM99.5841 258.39C99.5841 256.66 99.8941 255.305 100.514 254.325C101.144 253.345 102.184 252.855 103.634 252.855C105.084 252.855 106.119 253.345 106.739 254.325C107.369 255.305 107.684 256.66 107.684 258.39C107.684 260.13 107.369 261.495 106.739 262.485C106.119 263.475 105.084 263.97 103.634 263.97C102.184 263.97 101.144 263.475 100.514 262.485C99.8941 261.495 99.5841 260.13 99.5841 258.39ZM105.614 258.39C105.614 257.65 105.564 257.03 105.464 256.53C105.374 256.02 105.184 255.605 104.894 255.285C104.614 254.965 104.194 254.805 103.634 254.805C103.074 254.805 102.649 254.965 102.359 255.285C102.079 255.605 101.889 256.02 101.789 256.53C101.699 257.03 101.654 257.65 101.654 258.39C101.654 259.15 101.699 259.79 101.789 260.31C101.879 260.82 102.069 261.235 102.359 261.555C102.649 261.865 103.074 262.02 103.634 262.02C104.194 262.02 104.619 261.865 104.909 261.555C105.199 261.235 105.389 260.82 105.479 260.31C105.569 259.79 105.614 259.15 105.614 258.39ZM112.556 259.815C112.556 258.975 112.721 258.23 113.051 257.58C113.391 256.93 113.846 256.43 114.416 256.08C114.996 255.73 115.641 255.555 116.351 255.555C116.971 255.555 117.511 255.68 117.971 255.93C118.441 256.18 118.816 256.495 119.096 256.875V255.69H121.211V264H119.096V262.785C118.826 263.175 118.451 263.5 117.971 263.76C117.501 264.01 116.956 264.135 116.336 264.135C115.636 264.135 114.996 263.955 114.416 263.595C113.846 263.235 113.391 262.73 113.051 262.08C112.721 261.42 112.556 260.665 112.556 259.815ZM119.096 259.845C119.096 259.335 118.996 258.9 118.796 258.54C118.596 258.17 118.326 257.89 117.986 257.7C117.646 257.5 117.281 257.4 116.891 257.4C116.501 257.4 116.141 257.495 115.811 257.685C115.481 257.875 115.211 258.155 115.001 258.525C114.801 258.885 114.701 259.315 114.701 259.815C114.701 260.315 114.801 260.755 115.001 261.135C115.211 261.505 115.481 261.79 115.811 261.99C116.151 262.19 116.511 262.29 116.891 262.29C117.281 262.29 117.646 262.195 117.986 262.005C118.326 261.805 118.596 261.525 118.796 261.165C118.996 260.795 119.096 260.355 119.096 259.845ZM133.582 255.57C134.602 255.57 135.422 255.885 136.042 256.515C136.672 257.135 136.987 258.005 136.987 259.125V264H134.887V259.41C134.887 258.76 134.722 258.265 134.392 257.925C134.062 257.575 133.612 257.4 133.042 257.4C132.472 257.4 132.017 257.575 131.677 257.925C131.347 258.265 131.182 258.76 131.182 259.41V264H129.082V259.41C129.082 258.76 128.917 258.265 128.587 257.925C128.257 257.575 127.807 257.4 127.237 257.4C126.657 257.4 126.197 257.575 125.857 257.925C125.527 258.265 125.362 258.76 125.362 259.41V264H123.262V255.69H125.362V256.695C125.632 256.345 125.977 256.07 126.397 255.87C126.827 255.67 127.297 255.57 127.807 255.57C128.457 255.57 129.037 255.71 129.547 255.99C130.057 256.26 130.452 256.65 130.732 257.16C131.002 256.68 131.392 256.295 131.902 256.005C132.422 255.715 132.982 255.57 133.582 255.57ZM148.944 257.76V259.53H142.584V257.76H148.944ZM154.378 255V253.065H157.993V264H155.833V255H154.378ZM160.727 261.63C161.687 260.83 162.452 260.165 163.022 259.635C163.592 259.095 164.067 258.535 164.447 257.955C164.827 257.375 165.017 256.805 165.017 256.245C165.017 255.735 164.897 255.335 164.657 255.045C164.417 254.755 164.047 254.61 163.547 254.61C163.047 254.61 162.662 254.78 162.392 255.12C162.122 255.45 161.982 255.905 161.972 256.485H159.932C159.972 255.285 160.327 254.375 160.997 253.755C161.677 253.135 162.537 252.825 163.577 252.825C164.717 252.825 165.592 253.13 166.202 253.74C166.812 254.34 167.117 255.135 167.117 256.125C167.117 256.905 166.907 257.65 166.487 258.36C166.067 259.07 165.587 259.69 165.047 260.22C164.507 260.74 163.802 261.37 162.932 262.11H167.357V263.85H159.947V262.29L160.727 261.63ZM169.851 264.105C169.471 264.105 169.156 263.99 168.906 263.76C168.666 263.52 168.546 263.225 168.546 262.875C168.546 262.525 168.666 262.235 168.906 262.005C169.156 261.765 169.471 261.645 169.851 261.645C170.221 261.645 170.526 261.765 170.766 262.005C171.006 262.235 171.126 262.525 171.126 262.875C171.126 263.225 171.006 263.52 170.766 263.76C170.526 263.99 170.221 264.105 169.851 264.105ZM169.851 257.895C169.471 257.895 169.156 257.78 168.906 257.55C168.666 257.31 168.546 257.015 168.546 256.665C168.546 256.315 168.666 256.025 168.906 255.795C169.156 255.555 169.471 255.435 169.851 255.435C170.221 255.435 170.526 255.555 170.766 255.795C171.006 256.025 171.126 256.315 171.126 256.665C171.126 257.015 171.006 257.31 170.766 257.55C170.526 257.78 170.221 257.895 169.851 257.895ZM172.651 255.945C172.701 254.945 173.051 254.175 173.701 253.635C174.361 253.085 175.226 252.81 176.296 252.81C177.026 252.81 177.651 252.94 178.171 253.2C178.691 253.45 179.081 253.795 179.341 254.235C179.611 254.665 179.746 255.155 179.746 255.705C179.746 256.335 179.581 256.87 179.251 257.31C178.931 257.74 178.546 258.03 178.096 258.18V258.24C178.676 258.42 179.126 258.74 179.446 259.2C179.776 259.66 179.941 260.25 179.941 260.97C179.941 261.57 179.801 262.105 179.521 262.575C179.251 263.045 178.846 263.415 178.306 263.685C177.776 263.945 177.136 264.075 176.386 264.075C175.256 264.075 174.336 263.79 173.626 263.22C172.916 262.65 172.541 261.81 172.501 260.7H174.541C174.561 261.19 174.726 261.585 175.036 261.885C175.356 262.175 175.791 262.32 176.341 262.32C176.851 262.32 177.241 262.18 177.511 261.9C177.791 261.61 177.931 261.24 177.931 260.79C177.931 260.19 177.741 259.76 177.361 259.5C176.981 259.24 176.391 259.11 175.591 259.11H175.156V257.385H175.591C177.011 257.385 177.721 256.91 177.721 255.96C177.721 255.53 177.591 255.195 177.331 254.955C177.081 254.715 176.716 254.595 176.236 254.595C175.766 254.595 175.401 254.725 175.141 254.985C174.891 255.235 174.746 255.555 174.706 255.945H172.651ZM181.601 258.39C181.601 256.66 181.911 255.305 182.531 254.325C183.161 253.345 184.201 252.855 185.651 252.855C187.101 252.855 188.136 253.345 188.756 254.325C189.386 255.305 189.701 256.66 189.701 258.39C189.701 260.13 189.386 261.495 188.756 262.485C188.136 263.475 187.101 263.97 185.651 263.97C184.201 263.97 183.161 263.475 182.531 262.485C181.911 261.495 181.601 260.13 181.601 258.39ZM187.631 258.39C187.631 257.65 187.581 257.03 187.481 256.53C187.391 256.02 187.201 255.605 186.911 255.285C186.631 254.965 186.211 254.805 185.651 254.805C185.091 254.805 184.666 254.965 184.376 255.285C184.096 255.605 183.906 256.02 183.806 256.53C183.716 257.03 183.671 257.65 183.671 258.39C183.671 259.15 183.716 259.79 183.806 260.31C183.896 260.82 184.086 261.235 184.376 261.555C184.666 261.865 185.091 262.02 185.651 262.02C186.211 262.02 186.636 261.865 186.926 261.555C187.216 261.235 187.406 260.82 187.496 260.31C187.586 259.79 187.631 259.15 187.631 258.39ZM197.212 256.89C197.482 256.51 197.852 256.195 198.322 255.945C198.802 255.685 199.347 255.555 199.957 255.555C200.667 255.555 201.307 255.73 201.877 256.08C202.457 256.43 202.912 256.93 203.242 257.58C203.582 258.22 203.752 258.965 203.752 259.815C203.752 260.665 203.582 261.42 203.242 262.08C202.912 262.73 202.457 263.235 201.877 263.595C201.307 263.955 200.667 264.135 199.957 264.135C199.347 264.135 198.807 264.01 198.337 263.76C197.877 263.51 197.502 263.195 197.212 262.815V267.96H195.112V255.69H197.212V256.89ZM201.607 259.815C201.607 259.315 201.502 258.885 201.292 258.525C201.092 258.155 200.822 257.875 200.482 257.685C200.152 257.495 199.792 257.4 199.402 257.4C199.022 257.4 198.662 257.5 198.322 257.7C197.992 257.89 197.722 258.17 197.512 258.54C197.312 258.91 197.212 259.345 197.212 259.845C197.212 260.345 197.312 260.78 197.512 261.15C197.722 261.52 197.992 261.805 198.322 262.005C198.662 262.195 199.022 262.29 199.402 262.29C199.792 262.29 200.152 262.19 200.482 261.99C200.822 261.79 201.092 261.505 201.292 261.135C201.502 260.765 201.607 260.325 201.607 259.815ZM215.598 255.57C216.618 255.57 217.438 255.885 218.058 256.515C218.688 257.135 219.003 258.005 219.003 259.125V264H216.903V259.41C216.903 258.76 216.738 258.265 216.408 257.925C216.078 257.575 215.628 257.4 215.058 257.4C214.488 257.4 214.033 257.575 213.693 257.925C213.363 258.265 213.198 258.76 213.198 259.41V264H211.098V259.41C211.098 258.76 210.933 258.265 210.603 257.925C210.273 257.575 209.823 257.4 209.253 257.4C208.673 257.4 208.213 257.575 207.873 257.925C207.543 258.265 207.378 258.76 207.378 259.41V264H205.278V255.69H207.378V256.695C207.648 256.345 207.993 256.07 208.413 255.87C208.843 255.67 209.313 255.57 209.823 255.57C210.473 255.57 211.053 255.71 211.563 255.99C212.073 256.26 212.468 256.65 212.748 257.16C213.018 256.68 213.408 256.295 213.918 256.005C214.438 255.715 214.998 255.57 215.598 255.57Z" fill="white"/>
<path d="M75.54 338V336.065H79.155V347H76.995V338H75.54ZM81.8896 344.63C82.8496 343.83 83.6146 343.165 84.1846 342.635C84.7546 342.095 85.2296 341.535 85.6096 340.955C85.9896 340.375 86.1796 339.805 86.1796 339.245C86.1796 338.735 86.0596 338.335 85.8196 338.045C85.5796 337.755 85.2096 337.61 84.7096 337.61C84.2096 337.61 83.8246 337.78 83.5546 338.12C83.2846 338.45 83.1446 338.905 83.1346 339.485H81.0946C81.1346 338.285 81.4896 337.375 82.1596 336.755C82.8396 336.135 83.6996 335.825 84.7396 335.825C85.8796 335.825 86.7546 336.13 87.3646 336.74C87.9746 337.34 88.2796 338.135 88.2796 339.125C88.2796 339.905 88.0696 340.65 87.6496 341.36C87.2296 342.07 86.7496 342.69 86.2096 343.22C85.6696 343.74 84.9646 344.37 84.0946 345.11H88.5196V346.85H81.1096V345.29L81.8896 344.63ZM91.0129 347.105C90.6329 347.105 90.3179 346.99 90.0679 346.76C89.8279 346.52 89.7079 346.225 89.7079 345.875C89.7079 345.525 89.8279 345.235 90.0679 345.005C90.3179 344.765 90.6329 344.645 91.0129 344.645C91.3829 344.645 91.6879 344.765 91.9279 345.005C92.1679 345.235 92.2879 345.525 92.2879 345.875C92.2879 346.225 92.1679 346.52 91.9279 346.76C91.6879 346.99 91.3829 347.105 91.0129 347.105ZM91.0129 340.895C90.6329 340.895 90.3179 340.78 90.0679 340.55C89.8279 340.31 89.7079 340.015 89.7079 339.665C89.7079 339.315 89.8279 339.025 90.0679 338.795C90.3179 338.555 90.6329 338.435 91.0129 338.435C91.3829 338.435 91.6879 338.555 91.9279 338.795C92.1679 339.025 92.2879 339.315 92.2879 339.665C92.2879 340.015 92.1679 340.31 91.9279 340.55C91.6879 340.78 91.3829 340.895 91.0129 340.895ZM93.6933 344.87V343.22L98.5983 336.2H101.043V343.04H102.363V344.87H101.043V347H98.9433V344.87H93.6933ZM99.0783 338.45L96.0033 343.04H99.0783V338.45ZM111.05 337.88H106.19V340.445C106.4 340.185 106.7 339.975 107.09 339.815C107.48 339.645 107.895 339.56 108.335 339.56C109.135 339.56 109.79 339.735 110.3 340.085C110.81 340.435 111.18 340.885 111.41 341.435C111.64 341.975 111.755 342.555 111.755 343.175C111.755 344.325 111.425 345.25 110.765 345.95C110.115 346.65 109.185 347 107.975 347C106.835 347 105.925 346.715 105.245 346.145C104.565 345.575 104.18 344.83 104.09 343.91H106.13C106.22 344.31 106.42 344.63 106.73 344.87C107.05 345.11 107.455 345.23 107.945 345.23C108.535 345.23 108.98 345.045 109.28 344.675C109.58 344.305 109.73 343.815 109.73 343.205C109.73 342.585 109.575 342.115 109.265 341.795C108.965 341.465 108.52 341.3 107.93 341.3C107.51 341.3 107.16 341.405 106.88 341.615C106.6 341.825 106.4 342.105 106.28 342.455H104.27V336.035H111.05V337.88ZM119.268 339.89C119.538 339.51 119.908 339.195 120.378 338.945C120.858 338.685 121.403 338.555 122.013 338.555C122.723 338.555 123.363 338.73 123.933 339.08C124.513 339.43 124.968 339.93 125.298 340.58C125.638 341.22 125.808 341.965 125.808 342.815C125.808 343.665 125.638 344.42 125.298 345.08C124.968 345.73 124.513 346.235 123.933 346.595C123.363 346.955 122.723 347.135 122.013 347.135C121.403 347.135 120.863 347.01 120.393 346.76C119.933 346.51 119.558 346.195 119.268 345.815V350.96H117.168V338.69H119.268V339.89ZM123.663 342.815C123.663 342.315 123.558 341.885 123.348 341.525C123.148 341.155 122.878 340.875 122.538 340.685C122.208 340.495 121.848 340.4 121.458 340.4C121.078 340.4 120.718 340.5 120.378 340.7C120.048 340.89 119.778 341.17 119.568 341.54C119.368 341.91 119.268 342.345 119.268 342.845C119.268 343.345 119.368 343.78 119.568 344.15C119.778 344.52 120.048 344.805 120.378 345.005C120.718 345.195 121.078 345.29 121.458 345.29C121.848 345.29 122.208 345.19 122.538 344.99C122.878 344.79 123.148 344.505 123.348 344.135C123.558 343.765 123.663 343.325 123.663 342.815ZM137.654 338.57C138.674 338.57 139.494 338.885 140.114 339.515C140.744 340.135 141.059 341.005 141.059 342.125V347H138.959V342.41C138.959 341.76 138.794 341.265 138.464 340.925C138.134 340.575 137.684 340.4 137.114 340.4C136.544 340.4 136.089 340.575 135.749 340.925C135.419 341.265 135.254 341.76 135.254 342.41V347H133.154V342.41C133.154 341.76 132.989 341.265 132.659 340.925C132.329 340.575 131.879 340.4 131.309 340.4C130.729 340.4 130.269 340.575 129.929 340.925C129.599 341.265 129.434 341.76 129.434 342.41V347H127.334V338.69H129.434V339.695C129.704 339.345 130.049 339.07 130.469 338.87C130.899 338.67 131.369 338.57 131.879 338.57C132.529 338.57 133.109 338.71 133.619 338.99C134.129 339.26 134.524 339.65 134.804 340.16C135.074 339.68 135.464 339.295 135.974 339.005C136.494 338.715 137.054 338.57 137.654 338.57Z" fill="white"/>
</g>
<defs>
<filter id="filter0_d_391_65" x="0" y="0" width="361" height="519" filterUnits="userSpaceOnUse" color-interpolation-filters="sRGB">
<feFlood flood-opacity="0" result="BackgroundImageFix"/>
<feColorMatrix in="SourceAlpha" type="matrix" values="0 0 0 0 0 0 0 0 0 0 0 0 0 0 0 0 0 0 127 0" result="hardAlpha"/>
<feOffset dy="10"/>
<feGaussianBlur stdDeviation="6"/>
<feComposite in2="hardAlpha" operator="out"/>
<feColorMatrix type="matrix" values="0 0 0 0 0 0 0 0 0 0 0 0 0 0 0 0 0 0 0.25 0"/>
<feBlend mode="normal" in2="BackgroundImageFix" result="effect1_dropShadow_391_65"/>
<feBlend mode="normal" in="SourceGraphic" in2="effect1_dropShadow_391_65" result="shape"/>
</filter>
</defs>
</svg>
