<svg xmlns="http://www.w3.org/2000/svg" width="200" height="70" fill="none" viewBox="0 0 545 190"><g filter="url(#a)"><path fill="url(#b)" d="M225.854 92.31c17.498-1.528 29.56-13.59 29.56-32.109V33.36h-30.919v29.22h14.78c0 7.306-4.247 13.252-13.421 14.102v15.63Z"/><path fill="url(#c)" d="M225.854 92.31h-1.8v1.965l1.956-.171-.156-1.793Zm29.56-58.951h1.8v-1.8h-1.8v1.8Zm-30.919 0v-1.8h-1.8v1.8h1.8Zm0 29.22h-1.8v1.8h1.8v-1.8Zm14.78 0h1.8v-1.8h-1.8v1.8Zm-13.421 14.102-.166-1.793-1.634.152v1.64h1.8Zm.156 17.423c9.127-.798 16.95-4.357 22.496-10.243 5.553-5.892 8.708-13.996 8.708-23.66h-3.6c0 8.854-2.875 16.041-7.728 21.191-4.859 5.157-11.817 8.394-20.189 9.125l.313 3.587ZM257.214 60.2V33.36h-3.6V60.2h3.6Zm-1.8-28.642h-30.919v3.6h30.919v-3.6Zm-32.719 1.8v29.22h3.6V33.36h-3.6Zm1.8 31.02h14.78v-3.6h-14.78v3.6Zm12.98-1.8c0 3.308-.958 6.168-2.821 8.282-1.852 2.102-4.75 3.637-8.966 4.027l.332 3.585c4.958-.46 8.77-2.322 11.335-5.232 2.554-2.898 3.72-6.663 3.72-10.661h-3.6ZM224.054 76.68v15.63h3.6V76.68h-3.6Zm94.276 51.646-1.365-1.174-2.559 2.974h3.924v-1.8Zm-50.798-49.098h-1.8v1.8h1.8v-1.8Zm29.901 0v1.8h1.8v-1.8h-1.8Zm-31.769 68.975-1.373-1.164-.427.504v.66h1.8Zm0 6.796h-1.8v1.8h1.8V155Zm84.095 0v1.8h1.8V155h-1.8Zm0-26.673h1.8v-1.8h-1.8v1.8Zm-30.065 1.174c24.127-28.034 29.827-39.357 29.827-54.35h-3.6c0 13.55-4.834 23.973-28.956 52.002l2.729 2.348Zm29.827-54.35c0-11.112-4.326-20.571-11.84-27.233-7.498-6.647-18.055-10.413-30.394-10.413v3.6c11.615 0 21.275 3.54 28.005 9.507 6.714 5.952 10.629 14.416 10.629 24.54h3.6Zm-42.234-37.646c-12.764 0-23.187 3.853-30.429 10.847-7.248 7-11.126 16.97-11.126 28.838h3.6c0-11.067 3.598-20.04 10.027-26.248 6.434-6.215 15.888-9.837 27.928-9.837v-3.6ZM265.732 77.19v2.039h3.6V77.19h-3.6Zm1.8 3.839h29.901v-3.6h-29.901v3.6Zm31.701-1.8V77.02h-3.6v2.209h3.6Zm0-2.209c0-3.059.876-5.345 2.263-6.849 1.371-1.487 3.41-2.393 6.13-2.393v-3.6c-3.565 0-6.623 1.217-8.777 3.552-2.138 2.32-3.216 5.554-3.216 9.29h3.6Zm8.393-9.242c2.452 0 4.435.856 5.805 2.26 1.373 1.406 2.249 3.483 2.249 6.133h3.6c0-3.466-1.162-6.486-3.273-8.648-2.112-2.164-5.056-3.345-8.381-3.345v3.6Zm8.054 8.393c0 4.26-1.291 8.46-8.495 18.464-7.211 10.016-20.111 25.542-42.894 52.405l2.745 2.329c22.748-26.822 35.757-42.472 43.071-52.63 7.322-10.17 9.173-15.144 9.173-20.568h-3.6Zm-51.816 72.033V155h3.6v-6.796h-3.6Zm1.8 8.596h84.095v-3.6h-84.095v3.6Zm85.895-1.8v-26.673h-3.6V155h3.6Zm-1.8-28.473H318.33v3.6h31.429v-3.6Zm63.272-42.88-1.528-.951-1.301 2.092 2.388.603.441-1.745Zm22.596-36.357 1.529.95.271-.437v-.513h-1.8Zm0-5.267h1.8v-1.8h-1.8v1.8Zm-77.47 0v-1.8h-1.8v1.8h1.8Zm0 25.823h-1.8v1.8h1.8v-1.8Zm37.885 0 1.539.934 1.659-2.734h-3.198v1.8Zm-18.348 30.24-1.539-.933-.261.43v.504h1.8Zm0 6.287h-1.8v1.8h1.8v-1.8Zm6.626 14.101 1.798-.077-.073-1.723h-1.725v1.8Zm-29.051 0v-1.8h-1.853l.053 1.852 1.8-.052Zm59.291-33.878 22.596-36.356-3.058-1.9-22.595 36.356 3.057 1.9Zm22.867-37.306v-5.267h-3.6v5.267h3.6Zm-1.8-7.067h-77.47v3.6h77.47v-3.6Zm-79.27 1.8v25.823h3.6V42.023h-3.6Zm1.8 27.623h37.885v-3.6h-37.885v3.6Zm36.346-2.733-18.348 30.24 3.078 1.867 18.348-30.24-3.078-1.867Zm-18.609 31.174v6.286h3.6v-6.286h-3.6Zm1.8 8.086h18.009v-3.6h-18.009v3.6Zm18.009 0c4.077 0 7.213 1.172 9.311 3.111 2.082 1.923 3.329 4.769 3.329 8.51h3.6c0-4.584-1.556-8.448-4.486-11.155-2.913-2.69-6.998-4.066-11.754-4.066v3.6Zm12.64 11.621c0 3.766-1.224 6.785-3.18 8.849-1.951 2.058-4.736 3.282-8.101 3.282v3.6c4.28 0 8.035-1.579 10.714-4.405 2.673-2.821 4.167-6.767 4.167-11.326h-3.6Zm-11.281 12.131c-3.293 0-5.907-1.148-7.745-3.074-1.852-1.941-3.044-4.811-3.199-8.454l-3.596.153c.184 4.342 1.626 8.098 4.191 10.786 2.579 2.704 6.166 4.189 10.349 4.189v-3.6Zm-12.742-13.251h-29.051v3.6h29.051v-3.6Zm-30.851 1.852c.353 12.155 4.901 22.434 12.585 29.672 7.681 7.234 18.376 11.32 30.838 11.32v-3.6c-11.663 0-21.439-3.813-28.369-10.341-6.926-6.523-11.128-15.866-11.455-27.156l-3.599.105Zm43.423 40.992c25.662 0 44.442-17.154 44.442-41.214h-3.6c0 21.81-16.896 37.614-40.842 37.614v3.6Zm44.442-41.214c0-18.31-10.911-32.12-27.862-36.403l-.882 3.49c15.329 3.873 25.144 16.226 25.144 32.913h3.6Z"/></g><path fill="url(#d)" d="M22.768 63.857 1.473 41.37.34 40.656h96.057l41.798 40.423 42.932-40.423h32.849L156.773 98.48l57.883 56.485h-34.662l-41.232-40.512-42.818 40.512H0l22.768-22.933h63.887l33.077-33.552L84.39 63.857H22.768Z"/><path fill="url(#e)" d="M24.128 109.545V85.808H84.39L96.397 98.48 84.39 109.545H24.128Z"/><defs><linearGradient id="b" x1="257.38" x2="486.27" y1="-.504" y2="98.355" gradientUnits="userSpaceOnUse"><stop stop-color="#3CBBB7"/><stop offset="1" stop-color="#01458E"/></linearGradient><linearGradient id="c" x1="283.5" x2="438.5" y1="40.5" y2="173.5" gradientUnits="userSpaceOnUse"><stop stop-color="#3BBAB6"/><stop offset="1" stop-color="#01438F"/></linearGradient><linearGradient id="d" x1="36.705" x2="194.267" y1="40.391" y2="154.981" gradientUnits="userSpaceOnUse"><stop stop-color="#3CBBB7"/><stop offset="1" stop-color="#01458E"/></linearGradient><linearGradient id="e" x1="36.705" x2="194.267" y1="40.391" y2="154.981" gradientUnits="userSpaceOnUse"><stop stop-color="#3CBBB7"/><stop offset="1" stop-color="#01458E"/></linearGradient><filter id="a" width="223.04" height="132.36" x="220.495" y="33.359" color-interpolation-filters="sRGB" filterUnits="userSpaceOnUse"><feFlood flood-opacity="0" result="BackgroundImageFix"/><feColorMatrix in="SourceAlpha" result="hardAlpha" values="0 0 0 0 0 0 0 0 0 0 0 0 0 0 0 0 0 0 127 0"/><feOffset dy="4"/><feGaussianBlur stdDeviation="2"/><feColorMatrix values="0 0 0 0 0 0 0 0 0 0 0 0 0 0 0 0 0 0 0.25 0"/><feBlend in2="BackgroundImageFix" result="effect1_dropShadow_332_34"/><feBlend in="SourceGraphic" in2="effect1_dropShadow_332_34" result="shape"/></filter></defs></svg>