<svg width="361" height="519" viewBox="0 0 361 519" fill="none" xmlns="http://www.w3.org/2000/svg">
<g filter="url(#filter0_d_391_17)">
<path fill-rule="evenodd" clip-rule="evenodd" d="M12 17C12 8.71571 18.7157 2 27 2H334C342.284 2 349 8.71573 349 17V229C337.954 229 329 237.954 329 249C329 260.046 337.954 269 349 269V482C349 490.284 342.284 497 334 497H27C18.7157 497 12 490.284 12 482V269C23.0457 269 32 260.046 32 249C32 237.954 23.0457 229 12 229V17ZM70.28 46H84.08C87.2 46 89.9467 46.5733 92.32 47.72C94.72 48.84 96.5733 50.4533 97.88 52.56C99.2133 54.6667 99.88 57.1467 99.88 60C99.88 62.8533 99.2133 65.3333 97.88 67.44C96.5733 69.5467 94.72 71.1733 92.32 72.32C89.9467 73.44 87.2 74 84.08 74H70.28V46ZM83.68 66.64C85.7067 66.64 87.32 66.0667 88.52 64.92C89.7467 63.7467 90.36 62.1067 90.36 60C90.36 57.8933 89.7467 56.2667 88.52 55.12C87.32 53.9467 85.7067 53.36 83.68 53.36H79.72V66.64H83.68ZM112.847 51.72C116.687 51.72 119.62 52.5867 121.647 54.32C123.674 56.0267 124.687 58.6667 124.687 62.24V74H116.287V71.12C115.247 73.3067 113.18 74.4 110.087 74.4C108.354 74.4 106.874 74.1067 105.647 73.52C104.447 72.9067 103.527 72.0933 102.887 71.08C102.274 70.04 101.967 68.88 101.967 67.6C101.967 65.44 102.794 63.8 104.447 62.68C106.1 61.56 108.607 61 111.967 61H115.607C115.314 59.2933 113.94 58.44 111.487 58.44C110.5 58.44 109.5 58.6 108.487 58.92C107.474 59.2133 106.607 59.6267 105.887 60.16L103.007 54.2C104.26 53.4267 105.767 52.8267 107.527 52.4C109.314 51.9467 111.087 51.72 112.847 51.72ZM112.807 68.96C113.447 68.96 114.02 68.7867 114.527 68.44C115.034 68.0933 115.407 67.5733 115.647 66.88V65.36H113.407C111.567 65.36 110.647 65.9733 110.647 67.2C110.647 67.7067 110.834 68.1333 111.207 68.48C111.607 68.8 112.14 68.96 112.807 68.96ZM152.563 52.12L143.563 74.44C142.416 77.2933 140.99 79.2933 139.283 80.44C137.576 81.5867 135.483 82.16 133.003 82.16C131.776 82.16 130.536 81.9733 129.283 81.6C128.056 81.2533 127.083 80.7867 126.363 80.2L129.363 74C129.816 74.3467 130.323 74.6267 130.883 74.84C131.47 75.0533 132.03 75.16 132.563 75.16C133.55 75.16 134.296 74.8667 134.803 74.28L125.603 52.12H134.883L139.403 63.84L144.003 52.12H152.563ZM178.378 74H168.938V53.12H164.137V46H178.378V74ZM53 336C56.3137 336 59 333.314 59 330C59 327.027 56.8377 324.559 54 324.083V246.917C56.8377 246.441 59 243.973 59 241C59 238.027 56.8377 235.559 54 235.083V142.917C56.8377 142.441 59 139.973 59 137C59 133.686 56.3137 131 53 131C49.6863 131 47 133.686 47 137C47 139.973 49.1623 142.441 52 142.917V235.083C49.1623 235.559 47 238.027 47 241C47 243.973 49.1623 246.441 52 246.917V324.083C49.1623 324.559 47 327.027 47 330C47 333.314 49.6863 336 53 336Z" fill="#0B32A4"/>
<path d="M73.852 128.456V148H69.932V128.456H73.852ZM86.321 132.264C88.169 132.264 89.6623 132.852 90.801 134.028C91.9396 135.185 92.509 136.809 92.509 138.9V148H88.589V139.432C88.589 138.2 88.281 137.257 87.665 136.604C87.049 135.932 86.209 135.596 85.145 135.596C84.0623 135.596 83.2036 135.932 82.569 136.604C81.953 137.257 81.645 138.2 81.645 139.432V148H77.725V132.488H81.645V134.42C82.1676 133.748 82.8303 133.225 83.633 132.852C84.4543 132.46 85.3503 132.264 86.321 132.264ZM95.2287 140.188C95.2287 138.62 95.5367 137.229 96.1527 136.016C96.7874 134.803 97.6367 133.869 98.7007 133.216C99.7834 132.563 100.987 132.236 102.313 132.236C103.47 132.236 104.478 132.469 105.337 132.936C106.214 133.403 106.914 133.991 107.437 134.7V132.488H111.385V148H107.437V145.732C106.933 146.46 106.233 147.067 105.337 147.552C104.459 148.019 103.442 148.252 102.285 148.252C100.978 148.252 99.7834 147.916 98.7007 147.244C97.6367 146.572 96.7874 145.629 96.1527 144.416C95.5367 143.184 95.2287 141.775 95.2287 140.188ZM107.437 140.244C107.437 139.292 107.25 138.48 106.877 137.808C106.503 137.117 105.999 136.595 105.365 136.24C104.73 135.867 104.049 135.68 103.321 135.68C102.593 135.68 101.921 135.857 101.305 136.212C100.689 136.567 100.185 137.089 99.7927 137.78C99.4194 138.452 99.2327 139.255 99.2327 140.188C99.2327 141.121 99.4194 141.943 99.7927 142.652C100.185 143.343 100.689 143.875 101.305 144.248C101.939 144.621 102.611 144.808 103.321 144.808C104.049 144.808 104.73 144.631 105.365 144.276C105.999 143.903 106.503 143.38 106.877 142.708C107.25 142.017 107.437 141.196 107.437 140.244ZM129.857 132.488V148H125.909V146.04C125.405 146.712 124.743 147.244 123.921 147.636C123.119 148.009 122.241 148.196 121.289 148.196C120.076 148.196 119.003 147.944 118.069 147.44C117.136 146.917 116.399 146.161 115.857 145.172C115.335 144.164 115.073 142.969 115.073 141.588V132.488H118.993V141.028C118.993 142.26 119.301 143.212 119.917 143.884C120.533 144.537 121.373 144.864 122.437 144.864C123.52 144.864 124.369 144.537 124.985 143.884C125.601 143.212 125.909 142.26 125.909 141.028V132.488H129.857ZM139.801 132.236C140.958 132.236 141.976 132.469 142.853 132.936C143.73 133.384 144.421 133.972 144.925 134.7V132.488H148.873V148.112C148.873 149.549 148.584 150.828 148.005 151.948C147.426 153.087 146.558 153.983 145.401 154.636C144.244 155.308 142.844 155.644 141.201 155.644C138.998 155.644 137.188 155.131 135.769 154.104C134.369 153.077 133.576 151.677 133.389 149.904H137.281C137.486 150.613 137.925 151.173 138.597 151.584C139.288 152.013 140.118 152.228 141.089 152.228C142.228 152.228 143.152 151.883 143.861 151.192C144.57 150.52 144.925 149.493 144.925 148.112V145.704C144.421 146.432 143.721 147.039 142.825 147.524C141.948 148.009 140.94 148.252 139.801 148.252C138.494 148.252 137.3 147.916 136.217 147.244C135.134 146.572 134.276 145.629 133.641 144.416C133.025 143.184 132.717 141.775 132.717 140.188C132.717 138.62 133.025 137.229 133.641 136.016C134.276 134.803 135.125 133.869 136.189 133.216C137.272 132.563 138.476 132.236 139.801 132.236ZM144.925 140.244C144.925 139.292 144.738 138.48 144.365 137.808C143.992 137.117 143.488 136.595 142.853 136.24C142.218 135.867 141.537 135.68 140.809 135.68C140.081 135.68 139.409 135.857 138.793 136.212C138.177 136.567 137.673 137.089 137.281 137.78C136.908 138.452 136.721 139.255 136.721 140.188C136.721 141.121 136.908 141.943 137.281 142.652C137.673 143.343 138.177 143.875 138.793 144.248C139.428 144.621 140.1 144.808 140.809 144.808C141.537 144.808 142.218 144.631 142.853 144.276C143.488 143.903 143.992 143.38 144.365 142.708C144.738 142.017 144.925 141.196 144.925 140.244ZM167.346 132.488V148H163.398V146.04C162.894 146.712 162.231 147.244 161.41 147.636C160.607 148.009 159.73 148.196 158.778 148.196C157.564 148.196 156.491 147.944 155.558 147.44C154.624 146.917 153.887 146.161 153.346 145.172C152.823 144.164 152.562 142.969 152.562 141.588V132.488H156.482V141.028C156.482 142.26 156.79 143.212 157.406 143.884C158.022 144.537 158.862 144.864 159.926 144.864C161.008 144.864 161.858 144.537 162.474 143.884C163.09 143.212 163.398 142.26 163.398 141.028V132.488H167.346ZM175.133 134.896C175.637 134.075 176.291 133.431 177.093 132.964C177.915 132.497 178.848 132.264 179.893 132.264V136.38H178.857C177.625 136.38 176.692 136.669 176.057 137.248C175.441 137.827 175.133 138.835 175.133 140.272V148H171.213V132.488H175.133V134.896ZM181.526 140.188C181.526 138.62 181.834 137.229 182.45 136.016C183.084 134.803 183.934 133.869 184.998 133.216C186.08 132.563 187.284 132.236 188.61 132.236C189.767 132.236 190.775 132.469 191.634 132.936C192.511 133.403 193.211 133.991 193.734 134.7V132.488H197.682V148H193.734V145.732C193.23 146.46 192.53 147.067 191.634 147.552C190.756 148.019 189.739 148.252 188.582 148.252C187.275 148.252 186.08 147.916 184.998 147.244C183.934 146.572 183.084 145.629 182.45 144.416C181.834 143.184 181.526 141.775 181.526 140.188ZM193.734 140.244C193.734 139.292 193.547 138.48 193.174 137.808C192.8 137.117 192.296 136.595 191.662 136.24C191.027 135.867 190.346 135.68 189.618 135.68C188.89 135.68 188.218 135.857 187.602 136.212C186.986 136.567 186.482 137.089 186.09 137.78C185.716 138.452 185.53 139.255 185.53 140.188C185.53 141.121 185.716 141.943 186.09 142.652C186.482 143.343 186.986 143.875 187.602 144.248C188.236 144.621 188.908 144.808 189.618 144.808C190.346 144.808 191.027 144.631 191.662 144.276C192.296 143.903 192.8 143.38 193.174 142.708C193.547 142.017 193.734 141.196 193.734 140.244ZM206.074 135.708V143.212C206.074 143.735 206.195 144.117 206.438 144.36C206.699 144.584 207.129 144.696 207.726 144.696H209.546V148H207.082C203.778 148 202.126 146.395 202.126 143.184V135.708H200.278V132.488H202.126V128.652H206.074V132.488H209.546V135.708H206.074ZM214.354 130.64C213.663 130.64 213.084 130.425 212.618 129.996C212.17 129.548 211.946 128.997 211.946 128.344C211.946 127.691 212.17 127.149 212.618 126.72C213.084 126.272 213.663 126.048 214.354 126.048C215.044 126.048 215.614 126.272 216.062 126.72C216.528 127.149 216.762 127.691 216.762 128.344C216.762 128.997 216.528 129.548 216.062 129.996C215.614 130.425 215.044 130.64 214.354 130.64ZM216.286 132.488V148H212.366V132.488H216.286ZM227.047 148.252C225.553 148.252 224.209 147.925 223.015 147.272C221.82 146.6 220.877 145.657 220.187 144.444C219.515 143.231 219.179 141.831 219.179 140.244C219.179 138.657 219.524 137.257 220.215 136.044C220.924 134.831 221.885 133.897 223.099 133.244C224.312 132.572 225.665 132.236 227.159 132.236C228.652 132.236 230.005 132.572 231.219 133.244C232.432 133.897 233.384 134.831 234.075 136.044C234.784 137.257 235.139 138.657 235.139 140.244C235.139 141.831 234.775 143.231 234.047 144.444C233.337 145.657 232.367 146.6 231.135 147.272C229.921 147.925 228.559 148.252 227.047 148.252ZM227.047 144.836C227.756 144.836 228.419 144.668 229.035 144.332C229.669 143.977 230.173 143.455 230.547 142.764C230.92 142.073 231.107 141.233 231.107 140.244C231.107 138.769 230.715 137.64 229.931 136.856C229.165 136.053 228.223 135.652 227.103 135.652C225.983 135.652 225.04 136.053 224.275 136.856C223.528 137.64 223.155 138.769 223.155 140.244C223.155 141.719 223.519 142.857 224.247 143.66C224.993 144.444 225.927 144.836 227.047 144.836ZM246.61 132.264C248.458 132.264 249.951 132.852 251.09 134.028C252.229 135.185 252.798 136.809 252.798 138.9V148H248.878V139.432C248.878 138.2 248.57 137.257 247.954 136.604C247.338 135.932 246.498 135.596 245.434 135.596C244.351 135.596 243.493 135.932 242.858 136.604C242.242 137.257 241.934 138.2 241.934 139.432V148H238.014V132.488H241.934V134.42C242.457 133.748 243.119 133.225 243.922 132.852C244.743 132.46 245.639 132.264 246.61 132.264Z" fill="white"/>
<path d="M76.145 160.88H71.285V163.445C71.495 163.185 71.795 162.975 72.185 162.815C72.575 162.645 72.99 162.56 73.43 162.56C74.23 162.56 74.885 162.735 75.395 163.085C75.905 163.435 76.275 163.885 76.505 164.435C76.735 164.975 76.85 165.555 76.85 166.175C76.85 167.325 76.52 168.25 75.86 168.95C75.21 169.65 74.28 170 73.07 170C71.93 170 71.02 169.715 70.34 169.145C69.66 168.575 69.275 167.83 69.185 166.91H71.225C71.315 167.31 71.515 167.63 71.825 167.87C72.145 168.11 72.55 168.23 73.04 168.23C73.63 168.23 74.075 168.045 74.375 167.675C74.675 167.305 74.825 166.815 74.825 166.205C74.825 165.585 74.67 165.115 74.36 164.795C74.06 164.465 73.615 164.3 73.025 164.3C72.605 164.3 72.255 164.405 71.975 164.615C71.695 164.825 71.495 165.105 71.375 165.455H69.365V159.035H76.145V160.88ZM79.6183 170.105C79.2383 170.105 78.9233 169.99 78.6733 169.76C78.4333 169.52 78.3133 169.225 78.3133 168.875C78.3133 168.525 78.4333 168.235 78.6733 168.005C78.9233 167.765 79.2383 167.645 79.6183 167.645C79.9883 167.645 80.2933 167.765 80.5333 168.005C80.7733 168.235 80.8933 168.525 80.8933 168.875C80.8933 169.225 80.7733 169.52 80.5333 169.76C80.2933 169.99 79.9883 170.105 79.6183 170.105ZM79.6183 163.895C79.2383 163.895 78.9233 163.78 78.6733 163.55C78.4333 163.31 78.3133 163.015 78.3133 162.665C78.3133 162.315 78.4333 162.025 78.6733 161.795C78.9233 161.555 79.2383 161.435 79.6183 161.435C79.9883 161.435 80.2933 161.555 80.5333 161.795C80.7733 162.025 80.8933 162.315 80.8933 162.665C80.8933 163.015 80.7733 163.31 80.5333 163.55C80.2933 163.78 79.9883 163.895 79.6183 163.895ZM82.3888 164.39C82.3888 162.66 82.6988 161.305 83.3188 160.325C83.9488 159.345 84.9888 158.855 86.4388 158.855C87.8888 158.855 88.9238 159.345 89.5438 160.325C90.1738 161.305 90.4888 162.66 90.4888 164.39C90.4888 166.13 90.1738 167.495 89.5438 168.485C88.9238 169.475 87.8888 169.97 86.4388 169.97C84.9888 169.97 83.9488 169.475 83.3188 168.485C82.6988 167.495 82.3888 166.13 82.3888 164.39ZM88.4188 164.39C88.4188 163.65 88.3688 163.03 88.2688 162.53C88.1788 162.02 87.9888 161.605 87.6988 161.285C87.4188 160.965 86.9988 160.805 86.4388 160.805C85.8788 160.805 85.4538 160.965 85.1638 161.285C84.8838 161.605 84.6938 162.02 84.5938 162.53C84.5038 163.03 84.4588 163.65 84.4588 164.39C84.4588 165.15 84.5038 165.79 84.5938 166.31C84.6838 166.82 84.8738 167.235 85.1638 167.555C85.4538 167.865 85.8788 168.02 86.4388 168.02C86.9988 168.02 87.4238 167.865 87.7138 167.555C88.0038 167.235 88.1938 166.82 88.2838 166.31C88.3738 165.79 88.4188 165.15 88.4188 164.39ZM92.086 164.39C92.086 162.66 92.396 161.305 93.016 160.325C93.646 159.345 94.686 158.855 96.136 158.855C97.586 158.855 98.621 159.345 99.241 160.325C99.871 161.305 100.186 162.66 100.186 164.39C100.186 166.13 99.871 167.495 99.241 168.485C98.621 169.475 97.586 169.97 96.136 169.97C94.686 169.97 93.646 169.475 93.016 168.485C92.396 167.495 92.086 166.13 92.086 164.39ZM98.116 164.39C98.116 163.65 98.066 163.03 97.966 162.53C97.876 162.02 97.686 161.605 97.396 161.285C97.116 160.965 96.696 160.805 96.136 160.805C95.576 160.805 95.151 160.965 94.861 161.285C94.581 161.605 94.391 162.02 94.291 162.53C94.201 163.03 94.156 163.65 94.156 164.39C94.156 165.15 94.201 165.79 94.291 166.31C94.381 166.82 94.571 167.235 94.861 167.555C95.151 167.865 95.576 168.02 96.136 168.02C96.696 168.02 97.121 167.865 97.411 167.555C97.701 167.235 97.891 166.82 97.981 166.31C98.071 165.79 98.116 165.15 98.116 164.39ZM107.698 162.89C107.968 162.51 108.338 162.195 108.808 161.945C109.288 161.685 109.833 161.555 110.443 161.555C111.153 161.555 111.793 161.73 112.363 162.08C112.943 162.43 113.398 162.93 113.728 163.58C114.068 164.22 114.238 164.965 114.238 165.815C114.238 166.665 114.068 167.42 113.728 168.08C113.398 168.73 112.943 169.235 112.363 169.595C111.793 169.955 111.153 170.135 110.443 170.135C109.833 170.135 109.293 170.01 108.823 169.76C108.363 169.51 107.988 169.195 107.698 168.815V173.96H105.598V161.69H107.698V162.89ZM112.093 165.815C112.093 165.315 111.988 164.885 111.778 164.525C111.578 164.155 111.308 163.875 110.968 163.685C110.638 163.495 110.278 163.4 109.888 163.4C109.508 163.4 109.148 163.5 108.808 163.7C108.478 163.89 108.208 164.17 107.998 164.54C107.798 164.91 107.698 165.345 107.698 165.845C107.698 166.345 107.798 166.78 107.998 167.15C108.208 167.52 108.478 167.805 108.808 168.005C109.148 168.195 109.508 168.29 109.888 168.29C110.278 168.29 110.638 168.19 110.968 167.99C111.308 167.79 111.578 167.505 111.778 167.135C111.988 166.765 112.093 166.325 112.093 165.815ZM126.084 161.57C127.104 161.57 127.924 161.885 128.544 162.515C129.174 163.135 129.489 164.005 129.489 165.125V170H127.389V165.41C127.389 164.76 127.224 164.265 126.894 163.925C126.564 163.575 126.114 163.4 125.544 163.4C124.974 163.4 124.519 163.575 124.179 163.925C123.849 164.265 123.684 164.76 123.684 165.41V170H121.584V165.41C121.584 164.76 121.419 164.265 121.089 163.925C120.759 163.575 120.309 163.4 119.739 163.4C119.159 163.4 118.699 163.575 118.359 163.925C118.029 164.265 117.864 164.76 117.864 165.41V170H115.764V161.69H117.864V162.695C118.134 162.345 118.479 162.07 118.899 161.87C119.329 161.67 119.799 161.57 120.309 161.57C120.959 161.57 121.539 161.71 122.049 161.99C122.559 162.26 122.954 162.65 123.234 163.16C123.504 162.68 123.894 162.295 124.404 162.005C124.924 161.715 125.484 161.57 126.084 161.57ZM141.446 163.76V165.53H135.086V163.76H141.446ZM152.805 161.795C152.705 161.375 152.53 161.06 152.28 160.85C152.04 160.64 151.69 160.535 151.23 160.535C150.54 160.535 150.03 160.815 149.7 161.375C149.38 161.925 149.215 162.825 149.205 164.075C149.445 163.675 149.795 163.365 150.255 163.145C150.715 162.915 151.215 162.8 151.755 162.8C152.405 162.8 152.98 162.94 153.48 163.22C153.98 163.5 154.37 163.91 154.65 164.45C154.93 164.98 155.07 165.62 155.07 166.37C155.07 167.08 154.925 167.715 154.635 168.275C154.355 168.825 153.94 169.255 153.39 169.565C152.84 169.875 152.185 170.03 151.425 170.03C150.385 170.03 149.565 169.8 148.965 169.34C148.375 168.88 147.96 168.24 147.72 167.42C147.49 166.59 147.375 165.57 147.375 164.36C147.375 162.53 147.69 161.15 148.32 160.22C148.95 159.28 149.945 158.81 151.305 158.81C152.355 158.81 153.17 159.095 153.75 159.665C154.33 160.235 154.665 160.945 154.755 161.795H152.805ZM151.275 164.525C150.745 164.525 150.3 164.68 149.94 164.99C149.58 165.3 149.4 165.75 149.4 166.34C149.4 166.93 149.565 167.395 149.895 167.735C150.235 168.075 150.71 168.245 151.32 168.245C151.86 168.245 152.285 168.08 152.595 167.75C152.915 167.42 153.075 166.975 153.075 166.415C153.075 165.835 152.92 165.375 152.61 165.035C152.31 164.695 151.865 164.525 151.275 164.525ZM157.9 170.105C157.52 170.105 157.205 169.99 156.955 169.76C156.715 169.52 156.595 169.225 156.595 168.875C156.595 168.525 156.715 168.235 156.955 168.005C157.205 167.765 157.52 167.645 157.9 167.645C158.27 167.645 158.575 167.765 158.815 168.005C159.055 168.235 159.175 168.525 159.175 168.875C159.175 169.225 159.055 169.52 158.815 169.76C158.575 169.99 158.27 170.105 157.9 170.105ZM157.9 163.895C157.52 163.895 157.205 163.78 156.955 163.55C156.715 163.31 156.595 163.015 156.595 162.665C156.595 162.315 156.715 162.025 156.955 161.795C157.205 161.555 157.52 161.435 157.9 161.435C158.27 161.435 158.575 161.555 158.815 161.795C159.055 162.025 159.175 162.315 159.175 162.665C159.175 163.015 159.055 163.31 158.815 163.55C158.575 163.78 158.27 163.895 157.9 163.895ZM160.7 161.945C160.75 160.945 161.1 160.175 161.75 159.635C162.41 159.085 163.275 158.81 164.345 158.81C165.075 158.81 165.7 158.94 166.22 159.2C166.74 159.45 167.13 159.795 167.39 160.235C167.66 160.665 167.795 161.155 167.795 161.705C167.795 162.335 167.63 162.87 167.3 163.31C166.98 163.74 166.595 164.03 166.145 164.18V164.24C166.725 164.42 167.175 164.74 167.495 165.2C167.825 165.66 167.99 166.25 167.99 166.97C167.99 167.57 167.85 168.105 167.57 168.575C167.3 169.045 166.895 169.415 166.355 169.685C165.825 169.945 165.185 170.075 164.435 170.075C163.305 170.075 162.385 169.79 161.675 169.22C160.965 168.65 160.59 167.81 160.55 166.7H162.59C162.61 167.19 162.775 167.585 163.085 167.885C163.405 168.175 163.84 168.32 164.39 168.32C164.9 168.32 165.29 168.18 165.56 167.9C165.84 167.61 165.98 167.24 165.98 166.79C165.98 166.19 165.79 165.76 165.41 165.5C165.03 165.24 164.44 165.11 163.64 165.11H163.205V163.385H163.64C165.06 163.385 165.77 162.91 165.77 161.96C165.77 161.53 165.64 161.195 165.38 160.955C165.13 160.715 164.765 160.595 164.285 160.595C163.815 160.595 163.45 160.725 163.19 160.985C162.94 161.235 162.795 161.555 162.755 161.945H160.7ZM169.649 164.39C169.649 162.66 169.959 161.305 170.579 160.325C171.209 159.345 172.249 158.855 173.699 158.855C175.149 158.855 176.184 159.345 176.804 160.325C177.434 161.305 177.749 162.66 177.749 164.39C177.749 166.13 177.434 167.495 176.804 168.485C176.184 169.475 175.149 169.97 173.699 169.97C172.249 169.97 171.209 169.475 170.579 168.485C169.959 167.495 169.649 166.13 169.649 164.39ZM175.679 164.39C175.679 163.65 175.629 163.03 175.529 162.53C175.439 162.02 175.249 161.605 174.959 161.285C174.679 160.965 174.259 160.805 173.699 160.805C173.139 160.805 172.714 160.965 172.424 161.285C172.144 161.605 171.954 162.02 171.854 162.53C171.764 163.03 171.719 163.65 171.719 164.39C171.719 165.15 171.764 165.79 171.854 166.31C171.944 166.82 172.134 167.235 172.424 167.555C172.714 167.865 173.139 168.02 173.699 168.02C174.259 168.02 174.684 167.865 174.974 167.555C175.264 167.235 175.454 166.82 175.544 166.31C175.634 165.79 175.679 165.15 175.679 164.39ZM185.261 162.89C185.531 162.51 185.901 162.195 186.371 161.945C186.851 161.685 187.396 161.555 188.006 161.555C188.716 161.555 189.356 161.73 189.926 162.08C190.506 162.43 190.961 162.93 191.291 163.58C191.631 164.22 191.801 164.965 191.801 165.815C191.801 166.665 191.631 167.42 191.291 168.08C190.961 168.73 190.506 169.235 189.926 169.595C189.356 169.955 188.716 170.135 188.006 170.135C187.396 170.135 186.856 170.01 186.386 169.76C185.926 169.51 185.551 169.195 185.261 168.815V173.96H183.161V161.69H185.261V162.89ZM189.656 165.815C189.656 165.315 189.551 164.885 189.341 164.525C189.141 164.155 188.871 163.875 188.531 163.685C188.201 163.495 187.841 163.4 187.451 163.4C187.071 163.4 186.711 163.5 186.371 163.7C186.041 163.89 185.771 164.17 185.561 164.54C185.361 164.91 185.261 165.345 185.261 165.845C185.261 166.345 185.361 166.78 185.561 167.15C185.771 167.52 186.041 167.805 186.371 168.005C186.711 168.195 187.071 168.29 187.451 168.29C187.841 168.29 188.201 168.19 188.531 167.99C188.871 167.79 189.141 167.505 189.341 167.135C189.551 166.765 189.656 166.325 189.656 165.815ZM203.647 161.57C204.667 161.57 205.487 161.885 206.107 162.515C206.737 163.135 207.052 164.005 207.052 165.125V170H204.952V165.41C204.952 164.76 204.787 164.265 204.457 163.925C204.127 163.575 203.677 163.4 203.107 163.4C202.537 163.4 202.082 163.575 201.742 163.925C201.412 164.265 201.247 164.76 201.247 165.41V170H199.147V165.41C199.147 164.76 198.982 164.265 198.652 163.925C198.322 163.575 197.872 163.4 197.302 163.4C196.722 163.4 196.262 163.575 195.922 163.925C195.592 164.265 195.427 164.76 195.427 165.41V170H193.327V161.69H195.427V162.695C195.697 162.345 196.042 162.07 196.462 161.87C196.892 161.67 197.362 161.57 197.872 161.57C198.522 161.57 199.102 161.71 199.612 161.99C200.122 162.26 200.517 162.65 200.797 163.16C201.067 162.68 201.457 162.295 201.967 162.005C202.487 161.715 203.047 161.57 203.647 161.57Z" fill="white"/>
<path d="M83.232 231.456V234.62H78.024V251H74.104V234.62H68.896V231.456H83.232ZM90.0122 237.896C90.5162 237.075 91.1695 236.431 91.9722 235.964C92.7935 235.497 93.7268 235.264 94.7722 235.264V239.38H93.7362C92.5042 239.38 91.5708 239.669 90.9362 240.248C90.3202 240.827 90.0122 241.835 90.0122 243.272V251H86.0922V235.488H90.0122V237.896ZM111.832 242.908C111.832 243.468 111.795 243.972 111.72 244.42H100.38C100.474 245.54 100.866 246.417 101.556 247.052C102.247 247.687 103.096 248.004 104.104 248.004C105.56 248.004 106.596 247.379 107.212 246.128H111.44C110.992 247.621 110.134 248.853 108.864 249.824C107.595 250.776 106.036 251.252 104.188 251.252C102.695 251.252 101.351 250.925 100.156 250.272C98.9805 249.6 98.0565 248.657 97.3845 247.444C96.7311 246.231 96.4045 244.831 96.4045 243.244C96.4045 241.639 96.7311 240.229 97.3845 239.016C98.0378 237.803 98.9525 236.869 100.128 236.216C101.304 235.563 102.658 235.236 104.188 235.236C105.663 235.236 106.979 235.553 108.136 236.188C109.312 236.823 110.218 237.728 110.852 238.904C111.506 240.061 111.832 241.396 111.832 242.908ZM107.772 241.788C107.754 240.78 107.39 239.977 106.68 239.38C105.971 238.764 105.103 238.456 104.076 238.456C103.106 238.456 102.284 238.755 101.612 239.352C100.959 239.931 100.558 240.743 100.408 241.788H107.772ZM113.686 243.188C113.686 241.62 113.994 240.229 114.61 239.016C115.244 237.803 116.094 236.869 117.158 236.216C118.24 235.563 119.444 235.236 120.77 235.236C121.927 235.236 122.935 235.469 123.794 235.936C124.671 236.403 125.371 236.991 125.894 237.7V235.488H129.842V251H125.894V248.732C125.39 249.46 124.69 250.067 123.794 250.552C122.916 251.019 121.899 251.252 120.742 251.252C119.435 251.252 118.24 250.916 117.158 250.244C116.094 249.572 115.244 248.629 114.61 247.416C113.994 246.184 113.686 244.775 113.686 243.188ZM125.894 243.244C125.894 242.292 125.707 241.48 125.334 240.808C124.96 240.117 124.456 239.595 123.822 239.24C123.187 238.867 122.506 238.68 121.778 238.68C121.05 238.68 120.378 238.857 119.762 239.212C119.146 239.567 118.642 240.089 118.25 240.78C117.876 241.452 117.69 242.255 117.69 243.188C117.69 244.121 117.876 244.943 118.25 245.652C118.642 246.343 119.146 246.875 119.762 247.248C120.396 247.621 121.068 247.808 121.778 247.808C122.506 247.808 123.187 247.631 123.822 247.276C124.456 246.903 124.96 246.38 125.334 245.708C125.707 245.017 125.894 244.196 125.894 243.244ZM139.606 251.252C138.337 251.252 137.198 251.028 136.19 250.58C135.182 250.113 134.38 249.488 133.782 248.704C133.204 247.92 132.886 247.052 132.83 246.1H136.778C136.853 246.697 137.142 247.192 137.646 247.584C138.169 247.976 138.813 248.172 139.578 248.172C140.325 248.172 140.904 248.023 141.314 247.724C141.744 247.425 141.958 247.043 141.958 246.576C141.958 246.072 141.697 245.699 141.174 245.456C140.67 245.195 139.858 244.915 138.738 244.616C137.581 244.336 136.629 244.047 135.882 243.748C135.154 243.449 134.52 242.992 133.978 242.376C133.456 241.76 133.194 240.929 133.194 239.884C133.194 239.025 133.437 238.241 133.922 237.532C134.426 236.823 135.136 236.263 136.05 235.852C136.984 235.441 138.076 235.236 139.326 235.236C141.174 235.236 142.649 235.703 143.75 236.636C144.852 237.551 145.458 238.792 145.57 240.36H141.818C141.762 239.744 141.501 239.259 141.034 238.904C140.586 238.531 139.98 238.344 139.214 238.344C138.505 238.344 137.954 238.475 137.562 238.736C137.189 238.997 137.002 239.361 137.002 239.828C137.002 240.351 137.264 240.752 137.786 241.032C138.309 241.293 139.121 241.564 140.222 241.844C141.342 242.124 142.266 242.413 142.994 242.712C143.722 243.011 144.348 243.477 144.87 244.112C145.412 244.728 145.692 245.549 145.71 246.576C145.71 247.472 145.458 248.275 144.954 248.984C144.469 249.693 143.76 250.253 142.826 250.664C141.912 251.056 140.838 251.252 139.606 251.252ZM163.572 235.488V251H159.624V249.04C159.12 249.712 158.457 250.244 157.636 250.636C156.833 251.009 155.956 251.196 155.004 251.196C153.791 251.196 152.717 250.944 151.784 250.44C150.851 249.917 150.113 249.161 149.572 248.172C149.049 247.164 148.788 245.969 148.788 244.588V235.488H152.708V244.028C152.708 245.26 153.016 246.212 153.632 246.884C154.248 247.537 155.088 247.864 156.152 247.864C157.235 247.864 158.084 247.537 158.7 246.884C159.316 246.212 159.624 245.26 159.624 244.028V235.488H163.572ZM171.36 237.896C171.864 237.075 172.517 236.431 173.32 235.964C174.141 235.497 175.074 235.264 176.12 235.264V239.38H175.084C173.852 239.38 172.918 239.669 172.284 240.248C171.668 240.827 171.36 241.835 171.36 243.272V251H167.44V235.488H171.36V237.896ZM193.18 242.908C193.18 243.468 193.143 243.972 193.068 244.42H181.728C181.821 245.54 182.213 246.417 182.904 247.052C183.595 247.687 184.444 248.004 185.452 248.004C186.908 248.004 187.944 247.379 188.56 246.128H192.788C192.34 247.621 191.481 248.853 190.212 249.824C188.943 250.776 187.384 251.252 185.536 251.252C184.043 251.252 182.699 250.925 181.504 250.272C180.328 249.6 179.404 248.657 178.732 247.444C178.079 246.231 177.752 244.831 177.752 243.244C177.752 241.639 178.079 240.229 178.732 239.016C179.385 237.803 180.3 236.869 181.476 236.216C182.652 235.563 184.005 235.236 185.536 235.236C187.011 235.236 188.327 235.553 189.484 236.188C190.66 236.823 191.565 237.728 192.2 238.904C192.853 240.061 193.18 241.396 193.18 242.908ZM189.12 241.788C189.101 240.78 188.737 239.977 188.028 239.38C187.319 238.764 186.451 238.456 185.424 238.456C184.453 238.456 183.632 238.755 182.96 239.352C182.307 239.931 181.905 240.743 181.756 241.788H189.12ZM211.449 235.264C212.625 235.264 213.671 235.525 214.585 236.048C215.5 236.552 216.209 237.308 216.713 238.316C217.236 239.305 217.497 240.5 217.497 241.9V251H213.577V242.432C213.577 241.2 213.269 240.257 212.653 239.604C212.037 238.932 211.197 238.596 210.133 238.596C209.051 238.596 208.192 238.932 207.557 239.604C206.941 240.257 206.633 241.2 206.633 242.432V251H202.713V230.28H206.633V237.42C207.137 236.748 207.809 236.225 208.649 235.852C209.489 235.46 210.423 235.264 211.449 235.264ZM235.869 235.488V251H231.921V249.04C231.417 249.712 230.754 250.244 229.933 250.636C229.13 251.009 228.253 251.196 227.301 251.196C226.088 251.196 225.014 250.944 224.081 250.44C223.148 249.917 222.41 249.161 221.869 248.172C221.346 247.164 221.085 245.969 221.085 244.588V235.488H225.005V244.028C225.005 245.26 225.313 246.212 225.929 246.884C226.545 247.537 227.385 247.864 228.449 247.864C229.532 247.864 230.381 247.537 230.997 246.884C231.613 246.212 231.921 245.26 231.921 244.028V235.488H235.869ZM248.333 235.264C250.181 235.264 251.674 235.852 252.813 237.028C253.951 238.185 254.521 239.809 254.521 241.9V251H250.601V242.432C250.601 241.2 250.293 240.257 249.677 239.604C249.061 238.932 248.221 238.596 247.157 238.596C246.074 238.596 245.215 238.932 244.581 239.604C243.965 240.257 243.657 241.2 243.657 242.432V251H239.737V235.488H243.657V237.42C244.179 236.748 244.842 236.225 245.645 235.852C246.466 235.46 247.362 235.264 248.333 235.264ZM262.812 238.708V246.212C262.812 246.735 262.934 247.117 263.176 247.36C263.438 247.584 263.867 247.696 264.464 247.696H266.284V251H263.82C260.516 251 258.864 249.395 258.864 246.184V238.708H257.016V235.488H258.864V231.652H262.812V235.488H266.284V238.708H262.812Z" fill="white"/>
<path d="M71.717 213.926V223H69.897V213.926H71.717ZM73.0472 219.399C73.0472 218.654 73.1988 218.004 73.5022 217.449C73.8055 216.886 74.2258 216.452 74.7632 216.149C75.3005 215.837 75.9158 215.681 76.6092 215.681C77.5018 215.681 78.2385 215.906 78.8192 216.357C79.4085 216.799 79.8028 217.423 80.0022 218.229H78.0392C77.9352 217.917 77.7575 217.674 77.5062 217.501C77.2635 217.319 76.9602 217.228 76.5962 217.228C76.0762 217.228 75.6645 217.419 75.3612 217.8C75.0578 218.173 74.9062 218.706 74.9062 219.399C74.9062 220.084 75.0578 220.617 75.3612 220.998C75.6645 221.371 76.0762 221.557 76.5962 221.557C77.3328 221.557 77.8138 221.228 78.0392 220.569H80.0022C79.8028 221.349 79.4085 221.969 78.8192 222.428C78.2298 222.887 77.4932 223.117 76.6092 223.117C75.9158 223.117 75.3005 222.965 74.7632 222.662C74.2258 222.35 73.8055 221.917 73.5022 221.362C73.1988 220.799 73.0472 220.144 73.0472 219.399ZM88.0305 219.243C88.0305 219.503 88.0131 219.737 87.9785 219.945H82.7135C82.7568 220.465 82.9388 220.872 83.2595 221.167C83.5801 221.462 83.9745 221.609 84.4425 221.609C85.1185 221.609 85.5995 221.319 85.8855 220.738H87.8485C87.6405 221.431 87.2418 222.003 86.6525 222.454C86.0631 222.896 85.3395 223.117 84.4815 223.117C83.7881 223.117 83.1641 222.965 82.6095 222.662C82.0635 222.35 81.6345 221.912 81.3225 221.349C81.0191 220.786 80.8675 220.136 80.8675 219.399C80.8675 218.654 81.0191 217.999 81.3225 217.436C81.6258 216.873 82.0505 216.439 82.5965 216.136C83.1425 215.833 83.7708 215.681 84.4815 215.681C85.1661 215.681 85.7771 215.828 86.3145 216.123C86.8605 216.418 87.2808 216.838 87.5755 217.384C87.8788 217.921 88.0305 218.541 88.0305 219.243ZM86.1455 218.723C86.1368 218.255 85.9678 217.882 85.6385 217.605C85.3091 217.319 84.9061 217.176 84.4295 217.176C83.9788 217.176 83.5975 217.315 83.2855 217.592C82.9821 217.861 82.7958 218.238 82.7265 218.723H86.1455ZM94.2766 216.851C94.5106 216.504 94.8312 216.223 95.2386 216.006C95.6546 215.789 96.1269 215.681 96.6556 215.681C97.2709 215.681 97.8256 215.833 98.3196 216.136C98.8222 216.439 99.2166 216.873 99.5026 217.436C99.7972 217.991 99.9446 218.636 99.9446 219.373C99.9446 220.11 99.7972 220.764 99.5026 221.336C99.2166 221.899 98.8222 222.337 98.3196 222.649C97.8256 222.961 97.2709 223.117 96.6556 223.117C96.1182 223.117 95.6459 223.013 95.2386 222.805C94.8399 222.588 94.5192 222.311 94.2766 221.973V223H92.4566V213.38H94.2766V216.851ZM98.0856 219.373C98.0856 218.94 97.9946 218.567 97.8126 218.255C97.6392 217.934 97.4052 217.692 97.1106 217.527C96.8246 217.362 96.5126 217.28 96.1746 217.28C95.8452 217.28 95.5332 217.367 95.2386 217.54C94.9526 217.705 94.7186 217.947 94.5366 218.268C94.3632 218.589 94.2766 218.966 94.2766 219.399C94.2766 219.832 94.3632 220.209 94.5366 220.53C94.7186 220.851 94.9526 221.098 95.2386 221.271C95.5332 221.436 95.8452 221.518 96.1746 221.518C96.5126 221.518 96.8246 221.431 97.1106 221.258C97.4052 221.085 97.6392 220.838 97.8126 220.517C97.9946 220.196 98.0856 219.815 98.0856 219.373ZM103.087 216.916C103.321 216.535 103.624 216.236 103.997 216.019C104.378 215.802 104.812 215.694 105.297 215.694V217.605H104.816C104.244 217.605 103.811 217.739 103.516 218.008C103.23 218.277 103.087 218.745 103.087 219.412V223H101.267V215.798H103.087V216.916ZM113.218 219.243C113.218 219.503 113.201 219.737 113.166 219.945H107.901C107.944 220.465 108.126 220.872 108.447 221.167C108.768 221.462 109.162 221.609 109.63 221.609C110.306 221.609 110.787 221.319 111.073 220.738H113.036C112.828 221.431 112.429 222.003 111.84 222.454C111.251 222.896 110.527 223.117 109.669 223.117C108.976 223.117 108.352 222.965 107.797 222.662C107.251 222.35 106.822 221.912 106.51 221.349C106.207 220.786 106.055 220.136 106.055 219.399C106.055 218.654 106.207 217.999 106.51 217.436C106.813 216.873 107.238 216.439 107.784 216.136C108.33 215.833 108.958 215.681 109.669 215.681C110.354 215.681 110.965 215.828 111.502 216.123C112.048 216.418 112.468 216.838 112.763 217.384C113.066 217.921 113.218 218.541 113.218 219.243ZM111.333 218.723C111.324 218.255 111.155 217.882 110.826 217.605C110.497 217.319 110.094 217.176 109.617 217.176C109.166 217.176 108.785 217.315 108.473 217.592C108.17 217.861 107.983 218.238 107.914 218.723H111.333ZM114.078 219.373C114.078 218.645 114.221 217.999 114.507 217.436C114.802 216.873 115.196 216.439 115.69 216.136C116.193 215.833 116.752 215.681 117.367 215.681C117.905 215.681 118.373 215.789 118.771 216.006C119.179 216.223 119.504 216.496 119.746 216.825V215.798H121.579V223H119.746V221.947C119.512 222.285 119.187 222.567 118.771 222.792C118.364 223.009 117.892 223.117 117.354 223.117C116.748 223.117 116.193 222.961 115.69 222.649C115.196 222.337 114.802 221.899 114.507 221.336C114.221 220.764 114.078 220.11 114.078 219.373ZM119.746 219.399C119.746 218.957 119.66 218.58 119.486 218.268C119.313 217.947 119.079 217.705 118.784 217.54C118.49 217.367 118.173 217.28 117.835 217.28C117.497 217.28 117.185 217.362 116.899 217.527C116.613 217.692 116.379 217.934 116.197 218.255C116.024 218.567 115.937 218.94 115.937 219.373C115.937 219.806 116.024 220.188 116.197 220.517C116.379 220.838 116.613 221.085 116.899 221.258C117.194 221.431 117.506 221.518 117.835 221.518C118.173 221.518 118.49 221.436 118.784 221.271C119.079 221.098 119.313 220.855 119.486 220.543C119.66 220.222 119.746 219.841 119.746 219.399ZM127.621 223L125.177 219.932V223H123.357V213.38H125.177V218.853L127.595 215.798H129.961L126.789 219.412L129.987 223H127.621ZM131.872 214.94C131.551 214.94 131.282 214.84 131.066 214.641C130.858 214.433 130.754 214.177 130.754 213.874C130.754 213.571 130.858 213.319 131.066 213.12C131.282 212.912 131.551 212.808 131.872 212.808C132.192 212.808 132.457 212.912 132.665 213.12C132.881 213.319 132.99 213.571 132.99 213.874C132.99 214.177 132.881 214.433 132.665 214.641C132.457 214.84 132.192 214.94 131.872 214.94ZM132.769 215.798V223H130.949V215.798H132.769ZM138.558 215.694C139.416 215.694 140.109 215.967 140.638 216.513C141.167 217.05 141.431 217.804 141.431 218.775V223H139.611V219.022C139.611 218.45 139.468 218.012 139.182 217.709C138.896 217.397 138.506 217.241 138.012 217.241C137.509 217.241 137.111 217.397 136.816 217.709C136.53 218.012 136.387 218.45 136.387 219.022V223H134.567V215.798H136.387V216.695C136.63 216.383 136.937 216.14 137.31 215.967C137.691 215.785 138.107 215.694 138.558 215.694ZM145.983 215.681C146.52 215.681 146.992 215.789 147.4 216.006C147.807 216.214 148.128 216.487 148.362 216.825V215.798H150.195V223.052C150.195 223.719 150.06 224.313 149.792 224.833C149.523 225.362 149.12 225.778 148.583 226.081C148.045 226.393 147.395 226.549 146.633 226.549C145.61 226.549 144.769 226.311 144.111 225.834C143.461 225.357 143.092 224.707 143.006 223.884H144.813C144.908 224.213 145.112 224.473 145.424 224.664C145.744 224.863 146.13 224.963 146.581 224.963C147.109 224.963 147.538 224.803 147.868 224.482C148.197 224.17 148.362 223.693 148.362 223.052V221.934C148.128 222.272 147.803 222.554 147.387 222.779C146.979 223.004 146.511 223.117 145.983 223.117C145.376 223.117 144.821 222.961 144.319 222.649C143.816 222.337 143.417 221.899 143.123 221.336C142.837 220.764 142.694 220.11 142.694 219.373C142.694 218.645 142.837 217.999 143.123 217.436C143.417 216.873 143.812 216.439 144.306 216.136C144.808 215.833 145.367 215.681 145.983 215.681ZM148.362 219.399C148.362 218.957 148.275 218.58 148.102 218.268C147.928 217.947 147.694 217.705 147.4 217.54C147.105 217.367 146.789 217.28 146.451 217.28C146.113 217.28 145.801 217.362 145.515 217.527C145.229 217.692 144.995 217.934 144.813 218.255C144.639 218.567 144.553 218.94 144.553 219.373C144.553 219.806 144.639 220.188 144.813 220.517C144.995 220.838 145.229 221.085 145.515 221.258C145.809 221.431 146.121 221.518 146.451 221.518C146.789 221.518 147.105 221.436 147.4 221.271C147.694 221.098 147.928 220.855 148.102 220.543C148.275 220.222 148.362 219.841 148.362 219.399Z" fill="white"/>
<path d="M75.755 263.655L71.765 273H69.635L73.655 263.895H68.525V262.095H75.755V263.655ZM78.1828 273.105C77.8028 273.105 77.4878 272.99 77.2378 272.76C76.9978 272.52 76.8778 272.225 76.8778 271.875C76.8778 271.525 76.9978 271.235 77.2378 271.005C77.4878 270.765 77.8028 270.645 78.1828 270.645C78.5528 270.645 78.8578 270.765 79.0978 271.005C79.3378 271.235 79.4578 271.525 79.4578 271.875C79.4578 272.225 79.3378 272.52 79.0978 272.76C78.8578 272.99 78.5528 273.105 78.1828 273.105ZM78.1828 266.895C77.8028 266.895 77.4878 266.78 77.2378 266.55C76.9978 266.31 76.8778 266.015 76.8778 265.665C76.8778 265.315 76.9978 265.025 77.2378 264.795C77.4878 264.555 77.8028 264.435 78.1828 264.435C78.5528 264.435 78.8578 264.555 79.0978 264.795C79.3378 265.025 79.4578 265.315 79.4578 265.665C79.4578 266.015 79.3378 266.31 79.0978 266.55C78.8578 266.78 78.5528 266.895 78.1828 266.895ZM80.9532 267.39C80.9532 265.66 81.2632 264.305 81.8832 263.325C82.5132 262.345 83.5532 261.855 85.0032 261.855C86.4532 261.855 87.4882 262.345 88.1082 263.325C88.7382 264.305 89.0532 265.66 89.0532 267.39C89.0532 269.13 88.7382 270.495 88.1082 271.485C87.4882 272.475 86.4532 272.97 85.0032 272.97C83.5532 272.97 82.5132 272.475 81.8832 271.485C81.2632 270.495 80.9532 269.13 80.9532 267.39ZM86.9832 267.39C86.9832 266.65 86.9332 266.03 86.8332 265.53C86.7432 265.02 86.5532 264.605 86.2632 264.285C85.9832 263.965 85.5632 263.805 85.0032 263.805C84.4432 263.805 84.0182 263.965 83.7282 264.285C83.4482 264.605 83.2582 265.02 83.1582 265.53C83.0682 266.03 83.0232 266.65 83.0232 267.39C83.0232 268.15 83.0682 268.79 83.1582 269.31C83.2482 269.82 83.4382 270.235 83.7282 270.555C84.0182 270.865 84.4432 271.02 85.0032 271.02C85.5632 271.02 85.9882 270.865 86.2782 270.555C86.5682 270.235 86.7582 269.82 86.8482 269.31C86.9382 268.79 86.9832 268.15 86.9832 267.39ZM90.6505 267.39C90.6505 265.66 90.9605 264.305 91.5805 263.325C92.2105 262.345 93.2505 261.855 94.7005 261.855C96.1505 261.855 97.1855 262.345 97.8055 263.325C98.4355 264.305 98.7505 265.66 98.7505 267.39C98.7505 269.13 98.4355 270.495 97.8055 271.485C97.1855 272.475 96.1505 272.97 94.7005 272.97C93.2505 272.97 92.2105 272.475 91.5805 271.485C90.9605 270.495 90.6505 269.13 90.6505 267.39ZM96.6805 267.39C96.6805 266.65 96.6305 266.03 96.5305 265.53C96.4405 265.02 96.2505 264.605 95.9605 264.285C95.6805 263.965 95.2605 263.805 94.7005 263.805C94.1405 263.805 93.7155 263.965 93.4255 264.285C93.1455 264.605 92.9555 265.02 92.8555 265.53C92.7655 266.03 92.7205 266.65 92.7205 267.39C92.7205 268.15 92.7655 268.79 92.8555 269.31C92.9455 269.82 93.1355 270.235 93.4255 270.555C93.7155 270.865 94.1405 271.02 94.7005 271.02C95.2605 271.02 95.6855 270.865 95.9755 270.555C96.2655 270.235 96.4555 269.82 96.5455 269.31C96.6355 268.79 96.6805 268.15 96.6805 267.39ZM106.262 265.89C106.532 265.51 106.902 265.195 107.372 264.945C107.852 264.685 108.397 264.555 109.007 264.555C109.717 264.555 110.357 264.73 110.927 265.08C111.507 265.43 111.962 265.93 112.292 266.58C112.632 267.22 112.802 267.965 112.802 268.815C112.802 269.665 112.632 270.42 112.292 271.08C111.962 271.73 111.507 272.235 110.927 272.595C110.357 272.955 109.717 273.135 109.007 273.135C108.397 273.135 107.857 273.01 107.387 272.76C106.927 272.51 106.552 272.195 106.262 271.815V276.96H104.162V264.69H106.262V265.89ZM110.657 268.815C110.657 268.315 110.552 267.885 110.342 267.525C110.142 267.155 109.872 266.875 109.532 266.685C109.202 266.495 108.842 266.4 108.452 266.4C108.072 266.4 107.712 266.5 107.372 266.7C107.042 266.89 106.772 267.17 106.562 267.54C106.362 267.91 106.262 268.345 106.262 268.845C106.262 269.345 106.362 269.78 106.562 270.15C106.772 270.52 107.042 270.805 107.372 271.005C107.712 271.195 108.072 271.29 108.452 271.29C108.842 271.29 109.202 271.19 109.532 270.99C109.872 270.79 110.142 270.505 110.342 270.135C110.552 269.765 110.657 269.325 110.657 268.815ZM124.648 264.57C125.668 264.57 126.488 264.885 127.108 265.515C127.738 266.135 128.053 267.005 128.053 268.125V273H125.953V268.41C125.953 267.76 125.788 267.265 125.458 266.925C125.128 266.575 124.678 266.4 124.108 266.4C123.538 266.4 123.083 266.575 122.743 266.925C122.413 267.265 122.248 267.76 122.248 268.41V273H120.148V268.41C120.148 267.76 119.983 267.265 119.653 266.925C119.323 266.575 118.873 266.4 118.303 266.4C117.723 266.4 117.263 266.575 116.923 266.925C116.593 267.265 116.428 267.76 116.428 268.41V273H114.328V264.69H116.428V265.695C116.698 265.345 117.043 265.07 117.463 264.87C117.893 264.67 118.363 264.57 118.873 264.57C119.523 264.57 120.103 264.71 120.613 264.99C121.123 265.26 121.518 265.65 121.798 266.16C122.068 265.68 122.458 265.295 122.968 265.005C123.488 264.715 124.048 264.57 124.648 264.57ZM140.01 266.76V268.53H133.65V266.76H140.01ZM147.529 267.21C146.529 266.69 146.029 265.885 146.029 264.795C146.029 264.255 146.164 263.765 146.434 263.325C146.714 262.875 147.129 262.52 147.679 262.26C148.239 261.99 148.919 261.855 149.719 261.855C150.519 261.855 151.194 261.99 151.744 262.26C152.304 262.52 152.719 262.875 152.989 263.325C153.269 263.765 153.409 264.255 153.409 264.795C153.409 265.345 153.274 265.83 153.004 266.25C152.734 266.66 152.374 266.98 151.924 267.21C152.474 267.45 152.904 267.8 153.214 268.26C153.524 268.72 153.679 269.265 153.679 269.895C153.679 270.575 153.504 271.17 153.154 271.68C152.814 272.18 152.344 272.565 151.744 272.835C151.144 273.105 150.469 273.24 149.719 273.24C148.969 273.24 148.294 273.105 147.694 272.835C147.104 272.565 146.634 272.18 146.284 271.68C145.944 271.17 145.774 270.575 145.774 269.895C145.774 269.265 145.929 268.72 146.239 268.26C146.549 267.79 146.979 267.44 147.529 267.21ZM151.369 265.095C151.369 264.605 151.219 264.225 150.919 263.955C150.629 263.685 150.229 263.55 149.719 263.55C149.219 263.55 148.819 263.685 148.519 263.955C148.229 264.225 148.084 264.61 148.084 265.11C148.084 265.56 148.234 265.92 148.534 266.19C148.844 266.46 149.239 266.595 149.719 266.595C150.199 266.595 150.594 266.46 150.904 266.19C151.214 265.91 151.369 265.545 151.369 265.095ZM149.719 268.125C149.149 268.125 148.684 268.27 148.324 268.56C147.974 268.85 147.799 269.265 147.799 269.805C147.799 270.305 147.969 270.715 148.309 271.035C148.659 271.345 149.129 271.5 149.719 271.5C150.309 271.5 150.774 271.34 151.114 271.02C151.454 270.7 151.624 270.295 151.624 269.805C151.624 269.275 151.449 268.865 151.099 268.575C150.749 268.275 150.289 268.125 149.719 268.125ZM156.508 273.105C156.128 273.105 155.813 272.99 155.563 272.76C155.323 272.52 155.203 272.225 155.203 271.875C155.203 271.525 155.323 271.235 155.563 271.005C155.813 270.765 156.128 270.645 156.508 270.645C156.878 270.645 157.183 270.765 157.423 271.005C157.663 271.235 157.783 271.525 157.783 271.875C157.783 272.225 157.663 272.52 157.423 272.76C157.183 272.99 156.878 273.105 156.508 273.105ZM156.508 266.895C156.128 266.895 155.813 266.78 155.563 266.55C155.323 266.31 155.203 266.015 155.203 265.665C155.203 265.315 155.323 265.025 155.563 264.795C155.813 264.555 156.128 264.435 156.508 264.435C156.878 264.435 157.183 264.555 157.423 264.795C157.663 265.025 157.783 265.315 157.783 265.665C157.783 266.015 157.663 266.31 157.423 266.55C157.183 266.78 156.878 266.895 156.508 266.895ZM159.308 264.945C159.358 263.945 159.708 263.175 160.358 262.635C161.018 262.085 161.883 261.81 162.953 261.81C163.683 261.81 164.308 261.94 164.828 262.2C165.348 262.45 165.738 262.795 165.998 263.235C166.268 263.665 166.403 264.155 166.403 264.705C166.403 265.335 166.238 265.87 165.908 266.31C165.588 266.74 165.203 267.03 164.753 267.18V267.24C165.333 267.42 165.783 267.74 166.103 268.2C166.433 268.66 166.598 269.25 166.598 269.97C166.598 270.57 166.458 271.105 166.178 271.575C165.908 272.045 165.503 272.415 164.963 272.685C164.433 272.945 163.793 273.075 163.043 273.075C161.913 273.075 160.993 272.79 160.283 272.22C159.573 271.65 159.198 270.81 159.158 269.7H161.198C161.218 270.19 161.383 270.585 161.693 270.885C162.013 271.175 162.448 271.32 162.998 271.32C163.508 271.32 163.898 271.18 164.168 270.9C164.448 270.61 164.588 270.24 164.588 269.79C164.588 269.19 164.398 268.76 164.018 268.5C163.638 268.24 163.048 268.11 162.248 268.11H161.813V266.385H162.248C163.668 266.385 164.378 265.91 164.378 264.96C164.378 264.53 164.248 264.195 163.988 263.955C163.738 263.715 163.373 263.595 162.893 263.595C162.423 263.595 162.058 263.725 161.798 263.985C161.548 264.235 161.403 264.555 161.363 264.945H159.308ZM168.258 267.39C168.258 265.66 168.568 264.305 169.188 263.325C169.818 262.345 170.858 261.855 172.308 261.855C173.758 261.855 174.793 262.345 175.413 263.325C176.043 264.305 176.358 265.66 176.358 267.39C176.358 269.13 176.043 270.495 175.413 271.485C174.793 272.475 173.758 272.97 172.308 272.97C170.858 272.97 169.818 272.475 169.188 271.485C168.568 270.495 168.258 269.13 168.258 267.39ZM174.288 267.39C174.288 266.65 174.238 266.03 174.138 265.53C174.048 265.02 173.858 264.605 173.568 264.285C173.288 263.965 172.868 263.805 172.308 263.805C171.748 263.805 171.323 263.965 171.033 264.285C170.753 264.605 170.563 265.02 170.463 265.53C170.373 266.03 170.328 266.65 170.328 267.39C170.328 268.15 170.373 268.79 170.463 269.31C170.553 269.82 170.743 270.235 171.033 270.555C171.323 270.865 171.748 271.02 172.308 271.02C172.868 271.02 173.293 270.865 173.583 270.555C173.873 270.235 174.063 269.82 174.153 269.31C174.243 268.79 174.288 268.15 174.288 267.39ZM183.869 265.89C184.139 265.51 184.509 265.195 184.979 264.945C185.459 264.685 186.004 264.555 186.614 264.555C187.324 264.555 187.964 264.73 188.534 265.08C189.114 265.43 189.569 265.93 189.899 266.58C190.239 267.22 190.409 267.965 190.409 268.815C190.409 269.665 190.239 270.42 189.899 271.08C189.569 271.73 189.114 272.235 188.534 272.595C187.964 272.955 187.324 273.135 186.614 273.135C186.004 273.135 185.464 273.01 184.994 272.76C184.534 272.51 184.159 272.195 183.869 271.815V276.96H181.769V264.69H183.869V265.89ZM188.264 268.815C188.264 268.315 188.159 267.885 187.949 267.525C187.749 267.155 187.479 266.875 187.139 266.685C186.809 266.495 186.449 266.4 186.059 266.4C185.679 266.4 185.319 266.5 184.979 266.7C184.649 266.89 184.379 267.17 184.169 267.54C183.969 267.91 183.869 268.345 183.869 268.845C183.869 269.345 183.969 269.78 184.169 270.15C184.379 270.52 184.649 270.805 184.979 271.005C185.319 271.195 185.679 271.29 186.059 271.29C186.449 271.29 186.809 271.19 187.139 270.99C187.479 270.79 187.749 270.505 187.949 270.135C188.159 269.765 188.264 269.325 188.264 268.815ZM202.255 264.57C203.275 264.57 204.095 264.885 204.715 265.515C205.345 266.135 205.66 267.005 205.66 268.125V273H203.56V268.41C203.56 267.76 203.395 267.265 203.065 266.925C202.735 266.575 202.285 266.4 201.715 266.4C201.145 266.4 200.69 266.575 200.35 266.925C200.02 267.265 199.855 267.76 199.855 268.41V273H197.755V268.41C197.755 267.76 197.59 267.265 197.26 266.925C196.93 266.575 196.48 266.4 195.91 266.4C195.33 266.4 194.87 266.575 194.53 266.925C194.2 267.265 194.035 267.76 194.035 268.41V273H191.935V264.69H194.035V265.695C194.305 265.345 194.65 265.07 195.07 264.87C195.5 264.67 195.97 264.57 196.48 264.57C197.13 264.57 197.71 264.71 198.22 264.99C198.73 265.26 199.125 265.65 199.405 266.16C199.675 265.68 200.065 265.295 200.575 265.005C201.095 264.715 201.655 264.57 202.255 264.57Z" fill="white"/>
<path d="M90.24 321.456V341H86.32V328.288L81.084 341H78.116L72.852 328.288V341H68.932V321.456H73.384L79.6 335.988L85.816 321.456H90.24ZM93.1076 333.188C93.1076 331.62 93.4156 330.229 94.0316 329.016C94.6663 327.803 95.5156 326.869 96.5796 326.216C97.6623 325.563 98.8663 325.236 100.192 325.236C101.349 325.236 102.357 325.469 103.216 325.936C104.093 326.403 104.793 326.991 105.316 327.7V325.488H109.264V341H105.316V338.732C104.812 339.46 104.112 340.067 103.216 340.552C102.338 341.019 101.321 341.252 100.164 341.252C98.8569 341.252 97.6623 340.916 96.5796 340.244C95.5156 339.572 94.6663 338.629 94.0316 337.416C93.4156 336.184 93.1076 334.775 93.1076 333.188ZM105.316 333.244C105.316 332.292 105.129 331.48 104.756 330.808C104.382 330.117 103.878 329.595 103.244 329.24C102.609 328.867 101.928 328.68 101.2 328.68C100.472 328.68 99.7996 328.857 99.1836 329.212C98.5676 329.567 98.0636 330.089 97.6716 330.78C97.2983 331.452 97.1116 332.255 97.1116 333.188C97.1116 334.121 97.2983 334.943 97.6716 335.652C98.0636 336.343 98.5676 336.875 99.1836 337.248C99.8183 337.621 100.49 337.808 101.2 337.808C101.928 337.808 102.609 337.631 103.244 337.276C103.878 336.903 104.382 336.38 104.756 335.708C105.129 335.017 105.316 334.196 105.316 333.244ZM119.168 325.236C120.325 325.236 121.343 325.469 122.22 325.936C123.097 326.384 123.788 326.972 124.292 327.7V325.488H128.24V341.112C128.24 342.549 127.951 343.828 127.372 344.948C126.793 346.087 125.925 346.983 124.768 347.636C123.611 348.308 122.211 348.644 120.568 348.644C118.365 348.644 116.555 348.131 115.136 347.104C113.736 346.077 112.943 344.677 112.756 342.904H116.648C116.853 343.613 117.292 344.173 117.964 344.584C118.655 345.013 119.485 345.228 120.456 345.228C121.595 345.228 122.519 344.883 123.228 344.192C123.937 343.52 124.292 342.493 124.292 341.112V338.704C123.788 339.432 123.088 340.039 122.192 340.524C121.315 341.009 120.307 341.252 119.168 341.252C117.861 341.252 116.667 340.916 115.584 340.244C114.501 339.572 113.643 338.629 113.008 337.416C112.392 336.184 112.084 334.775 112.084 333.188C112.084 331.62 112.392 330.229 113.008 329.016C113.643 327.803 114.492 326.869 115.556 326.216C116.639 325.563 117.843 325.236 119.168 325.236ZM124.292 333.244C124.292 332.292 124.105 331.48 123.732 330.808C123.359 330.117 122.855 329.595 122.22 329.24C121.585 328.867 120.904 328.68 120.176 328.68C119.448 328.68 118.776 328.857 118.16 329.212C117.544 329.567 117.04 330.089 116.648 330.78C116.275 331.452 116.088 332.255 116.088 333.188C116.088 334.121 116.275 334.943 116.648 335.652C117.04 336.343 117.544 336.875 118.16 337.248C118.795 337.621 119.467 337.808 120.176 337.808C120.904 337.808 121.585 337.631 122.22 337.276C122.855 336.903 123.359 336.38 123.732 335.708C124.105 335.017 124.292 334.196 124.292 333.244ZM134.057 323.64C133.366 323.64 132.787 323.425 132.321 322.996C131.873 322.548 131.649 321.997 131.649 321.344C131.649 320.691 131.873 320.149 132.321 319.72C132.787 319.272 133.366 319.048 134.057 319.048C134.747 319.048 135.317 319.272 135.765 319.72C136.231 320.149 136.465 320.691 136.465 321.344C136.465 321.997 136.231 322.548 135.765 322.996C135.317 323.425 134.747 323.64 134.057 323.64ZM135.989 325.488V341H132.069V325.488H135.989ZM138.854 333.244C138.854 331.639 139.18 330.239 139.834 329.044C140.487 327.831 141.392 326.897 142.55 326.244C143.707 325.572 145.032 325.236 146.526 325.236C148.448 325.236 150.035 325.721 151.286 326.692C152.555 327.644 153.404 328.988 153.834 330.724H149.606C149.382 330.052 148.999 329.529 148.458 329.156C147.935 328.764 147.282 328.568 146.498 328.568C145.378 328.568 144.491 328.979 143.838 329.8C143.184 330.603 142.858 331.751 142.858 333.244C142.858 334.719 143.184 335.867 143.838 336.688C144.491 337.491 145.378 337.892 146.498 337.892C148.084 337.892 149.12 337.183 149.606 335.764H153.834C153.404 337.444 152.555 338.779 151.286 339.768C150.016 340.757 148.43 341.252 146.526 341.252C145.032 341.252 143.707 340.925 142.55 340.272C141.392 339.6 140.487 338.667 139.834 337.472C139.18 336.259 138.854 334.849 138.854 333.244ZM169.313 341.252C168.044 341.252 166.905 341.028 165.897 340.58C164.889 340.113 164.087 339.488 163.489 338.704C162.911 337.92 162.593 337.052 162.537 336.1H166.485C166.56 336.697 166.849 337.192 167.353 337.584C167.876 337.976 168.52 338.172 169.285 338.172C170.032 338.172 170.611 338.023 171.021 337.724C171.451 337.425 171.665 337.043 171.665 336.576C171.665 336.072 171.404 335.699 170.881 335.456C170.377 335.195 169.565 334.915 168.445 334.616C167.288 334.336 166.336 334.047 165.589 333.748C164.861 333.449 164.227 332.992 163.685 332.376C163.163 331.76 162.901 330.929 162.901 329.884C162.901 329.025 163.144 328.241 163.629 327.532C164.133 326.823 164.843 326.263 165.757 325.852C166.691 325.441 167.783 325.236 169.033 325.236C170.881 325.236 172.356 325.703 173.457 326.636C174.559 327.551 175.165 328.792 175.277 330.36H171.525C171.469 329.744 171.208 329.259 170.741 328.904C170.293 328.531 169.687 328.344 168.921 328.344C168.212 328.344 167.661 328.475 167.269 328.736C166.896 328.997 166.709 329.361 166.709 329.828C166.709 330.351 166.971 330.752 167.493 331.032C168.016 331.293 168.828 331.564 169.929 331.844C171.049 332.124 171.973 332.413 172.701 332.712C173.429 333.011 174.055 333.477 174.577 334.112C175.119 334.728 175.399 335.549 175.417 336.576C175.417 337.472 175.165 338.275 174.661 338.984C174.176 339.693 173.467 340.253 172.533 340.664C171.619 341.056 170.545 341.252 169.313 341.252ZM187.371 325.264C188.547 325.264 189.592 325.525 190.507 326.048C191.422 326.552 192.131 327.308 192.635 328.316C193.158 329.305 193.419 330.5 193.419 331.9V341H189.499V332.432C189.499 331.2 189.191 330.257 188.575 329.604C187.959 328.932 187.119 328.596 186.055 328.596C184.972 328.596 184.114 328.932 183.479 329.604C182.863 330.257 182.555 331.2 182.555 332.432V341H178.635V320.28H182.555V327.42C183.059 326.748 183.731 326.225 184.571 325.852C185.411 325.46 186.344 325.264 187.371 325.264ZM204.035 341.252C202.542 341.252 201.198 340.925 200.003 340.272C198.808 339.6 197.866 338.657 197.175 337.444C196.503 336.231 196.167 334.831 196.167 333.244C196.167 331.657 196.512 330.257 197.203 329.044C197.912 327.831 198.874 326.897 200.087 326.244C201.3 325.572 202.654 325.236 204.147 325.236C205.64 325.236 206.994 325.572 208.207 326.244C209.42 326.897 210.372 327.831 211.063 329.044C211.772 330.257 212.127 331.657 212.127 333.244C212.127 334.831 211.763 336.231 211.035 337.444C210.326 338.657 209.355 339.6 208.123 340.272C206.91 340.925 205.547 341.252 204.035 341.252ZM204.035 337.836C204.744 337.836 205.407 337.668 206.023 337.332C206.658 336.977 207.162 336.455 207.535 335.764C207.908 335.073 208.095 334.233 208.095 333.244C208.095 331.769 207.703 330.64 206.919 329.856C206.154 329.053 205.211 328.652 204.091 328.652C202.971 328.652 202.028 329.053 201.263 329.856C200.516 330.64 200.143 331.769 200.143 333.244C200.143 334.719 200.507 335.857 201.235 336.66C201.982 337.444 202.915 337.836 204.035 337.836ZM236.506 325.488L231.97 341H227.742L224.914 330.164L222.086 341H217.83L213.266 325.488H217.242L219.986 337.304L222.954 325.488H227.098L230.01 337.276L232.754 325.488H236.506Z" fill="white"/>
<path d="M69.625 357.21C68.625 356.69 68.125 355.885 68.125 354.795C68.125 354.255 68.26 353.765 68.53 353.325C68.81 352.875 69.225 352.52 69.775 352.26C70.335 351.99 71.015 351.855 71.815 351.855C72.615 351.855 73.29 351.99 73.84 352.26C74.4 352.52 74.815 352.875 75.085 353.325C75.365 353.765 75.505 354.255 75.505 354.795C75.505 355.345 75.37 355.83 75.1 356.25C74.83 356.66 74.47 356.98 74.02 357.21C74.57 357.45 75 357.8 75.31 358.26C75.62 358.72 75.775 359.265 75.775 359.895C75.775 360.575 75.6 361.17 75.25 361.68C74.91 362.18 74.44 362.565 73.84 362.835C73.24 363.105 72.565 363.24 71.815 363.24C71.065 363.24 70.39 363.105 69.79 362.835C69.2 362.565 68.73 362.18 68.38 361.68C68.04 361.17 67.87 360.575 67.87 359.895C67.87 359.265 68.025 358.72 68.335 358.26C68.645 357.79 69.075 357.44 69.625 357.21ZM73.465 355.095C73.465 354.605 73.315 354.225 73.015 353.955C72.725 353.685 72.325 353.55 71.815 353.55C71.315 353.55 70.915 353.685 70.615 353.955C70.325 354.225 70.18 354.61 70.18 355.11C70.18 355.56 70.33 355.92 70.63 356.19C70.94 356.46 71.335 356.595 71.815 356.595C72.295 356.595 72.69 356.46 73 356.19C73.31 355.91 73.465 355.545 73.465 355.095ZM71.815 358.125C71.245 358.125 70.78 358.27 70.42 358.56C70.07 358.85 69.895 359.265 69.895 359.805C69.895 360.305 70.065 360.715 70.405 361.035C70.755 361.345 71.225 361.5 71.815 361.5C72.405 361.5 72.87 361.34 73.21 361.02C73.55 360.7 73.72 360.295 73.72 359.805C73.72 359.275 73.545 358.865 73.195 358.575C72.845 358.275 72.385 358.125 71.815 358.125ZM78.6037 363.105C78.2237 363.105 77.9087 362.99 77.6587 362.76C77.4187 362.52 77.2987 362.225 77.2987 361.875C77.2987 361.525 77.4187 361.235 77.6587 361.005C77.9087 360.765 78.2237 360.645 78.6037 360.645C78.9737 360.645 79.2787 360.765 79.5187 361.005C79.7587 361.235 79.8787 361.525 79.8787 361.875C79.8787 362.225 79.7587 362.52 79.5187 362.76C79.2787 362.99 78.9737 363.105 78.6037 363.105ZM78.6037 356.895C78.2237 356.895 77.9087 356.78 77.6587 356.55C77.4187 356.31 77.2987 356.015 77.2987 355.665C77.2987 355.315 77.4187 355.025 77.6587 354.795C77.9087 354.555 78.2237 354.435 78.6037 354.435C78.9737 354.435 79.2787 354.555 79.5187 354.795C79.7587 355.025 79.8787 355.315 79.8787 355.665C79.8787 356.015 79.7587 356.31 79.5187 356.55C79.2787 356.78 78.9737 356.895 78.6037 356.895ZM81.4041 354.945C81.4541 353.945 81.8041 353.175 82.4541 352.635C83.1141 352.085 83.9791 351.81 85.0491 351.81C85.7791 351.81 86.4041 351.94 86.9241 352.2C87.4441 352.45 87.8341 352.795 88.0941 353.235C88.3641 353.665 88.4991 354.155 88.4991 354.705C88.4991 355.335 88.3341 355.87 88.0041 356.31C87.6841 356.74 87.2991 357.03 86.8491 357.18V357.24C87.4291 357.42 87.8791 357.74 88.1991 358.2C88.5291 358.66 88.6941 359.25 88.6941 359.97C88.6941 360.57 88.5541 361.105 88.2741 361.575C88.0041 362.045 87.5991 362.415 87.0591 362.685C86.5291 362.945 85.8891 363.075 85.1391 363.075C84.0091 363.075 83.0891 362.79 82.3791 362.22C81.6691 361.65 81.2941 360.81 81.2541 359.7H83.2941C83.3141 360.19 83.4791 360.585 83.7891 360.885C84.1091 361.175 84.5441 361.32 85.0941 361.32C85.6041 361.32 85.9941 361.18 86.2641 360.9C86.5441 360.61 86.6841 360.24 86.6841 359.79C86.6841 359.19 86.4941 358.76 86.1141 358.5C85.7341 358.24 85.1441 358.11 84.3441 358.11H83.9091V356.385H84.3441C85.7641 356.385 86.4741 355.91 86.4741 354.96C86.4741 354.53 86.3441 354.195 86.0841 353.955C85.8341 353.715 85.4691 353.595 84.9891 353.595C84.5191 353.595 84.1541 353.725 83.8941 353.985C83.6441 354.235 83.4991 354.555 83.4591 354.945H81.4041ZM90.3536 357.39C90.3536 355.66 90.6636 354.305 91.2836 353.325C91.9136 352.345 92.9536 351.855 94.4036 351.855C95.8536 351.855 96.8886 352.345 97.5086 353.325C98.1386 354.305 98.4536 355.66 98.4536 357.39C98.4536 359.13 98.1386 360.495 97.5086 361.485C96.8886 362.475 95.8536 362.97 94.4036 362.97C92.9536 362.97 91.9136 362.475 91.2836 361.485C90.6636 360.495 90.3536 359.13 90.3536 357.39ZM96.3836 357.39C96.3836 356.65 96.3336 356.03 96.2336 355.53C96.1436 355.02 95.9536 354.605 95.6636 354.285C95.3836 353.965 94.9636 353.805 94.4036 353.805C93.8436 353.805 93.4186 353.965 93.1286 354.285C92.8486 354.605 92.6586 355.02 92.5586 355.53C92.4686 356.03 92.4236 356.65 92.4236 357.39C92.4236 358.15 92.4686 358.79 92.5586 359.31C92.6486 359.82 92.8386 360.235 93.1286 360.555C93.4186 360.865 93.8436 361.02 94.4036 361.02C94.9636 361.02 95.3886 360.865 95.6786 360.555C95.9686 360.235 96.1586 359.82 96.2486 359.31C96.3386 358.79 96.3836 358.15 96.3836 357.39ZM105.965 355.89C106.235 355.51 106.605 355.195 107.075 354.945C107.555 354.685 108.1 354.555 108.71 354.555C109.42 354.555 110.06 354.73 110.63 355.08C111.21 355.43 111.665 355.93 111.995 356.58C112.335 357.22 112.505 357.965 112.505 358.815C112.505 359.665 112.335 360.42 111.995 361.08C111.665 361.73 111.21 362.235 110.63 362.595C110.06 362.955 109.42 363.135 108.71 363.135C108.1 363.135 107.56 363.01 107.09 362.76C106.63 362.51 106.255 362.195 105.965 361.815V366.96H103.865V354.69H105.965V355.89ZM110.36 358.815C110.36 358.315 110.255 357.885 110.045 357.525C109.845 357.155 109.575 356.875 109.235 356.685C108.905 356.495 108.545 356.4 108.155 356.4C107.775 356.4 107.415 356.5 107.075 356.7C106.745 356.89 106.475 357.17 106.265 357.54C106.065 357.91 105.965 358.345 105.965 358.845C105.965 359.345 106.065 359.78 106.265 360.15C106.475 360.52 106.745 360.805 107.075 361.005C107.415 361.195 107.775 361.29 108.155 361.29C108.545 361.29 108.905 361.19 109.235 360.99C109.575 360.79 109.845 360.505 110.045 360.135C110.255 359.765 110.36 359.325 110.36 358.815ZM124.351 354.57C125.371 354.57 126.191 354.885 126.811 355.515C127.441 356.135 127.756 357.005 127.756 358.125V363H125.656V358.41C125.656 357.76 125.491 357.265 125.161 356.925C124.831 356.575 124.381 356.4 123.811 356.4C123.241 356.4 122.786 356.575 122.446 356.925C122.116 357.265 121.951 357.76 121.951 358.41V363H119.851V358.41C119.851 357.76 119.686 357.265 119.356 356.925C119.026 356.575 118.576 356.4 118.006 356.4C117.426 356.4 116.966 356.575 116.626 356.925C116.296 357.265 116.131 357.76 116.131 358.41V363H114.031V354.69H116.131V355.695C116.401 355.345 116.746 355.07 117.166 354.87C117.596 354.67 118.066 354.57 118.576 354.57C119.226 354.57 119.806 354.71 120.316 354.99C120.826 355.26 121.221 355.65 121.501 356.16C121.771 355.68 122.161 355.295 122.671 355.005C123.191 354.715 123.751 354.57 124.351 354.57ZM139.713 356.76V358.53H133.353V356.76H139.713ZM147.832 359.925C147.912 360.365 148.092 360.705 148.372 360.945C148.662 361.175 149.047 361.29 149.527 361.29C150.147 361.29 150.597 361.035 150.877 360.525C151.157 360.005 151.297 359.135 151.297 357.915C151.067 358.235 150.742 358.485 150.322 358.665C149.912 358.845 149.467 358.935 148.987 358.935C148.347 358.935 147.767 358.805 147.247 358.545C146.737 358.275 146.332 357.88 146.032 357.36C145.732 356.83 145.582 356.19 145.582 355.44C145.582 354.33 145.912 353.45 146.572 352.8C147.232 352.14 148.132 351.81 149.272 351.81C150.692 351.81 151.692 352.265 152.272 353.175C152.862 354.085 153.157 355.455 153.157 357.285C153.157 358.585 153.042 359.65 152.812 360.48C152.592 361.31 152.207 361.94 151.657 362.37C151.117 362.8 150.377 363.015 149.437 363.015C148.697 363.015 148.067 362.875 147.547 362.595C147.027 362.305 146.627 361.93 146.347 361.47C146.077 361 145.922 360.485 145.882 359.925H147.832ZM149.422 357.225C149.942 357.225 150.352 357.065 150.652 356.745C150.952 356.425 151.102 355.995 151.102 355.455C151.102 354.865 150.942 354.41 150.622 354.09C150.312 353.76 149.887 353.595 149.347 353.595C148.807 353.595 148.377 353.765 148.057 354.105C147.747 354.435 147.592 354.875 147.592 355.425C147.592 355.955 147.742 356.39 148.042 356.73C148.352 357.06 148.812 357.225 149.422 357.225ZM155.962 363.105C155.582 363.105 155.267 362.99 155.017 362.76C154.777 362.52 154.657 362.225 154.657 361.875C154.657 361.525 154.777 361.235 155.017 361.005C155.267 360.765 155.582 360.645 155.962 360.645C156.332 360.645 156.637 360.765 156.877 361.005C157.117 361.235 157.237 361.525 157.237 361.875C157.237 362.225 157.117 362.52 156.877 362.76C156.637 362.99 156.332 363.105 155.962 363.105ZM155.962 356.895C155.582 356.895 155.267 356.78 155.017 356.55C154.777 356.31 154.657 356.015 154.657 355.665C154.657 355.315 154.777 355.025 155.017 354.795C155.267 354.555 155.582 354.435 155.962 354.435C156.332 354.435 156.637 354.555 156.877 354.795C157.117 355.025 157.237 355.315 157.237 355.665C157.237 356.015 157.117 356.31 156.877 356.55C156.637 356.78 156.332 356.895 155.962 356.895ZM158.763 354.945C158.813 353.945 159.163 353.175 159.812 352.635C160.473 352.085 161.338 351.81 162.408 351.81C163.138 351.81 163.763 351.94 164.283 352.2C164.803 352.45 165.193 352.795 165.453 353.235C165.723 353.665 165.857 354.155 165.857 354.705C165.857 355.335 165.693 355.87 165.363 356.31C165.043 356.74 164.658 357.03 164.208 357.18V357.24C164.788 357.42 165.238 357.74 165.558 358.2C165.888 358.66 166.053 359.25 166.053 359.97C166.053 360.57 165.913 361.105 165.633 361.575C165.363 362.045 164.958 362.415 164.418 362.685C163.888 362.945 163.248 363.075 162.498 363.075C161.368 363.075 160.448 362.79 159.738 362.22C159.028 361.65 158.653 360.81 158.613 359.7H160.653C160.673 360.19 160.838 360.585 161.148 360.885C161.468 361.175 161.903 361.32 162.453 361.32C162.963 361.32 163.353 361.18 163.623 360.9C163.903 360.61 164.043 360.24 164.043 359.79C164.043 359.19 163.853 358.76 163.473 358.5C163.093 358.24 162.503 358.11 161.703 358.11H161.268V356.385H161.703C163.123 356.385 163.833 355.91 163.833 354.96C163.833 354.53 163.703 354.195 163.443 353.955C163.193 353.715 162.828 353.595 162.347 353.595C161.878 353.595 161.513 353.725 161.253 353.985C161.003 354.235 160.858 354.555 160.818 354.945H158.763ZM167.712 357.39C167.712 355.66 168.022 354.305 168.642 353.325C169.272 352.345 170.312 351.855 171.762 351.855C173.212 351.855 174.247 352.345 174.867 353.325C175.497 354.305 175.812 355.66 175.812 357.39C175.812 359.13 175.497 360.495 174.867 361.485C174.247 362.475 173.212 362.97 171.762 362.97C170.312 362.97 169.272 362.475 168.642 361.485C168.022 360.495 167.712 359.13 167.712 357.39ZM173.742 357.39C173.742 356.65 173.692 356.03 173.592 355.53C173.502 355.02 173.312 354.605 173.022 354.285C172.742 353.965 172.322 353.805 171.762 353.805C171.202 353.805 170.777 353.965 170.487 354.285C170.207 354.605 170.017 355.02 169.917 355.53C169.827 356.03 169.782 356.65 169.782 357.39C169.782 358.15 169.827 358.79 169.917 359.31C170.007 359.82 170.197 360.235 170.487 360.555C170.777 360.865 171.202 361.02 171.762 361.02C172.322 361.02 172.747 360.865 173.037 360.555C173.327 360.235 173.517 359.82 173.607 359.31C173.697 358.79 173.742 358.15 173.742 357.39ZM183.323 355.89C183.593 355.51 183.963 355.195 184.433 354.945C184.913 354.685 185.458 354.555 186.068 354.555C186.778 354.555 187.418 354.73 187.988 355.08C188.568 355.43 189.023 355.93 189.353 356.58C189.693 357.22 189.863 357.965 189.863 358.815C189.863 359.665 189.693 360.42 189.353 361.08C189.023 361.73 188.568 362.235 187.988 362.595C187.418 362.955 186.778 363.135 186.068 363.135C185.458 363.135 184.918 363.01 184.448 362.76C183.988 362.51 183.613 362.195 183.323 361.815V366.96H181.223V354.69H183.323V355.89ZM187.718 358.815C187.718 358.315 187.613 357.885 187.403 357.525C187.203 357.155 186.933 356.875 186.593 356.685C186.263 356.495 185.903 356.4 185.513 356.4C185.133 356.4 184.773 356.5 184.433 356.7C184.103 356.89 183.833 357.17 183.623 357.54C183.423 357.91 183.323 358.345 183.323 358.845C183.323 359.345 183.423 359.78 183.623 360.15C183.833 360.52 184.103 360.805 184.433 361.005C184.773 361.195 185.133 361.29 185.513 361.29C185.903 361.29 186.263 361.19 186.593 360.99C186.933 360.79 187.203 360.505 187.403 360.135C187.613 359.765 187.718 359.325 187.718 358.815ZM201.709 354.57C202.729 354.57 203.549 354.885 204.169 355.515C204.799 356.135 205.114 357.005 205.114 358.125V363H203.014V358.41C203.014 357.76 202.849 357.265 202.519 356.925C202.189 356.575 201.739 356.4 201.169 356.4C200.599 356.4 200.144 356.575 199.804 356.925C199.474 357.265 199.309 357.76 199.309 358.41V363H197.209V358.41C197.209 357.76 197.044 357.265 196.714 356.925C196.384 356.575 195.934 356.4 195.364 356.4C194.784 356.4 194.324 356.575 193.984 356.925C193.654 357.265 193.489 357.76 193.489 358.41V363H191.389V354.69H193.489V355.695C193.759 355.345 194.104 355.07 194.524 354.87C194.954 354.67 195.424 354.57 195.934 354.57C196.584 354.57 197.164 354.71 197.674 354.99C198.184 355.26 198.579 355.65 198.859 356.16C199.129 355.68 199.519 355.295 200.029 355.005C200.549 354.715 201.109 354.57 201.709 354.57Z" fill="white"/>
</g>
<defs>
<filter id="filter0_d_391_17" x="0" y="0" width="361" height="519" filterUnits="userSpaceOnUse" color-interpolation-filters="sRGB">
<feFlood flood-opacity="0" result="BackgroundImageFix"/>
<feColorMatrix in="SourceAlpha" type="matrix" values="0 0 0 0 0 0 0 0 0 0 0 0 0 0 0 0 0 0 127 0" result="hardAlpha"/>
<feOffset dy="10"/>
<feGaussianBlur stdDeviation="6"/>
<feComposite in2="hardAlpha" operator="out"/>
<feColorMatrix type="matrix" values="0 0 0 0 0 0 0 0 0 0 0 0 0 0 0 0 0 0 0.25 0"/>
<feBlend mode="normal" in2="BackgroundImageFix" result="effect1_dropShadow_391_17"/>
<feBlend mode="normal" in="SourceGraphic" in2="effect1_dropShadow_391_17" result="shape"/>
</filter>
</defs>
</svg>
